<?xml version="1.0" encoding="utf-8"?>
<!-- Generator: Adobe Illustrator 16.0.0, SVG Export Plug-In . SVG Version: 6.00 Build 0)  -->
<!DOCTYPE svg PUBLIC "-//W3C//DTD SVG 1.1//EN" "http://www.w3.org/Graphics/SVG/1.1/DTD/svg11.dtd">
<svg version="1.1" id="图层_1" xmlns="http://www.w3.org/2000/svg" xmlns:xlink="http://www.w3.org/1999/xlink" x="0px" y="0px"
	 width="498.898px" height="153.07px" viewBox="0 0 498.898 153.07" enable-background="new 0 0 498.898 153.07"
	 xml:space="preserve">
<g>
	<path d="M199.895,21.493v20.614h-3.57V25.459h-6.735v15.462l-4.363-2.776l-12.53,15.857l-5.311,7.533l5.945,3.967l3.565-5.153
		h0.396v34.096h8.724V63.52l0.229-13.879l2.948-4.757h0.394v2.774h27.749v-22.2h-6.737v16.646h-3.565V21.494L199.895,21.493
		L199.895,21.493z"/>
	<path d="M183.244,22.285c-2.02,3.058-4.464,5.854-6.736,8.725l-4.357,5.55c-1.092,1.361-3.354,3.333-3.553,5.15
		c-0.2,1.813,3.443,4.537,5.096,3.67c1.598-0.833,2.792-3.072,3.865-4.458c2.573-3.331,5.199-6.625,7.832-9.911
		c0.932-1.167,3.174-3.105,2.999-4.742C188.182,24.323,184.872,22.708,183.244,22.285z"/>
	<path d="M342.226,23.477v5.154h61.449v-5.154H342.226z"/>
	<path d="M232.011,23.872c-1.854-0.627-7.558-2.646-9.295-1.536c-1.115,0.713-1.188,3.138-1.461,4.313
		c-0.938,4.088-1.676,8.226-2.729,12.289h24.582v-5.153h-13.478L232.011,23.872z"/>
	<path d="M325.969,53.212l-9.914-10.31v-0.396c2.502-1.796,7.016-5.813,8.09-8.721c1.207-3.269,0.231-8.421,0.231-11.896h-28.935
		v5.55h19.024c0,2.23-1.321,9.587-5.153,7.676c-2.146-1.07-4.15-6.003-6.738-5.727c-1.051,0.111-2.018,1.144-2.778,1.787
		c-4.862,4.146,0.192,8.386,4.366,11.327V42.9l-9.379,10.704l5.408,5.552h0.401c1.888-1.894,6.804-9.098,9.513-9.098
		c1.233,0,7.26,6.648,9.119,9.098l-62.643,1.981v5.55l28.546-0.792v28.546h10.31V80.957l27.352,13.088l3.168-7.928l-13.477-6.343
		v-0.796l9.908-5.152l-3.169-6.741c-6.058,2.523-12.978,9.666-19.431,6.443c-1.523-0.768-3.745-1.449-4.23-3.289
		c-0.392-1.457-0.121-3.239-0.121-4.737l27.352-0.796v-5.548h-2.771l5.94-5.551v-0.396L325.969,53.212L325.969,53.212z"/>
	<path d="M279.187,58.758h9.912v-4.356l4.756-0.399l-0.396-5.55l-4.36,0.396V27.441h3.963V21.89h-39.24v5.551h3.959v23.787h-4.358
		l0.399,5.553l25.373-1.587v3.563H279.187z M267.294,50.434v-3.966h10.702v-5.55h-10.702v-3.965h10.702V31.8h-10.702v-4.363h11.896
		v22.201L267.294,50.434z"/>
	<path d="M226.855,43.3l-7.135,2.38l4.759,14.669l2.234,7.53l-2.234,7.534l-5.549,17.052l7.524,1.98l4.37-13.879h0.395l4.759,13.879
		l7.132-1.98c-1.199-8.098-7.67-16.443-7.67-24.587c0-4.905,3.479-11.207,5.023-15.859c0.53-1.579,1.765-3.813,1.603-5.497
		c-0.189-1.969-5.294-2.709-6.887-3.226l-3.963,11.896h-0.394L226.855,43.3z"/>
	<path d="M189.59,52.814v5.55h28.144v-5.55H189.59z"/>
	<path d="M190.775,62.725l-0.066,19.029l-2.707,11.105l8.728,1.188c2.044-8.943,2.774-16.564,2.774-25.771h6.735v25.771h11.891
		v-5.154h-3.172V62.725H190.775z"/>
	<path d="M253.818,75.81l1.584,6.345c8.861-0.408,19.308-5.187,27.748-7.936l-1.981-6.342L253.818,75.81z"/>
	<path d="M253.783,87.705l1.582,6.34l27.74-8.318l-1.979-6.343C272.253,81.434,262.105,84.018,253.783,87.705z"/>
	<path d="M365.378,56.391c0.25-0.163,0.541-0.294,0.862-0.405h11.271h2.823h28.894v-5.154h-72.549v5.154h17.045l-15.066,38.06
		h68.191c-1.455-9.67-7.968-19.275-11.105-28.544c-2.107,0.315-7.984,1.727-9.063,3.733c-0.754,1.407,0.926,4.064,1.448,5.384
		c1.854,4.64,3.827,9.224,5.634,13.876h-42.021c3.193-7.792,6.453-15.571,9.595-23.391C362.248,62.821,363.23,57.772,365.378,56.391
		z"/>
</g>
<g>
	<path d="M186.321,136.833h-3.542l-2.514-7.847c-0.286-0.928-0.537-1.769-0.763-2.587c-0.267,0.971-0.542,1.843-0.798,2.625
		l-2.646,7.812h-3.543l-5.074-16.812h4.303l2.216,8.346c0.066,0.277,0.134,0.557,0.199,0.829c0.128,0.524,0.254,1.044,0.372,1.548
		c0.193-0.666,0.396-1.339,0.607-2.032l0.106-0.359l2.676-8.329h3.354l2.544,8.211c0.266,0.832,0.504,1.643,0.721,2.437
		c0.199-0.813,0.421-1.612,0.639-2.391l2.344-8.257h4.214L186.321,136.833z"/>
	<path d="M210.094,122.516c-1.235-1.887-3.186-2.881-5.637-2.881c-4.687,0-7.96,3.725-7.96,9.047c0,2.479,0.767,4.588,2.217,6.103
		c1.481,1.549,3.58,2.368,6.063,2.368c2.583,0,4.391-0.572,5.455-1.052l0.515-0.232l0.008-3.651l-1.564,0.663
		c-0.873,0.356-2.035,0.721-4.028,0.721c-1.279,0-4.17-0.409-4.555-4.02l10.666,0.036l0.109-0.547c0.07-0.363,0.11-0.848,0.11-1.471
		C211.489,126.709,211.352,124.445,210.094,122.516z M200.734,126.217c0.294-1.164,1.147-3.216,3.5-3.216
		c0.903,0,1.626,0.275,2.156,0.814c0.698,0.712,0.932,1.709,1.004,2.399L200.734,126.217L200.734,126.217z"/>
	<path d="M227.395,119.668c-1.872,0-3.476,0.578-4.661,1.653v-8.522h-4.161v19.365c0,0.956-0.015,2.735-0.122,3.934l-0.069,0.735
		h3.807l0.09-1.457c1.188,1.204,2.755,1.809,4.679,1.809c2.003,0,3.874-0.809,5.266-2.279c1.552-1.636,2.377-3.955,2.377-6.703
		C234.588,123.175,231.631,119.668,227.395,119.668z M229.301,132.217c-0.703,0.916-1.688,1.381-2.928,1.381
		c-1.687,0-3.081-1.089-3.561-2.773c-0.05-0.267-0.079-0.563-0.079-0.864v-2.779c0-0.35,0.044-0.668,0.137-1.004v-0.012
		c0.446-1.732,1.928-2.947,3.599-2.947c2.895,0,3.925,2.753,3.925,5.109C230.397,129.946,230.016,131.288,229.301,132.217z"/>
	<path d="M245.671,137.183c-1.7,0-3.413-0.435-4.685-1.182l-0.465-0.273v-3.208c0,0,3.944,1.202,5.219,1.202
		c0.854,0,2.295-0.208,2.295-1.621c0-0.871-0.369-1.451-2.403-2.215c-3.022-1.099-4.559-2.786-4.559-5.008
		c0-3.021,2.527-5.212,6.009-5.212c1.569,0,3.117,0.399,4.142,1.068l0.436,0.281v3.402c0,0-3.686-1.328-4.641-1.328
		c-1.158,0-1.878,0.551-1.878,1.436c0,0.762,0.343,1.21,2.472,2.02c2.088,0.782,4.491,2.086,4.491,5.298
		c0,1.577-0.605,2.918-1.765,3.882C249.188,136.68,247.574,137.183,245.671,137.183z"/>
	<path d="M272.414,122.079c-1.479-1.579-3.512-2.411-5.881-2.411c-2.307,0-4.405,0.842-5.905,2.365
		c-1.595,1.613-2.437,3.87-2.437,6.521c0,2.527,0.813,4.699,2.338,6.279c1.467,1.516,3.506,2.35,5.748,2.35h0.035
		c4.018,0,8.34-2.795,8.34-8.922C274.652,125.785,273.88,123.643,272.414,122.079z M266.375,133.723h-0.032
		c-2.293,0-3.959-2.214-3.959-5.266c0-2.653,1.255-5.333,4.056-5.333c3.131,0,3.959,3.426,3.959,5.237
		C270.396,131.469,268.705,133.723,266.375,133.723z"/>
	<path d="M286.216,136.833h-4.159v-13.324h-2.143v-3.491h2.143v-0.057c0-2.589,0.702-4.626,2.032-5.888
		c1.073-1.048,2.567-1.619,4.202-1.619c1.257,0,2.201,0.306,2.65,0.498l-0.078,3.756l-0.797-0.344
		c-0.342-0.147-0.793-0.295-1.553-0.295c-0.641,0-2.328,0-2.328,3.801v0.154h3.737v3.487h-3.709L286.216,136.833L286.216,136.833z"
		/>
	<path d="M301.869,137.183c-1.453,0-2.707-0.5-3.532-1.399l-0.007-0.011c-0.842-0.95-1.258-2.424-1.258-4.504v-7.762h-2.395v-3.491
		h2.395v-3.95h4.101v3.95h4.024v3.493h-4.024v7.667c0,2.15,0.707,2.327,1.437,2.327c0.748,0,1.115-0.065,1.432-0.162l1.029-0.259
		v3.508l-0.479,0.169C304.142,136.92,303.193,137.183,301.869,137.183z"/>
	<path d="M335.191,137.183h-0.033c-1.442,0-2.526-1.154-2.526-2.688c0-1.533,1.112-2.688,2.591-2.688c1.48,0,2.561,1.13,2.561,2.688
		C337.783,136.055,336.695,137.183,335.191,137.183z"/>
	<path d="M352.125,137.183c-5.006,0-8.375-3.457-8.375-8.602c0-5.249,3.693-8.919,8.98-8.919c1.873,0,3.44,0.491,4.221,0.91
		l0.482,0.264v3.58c0,0-2.713-1.304-4.703-1.17c-3.523,0.24-4.787,2.803-4.787,5.203c0,3.059,1.902,4.8,4.688,5.108
		c1.821,0.2,4.71-1.007,4.71-1.007v3.432l-0.488,0.23C355.885,136.686,354.132,137.183,352.125,137.183z"/>
	<path d="M377.046,122.079c-1.478-1.579-3.513-2.411-5.877-2.411c-2.31,0-4.403,0.842-5.91,2.365
		c-1.595,1.613-2.435,3.87-2.435,6.521c0,2.527,0.81,4.699,2.338,6.279c1.466,1.516,3.504,2.35,5.748,2.35h0.033
		c4.019,0,8.344-2.795,8.344-8.922C379.287,125.785,378.513,123.643,377.046,122.079z M371.01,133.723h-0.035
		c-2.291,0-3.957-2.214-3.957-5.266c0-2.653,1.252-5.333,4.053-5.333c3.133,0,3.961,3.426,3.961,5.237
		C375.029,131.469,373.339,133.723,371.01,133.723z"/>
	<path d="M409.894,136.833h-4.099v-9.426c0-2.714-0.903-4.088-2.681-4.088c-1.414,0-2.344,1.108-2.719,2.07
		c-0.117,0.396-0.187,0.825-0.187,1.187v10.26h-4.101v-9.941c0-1.072-0.248-3.573-2.551-3.573c-1.379,0-2.474,1.177-2.84,2.339
		l-0.02,0.041c-0.118,0.302-0.176,0.691-0.176,1.132v10.003h-4.101v-11.954c0-1.61-0.063-2.899-0.127-4.15l-0.034-0.709h3.813
		l0.07,1.41c1.143-1.171,2.623-1.762,4.397-1.762c1.868,0,3.5,0.923,4.455,2.473c0.364-0.457,0.801-0.87,1.303-1.25
		c1.115-0.842,2.281-1.22,3.794-1.22c0.84,0,2.456,0.197,3.811,1.536c1.312,1.297,1.98,3.264,1.98,5.849v9.775L409.894,136.833
		L409.894,136.833z"/>
	<path d="M324.267,117.001c-1.347-1.727-3.267-2.636-5.563-2.636c-2.193,0-4.202,0.862-5.65,2.431
		c-1.382,1.495-2.146,3.483-2.146,5.595c0,4.096,2.863,7.063,6.81,7.063c1.455,0,2.769-0.368,3.871-1.077
		c-0.452,1.295-1.14,2.361-2.058,3.189l-0.02,0.021c-1.041,1.012-2.406,1.646-3.951,1.825h-0.012
		c-0.672,0.093-1.237,0.134-1.733,0.134c-0.137,0-0.275-0.004-0.412-0.013l-0.711-0.037v3.654l0.644,0.032
		c0.118,0.008,0.252,0.012,0.388,0.012c0.609,0,1.412-0.061,2.313-0.175c2.408-0.275,4.754-1.354,6.434-2.969
		c1.725-1.696,3.777-4.854,3.777-10.258C326.253,121.014,325.562,118.667,324.267,117.001z M318.365,125.962
		c-2.035,0-3.688-1.813-3.688-4.053c0-2.241,1.652-4.055,3.688-4.055c2.039,0,3.691,1.813,3.691,4.055
		C322.056,124.148,320.404,125.962,318.365,125.962z"/>
</g>
<linearGradient id="SVGID_1_" gradientUnits="userSpaceOnUse" x1="1812.4714" y1="-2340.3269" x2="1812.4714" y2="-2493.3972" gradientTransform="matrix(1 0 0 -1 -1742.8105 -2340.3276)">
	<stop  offset="0.1" style="stop-color:#52E5E7"/>
	<stop  offset="0.9" style="stop-color:#130CB7"/>
</linearGradient>
<path fill="url(#SVGID_1_)" d="M69.666,136.741l69.658-40.211v7.244c0,7.068-5.019,15.753-11.143,19.289l-47.368,27.354
	c-6.137,3.536-16.167,3.536-22.293,0l-47.375-27.354C5.019,119.527,0,110.843,0,103.774V96.53L69.666,136.741z M128.172,29.763
	L80.805,2.421c-2.178-1.258-4.851-2.06-7.668-2.422v18.105l48.768,28.148l-48.759,28.15v20.108l66.178-38.204v-7.242
	C139.317,42.001,134.305,33.309,128.172,29.763z M66.175,94.519L0,56.314v-7.24c0-7.076,5.019-15.767,11.146-19.305L58.511,2.425
	c2.181-1.254,4.851-2.063,7.666-2.422V18.12L17.432,46.273l48.742,28.137V94.519z M73.139,102.577l66.181-38.205v8.201
	L73.139,110.71V102.577z M73.139,118.525l66.181-38.14v8.064l-66.181,38.208V118.525z"/>
</svg>
