<?xml version="1.0" encoding="utf-8"?>
<!-- Generator: Adobe Illustrator 16.0.0, SVG Export Plug-In . SVG Version: 6.00 Build 0)  -->
<!DOCTYPE svg PUBLIC "-//W3C//DTD SVG 1.1//EN" "http://www.w3.org/Graphics/SVG/1.1/DTD/svg11.dtd">
<svg version="1.1" id="图层_1" xmlns="http://www.w3.org/2000/svg" xmlns:xlink="http://www.w3.org/1999/xlink" x="0px" y="0px"
	 width="272.126px" height="272.126px" viewBox="0 0 272.126 272.126" enable-background="new 0 0 272.126 272.126"
	 xml:space="preserve">
<linearGradient id="SVGID_1_" gradientUnits="userSpaceOnUse" x1="136.063" y1="1.1958" x2="136.063" y2="270.9297">
	<stop  offset="0.1" style="stop-color:#52E5E7"/>
	<stop  offset="0.9" style="stop-color:#130CB7"/>
</linearGradient>
<path fill="url(#SVGID_1_)" d="M136.063,242.158l122.744-70.865v12.756c0,12.473-8.838,27.779-19.639,34.016l-83.467,48.189
	c-10.801,6.235-28.477,6.235-39.277,0l-83.467-48.189c-10.801-6.236-19.639-21.543-19.639-34.016v-12.756L136.063,242.158z
	 M239.168,53.654L155.702,5.464c-3.838-2.215-8.547-3.627-13.502-4.269v31.906l85.922,49.607L142.2,132.316v35.433l116.607-67.323
	V87.669C258.807,75.197,249.969,59.89,239.168,53.654z M129.926,167.749L13.319,100.425V87.669c0-12.473,8.838-27.779,19.639-34.016
	l83.467-48.189c3.836-2.215,8.547-3.627,13.502-4.269v31.921l-85.9,49.615l85.9,49.572V167.749z M142.2,181.949l116.607-67.324
	v14.452L142.2,196.284V181.949z M142.2,210.058l116.607-67.207v14.209L142.2,224.382V210.058z"/>
</svg>
