<?xml version="1.0" encoding="utf-8"?>
<!-- Generator: Adobe Illustrator 16.0.0, SVG Export Plug-In . SVG Version: 6.00 Build 0)  -->
<!DOCTYPE svg PUBLIC "-//W3C//DTD SVG 1.1//EN" "http://www.w3.org/Graphics/SVG/1.1/DTD/svg11.dtd">
<svg version="1.1" id="图层_1" xmlns="http://www.w3.org/2000/svg" xmlns:xlink="http://www.w3.org/1999/xlink" x="0px" y="0px"
	 width="218px" height="82px" viewBox="0 0 218 82" enable-background="new 0 0 218 82" xml:space="preserve">
<linearGradient id="SVGID_1_" gradientUnits="userSpaceOnUse" x1="2082.1123" y1="-1769.5547" x2="2082.1123" y2="-1850.6191" gradientTransform="matrix(1 0 0 -1 -2044.7197 -1769.0869)">
	<stop  offset="0.1" style="stop-color:#52E5E7"/>
	<stop  offset="0.9" style="stop-color:#130CB7"/>
</linearGradient>
<path fill="url(#SVGID_1_)" d="M37.395,72.885l36.891-21.296v3.836c0,3.744-2.658,8.344-5.901,10.216L43.298,80.128
	c-3.249,1.872-8.562,1.872-11.806,0L6.403,65.641C3.157,63.769,0.5,59.169,0.5,55.425v-3.836L37.395,72.885z M68.38,16.23
	L43.294,1.75c-1.153-0.666-2.568-1.09-4.061-1.283v9.588l25.827,14.908L39.237,39.871v10.65l35.048-20.234v-3.834
	C74.281,22.712,71.627,18.108,68.38,16.23z M35.546,50.525L0.5,30.291v-3.833c0-3.748,2.657-8.35,5.903-10.223L31.486,1.752
	c1.156-0.664,2.569-1.091,4.06-1.282v9.594L9.732,24.973l25.813,14.902V50.525z M39.233,54.792l35.05-20.232v4.343l-35.05,20.196
	V54.792z M39.233,63.239l35.05-20.199v4.271l-35.05,20.234V63.239z"/>
<path fill="#2858C8" d="M110.144,11.851v10.917h1.888v-8.817h3.57v11.757h-14.697v-1.47h-0.208l-1.562,2.519l-0.12,7.35v16.376
	h-4.619V32.427h-0.211l-1.888,2.729l-3.149-2.099l2.813-3.99l6.634-8.398l2.311,1.471v-8.188h3.568v8.817h1.891V11.851H110.144z
	 M97.545,12.27c-1.07,1.62-2.365,3.1-3.568,4.621l-2.309,2.938c-0.579,0.722-1.775,1.766-1.882,2.728
	c-0.106,0.96,1.825,2.403,2.7,1.945c0.845-0.442,1.478-1.628,2.046-2.362c1.363-1.763,2.754-3.509,4.146-5.249
	c0.494-0.619,1.681-1.645,1.589-2.512C100.159,13.35,98.406,12.495,97.545,12.27z M181.739,12.901v2.73h32.543v-2.73H181.739z
	 M123.37,13.11c-0.982-0.332-4.001-1.401-4.921-0.813c-0.591,0.377-0.631,1.662-0.774,2.284c-0.498,2.165-0.887,4.358-1.444,6.509
	h13.017V18.36h-7.137L123.37,13.11z M173.129,28.648l-5.25-5.459v-0.21c1.326-0.951,3.716-3.08,4.286-4.618
	c0.638-1.731,0.123-4.46,0.123-6.299h-15.323V15h10.075c0,1.18-0.699,5.077-2.729,4.065c-1.137-0.567-2.198-3.18-3.568-3.033
	c-0.556,0.06-1.07,0.606-1.472,0.947c-2.577,2.195,0.102,4.441,2.311,5.999v0.21l-3.988,3.988l-0.977,1.681l2.864,2.939h0.213
	c0.999-1.002,3.601-4.818,5.037-4.818c0.654,0,1.147,0.819,1.53,1.248c1.078,1.217,2.313,2.273,3.3,3.57l-33.175,1.05v2.938
	l15.118-0.419v15.117h5.46v-7.14l14.484,6.93l1.68-4.198l-7.138-3.36v-0.421l5.248-2.729l-1.678-3.57
	c-3.208,1.335-6.872,5.119-10.29,3.412c-0.808-0.405-1.984-0.767-2.242-1.741c-0.206-0.771-0.064-1.715-0.064-2.51l14.484-0.42
	v-2.938h-1.468l3.147-2.939V28.648z M148.354,29.698l-13.435,0.839l-0.213-2.939h2.309V15h-2.096v-2.939h20.783V15h-2.099v11.337
	l2.31-0.209l0.21,2.939l-2.52,0.21v2.309h-5.25V29.698z M148.354,26.758V15h-6.299v2.31h5.668v2.73h-5.668v2.1h5.668v2.938h-5.668
	v2.099L148.354,26.758z M120.639,23.399l-3.778,1.259l2.52,7.769l1.182,3.989l-1.182,3.989l-2.938,9.03l3.986,1.049l2.313-7.348
	h0.208l2.52,7.348l3.778-1.049c-0.633-4.288-4.062-8.706-4.062-13.019c0-2.598,1.842-5.934,2.662-8.398
	c0.281-0.836,0.933-2.019,0.848-2.912c-0.101-1.042-2.805-1.433-3.647-1.707l-2.099,6.299h-0.208L120.639,23.399z M178.8,27.387
	v2.73h9.028l-7.979,20.156h36.113c-0.77-5.121-4.219-10.207-5.881-15.118c-1.117,0.168-4.229,0.915-4.8,1.978
	c-0.399,0.745,0.491,2.153,0.769,2.851c0.982,2.456,2.027,4.885,2.982,7.348h-22.253c1.692-4.126,3.418-8.245,5.081-12.386
	c0.483-1.21,1.004-3.882,2.138-4.613c1.354-0.873,4.834-0.215,6.427-0.215h16.797v-2.73H178.8z M100.904,28.438v2.939h14.905v-2.939
	H100.904z M101.533,33.687l-0.035,10.078l-1.435,5.881l4.621,0.629c1.083-4.738,1.47-8.772,1.47-13.648h3.568v13.648h6.297v-2.731
	h-1.678V33.687H101.533z M134.92,40.616l0.839,3.359c4.693-0.215,10.223-2.744,14.694-4.199l-1.049-3.36L134.92,40.616z
	 M134.901,46.916l0.839,3.358l14.688-4.407l-1.049-3.358C144.682,43.594,139.309,44.963,134.901,46.916z M150.189,64.054h-1.252
	v1.882h1.252v6.688h2.094v-6.688h1.671v-1.882h-1.671c0.242-1.207,0.892-1.632,2.09-1.671V60.71
	C151.829,60.71,150.217,61.191,150.189,64.054 M159.18,62.174v1.88h-1.254v1.882h1.254c0,3.36-0.777,7.567,3.974,6.688v-1.67
	c-2.651-0.031-1.88-3.058-1.88-5.019h1.88v-1.882h-1.88v-1.88H159.18z M173.915,68.654c-0.655,3.009-3.093,4.172-5.955,4.181v-1.88
	c1.853-0.081,3.208-0.768,3.974-2.511c-5.591,2.692-7.678-6.162-2.09-6.834C173.989,61.115,174.582,65.596,173.915,68.654z
	 M169.643,63.582c-1.979,0.794-1.018,4.456,1.242,3.629C173.112,66.392,171.896,62.682,169.643,63.582z M89.147,64.054l2.091,8.57
	c0.703,0,1.978,0.245,2.566-0.213c1.036-0.807,1.505-4.378,1.614-5.639h0.21c0.133,1.636,0.968,7.692,3.865,5.639
	c0.578-0.413,0.645-1.451,0.823-2.083c0.563-2.04,1.409-4.16,1.583-6.274c-2.931,0-3.233,3.269-3.345,5.854h-0.419
	c-0.12-1.46-0.999-7.595-3.644-5.636c-1.045,0.769-1.482,4.392-1.584,5.636C91.508,67.476,92.652,64.054,89.147,64.054
	 M127.613,70.745c0.013,2.975,5.392,2.763,6.049,0.21c0.35-1.366-0.131-2.681-1.449-3.246c-0.558-0.234-2.251-0.413-2.108-1.318
	c0.185-1.157,2.642-0.51,3.36-0.454c-0.009-2.927-5.054-2.531-5.574,0c-0.307,1.521,0.396,2.489,1.813,2.949
	c0.575,0.188,2.09,0.502,1.808,1.414C131.133,71.529,128.498,70.782,127.613,70.745 M190.122,72.625v-1.88
	c-1.062,0.083-2.365,0.51-3.32-0.153c-1.358-0.947-1.151-3.629,0.192-4.475c0.951-0.6,2.118-0.168,3.128,0.03v-1.884
	c-1.503-0.279-3.678-0.578-5.01,0.354c-1.978,1.391-2.14,5.961-0.195,7.454C186.407,73.217,188.416,72.761,190.122,72.625
	 M205.175,64.054v8.57h2.089c0-1.363-0.811-7.399,1.859-6.672c1.812,0.495,1.067,5.261,1.067,6.672h2.092
	c0-1.675-0.359-3.817,0.089-5.435c0.229-0.825,1.093-1.564,1.978-1.167c1.604,0.72,0.857,5.137,0.857,6.602h2.094
	c0-2.107,0.997-7.457-1.465-8.415c-1.437-0.558-2.625,0.379-3.972,0.321c-1.76-0.083-2.875-0.906-4.6,0.149
	C207.064,63.759,205.962,64.054,205.175,64.054z M112.733,68.529c-0.413,0.526-1.654,0.508-2.264,0.535
	c-1.055,0.045-2.083,0.135-3.134,0.218c1.169,2.332,3.08,1.568,5.225,1.256c-0.008,2.989-4.997,3.111-6.554,1.032
	c-2.684-3.594,0.777-9.512,5.3-7.211C112.414,64.922,113.657,67.347,112.733,68.529z M110.889,67.399
	c-0.282-2.518-3.056-1.854-3.553,0.21L110.889,67.399z M120.504,72.816c-0.851-0.066-1.551-0.438-2.297-0.817
	c-0.19,0.881-1.121,0.626-1.884,0.626V60.71h2.093v4.181C124.563,60.205,127.087,73.326,120.504,72.816z M119.481,65.882
	c-2.06,0.872-1.313,6.144,1.437,5.122C123.206,70.154,122.469,64.62,119.481,65.882z M142.666,72.693
	c-1.542,0.365-3.822,0.249-4.84-1.134c-1.518-2.066-1.134-6.705,1.703-7.394c1.394-0.34,3.684-0.344,4.729,0.77
	C146.165,66.983,145.619,71.987,142.666,72.693z M140.375,65.882c-2.041,0.842-1.359,6.201,1.449,5.122
	C144.133,70.123,143.37,64.653,140.375,65.882z M199.32,72.641c-1.481,0.408-3.813,0.376-4.885-0.896
	c-1.68-1.991-1.331-6.884,1.54-7.58c1.513-0.366,3.857-0.316,4.927,0.956C202.612,67.153,202.086,71.878,199.32,72.641z
	 M196.831,65.882c-2.133,0.901-1.271,6.367,1.629,5.067C200.581,70.002,199.763,64.645,196.831,65.882z M178.063,70.333
	c-1.444,0.962,0.211,3.158,1.727,2.203C181.244,71.614,179.553,69.339,178.063,70.333z"/>
</svg>
