<svg width="849" height="744" viewBox="0 0 849 744" fill="none" xmlns="http://www.w3.org/2000/svg">
<g filter="url(#filter0_d_2941_2787)">
<rect width="491.971" height="351.759" rx="4" transform="matrix(0.866025 0.5 -0.780649 0.62497 374.031 225.986)" fill="#FF99DD"/>
</g>
<rect opacity="0.2" width="48.0146" height="24.599" rx="4" transform="matrix(0.866025 0.5 -0.766183 0.633174 374.872 237.055)" fill="white"/>
<rect opacity="0.2" width="48.0146" height="24.599" rx="4" transform="matrix(0.866025 0.5 -0.766183 0.633174 347.988 258.577)" fill="white"/>
<rect opacity="0.2" width="48.0146" height="24.599" rx="4" transform="matrix(0.866025 0.5 -0.766183 0.633174 321.104 280.1)" fill="white"/>
<rect opacity="0.2" width="48.0146" height="24.599" rx="4" transform="matrix(0.866025 0.5 -0.766183 0.633174 294.219 301.623)" fill="white"/>
<rect opacity="0.2" width="48.0146" height="24.599" rx="4" transform="matrix(0.866025 0.5 -0.766183 0.633174 267.336 323.146)" fill="white"/>
<rect opacity="0.2" width="48.0146" height="24.599" rx="4" transform="matrix(0.866025 0.5 -0.766183 0.633174 240.452 344.668)" fill="white"/>
<rect opacity="0.2" width="48.0146" height="24.599" rx="4" transform="matrix(0.866025 0.5 -0.766183 0.633174 213.568 366.191)" fill="white"/>
<rect opacity="0.2" width="48.0146" height="24.599" rx="4" transform="matrix(0.866025 0.5 -0.766183 0.633174 186.684 387.714)" fill="white"/>
<rect opacity="0.2" width="48.0146" height="24.599" rx="4" transform="matrix(0.866025 0.5 -0.766183 0.633174 159.801 409.236)" fill="white"/>
<rect opacity="0.2" width="94.7519" height="24.599" rx="4" transform="matrix(0.866025 0.5 -0.766183 0.633174 396.985 286.866)" fill="white"/>
<rect opacity="0.2" width="94.7519" height="24.599" rx="4" transform="matrix(0.866025 0.5 -0.766183 0.633174 423.868 265.343)" fill="white"/>
<rect opacity="0.2" width="94.7519" height="24.599" rx="4" transform="matrix(0.866025 0.5 -0.766183 0.633174 370.101 308.388)" fill="white"/>
<rect opacity="0.2" width="94.7519" height="24.599" rx="4" transform="matrix(0.866025 0.5 -0.766183 0.633174 343.217 329.911)" fill="white"/>
<rect opacity="0.2" width="94.7519" height="24.599" rx="4" transform="matrix(0.866025 0.5 -0.766183 0.633174 316.333 351.434)" fill="white"/>
<rect opacity="0.2" width="94.7519" height="24.599" rx="4" transform="matrix(0.866025 0.5 -0.766183 0.633174 289.449 372.957)" fill="white"/>
<rect opacity="0.2" width="94.7519" height="24.599" rx="4" transform="matrix(0.866025 0.5 -0.766183 0.633174 262.564 394.479)" fill="white"/>
<rect opacity="0.2" width="94.7519" height="24.599" rx="4" transform="matrix(0.866025 0.5 -0.766183 0.633174 235.681 416.002)" fill="white"/>
<rect opacity="0.2" width="203.781" height="24.599" rx="4" transform="matrix(0.866025 0.5 -0.766183 0.633174 486.769 338.703)" fill="white"/>
<rect opacity="0.2" width="94.7519" height="24.599" rx="4" transform="matrix(0.866025 0.5 -0.766183 0.633174 208.797 437.525)" fill="white"/>
<rect opacity="0.2" width="203.781" height="24.599" rx="4" transform="matrix(0.866025 0.5 -0.766183 0.633174 459.885 360.225)" fill="white"/>
<rect opacity="0.2" width="98.3668" height="24.599" rx="4" transform="matrix(0.866025 0.5 -0.766183 0.633174 671.793 445.526)" fill="white"/>
<rect opacity="0.2" width="203.781" height="24.599" rx="4" transform="matrix(0.866025 0.5 -0.766183 0.633174 433.001 381.748)" fill="white"/>
<rect opacity="0.2" width="98.3668" height="24.599" rx="4" transform="matrix(0.866025 0.5 -0.766183 0.633174 644.909 467.049)" fill="white"/>
<rect opacity="0.2" width="203.781" height="24.599" rx="4" transform="matrix(0.866025 0.5 -0.766183 0.633174 406.117 403.271)" fill="white"/>
<rect opacity="0.2" width="98.3668" height="24.599" rx="4" transform="matrix(0.866025 0.5 -0.766183 0.633174 618.025 488.572)" fill="white"/>
<rect opacity="0.2" width="203.781" height="24.599" rx="4" transform="matrix(0.866025 0.5 -0.766183 0.633174 379.233 424.794)" fill="white"/>
<rect opacity="0.2" width="98.3668" height="24.599" rx="4" transform="matrix(0.866025 0.5 -0.766183 0.633174 591.141 510.094)" fill="white"/>
<rect opacity="0.2" width="203.781" height="24.599" rx="4" transform="matrix(0.866025 0.5 -0.766183 0.633174 352.349 446.316)" fill="white"/>
<rect opacity="0.2" width="98.3668" height="24.599" rx="4" transform="matrix(0.866025 0.5 -0.766183 0.633174 564.257 531.617)" fill="white"/>
<rect opacity="0.2" width="203.781" height="24.599" rx="4" transform="matrix(0.866025 0.5 -0.766183 0.633174 325.465 467.839)" fill="white"/>
<rect opacity="0.2" width="98.3668" height="24.599" rx="4" transform="matrix(0.866025 0.5 -0.766183 0.633174 537.373 553.14)" fill="white"/>
<rect opacity="0.2" width="98.3668" height="24.599" rx="4" transform="matrix(0.866025 0.5 -0.766183 0.633174 510.49 574.663)" fill="white"/>
<rect opacity="0.2" width="203.781" height="24.599" rx="4" transform="matrix(0.866025 0.5 -0.766183 0.633174 513.653 317.18)" fill="white"/>
<rect opacity="0.2" width="203.781" height="24.599" rx="4" transform="matrix(0.866025 0.5 -0.766183 0.633174 298.581 489.362)" fill="white"/>
<rect opacity="0.2" width="98.3668" height="24.599" rx="4" transform="matrix(0.866025 0.5 -0.766183 0.633174 698.677 424.004)" fill="white"/>
<rect opacity="0.2" width="98.3668" height="24.599" rx="4" transform="matrix(0.866025 0.5 -0.766183 0.633174 483.605 596.185)" fill="white"/>
<path d="M125.596 446.779L122.258 444.852L140.381 437.015L144.395 439.333L136.439 453.039L133.1 451.111L139.467 440.669L139.352 440.603L125.596 446.779ZM130.512 442.424L138.397 446.977L136.246 448.755L128.36 444.202L130.512 442.424Z" fill="white"/>
<path d="M146.872 451.128L141.22 455.799L138.155 454.03L147.932 445.95L150.853 447.636L149.128 449.062L149.258 449.137C150.071 448.808 150.931 448.673 151.837 448.732C152.748 448.787 153.614 449.051 154.434 449.525C155.201 449.968 155.722 450.477 155.996 451.052C156.269 451.627 156.289 452.234 156.054 452.873C155.823 453.508 155.328 454.139 154.568 454.767L148.343 459.912L145.278 458.142L151.019 453.397C151.622 452.905 151.916 452.42 151.902 451.941C151.891 451.458 151.579 451.04 150.965 450.685C150.552 450.447 150.109 450.301 149.635 450.248C149.167 450.198 148.693 450.246 148.214 450.393C147.744 450.539 147.297 450.784 146.872 451.128Z" fill="white"/>
<path d="M148.588 465.2C148.2 464.976 147.863 464.743 147.578 464.5C147.293 464.265 147.08 464.05 146.94 463.856L149.655 462.582C149.917 462.87 150.188 463.101 150.467 463.274C150.751 463.45 151.063 463.546 151.401 463.563C151.744 463.582 152.136 463.504 152.575 463.329L153.169 463.091L159.262 452.491L162.485 454.352L157.593 461.607L157.708 461.673L167.198 457.073L170.443 458.946L155.314 465.42C154.581 465.735 153.842 465.952 153.097 466.07C152.352 466.194 151.605 466.188 150.856 466.054C150.102 465.922 149.346 465.638 148.588 465.2Z" fill="white"/>
<path d="M184.261 467.613C184.717 467.155 184.869 466.683 184.717 466.196C184.565 465.709 184.115 465.249 183.366 464.817C182.858 464.524 182.365 464.328 181.887 464.232C181.414 464.131 180.974 464.118 180.566 464.192C180.163 464.27 179.822 464.424 179.541 464.655C179.298 464.843 179.15 465.043 179.096 465.256C179.047 465.472 179.066 465.694 179.155 465.924C179.248 466.151 179.389 466.384 179.578 466.624C179.772 466.862 179.998 467.099 180.256 467.337L181.3 468.333C181.815 468.809 182.235 469.29 182.56 469.776C182.885 470.261 183.09 470.746 183.173 471.229C183.257 471.712 183.196 472.189 182.992 472.661C182.793 473.135 182.424 473.599 181.885 474.05C181.083 474.707 180.161 475.145 179.119 475.366C178.087 475.586 176.983 475.583 175.807 475.357C174.639 475.13 173.456 474.67 172.257 473.978C171.068 473.291 170.193 472.56 169.633 471.783C169.077 471.01 168.869 470.22 169.007 469.412C169.154 468.603 169.685 467.805 170.599 467.016L173.613 468.756C173.21 469.137 172.987 469.52 172.943 469.906C172.909 470.291 173.028 470.667 173.302 471.034C173.585 471.399 173.995 471.737 174.532 472.047C175.059 472.352 175.585 472.56 176.11 472.673C176.639 472.787 177.132 472.807 177.59 472.732C178.048 472.657 178.433 472.489 178.747 472.23C179.04 471.988 179.188 471.728 179.191 471.449C179.198 471.174 179.085 470.87 178.851 470.538C178.622 470.209 178.296 469.842 177.873 469.438L176.625 468.217C175.65 467.278 175.087 466.367 174.937 465.481C174.786 464.596 175.194 463.757 176.162 462.963C176.947 462.308 177.874 461.876 178.943 461.665C180.018 461.457 181.142 461.46 182.318 461.674C183.493 461.888 184.618 462.305 185.692 462.926C186.786 463.557 187.575 464.245 188.059 464.989C188.548 465.736 188.726 466.485 188.592 467.236C188.457 467.986 188.009 468.686 187.247 469.336L184.261 467.613Z" fill="white"/>
<path d="M190.351 477.803L192.998 479.332L192.815 481.352L192.775 483.223L192.505 486.91L189.599 485.232L189.747 482.726L189.971 481.319L190.351 477.803ZM200.316 480.769C198.894 481.943 197.38 482.767 195.774 483.239C194.172 483.715 192.585 483.868 191.014 483.699C189.451 483.529 188.019 483.069 186.72 482.319C185.41 481.563 184.498 480.667 183.983 479.631C183.469 478.595 183.408 477.491 183.801 476.318C184.194 475.145 185.099 473.973 186.516 472.801C187.938 471.626 189.449 470.801 191.051 470.326C192.653 469.851 194.235 469.698 195.798 469.868C197.365 470.034 198.803 470.495 200.112 471.251C201.412 472.002 202.319 472.895 202.834 473.93C203.358 474.965 203.423 476.07 203.03 477.243C202.642 478.418 201.737 479.594 200.316 480.769ZM197.157 478.945C198.078 478.184 198.699 477.452 199.019 476.75C199.345 476.05 199.39 475.403 199.156 474.809C198.921 474.215 198.427 473.701 197.674 473.266C196.921 472.831 196.101 472.587 195.213 472.533C194.325 472.479 193.409 472.623 192.465 472.965C191.526 473.311 190.596 473.864 189.675 474.625C188.754 475.386 188.131 476.116 187.805 476.816C187.485 477.519 187.442 478.167 187.676 478.761C187.911 479.355 188.404 479.869 189.158 480.304C189.911 480.739 190.731 480.983 191.619 481.037C192.507 481.091 193.421 480.945 194.36 480.6C195.304 480.258 196.236 479.706 197.157 478.945Z" fill="white"/>
<path d="M196.105 487.487L209.142 476.714L212.257 478.513L201.493 487.408L207.81 491.055L205.538 492.933L196.105 487.487Z" fill="white"/>
<path d="M217.514 499.847L212.29 496.832L225.326 486.059L230.593 489.099C232.075 489.955 233.09 490.907 233.638 491.956C234.19 493.002 234.267 494.092 233.871 495.227C233.48 496.365 232.607 497.494 231.254 498.613C229.896 499.735 228.439 500.532 226.882 501.003C225.331 501.477 223.754 501.619 222.153 501.427C220.557 501.238 219.01 500.711 217.514 499.847ZM217.767 496.679L219.746 497.821C220.667 498.353 221.585 498.681 222.502 498.805C223.428 498.929 224.355 498.829 225.283 498.507C226.219 498.184 227.174 497.621 228.145 496.818C229.109 496.022 229.735 495.279 230.025 494.588C230.319 493.9 230.297 493.256 229.957 492.655C229.617 492.053 228.987 491.487 228.066 490.955L226.08 489.809L217.767 496.679Z" fill="white"/>
<path d="M229.94 507.281C229.235 506.874 228.714 506.422 228.379 505.924C228.048 505.423 227.937 504.903 228.044 504.363C228.16 503.823 228.541 503.286 229.186 502.753C229.729 502.304 230.298 501.992 230.892 501.817C231.487 501.642 232.091 501.574 232.704 501.613C233.318 501.651 233.929 501.766 234.538 501.956C235.151 502.149 235.754 502.385 236.348 502.662C237.05 502.984 237.623 503.237 238.067 503.422C238.516 503.604 238.882 503.702 239.166 503.717C239.449 503.731 239.695 503.653 239.903 503.481L239.941 503.45C240.344 503.116 240.512 502.776 240.445 502.427C240.383 502.081 240.09 501.757 239.567 501.456C239.016 501.137 238.469 500.973 237.926 500.964C237.388 500.951 236.904 501.047 236.476 501.253L233.845 499.448C234.583 499.04 235.38 498.779 236.235 498.665C237.094 498.547 237.974 498.585 238.874 498.777C239.783 498.968 240.679 499.318 241.561 499.828C242.175 500.182 242.699 500.574 243.133 501.004C243.572 501.435 243.876 501.888 244.045 502.361C244.219 502.837 244.223 503.321 244.057 503.815C243.895 504.306 243.524 504.791 242.942 505.272L236.348 510.721L233.441 509.043L234.797 507.923L234.711 507.873C234.228 508.023 233.721 508.109 233.19 508.13C232.663 508.147 232.126 508.09 231.577 507.958C231.032 507.822 230.487 507.597 229.94 507.281ZM232.689 506.241C233.14 506.501 233.616 506.666 234.119 506.736C234.625 506.802 235.113 506.78 235.581 506.669C236.049 506.558 236.455 506.36 236.799 506.076L237.837 505.219C237.685 505.209 237.503 505.175 237.288 505.117C237.083 505.058 236.858 504.984 236.613 504.897C236.373 504.806 236.135 504.713 235.899 504.618C235.667 504.52 235.457 504.432 235.268 504.352C234.861 504.183 234.473 504.063 234.102 503.992C233.732 503.921 233.385 503.915 233.063 503.973C232.744 504.027 232.458 504.16 232.203 504.37C231.834 504.675 231.703 504.996 231.81 505.331C231.926 505.666 232.219 505.97 232.689 506.241Z" fill="white"/>
<path d="M254.381 507.408L252.344 509.091L245.689 505.249L247.726 503.566L254.381 507.408ZM251.579 502.502L254.644 504.272L245.529 511.805C245.279 512.012 245.127 512.198 245.073 512.363C245.023 512.525 245.048 512.674 245.146 512.808C245.249 512.945 245.404 513.073 245.61 513.192C245.754 513.275 245.909 513.349 246.074 513.415C246.243 513.477 246.373 513.525 246.462 513.559L244.926 515.504C244.73 515.451 244.466 515.367 244.132 515.252C243.795 515.14 243.421 514.975 243.01 514.755C242.246 514.35 241.685 513.904 241.328 513.418C240.976 512.935 240.856 512.431 240.97 511.906C241.083 511.382 241.462 510.856 242.108 510.33L251.579 502.502Z" fill="white"/>
<path d="M249.567 518.613C248.862 518.206 248.342 517.753 248.007 517.256C247.676 516.755 247.564 516.235 247.671 515.695C247.787 515.155 248.168 514.618 248.813 514.085C249.356 513.636 249.925 513.324 250.52 513.149C251.114 512.974 251.719 512.906 252.332 512.945C252.945 512.983 253.556 513.097 254.165 513.288C254.778 513.481 255.382 513.717 255.975 513.994C256.678 514.316 257.251 514.569 257.695 514.754C258.143 514.936 258.509 515.034 258.793 515.049C259.077 515.063 259.322 514.985 259.53 514.813L259.568 514.781C259.972 514.448 260.14 514.107 260.072 513.759C260.01 513.413 259.718 513.089 259.195 512.788C258.643 512.469 258.096 512.305 257.553 512.296C257.015 512.283 256.532 512.379 256.104 512.585L253.473 510.78C254.211 510.372 255.007 510.111 255.862 509.997C256.721 509.879 257.601 509.917 258.501 510.109C259.41 510.3 260.306 510.65 261.189 511.16C261.803 511.514 262.327 511.906 262.761 512.335C263.199 512.767 263.503 513.22 263.672 513.693C263.846 514.169 263.85 514.653 263.684 515.147C263.523 515.638 263.151 516.123 262.57 516.604L255.975 522.053L253.069 520.375L254.424 519.255L254.338 519.205C253.855 519.355 253.348 519.44 252.817 519.462C252.291 519.479 251.753 519.422 251.204 519.29C250.66 519.154 250.114 518.928 249.567 518.613ZM252.316 517.573C252.767 517.833 253.244 517.998 253.746 518.068C254.253 518.134 254.74 518.112 255.208 518.001C255.677 517.89 256.083 517.692 256.426 517.408L257.464 516.551C257.313 516.541 257.13 516.507 256.916 516.449C256.71 516.39 256.485 516.316 256.241 516.229C256 516.138 255.762 516.045 255.526 515.95C255.295 515.852 255.084 515.764 254.895 515.684C254.489 515.515 254.1 515.395 253.73 515.324C253.359 515.253 253.013 515.247 252.69 515.305C252.372 515.359 252.085 515.492 251.831 515.702C251.461 516.007 251.33 516.328 251.437 516.663C251.553 516.998 251.846 517.302 252.316 517.573Z" fill="white"/>
<path d="M258.411 523.459L271.447 512.686L274.512 514.456L269.611 518.506L269.704 518.56C270.102 518.42 270.563 518.312 271.089 518.234C271.624 518.156 272.189 518.16 272.784 518.247C273.388 518.334 273.999 518.556 274.618 518.913C275.424 519.378 275.98 519.962 276.288 520.664C276.6 521.362 276.586 522.138 276.247 522.99C275.912 523.839 275.185 524.727 274.064 525.653C272.974 526.554 271.854 527.2 270.705 527.591C269.565 527.981 268.461 528.139 267.394 528.065C266.335 527.99 265.386 527.71 264.547 527.226C263.952 526.882 263.533 526.518 263.29 526.133C263.051 525.752 262.932 525.376 262.931 525.006C262.935 524.633 263.003 524.294 263.135 523.989L262.998 523.91L261.433 525.204L258.411 523.459ZM266.3 521.152C265.718 521.632 265.302 522.104 265.052 522.567C264.801 523.03 264.728 523.461 264.831 523.86C264.939 524.256 265.24 524.596 265.734 524.882C266.232 525.17 266.776 525.313 267.363 525.313C267.954 525.309 268.555 525.179 269.165 524.924C269.785 524.668 270.379 524.305 270.947 523.835C271.512 523.369 271.92 522.907 272.171 522.451C272.422 521.994 272.496 521.566 272.392 521.167C272.289 520.767 271.985 520.422 271.482 520.132C270.983 519.844 270.444 519.696 269.865 519.69C269.291 519.686 268.699 519.809 268.088 520.058C267.477 520.307 266.881 520.671 266.3 521.152Z" fill="white"/>
<path d="M274.2 532.835C273.495 532.428 272.975 531.975 272.64 531.478C272.309 530.977 272.197 530.457 272.304 529.917C272.421 529.377 272.801 528.84 273.446 528.307C273.99 527.858 274.558 527.546 275.153 527.371C275.748 527.196 276.352 527.128 276.965 527.167C277.579 527.205 278.19 527.319 278.798 527.51C279.412 527.703 280.015 527.939 280.609 528.216C281.311 528.538 281.884 528.791 282.328 528.976C282.777 529.158 283.143 529.256 283.426 529.271C283.71 529.285 283.956 529.207 284.164 529.035L284.202 529.003C284.605 528.67 284.773 528.329 284.706 527.981C284.643 527.635 284.351 527.311 283.828 527.01C283.276 526.691 282.729 526.527 282.187 526.518C281.648 526.505 281.165 526.601 280.737 526.807L278.106 525.002C278.844 524.594 279.641 524.333 280.495 524.219C281.355 524.101 282.234 524.139 283.134 524.331C284.044 524.522 284.939 524.872 285.822 525.382C286.436 525.736 286.96 526.128 287.394 526.557C287.832 526.989 288.136 527.442 288.306 527.915C288.479 528.391 288.483 528.875 288.318 529.369C288.156 529.86 287.784 530.345 287.203 530.826L280.609 536.275L277.702 534.597L279.058 533.477L278.971 533.427C278.488 533.577 277.981 533.663 277.451 533.684C276.924 533.701 276.386 533.644 275.838 533.512C275.293 533.376 274.747 533.15 274.2 532.835ZM276.95 531.795C277.4 532.055 277.877 532.22 278.379 532.29C278.886 532.356 279.373 532.334 279.842 532.223C280.31 532.112 280.716 531.914 281.06 531.63L282.097 530.773C281.946 530.763 281.763 530.729 281.549 530.671C281.343 530.612 281.118 530.538 280.874 530.451C280.634 530.36 280.396 530.267 280.16 530.172C279.928 530.074 279.717 529.986 279.528 529.906C279.122 529.737 278.734 529.617 278.363 529.546C277.993 529.475 277.646 529.469 277.323 529.527C277.005 529.581 276.718 529.714 276.464 529.924C276.095 530.229 275.964 530.55 276.071 530.885C276.187 531.22 276.48 531.524 276.95 531.795Z" fill="white"/>
<path d="M299.171 537.181L296.212 535.687C296.376 535.484 296.464 535.267 296.475 535.035C296.491 534.8 296.42 534.566 296.263 534.332C296.115 534.098 295.863 533.878 295.509 533.673C295.034 533.399 294.544 533.241 294.04 533.2C293.539 533.156 293.143 533.254 292.85 533.496C292.617 533.689 292.525 533.913 292.575 534.168C292.625 534.423 292.857 534.739 293.273 535.116L294.917 536.566C295.796 537.347 296.283 538.069 296.378 538.732C296.472 539.394 296.168 540.016 295.463 540.598C294.822 541.128 294.047 541.469 293.136 541.623C292.23 541.779 291.272 541.756 290.262 541.554C289.261 541.351 288.28 540.973 287.321 540.419C285.858 539.574 284.962 538.679 284.633 537.732C284.313 536.785 284.545 535.882 285.33 535.025L288.484 536.65C288.181 537.028 288.1 537.405 288.242 537.779C288.389 538.149 288.736 538.492 289.282 538.808C289.82 539.118 290.343 539.292 290.851 539.33C291.369 539.366 291.776 539.265 292.074 539.026C292.315 538.82 292.399 538.585 292.326 538.323C292.257 538.057 292.025 537.75 291.631 537.403L290.054 536.019C289.166 535.238 288.693 534.501 288.637 533.807C288.585 533.116 288.924 532.469 289.654 531.865C290.282 531.346 291.015 531.01 291.853 530.856C292.695 530.705 293.59 530.73 294.536 530.931C295.487 531.135 296.436 531.51 297.38 532.055C298.776 532.861 299.614 533.711 299.893 534.605C300.177 535.501 299.936 536.36 299.171 537.181Z" fill="white"/>
<path d="M299.209 547.282C298.072 546.626 297.297 545.893 296.884 545.082C296.48 544.271 296.433 543.428 296.743 542.553C297.057 541.674 297.73 540.808 298.761 539.956C299.767 539.125 300.87 538.523 302.071 538.15C303.272 537.777 304.485 537.646 305.71 537.758C306.941 537.873 308.098 538.243 309.182 538.869C309.911 539.29 310.486 539.767 310.906 540.302C311.335 540.836 311.579 541.409 311.638 542.02C311.701 542.634 311.553 543.276 311.193 543.943C310.837 544.608 310.243 545.284 309.411 545.971L308.667 546.586L299.335 541.199L301.015 539.81L307.462 543.532C307.852 543.209 308.102 542.868 308.212 542.508C308.321 542.149 308.291 541.8 308.12 541.463C307.958 541.126 307.654 540.828 307.208 540.571C306.743 540.302 306.235 540.143 305.684 540.093C305.142 540.042 304.612 540.09 304.092 540.237C303.576 540.38 303.123 540.61 302.732 540.926L301.135 542.247C300.651 542.646 300.334 543.05 300.183 543.457C300.037 543.867 300.055 544.259 300.239 544.633C300.422 545.007 300.77 545.342 301.283 545.638C301.624 545.835 301.978 545.98 302.346 546.073C302.714 546.167 303.083 546.201 303.454 546.177C303.826 546.153 304.187 546.07 304.539 545.928L307.208 547.701C306.461 548.116 305.64 548.38 304.744 548.495C303.858 548.608 302.939 548.566 301.988 548.369C301.046 548.171 300.12 547.808 299.209 547.282Z" fill="white"/>
<g filter="url(#filter1_d_2941_2787)">
<rect width="491.971" height="351.759" rx="4" transform="matrix(0.866025 0.5 -0.780649 0.62497 374.031 110.533)" fill="#6644FF"/>
</g>
<rect opacity="0.2" width="127.912" height="118.075" rx="4" transform="matrix(0.866025 0.5 -0.766183 0.633174 377.002 122.832)" fill="white"/>
<rect opacity="0.2" width="83.6351" height="73.7971" rx="4" transform="matrix(0.866025 0.5 -0.766183 0.633174 275.227 204.311)" fill="white"/>
<rect opacity="0.2" width="83.6351" height="73.7971" rx="4" transform="matrix(0.866025 0.5 -0.766183 0.633174 207.807 255.35)" fill="white"/>
<rect opacity="0.2" width="73.7957" height="73.7971" rx="4" transform="matrix(0.866025 0.5 -0.766183 0.633174 356.179 251.048)" fill="white"/>
<rect opacity="0.2" width="73.7957" height="73.7971" rx="4" transform="matrix(0.866025 0.5 -0.766183 0.633174 568.668 286.411)" fill="white"/>
<rect opacity="0.2" width="41.1241" height="41.1249" rx="4" transform="matrix(0.866025 0.5 -0.766183 0.633174 653.403 283.154)" fill="white"/>
<rect opacity="0.2" width="41.1241" height="41.1249" rx="4" transform="matrix(0.866025 0.5 -0.766183 0.633174 606.536 256.095)" fill="white"/>
<rect opacity="0.2" width="41.1241" height="41.1249" rx="4" transform="matrix(0.866025 0.5 -0.766183 0.633174 745.005 336.04)" fill="white"/>
<rect opacity="0.2" width="41.1241" height="41.1249" rx="4" transform="matrix(0.866025 0.5 -0.766183 0.633174 700.269 310.212)" fill="white"/>
<rect opacity="0.2" width="33.7446" height="33.7453" rx="4" transform="matrix(0.866025 0.5 -0.766183 0.633174 324.973 322.996)" fill="white"/>
<rect opacity="0.2" width="33.7446" height="33.7453" rx="4" transform="matrix(0.866025 0.5 -0.766183 0.633174 288.758 302.088)" fill="white"/>
<rect opacity="0.2" width="33.7446" height="33.7453" rx="4" transform="matrix(0.866025 0.5 -0.766183 0.633174 258.034 326.685)" fill="white"/>
<rect opacity="0.2" width="33.7446" height="33.7453" rx="4" transform="matrix(0.866025 0.5 -0.766183 0.633174 482.135 461.362)" fill="white"/>
<rect opacity="0.2" width="33.7446" height="33.7453" rx="4" transform="matrix(0.866025 0.5 -0.766183 0.633174 615.804 451.217)" fill="white"/>
<rect opacity="0.2" width="73.7957" height="73.7971" rx="4" transform="matrix(0.866025 0.5 -0.766183 0.633174 543.374 409.4)" fill="white"/>
<rect opacity="0.2" width="118.073" height="118.075" rx="4" transform="matrix(0.866025 0.5 -0.766183 0.633174 496.298 191.708)" fill="white"/>
<rect opacity="0.2" width="118.073" height="118.075" rx="4" transform="matrix(0.866025 0.5 -0.766183 0.633174 641.098 328.229)" fill="white"/>
<rect opacity="0.2" width="162.35" height="162.354" rx="4" transform="matrix(0.866025 0.5 -0.766183 0.633174 428.608 292.866)" fill="white"/>
<path d="M138.119 332.876L132.896 329.86L145.932 319.087L151.199 322.128C152.681 322.983 153.696 323.936 154.243 324.984C154.795 326.03 154.873 327.12 154.477 328.256C154.085 329.394 153.213 330.522 151.859 331.641C150.501 332.763 149.044 333.56 147.488 334.031C145.936 334.506 144.36 334.647 142.759 334.455C141.162 334.266 139.616 333.74 138.119 332.876ZM138.373 329.707L140.351 330.849C141.272 331.381 142.191 331.709 143.108 331.833C144.034 331.957 144.961 331.858 145.888 331.535C146.825 331.212 147.779 330.649 148.751 329.846C149.714 329.05 150.341 328.307 150.631 327.617C150.925 326.929 150.902 326.284 150.563 325.683C150.223 325.082 149.592 324.515 148.672 323.984L146.686 322.837L138.373 329.707Z" fill="white"/>
<path d="M147.579 338.337L157.356 330.257L160.421 332.027L150.644 340.107L147.579 338.337ZM160.156 330.105C159.7 329.842 159.443 329.505 159.384 329.096C159.334 328.686 159.498 328.325 159.876 328.013C160.249 327.704 160.73 327.532 161.319 327.497C161.917 327.461 162.444 327.574 162.899 327.837C163.355 328.101 163.608 328.437 163.657 328.847C163.716 329.256 163.559 329.615 163.185 329.924C162.808 330.236 162.32 330.41 161.722 330.446C161.134 330.482 160.611 330.368 160.156 330.105Z" fill="white"/>
<path d="M153.099 341.524L162.876 333.444L165.847 335.16L164.142 336.57L164.257 336.636C165.065 336.251 165.861 336.067 166.646 336.086C167.435 336.1 168.139 336.286 168.757 336.643C168.911 336.732 169.068 336.835 169.228 336.951C169.389 337.068 169.521 337.177 169.626 337.279L167.22 339.267C167.114 339.153 166.949 339.01 166.725 338.838C166.5 338.667 166.282 338.521 166.071 338.399C165.62 338.138 165.131 337.978 164.602 337.917C164.082 337.855 163.566 337.89 163.054 338.024C162.547 338.16 162.094 338.393 161.695 338.723L156.164 343.294L153.099 341.524Z" fill="white"/>
<path d="M165.72 349.079C164.583 348.423 163.808 347.69 163.396 346.879C162.992 346.068 162.945 345.225 163.255 344.35C163.569 343.471 164.241 342.605 165.273 341.753C166.278 340.922 167.382 340.32 168.582 339.947C169.783 339.574 170.996 339.443 172.222 339.555C173.452 339.67 174.609 340.04 175.693 340.666C176.422 341.087 176.997 341.564 177.417 342.099C177.847 342.633 178.091 343.206 178.149 343.817C178.212 344.431 178.064 345.073 177.704 345.74C177.348 346.405 176.755 347.08 175.923 347.768L175.178 348.383L165.846 342.996L167.527 341.607L173.973 345.329C174.364 345.006 174.614 344.665 174.723 344.305C174.833 343.946 174.802 343.597 174.631 343.26C174.469 342.923 174.165 342.625 173.719 342.368C173.254 342.099 172.746 341.94 172.195 341.89C171.654 341.839 171.123 341.887 170.603 342.034C170.088 342.177 169.635 342.407 169.244 342.723L167.646 344.044C167.162 344.443 166.845 344.847 166.694 345.254C166.548 345.664 166.567 346.056 166.75 346.43C166.933 346.804 167.281 347.139 167.795 347.435C168.135 347.632 168.489 347.777 168.857 347.87C169.225 347.963 169.595 347.998 169.966 347.974C170.337 347.95 170.698 347.867 171.05 347.725L173.719 349.498C172.973 349.913 172.152 350.177 171.256 350.292C170.369 350.405 169.45 350.363 168.499 350.166C167.558 349.967 166.631 349.605 165.72 349.079Z" fill="white"/>
<path d="M177.786 356.045C176.654 355.392 175.892 354.654 175.501 353.833C175.119 353.011 175.09 352.16 175.413 351.28C175.741 350.403 176.399 349.556 177.388 348.739C178.389 347.911 179.486 347.311 180.678 346.939C181.879 346.566 183.097 346.438 184.332 346.556C185.571 346.669 186.749 347.049 187.867 347.694C188.831 348.251 189.52 348.866 189.935 349.54C190.349 350.214 190.487 350.905 190.349 351.611C190.211 352.318 189.786 352.996 189.074 353.645L186.182 351.975C186.588 351.525 186.765 351.076 186.712 350.628C186.668 350.18 186.365 349.794 185.804 349.47C185.329 349.195 184.799 349.051 184.215 349.035C183.64 349.019 183.038 349.133 182.409 349.377C181.779 349.621 181.157 349.997 180.541 350.506C179.918 351.021 179.483 351.515 179.238 351.987C178.997 352.462 178.94 352.896 179.066 353.291C179.192 353.685 179.492 354.019 179.967 354.293C180.317 354.495 180.695 354.624 181.1 354.68C181.511 354.738 181.928 354.72 182.352 354.625C182.785 354.53 183.202 354.356 183.604 354.106L186.496 355.776C185.701 356.365 184.813 356.776 183.832 357.007C182.86 357.238 181.855 357.278 180.817 357.125C179.78 356.973 178.769 356.613 177.786 356.045Z" fill="white"/>
<path d="M200.53 355.184L198.493 356.867L191.838 353.025L193.875 351.342L200.53 355.184ZM197.728 350.278L200.793 352.048L191.678 359.58C191.428 359.787 191.276 359.974 191.222 360.139C191.172 360.301 191.197 360.449 191.295 360.584C191.398 360.721 191.553 360.849 191.759 360.968C191.903 361.051 192.058 361.125 192.223 361.191C192.392 361.253 192.522 361.301 192.611 361.334L191.075 363.28C190.879 363.227 190.615 363.142 190.281 363.027C189.944 362.916 189.569 362.75 189.159 362.531C188.395 362.126 187.834 361.68 187.477 361.194C187.125 360.711 187.005 360.207 187.118 359.682C187.232 359.158 187.611 358.632 188.257 358.105L197.728 350.278Z" fill="white"/>
<path d="M203.999 365.068L209.613 360.428L212.678 362.198L202.901 370.278L199.959 368.579L201.735 367.111L201.619 367.045C200.797 367.374 199.922 367.515 198.993 367.468C198.07 367.423 197.193 367.161 196.363 366.682C195.625 366.255 195.123 365.757 194.859 365.188C194.595 364.618 194.578 364.016 194.809 363.381C195.045 362.748 195.542 362.115 196.301 361.481L202.527 356.337L205.592 358.106L199.85 362.851C199.278 363.331 198.997 363.809 199.007 364.285C199.017 364.762 199.312 365.167 199.892 365.503C200.262 365.716 200.681 365.854 201.151 365.917C201.625 365.976 202.109 365.94 202.603 365.808C203.102 365.678 203.567 365.432 203.999 365.068Z" fill="white"/>
<path d="M221.537 371.226L218.578 369.732C218.743 369.529 218.83 369.312 218.842 369.08C218.858 368.845 218.787 368.611 218.63 368.377C218.481 368.142 218.23 367.923 217.875 367.718C217.4 367.444 216.911 367.286 216.406 367.245C215.906 367.201 215.51 367.299 215.217 367.541C214.983 367.734 214.892 367.958 214.941 368.213C214.991 368.468 215.224 368.784 215.639 369.161L217.283 370.611C218.162 371.392 218.649 372.114 218.744 372.777C218.839 373.439 218.534 374.061 217.83 374.643C217.189 375.173 216.413 375.514 215.502 375.668C214.597 375.824 213.639 375.801 212.628 375.599C211.627 375.396 210.647 375.018 209.688 374.464C208.225 373.619 207.328 372.724 206.999 371.777C206.679 370.83 206.911 369.927 207.696 369.07L210.851 370.695C210.547 371.073 210.467 371.45 210.609 371.824C210.755 372.194 211.102 372.537 211.649 372.853C212.186 373.163 212.709 373.337 213.218 373.375C213.735 373.411 214.143 373.31 214.441 373.071C214.682 372.865 214.766 372.63 214.693 372.368C214.624 372.101 214.392 371.795 213.997 371.448L212.421 370.064C211.532 369.283 211.06 368.546 211.003 367.852C210.952 367.161 211.291 366.514 212.021 365.91C212.649 365.391 213.381 365.055 214.219 364.901C215.062 364.75 215.956 364.775 216.903 364.976C217.854 365.18 218.802 365.555 219.747 366.1C221.143 366.906 221.98 367.756 222.259 368.65C222.543 369.546 222.302 370.405 221.537 371.226Z" fill="white"/>
<path d="M226.7 384.018L221.477 381.002L234.513 370.229L239.779 373.27C241.261 374.125 242.276 375.078 242.824 376.127C243.376 377.172 243.454 378.262 243.058 379.398C242.666 380.536 241.794 381.664 240.44 382.783C239.082 383.905 237.625 384.702 236.069 385.174C234.517 385.648 232.941 385.789 231.339 385.597C229.743 385.408 228.197 384.882 226.7 384.018ZM226.953 380.849L228.932 381.992C229.853 382.523 230.772 382.851 231.689 382.976C232.615 383.099 233.542 383 234.469 382.678C235.406 382.355 236.36 381.792 237.332 380.989C238.295 380.192 238.922 379.449 239.211 378.759C239.506 378.071 239.483 377.426 239.143 376.825C238.804 376.224 238.173 375.657 237.252 375.126L235.267 373.979L226.953 380.849Z" fill="white"/>
<path d="M239.126 391.451C238.421 391.044 237.901 390.592 237.566 390.095C237.235 389.594 237.123 389.074 237.23 388.534C237.346 387.993 237.727 387.457 238.372 386.924C238.915 386.475 239.484 386.163 240.079 385.988C240.673 385.813 241.277 385.745 241.891 385.783C242.504 385.821 243.115 385.936 243.724 386.127C244.337 386.32 244.941 386.555 245.534 386.832C246.236 387.154 246.81 387.408 247.254 387.593C247.702 387.774 248.068 387.872 248.352 387.887C248.635 387.902 248.881 387.823 249.089 387.652L249.127 387.62C249.53 387.287 249.699 386.946 249.631 386.597C249.569 386.252 249.276 385.928 248.754 385.626C248.202 385.308 247.655 385.144 247.112 385.134C246.574 385.121 246.091 385.218 245.663 385.423L243.032 383.618C243.77 383.21 244.566 382.949 245.421 382.835C246.28 382.718 247.16 382.755 248.06 382.947C248.969 383.138 249.865 383.489 250.748 383.998C251.362 384.353 251.886 384.745 252.319 385.174C252.758 385.606 253.062 386.058 253.231 386.531C253.405 387.007 253.409 387.492 253.243 387.986C253.082 388.476 252.71 388.962 252.129 389.442L245.534 394.892L242.628 393.214L243.983 392.093L243.897 392.043C243.414 392.193 242.907 392.279 242.376 392.3C241.85 392.318 241.312 392.261 240.763 392.128C240.219 391.993 239.673 391.767 239.126 391.451ZM241.875 390.411C242.326 390.672 242.803 390.837 243.305 390.906C243.812 390.973 244.299 390.95 244.767 390.839C245.236 390.728 245.642 390.531 245.985 390.247L247.023 389.389C246.872 389.38 246.689 389.346 246.474 389.287C246.269 389.228 246.044 389.155 245.799 389.067C245.559 388.976 245.321 388.883 245.085 388.789C244.854 388.691 244.643 388.602 244.454 388.523C244.048 388.354 243.659 388.234 243.289 388.163C242.918 388.092 242.572 388.085 242.249 388.143C241.931 388.198 241.644 388.33 241.389 388.541C241.02 388.846 240.889 389.166 240.996 389.502C241.112 389.837 241.405 390.14 241.875 390.411Z" fill="white"/>
<path d="M263.567 391.579L261.531 393.262L254.875 389.42L256.912 387.736L263.567 391.579ZM260.766 386.673L263.831 388.442L254.715 395.975C254.465 396.182 254.313 396.368 254.259 396.534C254.21 396.696 254.234 396.844 254.333 396.978C254.436 397.115 254.59 397.243 254.797 397.362C254.941 397.445 255.095 397.52 255.26 397.585C255.43 397.647 255.559 397.695 255.648 397.729L254.113 399.675C253.917 399.621 253.652 399.537 253.319 399.422C252.981 399.31 252.607 399.145 252.196 398.926C251.432 398.52 250.871 398.075 250.514 397.588C250.162 397.105 250.043 396.601 250.156 396.077C250.269 395.552 250.648 395.027 251.294 394.5L260.766 386.673Z" fill="white"/>
<path d="M258.754 402.783C258.048 402.376 257.528 401.924 257.193 401.427C256.862 400.926 256.75 400.405 256.858 399.866C256.974 399.325 257.355 398.788 258 398.255C258.543 397.807 259.112 397.495 259.706 397.32C260.301 397.145 260.905 397.077 261.518 397.115C262.132 397.153 262.743 397.268 263.351 397.458C263.965 397.652 264.568 397.887 265.162 398.164C265.864 398.486 266.437 398.74 266.881 398.925C267.33 399.106 267.696 399.204 267.979 399.219C268.263 399.234 268.509 399.155 268.717 398.983L268.755 398.952C269.158 398.619 269.326 398.278 269.259 397.929C269.197 397.584 268.904 397.26 268.381 396.958C267.83 396.64 267.282 396.476 266.74 396.466C266.201 396.453 265.718 396.549 265.29 396.755L262.659 394.95C263.397 394.542 264.194 394.281 265.049 394.167C265.908 394.05 266.787 394.087 267.688 394.279C268.597 394.47 269.493 394.821 270.375 395.33C270.989 395.685 271.513 396.077 271.947 396.506C272.386 396.938 272.689 397.39 272.859 397.863C273.033 398.339 273.037 398.824 272.871 399.318C272.709 399.808 272.338 400.294 271.756 400.774L265.162 406.224L262.255 404.546L263.611 403.425L263.524 403.375C263.041 403.525 262.535 403.611 262.004 403.632C261.477 403.65 260.94 403.592 260.391 403.46C259.846 403.325 259.3 403.099 258.754 402.783ZM261.503 401.743C261.954 402.004 262.43 402.169 262.933 402.238C263.439 402.304 263.927 402.282 264.395 402.171C264.863 402.06 265.269 401.863 265.613 401.579L266.65 400.721C266.499 400.712 266.316 400.677 266.102 400.619C265.896 400.56 265.671 400.487 265.427 400.399C265.187 400.308 264.949 400.215 264.713 400.121C264.481 400.023 264.271 399.934 264.082 399.855C263.675 399.686 263.287 399.566 262.916 399.495C262.546 399.424 262.199 399.417 261.877 399.475C261.558 399.53 261.272 399.662 261.017 399.872C260.648 400.178 260.517 400.498 260.624 400.834C260.74 401.169 261.033 401.472 261.503 401.743Z" fill="white"/>
<path d="M272.286 410.337L285.323 399.564L295.251 405.296L292.979 407.174L286.165 403.241L283.059 405.808L289.362 409.447L287.089 411.324L280.787 407.686L277.674 410.258L284.516 414.208L282.244 416.086L272.286 410.337Z" fill="white"/>
<path d="M293.352 414.565L287.699 419.236L284.634 417.466L294.412 409.387L297.333 411.073L295.608 412.499L295.737 412.573C296.55 412.245 297.41 412.11 298.317 412.168C299.228 412.224 300.093 412.488 300.914 412.962C301.681 413.405 302.202 413.914 302.475 414.489C302.749 415.064 302.768 415.671 302.533 416.309C302.302 416.945 301.807 417.576 301.048 418.204L294.822 423.348L291.757 421.579L297.499 416.834C298.102 416.342 298.396 415.857 298.381 415.378C298.371 414.895 298.058 414.476 297.444 414.122C297.032 413.884 296.589 413.738 296.115 413.685C295.646 413.635 295.173 413.683 294.694 413.829C294.224 413.975 293.777 414.22 293.352 414.565Z" fill="white"/>
<path d="M298.347 430.816C297.354 430.243 296.623 429.651 296.155 429.041C295.688 428.438 295.451 427.846 295.446 427.264C295.44 426.683 295.631 426.145 296.02 425.648L299.192 427.006C299.084 427.217 299.038 427.447 299.055 427.695C299.072 427.944 299.184 428.198 299.389 428.46C299.594 428.728 299.92 428.99 300.366 429.248C301.033 429.633 301.727 429.83 302.447 429.841C303.168 429.858 303.863 429.59 304.534 429.036L306.322 427.558L306.193 427.483C305.787 427.63 305.329 427.726 304.818 427.77C304.308 427.815 303.765 427.779 303.19 427.661C302.615 427.544 302.035 427.316 301.45 426.978C300.62 426.499 300.035 425.923 299.693 425.249C299.361 424.575 299.345 423.83 299.647 423.015C299.957 422.2 300.653 421.345 301.736 420.451C302.843 419.535 303.972 418.888 305.122 418.51C306.273 418.132 307.371 417.985 308.416 418.071C309.466 418.159 310.397 418.437 311.207 418.905C311.826 419.262 312.251 419.638 312.482 420.034C312.716 420.425 312.823 420.809 312.801 421.183C312.789 421.557 312.72 421.893 312.596 422.191L312.712 422.257L314.354 420.9L317.397 422.657L307.525 430.816C306.693 431.503 305.767 431.946 304.746 432.143C303.725 432.34 302.667 432.319 301.572 432.079C300.477 431.846 299.402 431.425 298.347 430.816ZM304.458 425.856C304.953 426.141 305.478 426.293 306.035 426.31C306.601 426.327 307.179 426.22 307.769 425.989C308.367 425.757 308.953 425.404 309.526 424.93C310.099 424.457 310.504 423.994 310.742 423.542C310.984 423.086 311.049 422.662 310.937 422.269C310.825 421.877 310.522 421.538 310.028 421.253C309.525 420.962 308.979 420.817 308.392 420.818C307.809 420.815 307.216 420.937 306.615 421.186C306.013 421.434 305.434 421.788 304.878 422.247C304.314 422.713 303.914 423.168 303.68 423.611C303.455 424.052 303.4 424.465 303.516 424.847C303.641 425.229 303.955 425.565 304.458 425.856Z" fill="white"/>
<path d="M310.059 432.145L319.836 424.065L322.901 425.835L313.124 433.915L310.059 432.145ZM322.636 423.913C322.181 423.65 321.923 423.314 321.865 422.904C321.815 422.494 321.979 422.133 322.356 421.821C322.73 421.513 323.211 421.341 323.8 421.305C324.397 421.269 324.924 421.383 325.38 421.646C325.835 421.909 326.088 422.245 326.138 422.655C326.197 423.065 326.039 423.423 325.666 423.732C325.288 424.044 324.801 424.218 324.203 424.254C323.614 424.29 323.092 424.176 322.636 423.913Z" fill="white"/>
<path d="M324.297 432.431L318.644 437.102L315.579 435.332L325.357 427.253L328.278 428.939L326.553 430.365L326.682 430.439C327.495 430.111 328.355 429.976 329.262 430.035C330.173 430.09 331.038 430.354 331.858 430.828C332.626 431.271 333.146 431.78 333.42 432.355C333.694 432.93 333.713 433.537 333.478 434.175C333.247 434.811 332.752 435.442 331.992 436.07L325.767 441.214L322.702 439.445L328.444 434.7C329.047 434.208 329.341 433.723 329.326 433.244C329.315 432.761 329.003 432.342 328.389 431.988C327.977 431.75 327.534 431.604 327.06 431.551C326.591 431.501 326.117 431.549 325.639 431.696C325.169 431.841 324.722 432.086 324.297 432.431Z" fill="white"/>
<path d="M333.028 445.675C331.891 445.018 331.117 444.285 330.704 443.475C330.3 442.664 330.253 441.821 330.563 440.945C330.877 440.066 331.55 439.201 332.581 438.348C333.587 437.517 334.69 436.915 335.891 436.542C337.092 436.169 338.305 436.039 339.53 436.151C340.76 436.265 341.917 436.635 343.001 437.261C343.73 437.682 344.305 438.16 344.726 438.694C345.155 439.228 345.399 439.801 345.457 440.413C345.521 441.027 345.372 441.668 345.012 442.336C344.657 443 344.063 443.676 343.231 444.363L342.486 444.979L333.155 439.591L334.835 438.202L341.282 441.924C341.672 441.602 341.922 441.261 342.031 440.901C342.141 440.541 342.11 440.193 341.939 439.856C341.778 439.518 341.474 439.221 341.028 438.963C340.562 438.694 340.054 438.535 339.504 438.485C338.962 438.435 338.431 438.483 337.912 438.629C337.396 438.773 336.943 439.002 336.552 439.319L334.954 440.639C334.47 441.039 334.153 441.442 334.002 441.85C333.856 442.26 333.875 442.652 334.058 443.026C334.241 443.4 334.59 443.735 335.103 444.031C335.443 444.228 335.798 444.372 336.165 444.466C336.533 444.559 336.903 444.594 337.274 444.57C337.645 444.546 338.007 444.462 338.358 444.32L341.028 446.093C340.281 446.508 339.46 446.773 338.564 446.887C337.677 447 336.758 446.959 335.808 446.761C334.866 446.563 333.94 446.201 333.028 445.675Z" fill="white"/>
<path d="M349.308 455.074C348.291 454.487 347.575 453.847 347.159 453.154C346.743 452.461 346.611 451.771 346.765 451.086C346.927 450.399 347.35 449.774 348.034 449.209C348.543 448.788 349.11 448.481 349.735 448.288C350.36 448.095 351.044 447.98 351.787 447.945C352.535 447.906 353.348 447.908 354.226 447.95L358.743 448.226C359.321 448.268 359.81 448.243 360.212 448.154C360.618 448.061 360.957 447.902 361.229 447.677C361.487 447.463 361.61 447.197 361.595 446.879C361.581 446.561 361.356 446.279 360.92 446.034C360.632 445.868 360.325 445.771 360 445.744C359.678 445.713 359.366 445.738 359.064 445.82C358.771 445.901 358.514 446.032 358.293 446.215C358.021 446.439 357.832 446.717 357.725 447.048C357.617 447.379 357.55 447.758 357.524 448.183C357.502 448.606 357.481 449.064 357.461 449.559L357.356 459.452L354.162 457.608L354.075 449.498C354.078 448.958 354.097 448.403 354.134 447.834C354.179 447.265 354.312 446.71 354.533 446.171C354.759 445.628 355.151 445.125 355.711 444.662C356.344 444.139 357.078 443.765 357.914 443.539C358.755 443.315 359.623 443.257 360.521 443.364C361.422 443.467 362.276 443.752 363.082 444.217C363.868 444.671 364.405 445.18 364.691 445.745C364.987 446.309 365.055 446.872 364.895 447.435C364.744 447.997 364.391 448.508 363.835 448.968C363.219 449.476 362.489 449.838 361.643 450.052C360.806 450.266 359.88 450.357 358.867 450.326L353.944 450.173C353.273 450.155 352.701 450.203 352.229 450.318C351.765 450.431 351.408 450.591 351.158 450.798C350.848 451.054 350.656 451.334 350.583 451.637C350.51 451.94 350.559 452.243 350.731 452.545C350.908 452.843 351.209 453.116 351.636 453.362C352.154 453.661 352.769 453.87 353.481 453.989C354.201 454.107 354.961 454.126 355.76 454.045C356.567 453.963 357.363 453.774 358.147 453.476C358.932 453.178 359.648 452.761 360.297 452.224L362.837 453.69C362.039 454.35 361.222 454.887 360.384 455.303C359.551 455.716 358.722 456.017 357.896 456.208C357.075 456.395 356.289 456.483 355.536 456.472C355.312 456.455 355.096 456.438 354.89 456.42C354.684 456.402 354.468 456.385 354.244 456.369C353.306 456.375 352.413 456.256 351.562 456.009C350.717 455.765 349.965 455.453 349.308 455.074Z" fill="white"/>
<path d="M365.92 464.396L362.581 462.469L380.704 454.633L384.719 456.951L376.762 470.656L373.424 468.729L379.79 458.287L379.675 458.22L365.92 464.396ZM370.835 460.041L378.721 464.594L376.569 466.372L368.684 461.819L370.835 460.041Z" fill="white"/>
<path d="M378.536 471.68L391.572 460.907L397.385 464.264C398.503 464.909 399.266 465.615 399.675 466.381C400.088 467.144 400.168 467.919 399.914 468.708C399.67 469.496 399.115 470.248 398.249 470.963C397.383 471.679 396.408 472.188 395.324 472.491C394.24 472.795 393.113 472.868 391.943 472.71C390.777 472.556 389.629 472.152 388.497 471.498L384.791 469.359L387 467.534L390.202 469.382C390.801 469.728 391.387 469.938 391.958 470.012C392.538 470.084 393.087 470.041 393.606 469.882C394.133 469.722 394.611 469.465 395.04 469.111C395.473 468.753 395.752 468.384 395.878 468.004C396.013 467.623 395.973 467.246 395.758 466.871C395.547 466.493 395.139 466.13 394.535 465.781L392.434 464.568L381.651 473.479L378.536 471.68Z" fill="white"/>
<path d="M407.805 470.28L394.769 481.053L391.654 479.254L404.69 468.481L407.805 470.28Z" fill="white"/>
<path d="M413.459 482.032L410.5 480.538C410.664 480.335 410.752 480.118 410.764 479.886C410.779 479.651 410.709 479.417 410.551 479.183C410.403 478.949 410.152 478.729 409.797 478.524C409.322 478.25 408.832 478.092 408.328 478.051C407.828 478.007 407.431 478.105 407.138 478.347C406.905 478.54 406.813 478.764 406.863 479.019C406.913 479.274 407.146 479.59 407.561 479.967L409.205 481.417C410.084 482.198 410.571 482.92 410.666 483.583C410.761 484.245 410.456 484.867 409.751 485.449C409.111 485.979 408.335 486.32 407.424 486.474C406.518 486.63 405.56 486.607 404.55 486.405C403.549 486.202 402.569 485.824 401.609 485.27C400.146 484.425 399.25 483.53 398.921 482.583C398.601 481.636 398.833 480.733 399.618 479.876L402.773 481.501C402.469 481.879 402.389 482.256 402.531 482.63C402.677 483 403.024 483.343 403.571 483.659C404.108 483.969 404.631 484.143 405.139 484.181C405.657 484.217 406.065 484.116 406.362 483.877C406.604 483.671 406.688 483.436 406.614 483.174C406.545 482.908 406.314 482.601 405.919 482.254L404.342 480.87C403.454 480.089 402.982 479.352 402.925 478.658C402.873 477.967 403.212 477.32 403.942 476.716C404.57 476.197 405.303 475.861 406.141 475.707C406.984 475.556 407.878 475.581 408.825 475.782C409.776 475.986 410.724 476.361 411.669 476.906C413.065 477.712 413.902 478.562 414.181 479.456C414.465 480.352 414.224 481.211 413.459 482.032Z" fill="white"/>
<g filter="url(#filter2_d_2941_2787)">
<rect width="316.5" height="353.281" transform="matrix(0.866025 0.5 -0.780649 0.62497 488.763 66.2403)" fill="white"/>
<path d="M305.084 55.1976L343.328 77.2776L136.487 242.87L101.707 222.79C99.7942 221.685 99.6413 219.671 101.366 218.29L305.084 55.1976Z" fill="#18222F"/>
<rect width="88.9007" height="353.281" transform="matrix(0.866025 0.5 -0.780649 0.62497 412.275 22.08)" fill="#F0F4F9"/>
<path d="M370.909 2.49994C372.634 1.11929 375.583 0.895492 377.496 2.00006L412.276 22.0801L377.802 49.6789L339.558 27.5988L370.909 2.49994Z" fill="#6644FF"/>
<rect width="44.1601" height="44.1601" transform="matrix(0.866025 0.5 -0.780649 0.62497 339.559 27.5988)" fill="#F0F4F9"/>
<path d="M304.242 79.7499C302.842 78.9413 299.438 77.8456 298.175 78.8563L297.241 79.6043L305.588 84.4235L306.522 83.6756C307.785 82.6649 305.643 80.5585 304.242 79.7499ZM299.702 79.5639C300.534 79.5922 302.092 80.0046 303.157 80.6191C304.221 81.2336 305.072 82.212 305.248 82.7659L299.702 79.5639ZM305.177 79.002C306.325 79.665 308.111 79.5478 309.171 78.6988C310.206 77.8701 310.087 76.6532 308.939 75.9901C307.79 75.3271 306.005 75.4443 304.969 76.2731C303.909 77.122 304.028 78.3389 305.177 79.002ZM307.878 76.8391C308.382 77.1302 308.396 77.6598 307.967 78.0035C307.512 78.3673 306.766 78.4239 306.262 78.1328C305.758 77.8417 305.719 77.3323 306.174 76.9684C306.603 76.6248 307.374 76.548 307.878 76.8391ZM308.393 82.2161C308.639 82.9843 308.535 83.7241 307.727 84.371L306.792 85.1189L309.173 86.4935L310.108 85.7456C311.193 84.8764 309.752 83.1743 308.393 82.2161ZM308.762 81.072C309.91 81.735 311.696 81.6178 312.756 80.7688C313.792 79.9401 313.672 78.7232 312.524 78.0601C312.188 77.8661 311.857 77.7448 311.451 77.6841C311.335 78.2784 310.979 78.8727 310.348 79.3781C309.716 79.8834 308.886 80.2392 308.042 80.413C308.221 80.6556 308.426 80.8779 308.762 81.072Z" fill="#8196B1"/>
<path d="M274.047 104.078L274.138 105.626L279.432 108.683L274.054 112.989L264.474 107.458L270.938 102.283L274.047 104.078ZM275.609 103.484L272.024 101.414C271.38 101.042 270.342 101.139 269.762 101.604L263.298 106.779C262.717 107.243 262.744 107.955 263.389 108.327L272.968 113.858C273.612 114.23 274.65 114.133 275.23 113.668L280.608 109.362C281.214 108.877 281.162 108.186 280.518 107.814L275.728 105.048L275.609 103.484Z" fill="#8196B1"/>
<path d="M240.136 132.732L241.313 133.411L240.227 134.28L239.051 133.601L240.136 132.732ZM237.965 134.47L239.141 135.149L235.91 137.737L234.733 137.058L237.965 134.47ZM243.401 130.929C240.096 129.02 235.036 129.404 232.057 131.79C229.077 134.175 229.34 137.632 232.645 139.54C235.95 141.448 241.01 141.064 243.989 138.679C246.969 136.294 246.706 132.837 243.401 130.929ZM233.705 138.691C231.072 137.171 230.86 134.369 233.233 132.469C235.607 130.569 239.708 130.258 242.341 131.778C244.974 133.298 245.186 136.1 242.813 138C240.439 139.9 236.338 140.211 233.705 138.691Z" fill="#8196B1"/>
<path d="M207.473 165.829C207.65 165.687 207.855 165.562 208.031 165.421C208.208 165.279 208.357 165.121 208.534 164.98L210.678 165C210.866 165.004 211.045 164.899 211.087 164.75L211.751 162.558C211.771 162.465 211.737 162.376 211.625 162.312C211.597 162.296 211.541 162.263 211.488 162.267L209.473 161.835C209.367 161.495 209.233 161.139 208.995 160.828L210.185 159.567C210.283 159.449 210.272 159.304 210.132 159.223L207.723 157.832C207.583 157.751 207.37 157.768 207.216 157.852L205.578 158.855C205.087 158.746 204.549 158.713 204.039 158.697L203.085 157.416C203.054 157.363 203.026 157.347 202.998 157.331C202.886 157.266 202.752 157.258 202.62 157.286L199.547 158.087C199.337 158.139 199.213 158.277 199.249 158.402L199.626 159.837C199.449 159.979 199.245 160.104 199.068 160.246C198.891 160.387 198.742 160.545 198.566 160.686L196.422 160.666C196.234 160.662 196.054 160.767 196.012 160.917L195.348 163.108C195.328 163.201 195.362 163.29 195.474 163.355C195.502 163.371 195.558 163.403 195.611 163.399L197.626 163.832C197.732 164.171 197.866 164.527 198.104 164.838L196.914 166.1C196.816 166.217 196.827 166.362 196.967 166.443L199.376 167.834C199.516 167.915 199.729 167.899 199.883 167.814L201.521 166.811C202.012 166.92 202.55 166.953 203.06 166.969L204.014 168.251C204.045 168.303 204.073 168.319 204.101 168.336C204.213 168.4 204.348 168.408 204.479 168.38L207.552 167.58C207.763 167.527 207.886 167.39 207.85 167.264L207.473 165.829ZM207.203 164.386C207.054 164.543 206.928 164.644 206.827 164.725C206.726 164.806 206.6 164.907 206.395 165.033L205.705 165.469L205.858 166.08L206.048 166.815L204.997 167.078L204.518 166.419L204.104 165.902L203.218 165.877C202.789 165.873 202.411 165.829 202.058 165.764L201.214 165.59L200.496 166.011L199.652 166.532L198.812 166.047L199.432 165.396L199.954 164.863L199.537 164.309C199.386 164.082 199.26 163.836 199.213 163.565L199.006 162.958L198.162 162.785L197.128 162.57L197.365 161.802L198.464 161.81L199.374 161.814L199.896 161.281C200.045 161.123 200.171 161.022 200.272 160.941C200.373 160.86 200.5 160.759 200.704 160.634L201.394 160.197L201.241 159.587L201.051 158.851L202.103 158.588L202.581 159.247L202.995 159.765L203.881 159.789C204.31 159.793 204.688 159.837 205.041 159.902L205.885 160.076L206.603 159.656L207.447 159.134L208.287 159.619L207.667 160.27L207.145 160.804L207.562 161.358C207.713 161.584 207.839 161.831 207.887 162.101L208.065 162.692L208.937 162.882L209.971 163.096L209.734 163.864L208.636 163.856L207.725 163.852L207.203 164.386ZM205.696 161.115C204.379 160.355 202.355 160.508 201.169 161.459C199.982 162.409 200.087 163.791 201.403 164.551C202.72 165.311 204.744 165.158 205.931 164.208C207.117 163.258 207.012 161.875 205.696 161.115ZM202.464 163.702C201.82 163.33 201.764 162.603 202.345 162.138C202.926 161.673 203.991 161.592 204.635 161.964C205.28 162.336 205.335 163.064 204.754 163.529C204.173 163.993 203.108 164.074 202.464 163.702Z" fill="#8196B1"/>
<path d="M139.98 213.725C136.675 211.817 131.615 212.201 128.636 214.586C125.656 216.971 125.919 220.428 129.224 222.336C132.529 224.244 137.589 223.86 140.568 221.475C143.548 219.09 143.285 215.633 139.98 213.725ZM128.277 219.041C129.009 218.803 131.058 219.324 132.178 219.971C133.298 220.618 134.387 221.908 134.16 222.437C132.767 222.433 131.405 222.134 130.284 221.487C129.164 220.84 128.509 219.975 128.277 219.041ZM135.811 222.312C135.877 221.063 134.132 219.603 133.264 219.102C132.395 218.601 129.994 217.667 128.192 217.913C128.336 216.987 128.827 216.054 129.812 215.265C132.185 213.365 136.286 213.054 138.919 214.574C141.552 216.094 141.765 218.896 139.392 220.796C138.407 221.584 137.131 222.065 135.811 222.312ZM137.834 215.443C136.685 214.78 134.9 214.897 133.839 215.746C132.804 216.575 132.923 217.792 134.072 218.455C135.22 219.118 137.006 219.001 138.041 218.172C139.101 217.323 138.982 216.106 137.834 215.443ZM135.132 217.606C134.628 217.315 134.614 216.785 135.044 216.442C135.498 216.078 136.244 216.021 136.748 216.312C137.252 216.604 137.291 217.113 136.836 217.477C136.407 217.82 135.636 217.897 135.132 217.606Z" fill="#8196B1"/>
<path d="M658.428 306.702L696.672 328.782L557.871 439.902L519.627 417.822L658.428 306.702Z" fill="#F0F4F9"/>
<path d="M761.847 223.906L796.627 243.986C798.54 245.09 798.693 247.105 796.968 248.486L765.617 273.584L727.374 251.504L761.847 223.906Z" fill="#E4EAF1"/>
<path d="M727.374 251.504L765.618 273.584L731.144 301.183L692.9 279.103L727.374 251.504Z" fill="#E4EAF1"/>
<path d="M692.901 279.103L731.145 301.183L696.671 328.782L658.427 306.702L692.901 279.103Z" fill="#E4EAF1"/>
<path d="M520.534 417.097L558.777 439.177L527.427 464.276C525.702 465.656 522.753 465.88 520.84 464.776L486.06 444.696L520.534 417.097Z" fill="#E4EAF1"/>
<path d="M522.098 445.474L525.33 442.886C526.02 442.334 526.378 441.752 526.403 441.14C526.445 440.514 526.102 439.992 525.373 439.571C524.645 439.151 523.83 439.005 522.93 439.134C522.046 439.25 521.259 439.585 520.568 440.137L517.337 442.724L522.098 445.474ZM523.858 445.724L523.977 447.289L523.447 447.713L513.867 442.183L514.397 441.758L516.688 441.584L519.364 439.442C520.206 438.768 521.171 438.316 522.261 438.087C523.369 437.869 524.436 437.928 525.462 438.265L525.84 437.962C526.059 437.787 526.328 437.687 526.648 437.663C526.984 437.625 527.283 437.682 527.545 437.833C527.806 437.984 527.937 438.175 527.936 438.407C527.953 438.625 527.852 438.822 527.633 438.997L527.254 439.3C527.909 439.934 528.159 440.634 528.003 441.403C527.866 442.182 527.376 442.908 526.535 443.582L523.858 445.724ZM518.184 446.484C517.74 446.506 517.358 446.425 517.041 446.242C516.724 446.058 516.544 445.816 516.504 445.514C516.48 445.199 516.611 444.926 516.897 444.697L519.306 446.088C519.02 446.317 518.646 446.449 518.184 446.484Z" fill="#182B44"/>
<path d="M765.847 246.242L767.023 246.922L765.937 247.791L764.761 247.112L765.847 246.242ZM763.675 247.981L764.852 248.66L761.62 251.247L760.443 250.568L763.675 247.981ZM769.111 244.439C765.806 242.531 760.746 242.915 757.767 245.3C754.788 247.686 755.05 251.142 758.355 253.05C761.66 254.959 766.72 254.575 769.699 252.19C772.679 249.804 772.417 246.348 769.111 244.439ZM759.416 252.201C756.783 250.681 756.57 247.88 758.943 245.98C761.317 244.079 765.418 243.768 768.051 245.288C770.684 246.808 770.896 249.61 768.523 251.51C766.15 253.41 762.049 253.722 759.416 252.201Z" fill="#182B44"/>
<path d="M725.725 279.174L724.433 274.148L722.771 274.128L724.387 280.245L733.527 280.338L733.228 279.226L725.725 279.174ZM727.114 278.062L734.592 278.135L736.254 278.155L734.638 272.038L725.498 271.945L725.796 273.057L727.114 278.062ZM733.274 273.13L734.293 277.023L728.477 276.97L727.458 273.077L733.274 273.13Z" fill="#182B44"/>
<path d="M690.67 302.297L691.731 301.448L698.901 305.588L697.841 306.437L690.67 302.297ZM692.64 298.25L703.396 304.46L702.31 305.329L691.554 299.119L692.64 298.25ZM690.349 305.834L691.435 304.965L693.844 306.356L692.758 307.225L690.349 305.834Z" fill="#182B44"/>
<path fill-rule="evenodd" clip-rule="evenodd" d="M381.547 30.5533C381.462 30.4698 381.395 30.3969 381.345 30.3227C381.296 30.2485 381.273 30.1782 381.267 30.1066C381.761 29.7872 382.087 29.4506 382.563 29.1325C384.419 27.9 385.055 28.9974 386.375 29.3831C387.193 29.627 388.184 29.7317 389.045 29.2705C389.082 28.2539 388.945 27.2625 388.635 26.3083C387.619 23.2122 384.638 20.4872 380.763 18.9458C380.459 19.9166 380.609 20.8817 381.129 21.7236C381.129 21.7236 380.216 21.1963 379.96 20.3225C379.648 20.2562 379.026 20.1213 378.706 20.0736C378.949 22.3466 381.575 24.1028 384.977 24.1505C384.951 24.1585 384.537 24.2499 383.324 24.9298C380.72 26.3691 379.536 25.4572 378.403 24.0616C376.066 21.1498 373.104 20.8886 373.521 18.1637C372.759 18.0775 371.967 18.2816 371.446 18.6991C370.908 19.1298 370.783 19.6852 371.012 20.1596C371.584 20.0606 371.79 20.0571 372.245 20.3195C371.182 20.2012 370.785 20.4048 369.613 20.9257C368.194 21.5552 367.274 22.5068 365.276 21.7407C364.325 21.249 363.789 21.7036 362.631 22.1754C361.141 22.7983 360.16 22.8248 358.067 23.0196C358.028 23.6584 358.429 23.9699 359.072 24.1011C360.4 24.3662 362.269 23.8944 363.696 23.7141C365.287 23.5154 366.813 24.8752 369.022 25.0555C370.533 25.1867 371.739 24.8793 372.33 23.5208C372.329 24.0907 372.055 24.6513 371.538 25.1165C373.362 25.9078 373.752 28.6075 375.446 29.9965C375.476 29.6944 375.559 29.4001 375.696 29.1258C375.963 28.5956 376.345 28.1888 376.788 27.8972C375.987 28.7918 375.823 30.4419 377.479 31.5578C377.896 31.8441 378.441 32.0907 379.096 32.2749C379.877 32.4976 380.662 32.654 381.225 33.1391C381.647 33.4969 381.884 33.9528 381.789 34.4339C381.65 35.1523 382.49 35.8084 383.634 35.4876C384.953 33.0901 382.421 31.4227 381.547 30.5533Z" fill="white"/>
<path fill-rule="evenodd" clip-rule="evenodd" d="M332.7 51.6676L335.865 56.5701C335.959 56.7173 336.121 56.8107 336.35 56.8504L343.977 58.1786C344.295 58.234 344.565 58.1727 344.788 57.9947L350.589 53.3505C350.62 53.3251 350.648 53.2981 350.673 53.2695C350.682 53.2622 350.691 53.2549 350.7 53.2476C350.717 53.226 350.731 53.2038 350.743 53.181L350.757 53.1583C350.771 53.1289 350.782 53.0991 350.789 53.0689L350.793 53.0478C350.796 53.0234 350.798 52.999 350.797 52.9747L350.786 52.9452C350.783 52.92 350.777 52.8952 350.769 52.8708L350.764 52.8533C350.754 52.827 350.74 52.8015 350.724 52.7768L347.56 47.8743C347.465 47.7271 347.303 47.6337 347.074 47.594L339.447 46.2658C339.409 46.2591 339.37 46.2545 339.33 46.2519L339.303 46.2511C339.267 46.2495 339.23 46.2498 339.193 46.2518L339.156 46.2556C339.12 46.2588 339.085 46.2636 339.05 46.2701L339.02 46.2761C338.977 46.2857 338.936 46.2977 338.896 46.312L338.859 46.3195C338.828 46.3314 338.798 46.3447 338.769 46.3593C338.76 46.3666 338.751 46.3739 338.742 46.3812C338.704 46.4023 338.67 46.4254 338.638 46.4505L332.837 51.0947C332.615 51.2725 332.569 51.4635 332.7 51.6676L332.7 51.6676ZM338.981 47.7713L341.462 51.6235L336.808 55.3493L334.328 51.496L338.981 47.7713ZM337.969 56.0175L342.622 52.2928L348.615 53.3335L343.961 57.0592L337.969 56.0175ZM346.275 48.5695L348.624 52.216L342.951 51.2308L340.601 47.5842L346.275 48.5695Z" fill="#182B44"/>
<rect width="71.7602" height="11.04" rx="4" transform="matrix(0.866025 0.5 -0.780649 0.62497 379.106 59.3387)" fill="#E4EAF1"/>
<rect width="71.7602" height="11.04" rx="4" transform="matrix(0.866025 0.5 -0.780649 0.62497 521.848 103.155)" fill="#F0F4F9"/>
<rect width="24.8401" height="24.8401" rx="12.42" transform="matrix(0.866025 0.5 -0.780649 0.62497 500.344 83.3176)" fill="#F0F4F9"/>
<rect width="53.8201" height="11.04" rx="4" transform="matrix(0.866025 0.5 -0.780649 0.62497 364.024 71.4131)" fill="#E4EAF1"/>
<rect width="48.9901" height="11.04" rx="4" transform="matrix(0.866025 0.5 -0.780649 0.62497 333.859 95.562)" fill="#E4EAF1"/>
<rect width="62.1001" height="11.04" rx="4" transform="matrix(0.866025 0.5 -0.780649 0.62497 348.942 83.4875)" fill="#E4EAF1"/>
<rect width="62.1001" height="11.04" rx="4" transform="matrix(0.866025 0.5 -0.780649 0.62497 318.778 107.636)" fill="#E4EAF1"/>
<rect width="24.8401" height="24.8401" rx="12.42" transform="matrix(0.866025 0.5 -0.780649 0.62497 714.27 206.828)" fill="#6644FF"/>
<path d="M718.972 223.634L715.387 221.564L712.155 224.151L710.979 223.472L714.21 220.885L710.625 218.815L711.686 217.966L715.271 220.036L718.503 217.448L719.679 218.128L716.447 220.715L720.033 222.785L718.972 223.634Z" fill="white"/>
<rect width="24.8401" height="24.8401" rx="12.42" transform="matrix(0.866025 0.5 -0.780649 0.62497 687.978 191.648)" fill="#6644FF" fill-opacity="0.2"/>
<path d="M687.126 203.02C685.81 202.26 683.76 202.434 682.574 203.384C681.387 204.334 681.492 205.717 682.808 206.477C684.125 207.237 686.177 207.099 687.364 206.149C688.55 205.199 688.443 203.78 687.126 203.02ZM683.894 205.608C683.25 205.236 683.197 204.544 683.778 204.079C684.384 203.594 685.396 203.517 686.04 203.889C686.713 204.277 686.765 204.969 686.159 205.454C685.578 205.919 684.566 205.996 683.894 205.608ZM689.214 207.948C688.234 207.382 686.689 207.5 685.806 208.207C684.922 208.915 685.002 209.97 685.982 210.536C686.963 211.102 688.507 210.985 689.391 210.277C690.275 209.57 690.195 208.514 689.214 207.948ZM687.068 209.667C686.732 209.473 686.707 209.145 687.01 208.903C687.313 208.66 687.792 208.624 688.129 208.818C688.465 209.012 688.518 209.355 688.215 209.598C687.912 209.84 687.404 209.861 687.068 209.667ZM696.574 203.291C694.754 202.24 691.959 202.47 690.343 203.764C688.702 205.078 688.82 206.99 690.641 208.041C692.462 209.093 695.256 208.862 696.897 207.548C698.513 206.255 698.395 204.342 696.574 203.291ZM691.727 207.172C690.578 206.509 690.459 205.292 691.519 204.443C692.555 203.615 694.34 203.497 695.489 204.16C696.637 204.823 696.756 206.04 695.721 206.869C694.661 207.718 692.875 207.835 691.727 207.172Z" fill="#6644FF"/>
<path d="M651.989 184.23C657.343 179.943 666.5 179.248 672.44 182.678C678.381 186.107 678.856 192.363 673.501 196.65C668.146 200.937 658.99 201.632 653.049 198.202C647.109 194.772 646.634 188.517 651.989 184.23Z" fill="white"/>
<path fill-rule="evenodd" clip-rule="evenodd" d="M649.598 191.438C649.75 193.438 651.025 195.511 653.708 197.06C656.404 198.617 659.902 199.27 663.395 199.005C666.888 198.74 670.247 197.566 672.677 195.621C675.096 193.685 676.044 191.442 675.892 189.442C675.74 187.442 674.464 185.369 671.781 183.819C669.086 182.263 665.588 181.61 662.095 181.875C658.602 182.14 655.243 183.314 652.813 185.259C650.394 187.195 649.446 189.438 649.598 191.438ZM672.44 182.678C666.5 179.248 657.343 179.943 651.989 184.23C646.634 188.517 647.109 194.772 653.049 198.202C658.99 201.632 668.146 200.937 673.501 196.65C678.856 192.363 678.381 186.107 672.44 182.678Z" fill="#D3DAE4"/>
<path d="M658.976 188.786C659.028 189.465 659.427 190.021 660.174 190.452C660.921 190.883 661.791 191.061 662.785 190.986C663.78 190.91 664.613 190.603 665.287 190.064C665.96 189.525 666.271 188.916 666.219 188.236C666.168 187.557 665.769 187.002 665.022 186.571C664.275 186.14 663.404 185.962 662.41 186.037C661.416 186.113 660.582 186.42 659.909 186.959C659.235 187.498 658.924 188.107 658.976 188.786ZM663.759 192.522L664.052 196.379L662.348 196.508L662.055 192.651L662.484 192.308L662.467 192.089C661.202 192.124 660.084 191.861 659.113 191.301C658.03 190.676 657.443 189.872 657.35 188.891C657.277 187.921 657.728 187.045 658.704 186.263C659.681 185.482 660.879 185.037 662.299 184.929C663.755 184.819 665.024 185.076 666.107 185.702C667.19 186.327 667.76 187.131 667.817 188.115C667.891 189.085 667.439 189.961 666.463 190.743C665.588 191.444 664.522 191.872 663.266 192.029L663.283 192.247L663.759 192.522Z" fill="#A2B5CD"/>
<rect width="88.9007" height="44.1601" transform="matrix(0.866025 0.5 -0.780649 0.62497 412.535 22.2301)" fill="#E4EAF1"/>
<rect opacity="0.25" width="33.1201" height="1.38" transform="matrix(0.866025 0.5 -0.780649 0.62497 138.574 195.089)" fill="#8196B1"/>
<path d="M403.682 47.8977L404.537 37.641C408.228 37.8001 411.259 38.5642 413.63 39.9335C416.002 41.3027 417.602 43.2123 418.431 45.6623L403.682 47.8977Z" fill="#A2B5CD"/>
<rect width="51.0601" height="11.04" rx="4" transform="matrix(0.866025 0.5 -0.780649 0.62497 425.043 47.2646)" fill="#A2B5CD"/>
<path d="M455.627 119.582C457.901 117.761 461.789 117.466 464.311 118.923L690.018 249.235C692.54 250.691 692.741 253.347 690.468 255.167L590.971 334.822C588.698 336.642 584.81 336.937 582.288 335.481L356.581 205.169C354.059 203.712 353.857 201.056 356.131 199.236L455.627 119.582Z" fill="white"/>
<path fill-rule="evenodd" clip-rule="evenodd" d="M688.989 250.058L463.282 119.746C461.39 118.654 458.474 118.876 456.769 120.241L357.272 199.895C355.567 201.261 355.718 203.253 357.61 204.345L583.317 334.657C585.209 335.749 588.125 335.528 589.83 334.162L689.326 254.508C691.031 253.143 690.88 251.151 688.989 250.058ZM464.311 118.923C461.789 117.466 457.901 117.761 455.627 119.582L356.131 199.236C353.857 201.056 354.059 203.712 356.581 205.169L582.288 335.481C584.81 336.937 588.698 336.642 590.971 334.822L690.468 255.167C692.741 253.347 692.54 250.691 690.018 249.235L464.311 118.923Z" fill="#D3DAE4"/>
<rect width="248.401" height="1.38" transform="matrix(0.866025 0.5 -0.780649 0.62497 413.765 165.446)" fill="#F0F4F9"/>
<rect width="248.401" height="1.38" transform="matrix(0.866025 0.5 -0.780649 0.62497 391.68 183.127)" fill="#F0F4F9"/>
<rect width="248.401" height="1.38" transform="matrix(0.866025 0.5 -0.780649 0.62497 435.85 147.766)" fill="#F0F4F9"/>
<path opacity="0.25" d="M392.005 190.018L387.414 187.367L369.656 201.584L584.179 325.439L623.127 294.259C611.65 287.633 595.6 301.456 583.064 294.218C570.528 286.98 559.391 300.519 545.266 292.364C531.141 284.209 589.746 241.913 577.21 234.676C564.674 227.438 535.092 254.041 522.203 246.599C509.314 239.158 526.631 229.187 513.565 221.643C500.499 214.1 527.803 194.917 515.443 187.782C503.084 180.646 455.762 220.72 443.226 213.483C430.69 206.245 425.916 213.473 412.398 206.292C398.879 199.111 396.772 192.77 392.005 190.018Z" fill="url(#paint0_linear_2941_2787)"/>
<path fill-rule="evenodd" clip-rule="evenodd" d="M449.433 214.772C446.777 215.184 444.393 215.034 442.59 213.992C439.52 212.22 436.961 211.354 434.656 210.926C432.341 210.495 430.24 210.495 428.007 210.499L427.954 210.499C425.747 210.503 423.416 210.508 420.788 210.05C418.131 209.587 415.209 208.659 411.765 206.83C404.932 203.201 400.986 199.772 398.152 196.907C397.445 196.193 396.808 195.515 396.216 194.88C396.155 194.815 396.095 194.751 396.035 194.687C395.511 194.124 395.022 193.601 394.544 193.114C393.477 192.026 392.498 191.158 391.384 190.515L386.794 187.864C386.478 187.682 386.453 187.35 386.737 187.123C387.021 186.895 387.507 186.859 387.823 187.041L392.413 189.691C393.683 190.424 394.75 191.384 395.835 192.49C396.323 192.986 396.82 193.52 397.343 194.08C397.403 194.145 397.464 194.21 397.525 194.275C398.116 194.908 398.744 195.577 399.44 196.28C402.213 199.084 406.062 202.43 412.749 205.981C416.065 207.742 418.812 208.602 421.247 209.026C423.691 209.452 425.86 209.448 428.093 209.444L428.1 209.444C430.32 209.44 432.609 209.435 435.139 209.906C437.68 210.379 440.421 211.322 443.619 213.169C444.95 213.937 446.791 214.114 449.178 213.743C451.576 213.37 454.418 212.458 457.592 211.151C463.937 208.539 471.38 204.447 478.881 200.316L479.074 200.209C486.482 196.13 493.936 192.024 500.32 189.373C503.539 188.037 506.541 187.046 509.168 186.625C511.805 186.203 514.173 186.34 515.958 187.37C519.315 189.308 519.92 192.06 519.277 195.077C518.658 197.98 516.862 201.236 515.094 204.439C515.038 204.541 514.981 204.644 514.925 204.746C513.085 208.083 511.315 211.352 510.794 214.25C510.277 217.125 511.002 219.542 514.017 221.282C517.418 223.246 518.872 225.396 519.307 227.634C519.737 229.841 519.17 232.112 518.626 234.284L518.626 234.286C518.075 236.488 517.549 238.59 517.922 240.6C518.289 242.578 519.534 244.486 522.618 246.267C525.522 247.943 529.43 247.757 534.132 246.441C538.83 245.126 544.064 242.753 549.381 240.328L549.645 240.207C554.834 237.84 560.094 235.441 564.846 234.073C569.668 232.685 574.244 232.282 577.705 234.28C579.543 235.341 579.988 237.01 579.593 238.962C579.197 240.912 577.944 243.255 576.171 245.832C572.836 250.678 567.551 256.505 562.225 262.375C561.883 262.752 561.541 263.13 561.199 263.507C555.514 269.779 549.923 276.033 546.626 281.224C544.977 283.82 543.931 286.109 543.711 287.974C543.493 289.831 544.096 291.198 545.623 292.079C549.031 294.047 552.213 294.682 555.257 294.671C558.339 294.66 561.335 293.986 564.406 293.25C564.597 293.205 564.789 293.159 564.98 293.112C567.829 292.427 570.763 291.721 573.727 291.597C576.946 291.463 580.179 292.012 583.457 293.904C589.364 297.314 596.083 295.8 603.171 294.054C603.336 294.013 603.502 293.972 603.668 293.931C606.993 293.11 610.394 292.271 613.661 292.02C617.138 291.754 620.51 292.15 623.561 293.911C623.877 294.094 623.902 294.426 623.618 294.653C623.333 294.881 622.847 294.917 622.532 294.735C619.846 293.184 616.902 292.827 613.742 293.069C610.666 293.305 607.428 294.103 604.042 294.939L603.613 295.044C596.652 296.76 589.057 298.555 582.428 294.728C579.437 293.001 576.573 292.532 573.73 292.651C570.993 292.765 568.258 293.422 565.353 294.12C565.181 294.162 565.009 294.203 564.836 294.244C561.782 294.976 558.551 295.714 555.175 295.726C551.759 295.739 548.247 295.012 544.593 292.903C542.588 291.745 541.938 290.003 542.179 287.951C542.42 285.909 543.547 283.489 545.223 280.851C548.577 275.57 554.239 269.242 559.907 262.988C560.242 262.618 560.578 262.249 560.913 261.88C566.259 255.985 571.496 250.212 574.788 245.428C576.539 242.884 577.708 240.662 578.07 238.877C578.432 237.092 577.972 235.852 576.676 235.104C573.869 233.483 570.036 233.699 565.368 235.043C560.762 236.369 555.611 238.718 550.352 241.117L550.178 241.196C544.901 243.603 539.52 246.048 534.639 247.414C529.763 248.779 525.13 249.135 521.589 247.091C518.229 245.151 516.81 243.018 516.397 240.793C515.995 238.627 516.555 236.392 517.091 234.247L517.112 234.165C517.662 231.964 518.178 229.856 517.784 227.834C517.396 225.843 516.119 223.914 512.987 222.106C509.469 220.075 508.715 217.259 509.269 214.182C509.818 211.13 511.668 207.731 513.491 204.424L513.626 204.18C515.422 200.925 517.163 197.767 517.757 194.984C518.36 192.152 517.752 189.824 514.929 188.194C513.624 187.44 511.806 187.272 509.433 187.652C507.051 188.034 504.222 188.954 501.058 190.268C494.769 192.879 487.384 196.946 479.924 201.055L479.799 201.123C472.328 205.238 464.787 209.387 458.324 212.048C455.095 213.378 452.077 214.361 449.433 214.772Z" fill="#6644FF"/>
<circle r="2.76001" transform="matrix(0.866025 0.5 -0.780649 0.62497 622.902 293.614)" fill="#6644FF"/>
<rect width="62.1001" height="11.04" rx="4" transform="matrix(0.866025 0.5 -0.780649 0.62497 460.451 125.601)" fill="#E4EAF1"/>
<path d="M330.661 219.627C332.935 217.807 336.822 217.512 339.344 218.968L565.051 349.28C567.574 350.736 567.775 353.392 565.502 355.212L509.097 400.369C506.823 402.189 502.936 402.484 500.414 401.028L274.707 270.716C272.184 269.26 271.983 266.604 274.256 264.783L330.661 219.627Z" fill="white"/>
<path fill-rule="evenodd" clip-rule="evenodd" d="M564.022 350.104L338.315 219.792C336.424 218.7 333.508 218.921 331.803 220.286L275.398 265.443C273.693 266.808 273.844 268.8 275.736 269.892L501.443 400.204C503.334 401.296 506.25 401.075 507.955 399.71L564.36 354.553C566.065 353.188 565.914 351.196 564.022 350.104ZM339.344 218.968C336.822 217.512 332.935 217.807 330.661 219.627L274.256 264.783C271.983 266.604 272.184 269.26 274.707 270.716L500.414 401.028C502.936 402.484 506.823 402.189 509.097 400.369L565.502 355.212C567.775 353.392 567.574 350.736 565.051 349.28L339.344 218.968Z" fill="#D3DAE4"/>
<rect width="34.5001" height="11.04" rx="4" transform="matrix(0.866025 0.5 -0.780649 0.62497 335.485 225.646)" fill="#E4EAF1"/>
<rect width="11.04" height="34.5001" rx="4" transform="matrix(0.866025 0.5 -0.780649 0.62497 318.483 242.55)" fill="#6644FF"/>
<rect width="11.04" height="13.8" rx="4" transform="matrix(0.866025 0.5 -0.780649 0.62497 374.031 296.888)" fill="#6644FF"/>
<rect width="11.04" height="34.5001" rx="4" transform="matrix(0.866025 0.5 -0.780649 0.62497 461.898 325.351)" fill="#6644FF"/>
<rect width="11.04" height="27.6001" rx="4" transform="matrix(0.866025 0.5 -0.780649 0.62497 327.438 255.143)" fill="#6644FF"/>
<rect width="11.04" height="13.8" rx="4" transform="matrix(0.866025 0.5 -0.780649 0.62497 388.373 305.167)" fill="#6644FF"/>
<rect width="11.04" height="27.6001" rx="4" transform="matrix(0.866025 0.5 -0.780649 0.62497 470.853 337.943)" fill="#6644FF"/>
<rect width="11.04" height="20.7" rx="4" transform="matrix(0.866025 0.5 -0.780649 0.62497 336.393 267.735)" fill="#FF99DD"/>
<rect width="11.04" height="20.7" rx="4" transform="matrix(0.866025 0.5 -0.780649 0.62497 408.101 309.135)" fill="#FF99DD"/>
<rect width="11.04" height="27.6001" rx="4" transform="matrix(0.866025 0.5 -0.780649 0.62497 485.194 346.223)" fill="#6644FF"/>
<rect width="11.04" height="27.6001" rx="4" transform="matrix(0.866025 0.5 -0.780649 0.62497 356.121 271.703)" fill="#6644FF"/>
<rect width="11.04" height="27.6001" rx="4" transform="matrix(0.866025 0.5 -0.780649 0.62497 427.828 313.103)" fill="#6644FF"/>
<rect width="11.04" height="20.7" rx="4" transform="matrix(0.866025 0.5 -0.780649 0.62497 494.149 358.815)" fill="#6644FF"/>
<rect width="11.04" height="20.7" rx="4" transform="matrix(0.866025 0.5 -0.780649 0.62497 365.076 284.295)" fill="#6644FF"/>
<rect width="11.04" height="34.5001" rx="4" transform="matrix(0.866025 0.5 -0.780649 0.62497 447.556 317.071)" fill="#6644FF"/>
<rect width="11.04" height="13.8" rx="4" transform="matrix(0.866025 0.5 -0.780649 0.62497 503.104 371.408)" fill="#6644FF"/>
<mask id="mask0_2941_2787" style="mask-type:alpha" maskUnits="userSpaceOnUse" x="221" y="270" width="281" height="168">
<rect width="292.561" height="34.5001" transform="matrix(0.866025 0.5 -0.780649 0.62497 248.528 270.094)" fill="#C4C4C4"/>
</mask>
<g mask="url(#mask0_2941_2787)">
<path fill-rule="evenodd" clip-rule="evenodd" d="M257.985 284.461C255.462 283.005 251.575 283.3 249.301 285.12L234.372 297.072C232.099 298.892 232.3 301.548 234.823 303.004L333.25 359.831C335.772 361.287 339.659 360.992 341.933 359.172L356.862 347.22C359.135 345.4 358.934 342.744 356.412 341.288L257.985 284.461ZM385.265 357.946C382.742 356.49 378.855 356.785 376.581 358.605L361.652 370.557C359.379 372.377 359.58 375.033 362.103 376.489L460.53 433.316C463.052 434.772 466.939 434.477 469.213 432.657L484.142 420.705C486.415 418.885 486.214 416.229 483.692 414.773L385.265 357.946Z" fill="white"/>
<path fill-rule="evenodd" clip-rule="evenodd" d="M384.235 358.77C382.344 357.678 379.428 357.899 377.723 359.264L362.794 371.216C361.089 372.581 361.24 374.573 363.132 375.665L461.559 432.492C463.45 433.584 466.366 433.363 468.071 431.998L483 420.046C484.705 418.681 484.554 416.689 482.662 415.597L384.235 358.77ZM376.581 358.605C378.855 356.785 382.742 356.49 385.265 357.946L483.692 414.773C486.214 416.229 486.415 418.885 484.142 420.705L469.213 432.657C466.94 434.477 463.052 434.772 460.53 433.316L362.103 376.489C359.58 375.033 359.379 372.377 361.652 370.557L376.581 358.605Z" fill="#D3DAE4"/>
<path fill-rule="evenodd" clip-rule="evenodd" d="M384.235 358.77C382.344 357.678 379.428 357.899 377.723 359.264L362.794 371.216C361.089 372.581 361.24 374.573 363.132 375.665L461.559 432.492C463.45 433.584 466.366 433.363 468.071 431.998L483 420.046C484.705 418.681 484.554 416.689 482.662 415.597L384.235 358.77ZM376.581 358.605C378.854 356.785 382.742 356.49 385.264 357.946L483.691 414.773C486.213 416.229 486.415 418.885 484.142 420.705L469.213 432.657C466.939 434.477 463.052 434.772 460.529 433.316L362.102 376.489C359.58 375.033 359.379 372.377 361.652 370.557L376.581 358.605Z" fill="#D3DAE4"/>
<path fill-rule="evenodd" clip-rule="evenodd" d="M260.412 286.539C258.52 285.447 255.605 285.668 253.899 287.033L238.971 298.985C237.265 300.35 237.417 302.342 239.308 303.434L337.735 360.261C339.627 361.353 342.543 361.132 344.248 359.767L359.177 347.815C360.882 346.45 360.731 344.458 358.839 343.366L260.412 286.539ZM252.758 286.374C255.031 284.554 258.919 284.259 261.441 285.715L359.868 342.542C362.39 343.998 362.592 346.654 360.318 348.474L345.39 360.426C343.116 362.246 339.228 362.541 336.706 361.085L238.279 304.258C235.757 302.802 235.555 300.146 237.829 298.326L252.758 286.374Z" fill="#D3DAE4" fill-opacity="0.3"/>
<path d="M377.288 367.92C379.561 366.1 383.449 365.805 385.971 367.261L406.715 379.238C409.238 380.694 409.439 383.35 407.166 385.17L406.78 385.478C404.507 387.299 400.619 387.594 398.097 386.137L377.353 374.161C374.831 372.705 374.629 370.049 376.902 368.228L377.288 367.92Z" fill="#E4EAF1"/>
</g>
<g filter="url(#filter3_d_2941_2787)">
<path d="M170.349 240.153L165.146 237.101L178.258 226.419L183.503 229.496C184.979 230.362 185.987 231.322 186.528 232.374C187.072 233.424 187.142 234.515 186.738 235.647C186.339 236.783 185.459 237.905 184.097 239.014C182.731 240.127 181.269 240.913 179.709 241.374C178.154 241.837 176.577 241.968 174.977 241.765C173.382 241.565 171.839 241.027 170.349 240.153ZM170.624 236.986L172.595 238.142C173.512 238.68 174.429 239.015 175.345 239.145C176.27 239.276 177.197 239.183 178.127 238.867C179.066 238.551 180.024 237.994 181.002 237.198C181.97 236.409 182.602 235.67 182.897 234.981C183.196 234.295 183.178 233.651 182.842 233.047C182.507 232.444 181.88 231.873 180.963 231.335L178.985 230.174L170.624 236.986Z" fill="#A2B5CD"/>
<path d="M179.77 245.68L189.603 237.669L192.656 239.46L182.822 247.471L179.77 245.68ZM192.404 237.536C191.95 237.27 191.695 236.932 191.639 236.522C191.593 236.112 191.759 235.752 192.139 235.442C192.514 235.136 192.997 234.968 193.586 234.936C194.184 234.904 194.71 235.022 195.163 235.288C195.617 235.554 195.868 235.892 195.914 236.303C195.97 236.712 195.811 237.07 195.435 237.376C195.055 237.686 194.566 237.856 193.968 237.888C193.379 237.92 192.858 237.802 192.404 237.536Z" fill="#A2B5CD"/>
<path d="M185.268 248.906L195.101 240.894L198.06 242.631L196.345 244.029L196.459 244.096C197.27 243.716 198.068 243.538 198.852 243.562C199.641 243.582 200.344 243.773 200.96 244.134C201.113 244.224 201.269 244.328 201.429 244.445C201.588 244.563 201.72 244.673 201.824 244.776L199.404 246.748C199.299 246.632 199.135 246.488 198.912 246.315C198.689 246.142 198.472 245.994 198.262 245.871C197.813 245.607 197.324 245.443 196.795 245.379C196.276 245.313 195.76 245.345 195.247 245.475C194.739 245.608 194.285 245.837 193.883 246.164L188.32 250.697L185.268 248.906Z" fill="#A2B5CD"/>
<path d="M197.836 256.549C196.704 255.884 195.934 255.146 195.527 254.333C195.129 253.519 195.088 252.675 195.403 251.802C195.724 250.925 196.402 250.064 197.439 249.22C198.451 248.395 199.558 247.801 200.762 247.437C201.965 247.072 203.179 246.95 204.404 247.07C205.633 247.193 206.788 247.572 207.867 248.205C208.593 248.631 209.165 249.113 209.582 249.65C210.007 250.187 210.247 250.762 210.301 251.374C210.36 251.988 210.207 252.628 209.843 253.294C209.482 253.955 208.884 254.627 208.047 255.309L207.298 255.919L198.005 250.466L199.695 249.089L206.115 252.856C206.508 252.536 206.76 252.197 206.872 251.838C206.984 251.479 206.956 251.13 206.787 250.792C206.628 250.453 206.326 250.154 205.882 249.893C205.418 249.621 204.911 249.458 204.361 249.405C203.82 249.35 203.289 249.395 202.768 249.538C202.252 249.677 201.797 249.904 201.404 250.217L199.797 251.527C199.31 251.923 198.99 252.324 198.837 252.731C198.688 253.14 198.704 253.532 198.884 253.907C199.065 254.282 199.411 254.62 199.922 254.919C200.261 255.118 200.614 255.266 200.981 255.362C201.349 255.458 201.718 255.495 202.089 255.473C202.461 255.452 202.822 255.371 203.175 255.231L205.832 257.023C205.083 257.433 204.26 257.692 203.363 257.8C202.475 257.907 201.557 257.859 200.608 257.655C199.667 257.45 198.743 257.081 197.836 256.549Z" fill="#A2B5CD"/>
<path d="M209.853 263.599C208.725 262.937 207.969 262.195 207.583 261.37C207.207 260.546 207.184 259.694 207.513 258.817C207.847 257.942 208.511 257.1 209.506 256.29C210.513 255.469 211.614 254.877 212.808 254.513C214.012 254.148 215.23 254.029 216.464 254.155C217.703 254.277 218.879 254.665 219.992 255.318C220.952 255.882 221.637 256.502 222.047 257.179C222.456 257.856 222.59 258.547 222.447 259.253C222.304 259.958 221.874 260.633 221.157 261.278L218.277 259.587C218.686 259.14 218.866 258.692 218.816 258.244C218.775 257.796 218.475 257.407 217.916 257.079C217.443 256.802 216.915 256.653 216.331 256.634C215.756 256.613 215.153 256.723 214.522 256.963C213.891 257.203 213.266 257.575 212.647 258.079C212.019 258.59 211.581 259.081 211.333 259.551C211.089 260.024 211.029 260.458 211.152 260.853C211.275 261.248 211.573 261.585 212.046 261.862C212.395 262.067 212.771 262.198 213.177 262.256C213.586 262.317 214.004 262.302 214.429 262.21C214.862 262.118 215.281 261.948 215.684 261.7L218.565 263.39C217.766 263.974 216.875 264.378 215.892 264.603C214.918 264.827 213.913 264.86 212.876 264.7C211.84 264.54 210.832 264.173 209.853 263.599Z" fill="#A2B5CD"/>
<path d="M232.602 262.896L230.554 264.565L223.925 260.677L225.974 259.008L232.602 262.896ZM229.835 257.971L232.887 259.762L223.72 267.231C223.468 267.436 223.315 267.621 223.26 267.786C223.209 267.948 223.233 268.096 223.33 268.231C223.432 268.369 223.586 268.498 223.791 268.619C223.935 268.703 224.089 268.778 224.253 268.845C224.422 268.908 224.551 268.957 224.641 268.991L223.091 270.926C222.896 270.871 222.632 270.785 222.299 270.668C221.962 270.554 221.589 270.386 221.18 270.164C220.419 269.753 219.861 269.303 219.508 268.815C219.159 268.329 219.043 267.824 219.16 267.301C219.277 266.777 219.66 266.254 220.309 265.732L229.835 257.971Z" fill="#A2B5CD"/>
<path d="M236.002 272.804L241.649 268.204L244.702 269.995L234.868 278.006L231.937 276.287L233.724 274.832L233.609 274.764C232.784 275.088 231.908 275.223 230.98 275.169C230.057 275.118 229.182 274.85 228.356 274.365C227.62 273.933 227.122 273.432 226.862 272.86C226.602 272.289 226.589 271.687 226.824 271.053C227.065 270.422 227.566 269.793 228.33 269.164L234.591 264.063L237.643 265.854L231.869 270.559C231.293 271.034 231.009 271.51 231.016 271.987C231.022 272.463 231.315 272.871 231.893 273.21C232.261 273.426 232.679 273.567 233.149 273.633C233.622 273.696 234.107 273.663 234.601 273.534C235.101 273.409 235.568 273.165 236.002 272.804Z" fill="#A2B5CD"/>
<path d="M253.497 279.085L250.549 277.57C250.714 277.368 250.804 277.152 250.817 276.92C250.834 276.685 250.765 276.45 250.609 276.215C250.463 275.98 250.213 275.758 249.859 275.551C249.386 275.274 248.898 275.113 248.394 275.068C247.894 275.02 247.497 275.116 247.202 275.356C246.968 275.547 246.874 275.77 246.922 276.026C246.97 276.281 247.201 276.599 247.614 276.979L249.247 278.44C250.121 279.227 250.603 279.953 250.693 280.616C250.783 281.279 250.474 281.899 249.766 282.476C249.121 283.001 248.343 283.337 247.431 283.484C246.524 283.634 245.567 283.604 244.558 283.395C243.558 283.185 242.58 282.8 241.625 282.24C240.168 281.385 239.278 280.483 238.956 279.534C238.642 278.585 238.881 277.684 239.671 276.832L242.815 278.479C242.509 278.855 242.425 279.231 242.565 279.606C242.709 279.978 243.053 280.323 243.598 280.643C244.133 280.957 244.654 281.134 245.163 281.175C245.68 281.215 246.088 281.117 246.388 280.88C246.63 280.675 246.716 280.442 246.645 280.178C246.578 279.912 246.348 279.604 245.956 279.254L244.389 277.859C243.506 277.072 243.039 276.331 242.987 275.637C242.94 274.946 243.284 274.301 244.018 273.703C244.649 273.188 245.385 272.857 246.223 272.709C247.067 272.564 247.961 272.595 248.906 272.803C249.856 273.013 250.802 273.394 251.743 273.946C253.133 274.762 253.964 275.618 254.237 276.513C254.515 277.412 254.268 278.269 253.497 279.085Z" fill="#A2B5CD"/>
<path d="M258.57 291.912L253.368 288.86L266.479 278.178L271.724 281.256C273.201 282.122 274.209 283.081 274.749 284.134C275.294 285.183 275.364 286.274 274.96 287.406C274.561 288.542 273.68 289.664 272.319 290.773C270.953 291.886 269.49 292.673 267.931 293.133C266.376 293.597 264.798 293.727 263.199 293.524C261.604 293.324 260.061 292.787 258.57 291.912ZM258.846 288.745L260.816 289.902C261.734 290.44 262.65 290.774 263.566 290.905C264.491 291.035 265.419 290.942 266.349 290.626C267.288 290.31 268.246 289.753 269.223 288.957C270.192 288.168 270.824 287.429 271.118 286.74C271.417 286.055 271.399 285.41 271.064 284.807C270.728 284.203 270.102 283.632 269.185 283.094L267.207 281.934L258.846 288.745Z" fill="#A2B5CD"/>
<path d="M270.944 299.432C270.242 299.02 269.725 298.564 269.393 298.065C269.066 297.562 268.958 297.041 269.069 296.502C269.189 295.962 269.573 295.428 270.222 294.899C270.768 294.454 271.339 294.146 271.935 293.975C272.531 293.805 273.135 293.741 273.749 293.783C274.362 293.826 274.972 293.945 275.579 294.14C276.191 294.337 276.793 294.577 277.385 294.858C278.084 295.185 278.656 295.442 279.099 295.63C279.546 295.815 279.911 295.916 280.195 295.933C280.478 295.949 280.724 295.872 280.934 295.702L280.972 295.671C281.377 295.34 281.548 295.001 281.483 294.652C281.423 294.306 281.133 293.98 280.612 293.674C280.063 293.352 279.517 293.184 278.974 293.171C278.436 293.154 277.952 293.247 277.523 293.45L274.904 291.627C275.645 291.224 276.444 290.968 277.299 290.86C278.159 290.749 279.039 290.792 279.937 290.991C280.845 291.188 281.739 291.545 282.618 292.061C283.229 292.419 283.75 292.815 284.181 293.247C284.617 293.682 284.917 294.137 285.083 294.611C285.254 295.088 285.255 295.573 285.085 296.065C284.92 296.555 284.545 297.038 283.961 297.514L277.328 302.917L274.433 301.219L275.797 300.108L275.711 300.058C275.227 300.204 274.719 300.286 274.188 300.304C273.662 300.318 273.125 300.257 272.577 300.121C272.033 299.981 271.489 299.752 270.944 299.432ZM273.701 298.412C274.15 298.675 274.625 298.843 275.127 298.917C275.633 298.986 276.121 298.967 276.59 298.86C277.059 298.752 277.466 298.557 277.812 298.276L278.855 297.425C278.704 297.415 278.522 297.379 278.308 297.319C278.102 297.259 277.878 297.184 277.634 297.095C277.395 297.002 277.157 296.908 276.922 296.812C276.691 296.712 276.481 296.622 276.293 296.541C275.887 296.369 275.5 296.246 275.13 296.173C274.76 296.099 274.413 296.09 274.09 296.146C273.771 296.198 273.484 296.329 273.228 296.537C272.857 296.84 272.723 297.159 272.828 297.496C272.942 297.832 273.232 298.137 273.701 298.412Z" fill="#A2B5CD"/>
<path d="M295.384 299.73L293.335 301.399L286.707 297.51L288.756 295.841L295.384 299.73ZM292.617 294.805L295.669 296.596L286.502 304.065C286.25 304.27 286.096 304.455 286.042 304.62C285.991 304.782 286.014 304.93 286.112 305.065C286.214 305.203 286.368 305.332 286.573 305.453C286.716 305.537 286.87 305.612 287.035 305.679C287.204 305.742 287.333 305.791 287.422 305.825L285.873 307.76C285.677 307.705 285.413 307.619 285.081 307.502C284.744 307.388 284.371 307.22 283.962 306.998C283.2 306.587 282.643 306.137 282.289 305.649C281.941 305.163 281.825 304.658 281.941 304.135C282.058 303.611 282.441 303.088 283.091 302.566L292.617 294.805Z" fill="#A2B5CD"/>
<path d="M290.492 310.901C289.79 310.489 289.273 310.033 288.941 309.533C288.614 309.03 288.506 308.509 288.617 307.97C288.737 307.431 289.121 306.896 289.77 306.368C290.316 305.923 290.887 305.615 291.483 305.444C292.079 305.273 292.683 305.209 293.296 305.252C293.91 305.295 294.52 305.414 295.127 305.608C295.739 305.806 296.341 306.045 296.932 306.327C297.632 306.654 298.204 306.911 298.647 307.099C299.094 307.284 299.459 307.384 299.743 307.401C300.026 307.418 300.272 307.341 300.481 307.171L300.52 307.139C300.925 306.809 301.096 306.47 301.031 306.121C300.971 305.774 300.681 305.449 300.16 305.143C299.611 304.821 299.065 304.653 298.522 304.64C297.984 304.623 297.5 304.716 297.071 304.919L294.452 303.095C295.193 302.692 295.991 302.437 296.847 302.329C297.707 302.218 298.587 302.261 299.485 302.459C300.393 302.657 301.286 303.014 302.165 303.529C302.777 303.888 303.298 304.284 303.729 304.716C304.165 305.151 304.465 305.605 304.631 306.08C304.802 306.556 304.802 307.041 304.633 307.534C304.468 308.023 304.093 308.506 303.508 308.983L296.876 314.386L293.981 312.688L295.345 311.577L295.259 311.526C294.775 311.673 294.267 311.755 293.736 311.772C293.21 311.786 292.672 311.725 292.124 311.589C291.581 311.45 291.037 311.22 290.492 310.901ZM293.248 309.88C293.698 310.144 294.173 310.312 294.675 310.385C295.181 310.455 295.669 310.436 296.138 310.328C296.607 310.221 297.014 310.026 297.36 309.744L298.403 308.894C298.252 308.883 298.07 308.848 297.855 308.788C297.65 308.728 297.426 308.653 297.182 308.564C296.942 308.471 296.705 308.376 296.47 308.28C296.239 308.181 296.029 308.09 295.84 308.01C295.435 307.838 295.048 307.715 294.678 307.641C294.308 307.568 293.961 307.559 293.638 307.615C293.319 307.667 293.032 307.797 292.776 308.006C292.404 308.309 292.271 308.628 292.376 308.965C292.489 309.3 292.78 309.606 293.248 309.88Z" fill="#A2B5CD"/>
<path d="M321.273 315.61C321.732 315.156 321.888 314.685 321.739 314.197C321.59 313.708 321.143 313.246 320.398 312.809C319.891 312.512 319.4 312.313 318.923 312.213C318.451 312.109 318.01 312.093 317.602 312.164C317.198 312.239 316.856 312.39 316.574 312.62C316.33 312.806 316.18 313.005 316.124 313.217C316.074 313.433 316.092 313.656 316.179 313.886C316.27 314.113 316.409 314.348 316.597 314.589C316.79 314.828 317.014 315.067 317.27 315.307L318.307 316.31C318.819 316.79 319.236 317.274 319.557 317.761C319.879 318.249 320.08 318.735 320.16 319.218C320.24 319.702 320.176 320.179 319.969 320.649C319.766 321.123 319.394 321.583 318.852 322.031C318.045 322.682 317.12 323.114 316.077 323.328C315.044 323.541 313.939 323.53 312.765 323.295C311.599 323.06 310.419 322.592 309.225 321.891C308.04 321.196 307.171 320.459 306.616 319.679C306.066 318.902 305.863 318.11 306.007 317.303C306.16 316.495 306.696 315.7 307.615 314.918L310.618 316.679C310.212 317.057 309.985 317.439 309.939 317.825C309.902 318.21 310.019 318.586 310.29 318.955C310.57 319.322 310.978 319.663 311.513 319.977C312.038 320.285 312.563 320.497 313.086 320.613C313.615 320.732 314.108 320.755 314.566 320.683C315.025 320.611 315.412 320.446 315.727 320.189C316.022 319.949 316.171 319.69 316.176 319.411C316.186 319.136 316.075 318.831 315.843 318.498C315.616 318.167 315.292 317.798 314.873 317.39L313.633 316.161C312.665 315.216 312.108 314.3 311.964 313.414C311.819 312.528 312.233 311.691 313.207 310.905C313.996 310.255 314.926 309.829 315.997 309.626C317.073 309.425 318.197 309.436 319.371 309.658C320.545 309.88 321.667 310.305 322.737 310.933C323.826 311.572 324.61 312.266 325.089 313.013C325.573 313.764 325.746 314.514 325.606 315.263C325.467 316.013 325.014 316.71 324.247 317.355L321.273 315.61Z" fill="#A2B5CD"/>
<path d="M332.825 321.696L330.776 323.365L324.148 319.477L326.196 317.808L332.825 321.696ZM330.057 316.771L333.11 318.562L323.942 326.031C323.69 326.236 323.537 326.421 323.482 326.586C323.431 326.748 323.455 326.897 323.552 327.031C323.654 327.169 323.808 327.298 324.014 327.419C324.157 327.503 324.311 327.578 324.476 327.645C324.644 327.708 324.774 327.757 324.863 327.791L323.314 329.726C323.118 329.671 322.854 329.585 322.521 329.468C322.185 329.354 321.811 329.186 321.402 328.964C320.641 328.553 320.083 328.103 319.73 327.615C319.381 327.129 319.265 326.625 319.382 326.101C319.499 325.577 319.882 325.054 320.531 324.532L330.057 316.771Z" fill="#A2B5CD"/>
<path d="M336.225 331.604L341.871 327.004L344.924 328.795L335.09 336.806L332.16 335.087L333.946 333.632L333.831 333.564C333.007 333.888 332.13 334.023 331.202 333.969C330.279 333.918 329.404 333.65 328.578 333.165C327.842 332.733 327.344 332.232 327.084 331.66C326.824 331.089 326.811 330.487 327.047 329.853C327.287 329.222 327.789 328.593 328.552 327.964L334.813 322.863L337.866 324.654L332.091 329.359C331.515 329.834 331.231 330.31 331.238 330.787C331.245 331.263 331.537 331.671 332.115 332.01C332.483 332.226 332.901 332.367 333.371 332.433C333.845 332.496 334.329 332.463 334.823 332.334C335.323 332.209 335.79 331.965 336.225 331.604Z" fill="#A2B5CD"/>
<path d="M341.428 340.749C340.592 340.258 340.027 339.658 339.732 338.947C339.447 338.235 339.482 337.457 339.837 336.612C340.2 335.767 340.931 334.898 342.028 334.004C343.154 333.086 344.294 332.442 345.447 332.072C346.604 331.698 347.705 331.557 348.75 331.65C349.804 331.742 350.735 332.025 351.542 332.498C352.158 332.86 352.578 333.238 352.801 333.632C353.033 334.025 353.137 334.409 353.113 334.784C353.098 335.158 353.025 335.492 352.894 335.786L352.987 335.84L357.916 331.824L360.962 333.611L347.851 344.293L344.841 342.527L346.416 341.244L346.287 341.168C345.871 341.307 345.396 341.408 344.865 341.473C344.342 341.538 343.786 341.519 343.195 341.418C342.609 341.319 342.02 341.096 341.428 340.749ZM344.565 339.548C345.057 339.837 345.593 339.983 346.171 339.988C346.758 339.991 347.36 339.869 347.977 339.621C348.599 339.375 349.202 339.014 349.786 338.538C350.371 338.062 350.788 337.595 351.038 337.137C351.287 336.679 351.357 336.254 351.248 335.861C351.139 335.468 350.838 335.127 350.346 334.838C349.845 334.544 349.3 334.395 348.713 334.392C348.126 334.388 347.528 334.51 346.921 334.757C346.313 335.005 345.725 335.36 345.157 335.822C344.585 336.288 344.168 336.752 343.905 337.214C343.651 337.675 343.57 338.106 343.662 338.507C343.763 338.907 344.064 339.254 344.565 339.548Z" fill="#A2B5CD"/>
<path d="M350.36 345.765L360.194 337.754L363.246 339.545L353.413 347.556L350.36 345.765ZM362.995 337.621C362.541 337.354 362.286 337.017 362.23 336.607C362.183 336.197 362.35 335.837 362.729 335.527C363.105 335.221 363.587 335.053 364.176 335.021C364.774 334.989 365.3 335.106 365.754 335.373C366.208 335.639 366.458 335.977 366.505 336.388C366.561 336.797 366.401 337.155 366.026 337.461C365.646 337.771 365.157 337.941 364.559 337.973C363.97 338.004 363.449 337.887 362.995 337.621Z" fill="#A2B5CD"/>
<path d="M360.639 352.065C359.526 351.412 358.775 350.675 358.385 349.854C358.005 349.033 357.974 348.184 358.295 347.307C358.619 346.427 359.285 345.576 360.292 344.756C361.308 343.928 362.415 343.334 363.615 342.973C364.818 342.608 366.035 342.491 367.265 342.62C368.504 342.749 369.68 343.14 370.793 343.793C371.906 344.446 372.652 345.183 373.033 346.004C373.423 346.825 373.455 347.675 373.131 348.556C372.81 349.432 372.142 350.285 371.127 351.112C370.119 351.933 369.014 352.525 367.811 352.89C366.611 353.251 365.392 353.367 364.154 353.239C362.924 353.109 361.752 352.718 360.639 352.065ZM362.766 350.352C363.272 350.649 363.823 350.793 364.419 350.783C365.018 350.77 365.628 350.631 366.248 350.367C366.873 350.106 367.471 349.742 368.043 349.276C368.615 348.81 369.037 348.343 369.308 347.874C369.584 347.408 369.683 346.97 369.604 346.558C369.525 346.147 369.233 345.793 368.726 345.496C368.215 345.196 367.655 345.05 367.046 345.058C366.442 345.068 365.827 345.204 365.202 345.465C364.582 345.729 363.986 346.094 363.414 346.56C362.842 347.026 362.418 347.492 362.142 347.958C361.871 348.427 361.777 348.868 361.86 349.282C361.953 349.696 362.255 350.052 362.766 350.352Z" fill="#A2B5CD"/>
</g>
</g>
<defs>
<filter id="filter0_d_2941_2787" x="83.354" y="212.284" width="736.814" height="503.228" filterUnits="userSpaceOnUse" color-interpolation-filters="sRGB">
<feFlood flood-opacity="0" result="BackgroundImageFix"/>
<feColorMatrix in="SourceAlpha" type="matrix" values="0 0 0 0 0 0 0 0 0 0 0 0 0 0 0 0 0 0 127 0" result="hardAlpha"/>
<feOffset dx="2" dy="5"/>
<feGaussianBlur stdDeviation="10"/>
<feComposite in2="hardAlpha" operator="out"/>
<feColorMatrix type="matrix" values="0 0 0 0 0.0901961 0 0 0 0 0.160784 0 0 0 0 0.25098 0 0 0 0.15 0"/>
<feBlend mode="normal" in2="BackgroundImageFix" result="effect1_dropShadow_2941_2787"/>
<feBlend mode="normal" in="SourceGraphic" in2="effect1_dropShadow_2941_2787" result="shape"/>
</filter>
<filter id="filter1_d_2941_2787" x="71.354" y="111.831" width="776.814" height="553.228" filterUnits="userSpaceOnUse" color-interpolation-filters="sRGB">
<feFlood flood-opacity="0" result="BackgroundImageFix"/>
<feColorMatrix in="SourceAlpha" type="matrix" values="0 0 0 0 0 0 0 0 0 0 0 0 0 0 0 0 0 0 127 0" result="hardAlpha"/>
<feOffset dx="10" dy="50"/>
<feGaussianBlur stdDeviation="20"/>
<feColorMatrix type="matrix" values="0 0 0 0 0.0901961 0 0 0 0 0.160784 0 0 0 0 0.25098 0 0 0 0.15 0"/>
<feBlend mode="normal" in2="BackgroundImageFix" result="effect1_dropShadow_2941_2787"/>
<feBlend mode="normal" in="SourceGraphic" in2="effect1_dropShadow_2941_2787" result="shape"/>
</filter>
<filter id="filter2_d_2941_2787" x="70.1663" y="1.29836" width="778.002" height="564.179" filterUnits="userSpaceOnUse" color-interpolation-filters="sRGB">
<feFlood flood-opacity="0" result="BackgroundImageFix"/>
<feColorMatrix in="SourceAlpha" type="matrix" values="0 0 0 0 0 0 0 0 0 0 0 0 0 0 0 0 0 0 127 0" result="hardAlpha"/>
<feOffset dx="10" dy="60"/>
<feGaussianBlur stdDeviation="20"/>
<feColorMatrix type="matrix" values="0 0 0 0 0.0901961 0 0 0 0 0.160784 0 0 0 0 0.25098 0 0 0 0.07 0"/>
<feBlend mode="normal" in2="BackgroundImageFix" result="effect1_dropShadow_2941_2787"/>
<feBlend mode="normal" in="SourceGraphic" in2="effect1_dropShadow_2941_2787" result="shape"/>
</filter>
<filter id="filter3_d_2941_2787" x="163.146" y="224.419" width="212.205" height="130.87" filterUnits="userSpaceOnUse" color-interpolation-filters="sRGB">
<feFlood flood-opacity="0" result="BackgroundImageFix"/>
<feColorMatrix in="SourceAlpha" type="matrix" values="0 0 0 0 0 0 0 0 0 0 0 0 0 0 0 0 0 0 127 0" result="hardAlpha"/>
<feOffset/>
<feGaussianBlur stdDeviation="1"/>
<feComposite in2="hardAlpha" operator="out"/>
<feColorMatrix type="matrix" values="0 0 0 0 1 0 0 0 0 1 0 0 0 0 1 0 0 0 1 0"/>
<feBlend mode="normal" in2="BackgroundImageFix" result="effect1_dropShadow_2941_2787"/>
<feBlend mode="normal" in="SourceGraphic" in2="effect1_dropShadow_2941_2787" result="shape"/>
</filter>
<linearGradient id="paint0_linear_2941_2787" x1="548.019" y1="206.589" x2="505.596" y2="280.069" gradientUnits="userSpaceOnUse">
<stop stop-color="#6644FF"/>
<stop offset="1" stop-color="#6644FF" stop-opacity="0"/>
</linearGradient>
</defs>
</svg>
