<svg width="737" height="514" viewBox="0 0 737 514" fill="none" xmlns="http://www.w3.org/2000/svg">
<path fill-rule="evenodd" clip-rule="evenodd" d="M515.386 513.474L515.564 513.576L515.741 513.474L589.097 471.125L662.452 513.474L662.629 513.576L662.807 513.474L736.346 471.023L736.879 470.716L736.346 470.409L662.807 427.967L662.629 427.864L662.452 427.967L589.096 470.307L515.741 427.967L515.564 427.864L515.386 427.967L442.034 470.305L368.674 427.967L368.497 427.864L368.319 427.967L294.966 470.306L221.612 427.967L221.435 427.864L221.257 427.967L147.903 470.306L74.5411 427.967L74.3637 427.864L74.1862 427.967L0.655277 470.408L0.122623 470.716L0.655216 471.023L74.1862 513.474L74.3636 513.576L74.5411 513.474L147.903 471.126L221.257 513.474L221.435 513.576L221.612 513.474L294.966 471.126L368.319 513.474L368.497 513.576L368.674 513.474L442.034 471.127L515.386 513.474ZM295.676 470.716L368.497 512.756L441.324 470.717L441.322 470.716L441.324 470.715L368.497 428.684L295.676 470.716ZM294.255 470.716L221.435 428.684L148.614 470.716L221.435 512.756L294.255 470.716ZM442.746 470.716L442.744 470.717L515.564 512.756L588.384 470.716L515.564 428.684L442.745 470.715L442.746 470.716ZM662.629 428.684L735.459 470.716L662.629 512.756L589.809 470.716L662.629 428.684ZM147.193 470.716L74.3637 428.684L1.54285 470.716L74.3637 512.756L147.193 470.716ZM74.3637 427.619L74.1862 427.517L0.655224 385.067L0.122631 384.759L0.655285 384.452L74.1601 342.025L0.655231 299.59L0.122638 299.282L0.655292 298.975L74.1602 256.548L0.655239 214.113L0.122646 213.805L0.6553 213.498L74.1602 171.071L0.655246 128.636L0.122653 128.329L0.655307 128.021L74.1601 85.5944L0.655254 43.1592L0.122661 42.8517L0.655315 42.5443L74.1863 0.102481L74.3637 6.41514e-05L74.5412 0.102481L147.903 42.4421L221.257 0.102494L221.435 1.59736e-05L221.612 0.102494L294.966 42.4419L368.319 0.102507L368.497 2.88301e-05L368.674 0.102446L442.034 42.4409L515.386 0.10252L515.564 4.16872e-05L515.741 0.10252L589.097 42.443L662.452 0.102533L662.629 0.000115579L662.807 0.102533L736.346 42.5443L736.879 42.8518L736.346 43.1593L662.833 85.5944L736.346 128.021L736.879 128.329L736.346 128.636L662.833 171.071L736.346 213.498L736.879 213.805L736.346 214.113L662.833 256.548L736.346 298.975L736.879 299.282L736.346 299.59L662.833 342.025L736.346 384.452L736.879 384.759L736.346 385.067L662.807 427.517L662.629 427.619L662.452 427.517L589.097 385.168L515.741 427.517L515.564 427.619L515.386 427.517L442.034 385.17L368.674 427.517L368.496 427.619L368.319 427.517L294.966 385.169L221.612 427.517L221.435 427.619L221.257 427.517L147.903 385.169L74.5411 427.517L74.3637 427.619ZM662.426 85.5944L589.096 43.2606L515.767 85.5944L589.096 127.92L662.426 85.5944ZM515.36 85.5944L442.034 43.2626L368.7 85.5944L442.034 127.918L515.36 85.5944ZM368.293 85.5944L294.966 43.2617L221.638 85.5943L294.966 127.919L368.293 85.5944ZM221.231 85.5943L147.903 43.2615L74.5673 85.5943L147.903 127.919L221.231 85.5943ZM147.903 213.396L74.5673 171.071L147.903 128.738L221.231 171.071L147.903 213.396ZM294.966 213.396L221.638 171.071L294.966 128.739L368.293 171.071L294.966 213.396ZM442.034 213.395L368.7 171.071L442.034 128.739L515.36 171.071L442.034 213.395ZM589.096 213.397L515.767 171.071L589.096 128.737L662.426 171.071L589.096 213.397ZM662.426 256.548L589.097 214.214L515.767 256.548L589.096 298.874L662.426 256.548ZM515.36 256.548L442.034 214.216L368.7 256.548L442.034 298.872L515.36 256.548ZM368.293 256.548L294.966 214.215L221.638 256.548L294.966 298.872L368.293 256.548ZM221.231 256.548L147.903 214.215L74.5672 256.548L147.903 298.873L221.231 256.548ZM147.903 384.349L74.5673 342.025L147.903 299.692L221.231 342.025L147.903 384.349ZM294.966 384.349L221.638 342.025L294.966 299.692L368.293 342.025L294.966 384.349ZM442.034 384.348L368.7 342.025L442.034 299.693L515.36 342.025L442.034 384.348ZM589.096 384.35L515.767 342.025L589.097 299.691L662.426 342.025L589.096 384.35ZM147.193 384.759L74.3637 342.727L1.54286 384.759L74.3637 426.799L147.193 384.759ZM295.676 384.759L368.497 426.799L441.324 384.76L441.322 384.759L441.324 384.758L368.497 342.727L295.676 384.759ZM294.255 384.759L221.435 342.727L148.614 384.759L221.435 426.799L294.255 384.759ZM442.746 384.759L442.744 384.76L515.564 426.799L588.384 384.759L515.564 342.727L442.744 384.758L442.746 384.759ZM662.629 342.727L735.459 384.759L662.629 426.799L589.809 384.759L662.629 342.727ZM221.435 257.25L294.255 299.282L221.435 341.323L148.614 299.282L221.435 257.25ZM368.497 341.323L295.676 299.282L368.497 257.25L441.324 299.281L441.322 299.282L441.324 299.283L368.497 341.323ZM442.744 299.283L442.746 299.282L442.744 299.281L515.564 257.25L588.384 299.282L515.564 341.323L442.744 299.283ZM735.459 299.282L662.629 257.25L589.809 299.282L662.629 341.323L735.459 299.282ZM74.3637 257.25L147.193 299.282L74.3637 341.323L1.54287 299.282L74.3637 257.25ZM294.255 213.805L221.435 171.774L148.614 213.805L221.435 255.846L294.255 213.805ZM295.676 213.806L368.497 255.846L441.324 213.806L441.322 213.805L441.324 213.805L368.497 171.774L295.676 213.806ZM442.746 213.805L442.744 213.806L515.564 255.846L588.384 213.806L515.564 171.774L442.744 213.805L442.746 213.805ZM662.629 171.774L735.459 213.806L662.629 255.846L589.809 213.805L662.629 171.774ZM147.193 213.805L74.3637 171.774L1.54287 213.805L74.3637 255.846L147.193 213.805ZM221.435 86.2967L294.255 128.329L221.435 170.369L148.614 128.329L221.435 86.2967ZM368.497 170.369L295.676 128.329L368.497 86.2967L441.324 128.328L441.322 128.329L441.324 128.33L368.497 170.369ZM442.744 128.33L442.746 128.329L442.744 128.328L515.564 86.2967L588.384 128.329L515.564 170.369L442.744 128.33ZM735.459 128.329L662.629 86.2967L589.809 128.329L662.629 170.369L735.459 128.329ZM74.3637 86.2967L147.193 128.329L74.3637 170.369L1.54288 128.329L74.3637 86.2967ZM295.676 42.8518L368.497 84.8921L441.324 42.8527L441.322 42.8517L441.324 42.8508L368.497 0.819853L295.676 42.8518ZM294.255 42.8517L221.435 0.81984L148.614 42.8518L221.435 84.892L294.255 42.8517ZM442.746 42.8517L442.744 42.8527L515.564 84.892L588.384 42.8518L515.564 0.819866L442.744 42.8508L442.746 42.8517ZM662.629 0.819879L735.459 42.8518L662.629 84.8921L589.809 42.8518L662.629 0.819879ZM147.193 42.8518L74.3638 0.819827L1.54289 42.8518L74.3637 84.892L147.193 42.8518Z" fill="url(#paint0_radial_5_18254)"/>
<path opacity="0.6" d="M347.762 382.284L305.75 358.002C305.126 357.641 304.356 357.642 303.734 358.006L262.112 382.286C261.449 382.673 261.448 383.632 262.111 384.02L303.731 408.397C304.355 408.762 305.127 408.764 305.753 408.401L347.764 384.022C348.431 383.634 348.43 382.671 347.762 382.284Z" fill="#272036"/>
<path fill-rule="evenodd" clip-rule="evenodd" d="M305.749 342.993L347.761 367.275C348.429 367.662 348.43 368.626 347.763 369.013L305.752 393.392C305.127 393.755 304.354 393.753 303.73 393.388L262.11 369.011C261.447 368.623 261.448 367.664 262.111 367.278L303.733 342.997C304.355 342.633 305.125 342.632 305.749 342.993ZM305.782 347.532L342.777 368.915C343.145 369.128 343.145 369.658 342.778 369.871L305.785 391.338C305.159 391.701 304.386 391.7 303.762 391.334L267.115 369.87C266.75 369.656 266.751 369.129 267.116 368.916L303.765 347.536C304.388 347.173 305.157 347.171 305.782 347.532Z" fill="#272036"/>
<path fill-rule="evenodd" clip-rule="evenodd" d="M305.749 340.469L347.761 364.752C348.429 365.138 348.43 366.102 347.763 366.49L305.752 390.869C305.127 391.232 304.354 391.23 303.73 390.865L262.11 366.488C261.447 366.099 261.448 365.141 262.111 364.754L303.733 340.473C304.355 340.11 305.125 340.109 305.749 340.469ZM305.782 343.496L342.777 364.879C343.145 365.092 343.145 365.622 342.778 365.835L305.785 387.302C305.159 387.666 304.386 387.664 303.762 387.298L267.115 365.834C266.75 365.62 266.751 365.093 267.116 364.881L303.765 343.5C304.388 343.137 305.157 343.135 305.782 343.496Z" fill="#272036"/>
<path opacity="0.6" d="M342.782 364.879L305.786 343.496C305.162 343.135 304.393 343.137 303.77 343.5L267.121 364.88C266.756 365.093 266.755 365.62 267.12 365.834L303.767 387.298C304.391 387.664 305.164 387.665 305.789 387.302L342.783 365.835C343.15 365.622 343.149 365.092 342.782 364.879Z" fill="#FF0C4B"/>
<path d="M261.651 365.401H261.637L261.637 365.478C261.64 365.452 261.645 365.426 261.651 365.401Z" fill="#4D3D5E"/>
<path d="M261.637 365.765C261.677 366.053 261.84 366.327 262.125 366.494L303.739 390.867C304.361 391.232 305.129 391.233 305.753 390.871L347.757 366.496C348.165 366.259 348.324 365.806 348.235 365.401H348.263V373.112C348.263 373.834 347.88 374.501 347.259 374.861L305.753 398.947C305.129 399.309 304.361 399.308 303.739 398.943L262.634 374.868C262.017 374.506 261.637 373.842 261.637 373.123L261.637 365.765Z" fill="#4D3D5E"/>
<path d="M304.805 399.217V391.141C305.136 391.133 305.465 391.043 305.761 390.871L347.766 366.496C348.174 366.259 348.333 365.806 348.245 365.401H348.272V373.112C348.272 373.536 348.139 373.94 347.904 374.275C347.739 374.511 347.523 374.712 347.266 374.861L305.761 398.947C305.465 399.12 305.136 399.209 304.805 399.217Z" fill="#68587D"/>
<path d="M340.248 370.64C340.248 371.193 339.857 371.874 339.374 372.151C338.891 372.428 338.5 372.201 338.5 371.647C338.5 371.094 338.891 370.413 339.374 370.136C339.857 369.859 340.248 370.086 340.248 370.64Z" fill="#FF0C4B"/>
<path d="M343.291 368.888C343.291 369.442 342.9 370.123 342.417 370.399C341.934 370.676 341.543 370.449 341.543 369.896C341.543 369.342 341.934 368.661 342.417 368.385C342.9 368.108 343.291 368.335 343.291 368.888V368.888Z" fill="#FF0C4B"/>
<path d="M346.334 367.135C346.334 367.689 345.943 368.37 345.46 368.647C344.977 368.923 344.586 368.696 344.586 368.143C344.586 367.589 344.977 366.908 345.46 366.632C345.943 366.355 346.334 366.582 346.334 367.135Z" fill="white"/>
<path opacity="0.8" d="M304.995 380.501L275.742 363.732L304.995 346.967L334.248 363.735L304.995 380.501Z" fill="#F00B46"/>
<path opacity="0.6" d="M304.992 343.415V380.494L275.75 363.735L275.814 326.661L304.992 343.415Z" fill="#FF3F71"/>
<path opacity="0.6" d="M304.989 343.426V380.505L334.23 363.746L334.166 326.672L304.989 343.426Z" fill="#FF779A"/>
<path opacity="0.6" d="M304.995 343.42L275.742 326.651L304.995 309.886L334.248 326.654L304.995 343.42Z" fill="#FF0C4B"/>
<path fill-rule="evenodd" clip-rule="evenodd" d="M305.704 310.818L343.313 332.432C343.914 332.777 343.914 333.643 343.314 333.989L305.707 355.689C305.148 356.011 304.461 356.01 303.904 355.686L266.646 333.988C266.05 333.641 266.051 332.78 266.647 332.434L303.906 310.821C304.462 310.499 305.147 310.498 305.704 310.818ZM305.478 318.847L329.535 332.673C329.775 332.811 329.775 333.157 329.536 333.295L305.48 347.176C305.074 347.41 304.575 347.409 304.17 347.173L280.339 333.295C280.101 333.156 280.102 332.812 280.34 332.674L304.172 318.85C304.576 318.616 305.073 318.615 305.478 318.847Z" fill="#272036"/>
<path fill-rule="evenodd" clip-rule="evenodd" d="M305.704 303.807L343.313 325.421C343.914 325.766 343.914 326.632 343.314 326.979L305.707 348.678C305.148 349 304.461 348.999 303.904 348.675L266.646 326.977C266.05 326.63 266.051 325.769 266.647 325.423L303.906 303.81C304.462 303.488 305.147 303.487 305.704 303.807ZM305.478 311.836L329.535 325.662C329.775 325.8 329.775 326.146 329.536 326.284L305.48 340.165C305.074 340.399 304.575 340.398 304.17 340.162L280.339 326.284C280.101 326.145 280.102 325.801 280.34 325.663L304.172 311.839C304.576 311.605 305.073 311.604 305.478 311.836Z" fill="#272036"/>
<path opacity="0.6" d="M329.534 325.662L305.477 311.836C305.073 311.603 304.575 311.604 304.171 311.838L280.339 325.662C280.101 325.801 280.1 326.145 280.338 326.283L304.169 340.162C304.574 340.397 305.074 340.398 305.479 340.164L329.535 326.284C329.775 326.146 329.774 325.8 329.534 325.662Z" fill="#FF0C4B"/>
<path d="M266.223 326.002H266.211L266.211 326.071C266.214 326.048 266.218 326.025 266.223 326.002Z" fill="#4D3D5E"/>
<path d="M266.211 326.326C266.247 326.583 266.393 326.826 266.648 326.975L303.906 348.673C304.463 348.998 305.151 348.999 305.709 348.677L343.317 326.977C343.682 326.766 343.825 326.363 343.745 326.002H343.77V332.867C343.77 333.509 343.427 334.103 342.871 334.424L305.709 355.866C305.151 356.189 304.463 356.187 303.906 355.863L267.104 334.43C266.551 334.108 266.211 333.516 266.211 332.877L266.211 326.326Z" fill="#4D3D5E"/>
<path d="M304.859 356.107V348.917C305.156 348.91 305.451 348.83 305.716 348.677L343.324 326.977C343.689 326.766 343.832 326.363 343.753 326.002H343.777V332.867C343.777 333.244 343.658 333.604 343.447 333.903C343.3 334.112 343.107 334.291 342.877 334.424L305.716 355.866C305.451 356.02 305.156 356.1 304.859 356.107Z" fill="#68587D"/>
<path d="M336.592 330.513C336.592 331.005 336.242 331.612 335.81 331.858C335.377 332.104 335.027 331.902 335.027 331.41C335.027 330.917 335.377 330.311 335.81 330.064C336.242 329.818 336.592 330.02 336.592 330.513Z" fill="#FF0C4B"/>
<path d="M339.315 328.953C339.315 329.445 338.965 330.052 338.532 330.298C338.1 330.544 337.75 330.342 337.75 329.85C337.75 329.357 338.1 328.751 338.532 328.504C338.965 328.258 339.315 328.46 339.315 328.953V328.953Z" fill="#FF0C4B"/>
<path d="M342.042 327.393C342.042 327.885 341.692 328.492 341.259 328.738C340.826 328.984 340.477 328.782 340.477 328.29C340.477 327.797 340.826 327.191 341.259 326.944C341.692 326.698 342.042 326.9 342.042 327.393Z" fill="white"/>
<path fill-rule="evenodd" clip-rule="evenodd" d="M457.771 237.217L547.305 288.967C548.728 289.79 548.73 291.844 547.308 292.67L457.777 344.625C456.444 345.399 454.797 345.395 453.467 344.616L364.769 292.665C363.357 291.838 363.359 289.796 364.772 288.972L453.474 237.226C454.801 236.451 456.441 236.448 457.771 237.217ZM457.842 246.89L536.685 292.46C537.468 292.913 537.469 294.043 536.687 294.497L457.848 340.247C456.515 341.021 454.869 341.017 453.539 340.238L375.438 294.494C374.661 294.039 374.662 292.916 375.44 292.463L453.545 246.898C454.872 246.124 456.512 246.121 457.842 246.89Z" fill="#272036"/>
<path fill-rule="evenodd" clip-rule="evenodd" d="M457.771 231.84L547.305 283.59C548.728 284.413 548.73 286.467 547.308 287.292L457.777 339.248C456.444 340.021 454.797 340.018 453.467 339.239L364.769 287.288C363.357 286.461 363.359 284.419 364.772 283.594L453.474 231.848C454.801 231.074 456.441 231.071 457.771 231.84ZM457.842 238.29L536.685 283.861C537.468 284.313 537.469 285.443 536.687 285.897L457.848 331.648C456.515 332.421 454.869 332.418 453.539 331.639L375.438 285.895C374.661 285.44 374.662 284.317 375.44 283.863L453.545 238.299C454.872 237.525 456.512 237.521 457.842 238.29Z" fill="#272036"/>
<path opacity="0.6" d="M547.303 324.39L457.769 272.639C456.439 271.871 454.799 271.874 453.472 272.648L364.771 324.394C363.357 325.219 363.355 327.261 364.767 328.088L453.466 380.039C454.796 380.818 456.442 380.821 457.775 380.047L547.306 328.092C548.728 327.267 548.727 325.212 547.303 324.39Z" fill="#272036"/>
<path opacity="0.6" d="M536.683 283.86L457.84 238.289C456.51 237.521 454.87 237.524 453.543 238.298L375.438 283.863C374.66 284.316 374.659 285.439 375.436 285.894L453.537 331.638C454.867 332.417 456.513 332.421 457.847 331.647L536.685 285.897C537.467 285.443 537.466 284.313 536.683 283.86Z" fill="#FF0C4B"/>
<path d="M363.783 284.969H363.754L363.754 285.134C363.762 285.079 363.771 285.024 363.783 284.969Z" fill="#4D3D5E"/>
<path d="M363.754 285.746C363.84 286.36 364.187 286.943 364.795 287.299L453.48 339.242C454.805 340.018 456.443 340.022 457.771 339.251L547.289 287.303C548.158 286.799 548.497 285.834 548.308 284.969H548.367V301.404C548.367 302.941 547.551 304.362 546.227 305.131L457.771 356.462C456.443 357.233 454.805 357.23 453.48 356.453L365.879 305.145C364.563 304.374 363.754 302.958 363.754 301.427L363.754 285.746Z" fill="#4D3D5E"/>
<path d="M455.75 357.037V339.826C456.456 339.809 457.158 339.618 457.789 339.251L547.307 287.303C548.176 286.799 548.515 285.834 548.327 284.969H548.385V301.404C548.385 302.306 548.101 303.169 547.6 303.882C547.249 304.385 546.789 304.813 546.242 305.131L457.789 356.462C457.158 356.829 456.456 357.02 455.75 357.037Z" fill="#68587D"/>
<path d="M531.284 301.258C531.284 302.438 530.451 303.889 529.421 304.479C528.391 305.068 527.559 304.584 527.559 303.405C527.559 302.226 528.391 300.774 529.421 300.185C530.451 299.595 531.284 300.079 531.284 301.258Z" fill="#FF0C4B"/>
<path d="M537.764 297.524C537.764 298.703 536.931 300.154 535.902 300.744C534.872 301.334 534.039 300.85 534.039 299.67C534.039 298.491 534.872 297.04 535.902 296.45C536.931 295.86 537.764 296.344 537.764 297.524V297.524Z" fill="#FF0C4B"/>
<path d="M544.252 293.789C544.252 294.968 543.42 296.42 542.39 297.009C541.36 297.599 540.527 297.115 540.527 295.936C540.527 294.756 541.36 293.305 542.39 292.715C543.42 292.126 544.252 292.61 544.252 293.789Z" fill="white"/>
<path opacity="0.8" d="M456.075 322.475L386.445 282.562L456.075 242.656L525.705 282.569L456.075 322.475Z" fill="#F00B46"/>
<path opacity="0.6" d="M456.069 234.202V322.459L386.465 282.568L386.618 194.322L456.069 234.202Z" fill="#FF3F71"/>
<path opacity="0.6" d="M456.052 234.227V322.484L525.656 282.593L525.503 194.347L456.052 234.227Z" fill="#FF779A"/>
<path d="M483.629 248.127L497.764 256.161V274.171L483.665 282.251L469.566 274.169V256.161L483.629 248.127Z" fill="#4D3D5E"/>
<path d="M497.763 256.162L483.664 264.242L469.566 256.161L483.628 248.127L497.763 256.161V256.162Z" fill="#272036"/>
<path d="M497.761 256.166V274.17L483.722 282.216L483.703 282.205V264.198L497.761 256.166Z" fill="#68587D"/>
<path d="M425.453 248.129L439.588 256.163V274.172L425.489 282.253L411.391 274.171V256.163L425.453 248.129Z" fill="#4D3D5E"/>
<path d="M439.587 256.164L425.488 264.244L411.391 256.163L425.452 248.129L439.587 256.163V256.164Z" fill="#272036"/>
<path d="M439.585 256.167V274.172L425.547 282.218L425.527 282.207V264.199L439.585 256.167Z" fill="#68587D"/>
<path d="M455 272.826L469.135 280.861V298.87L455.036 306.95L440.938 298.868V280.861L455 272.826Z" fill="#4D3D5E"/>
<path d="M469.134 280.861L455.035 288.941L440.938 280.86L454.999 272.826L469.134 280.861V280.861Z" fill="#272036"/>
<path d="M469.132 280.865V298.869L455.093 306.915L455.074 306.904V288.896L469.132 280.865Z" fill="#68587D"/>
<path opacity="0.6" d="M456.071 234.212L386.441 194.298L456.071 154.392L525.701 194.306L456.071 234.212Z" fill="#FF0C4B"/>
<path fill-rule="evenodd" clip-rule="evenodd" d="M457.759 139.119L547.279 190.567C548.709 191.388 548.711 193.45 547.283 194.275L457.765 245.926C456.437 246.693 454.799 246.69 453.474 245.918L364.789 194.27C363.371 193.444 363.373 191.395 364.792 190.571L453.48 139.127C454.803 138.36 456.434 138.357 457.759 139.119ZM457.826 148.736L536.666 194.045C537.452 194.497 537.453 195.631 536.668 196.084L457.833 241.572C456.504 242.339 454.867 242.336 453.541 241.564L375.444 196.082C374.664 195.628 374.665 194.5 375.446 194.048L453.548 148.744C454.87 147.977 456.501 147.974 457.826 148.736Z" fill="#272036"/>
<path fill-rule="evenodd" clip-rule="evenodd" d="M457.759 133.772L547.279 185.22C548.709 186.041 548.711 188.103 547.283 188.928L457.765 240.579C456.437 241.346 454.799 241.343 453.474 240.571L364.789 188.923C363.371 188.097 363.373 186.048 364.792 185.224L453.48 133.78C454.803 133.013 456.434 133.01 457.759 133.772ZM457.826 140.184L536.666 185.494C537.452 185.946 537.453 187.08 536.668 187.533L457.833 233.021C456.504 233.788 454.867 233.785 453.541 233.013L375.444 187.531C374.664 187.077 374.665 185.949 375.446 185.496L453.548 140.193C454.87 139.426 456.501 139.423 457.826 140.184Z" fill="#272036"/>
<path opacity="0.6" d="M536.671 185.494L457.831 140.184C456.506 139.423 454.875 139.426 453.552 140.193L375.45 185.496C374.669 185.949 374.668 187.077 375.449 187.531L453.546 233.013C454.872 233.785 456.509 233.788 457.837 233.021L536.672 187.533C537.458 187.08 537.457 185.946 536.671 185.494Z" fill="#FF0C4B"/>
<path d="M363.783 186.602H363.754L363.754 186.766C363.762 186.711 363.771 186.657 363.783 186.602Z" fill="#4D3D5E"/>
<path d="M363.754 187.375C363.84 187.986 364.187 188.565 364.795 188.919L453.48 240.567C454.805 241.338 456.443 241.342 457.771 240.575L547.289 188.923C548.158 188.422 548.497 187.462 548.308 186.602H548.367V202.943C548.367 204.472 547.551 205.885 546.227 206.649L457.771 257.688C456.443 258.455 454.805 258.452 453.48 257.68L365.879 206.664C364.563 205.897 363.754 204.489 363.754 202.966L363.754 187.375Z" fill="#4D3D5E"/>
<path d="M455.75 258.26V241.147C456.456 241.13 457.158 240.94 457.789 240.575L547.307 188.923C548.176 188.422 548.515 187.462 548.327 186.602H548.385V202.943C548.385 203.841 548.101 204.698 547.6 205.408C547.249 205.907 546.789 206.333 546.242 206.649L457.789 257.688C457.158 258.053 456.456 258.244 455.75 258.26Z" fill="#68587D"/>
<path d="M531.284 203.492C531.284 204.665 530.451 206.108 529.421 206.694C528.391 207.28 527.559 206.799 527.559 205.627C527.559 204.454 528.391 203.011 529.421 202.425C530.451 201.838 531.284 202.319 531.284 203.492Z" fill="#FF0C4B"/>
<path d="M537.764 199.779C537.764 200.952 536.931 202.395 535.902 202.981C534.872 203.568 534.039 203.087 534.039 201.914C534.039 200.742 534.872 199.298 535.902 198.712C536.931 198.126 537.764 198.607 537.764 199.779V199.779Z" fill="#FF0C4B"/>
<path d="M544.252 196.066C544.252 197.238 543.42 198.681 542.39 199.268C541.36 199.854 540.527 199.373 540.527 198.2C540.527 197.028 541.36 195.584 542.39 194.998C543.42 194.412 544.252 194.893 544.252 196.066Z" fill="white"/>
<path d="M513.746 126.484L467.05 125.918C460.273 125.835 454.735 131.307 454.735 138.085V276.428C454.735 282.059 451.728 287.261 446.85 290.072L296.816 376.53C293.712 378.319 291.799 381.629 291.799 385.212V449.771C291.799 455.306 287.312 459.792 281.778 459.792H175.523" stroke="#1B1625" stroke-width="2.1473" stroke-miterlimit="10"/>
<path d="M393.762 320.664L446.851 290.071C451.729 287.26 454.735 282.058 454.735 276.428V136.619" stroke="white" stroke-width="2.1473" stroke-miterlimit="10"/>
<circle cx="175.541" cy="459.792" r="8.59162" fill="white" stroke="#272036" stroke-width="2.1473" stroke-linejoin="round"/>
<circle cx="521.842" cy="125.65" r="8.59162" fill="white" stroke="#272036" stroke-width="2.1473" stroke-linejoin="round"/>
<circle cx="329.122" cy="294.322" r="8.46543" fill="#4D3D5E"/>
<path d="M327.501 296.892L306.242 323.91" stroke="#4D3D5D" stroke-width="3.17987" stroke-linecap="round" stroke-linejoin="round"/>
<circle cx="304.306" cy="324.847" r="8.66588" fill="white" stroke="#272036" stroke-width="1.75307" stroke-linejoin="round"/>
<path d="M286.152 310.651L301.289 322.705" stroke="#68587D" stroke-width="3.17987" stroke-linecap="round" stroke-linejoin="round"/>
<circle cx="282.218" cy="307.605" r="9.0733" fill="#68587D"/>
<g opacity="0.3" filter="url(#filter0_f_5_18254)">
<path d="M257.495 412.393L176.374 365.772L96 412.393L176.374 459.2L257.495 412.393Z" fill="#FF0C4B"/>
</g>
<path d="M231.92 411.087L176.551 379.266C175.62 378.731 174.474 378.733 173.546 379.272L118.695 411.088C118.146 411.406 118.146 412.198 118.693 412.517L173.541 444.459C174.472 445.001 175.622 445.003 176.555 444.465L231.921 412.519C232.473 412.2 232.472 411.404 231.92 411.087Z" fill="#FFA7BE"/>
<path fill-rule="evenodd" clip-rule="evenodd" d="M176.138 379.517L219.438 404.402C220.13 404.799 220.131 405.796 219.44 406.195L176.142 431.178C175.499 431.549 174.707 431.548 174.066 431.174L131.17 406.193C130.484 405.793 130.485 404.802 131.172 404.404L174.069 379.521C174.708 379.15 175.497 379.149 176.138 379.517ZM176.165 384.171L214.299 406.087C214.679 406.305 214.68 406.854 214.3 407.073L176.168 429.075C175.526 429.446 174.734 429.444 174.092 429.071L136.318 407.072C135.94 406.852 135.941 406.307 136.319 406.088L174.096 384.175C174.735 383.804 175.524 383.803 176.165 384.171Z" fill="#272036"/>
<path fill-rule="evenodd" clip-rule="evenodd" d="M176.138 376.93L219.438 401.815C220.13 402.213 220.131 403.21 219.44 403.608L176.142 428.592C175.499 428.963 174.707 428.961 174.066 428.588L131.17 403.606C130.484 403.207 130.485 402.216 131.172 401.817L174.069 376.935C174.708 376.564 175.497 376.562 176.138 376.93ZM176.165 380.033L214.299 401.948C214.679 402.167 214.68 402.715 214.3 402.935L176.168 424.937C175.526 425.307 174.734 425.306 174.092 424.932L136.318 402.933C135.94 402.714 135.941 402.168 136.319 401.949L174.096 380.037C174.735 379.666 175.524 379.664 176.165 380.033Z" fill="#272036"/>
<path opacity="0.6" d="M214.3 401.947L176.166 380.031C175.525 379.663 174.736 379.664 174.097 380.035L136.32 401.948C135.942 402.167 135.941 402.712 136.319 402.932L174.093 424.931C174.735 425.304 175.527 425.306 176.169 424.935L214.301 402.933C214.68 402.714 214.68 402.165 214.3 401.947Z" fill="#FF0C4B"/>
<path d="M130.682 402.486H130.668L130.668 402.565C130.672 402.538 130.676 402.512 130.682 402.486Z" fill="#4D3D5E"/>
<path d="M130.668 402.859C130.71 403.155 130.877 403.435 131.172 403.606L174.067 428.587C174.708 428.961 175.5 428.962 176.143 428.592L219.441 403.608C219.862 403.366 220.026 402.902 219.934 402.486H219.963V410.39C219.963 411.129 219.568 411.812 218.928 412.182L176.143 436.869C175.5 437.24 174.708 437.238 174.067 436.865L131.696 412.189C131.059 411.818 130.668 411.137 130.668 410.401L130.668 402.859Z" fill="#4D3D5E"/>
<path d="M175.156 437.146V428.868C175.498 428.86 175.837 428.768 176.142 428.591L219.441 403.608C219.862 403.366 220.025 402.901 219.934 402.486H219.963V410.39C219.963 410.824 219.825 411.238 219.583 411.582C219.413 411.823 219.191 412.029 218.926 412.182L176.142 436.869C175.837 437.045 175.498 437.138 175.156 437.146Z" fill="#68587D"/>
<path d="M211.685 407.689C211.685 408.256 211.282 408.954 210.784 409.238C210.286 409.522 209.883 409.289 209.883 408.722C209.883 408.155 210.286 407.457 210.784 407.173C211.282 406.889 211.685 407.122 211.685 407.689Z" fill="#FF0C4B"/>
<path d="M214.817 405.893C214.817 406.46 214.415 407.159 213.917 407.442C213.418 407.726 213.016 407.493 213.016 406.926C213.016 406.359 213.418 405.661 213.917 405.377C214.415 405.093 214.817 405.326 214.817 405.893V405.893Z" fill="#FF0C4B"/>
<path d="M217.958 404.097C217.958 404.665 217.555 405.363 217.057 405.646C216.559 405.93 216.156 405.697 216.156 405.13C216.156 404.563 216.559 403.865 217.057 403.581C217.555 403.298 217.958 403.53 217.958 404.097Z" fill="white"/>
<path opacity="0.2" d="M175.314 418.033L144.562 400.405L175.314 382.781L206.066 400.409L175.314 418.033Z" fill="black"/>
<path opacity="0.8" d="M175.314 411.875L144.562 394.247L175.314 376.622L206.066 394.25L175.314 411.875Z" fill="#F00B46"/>
<path opacity="0.6" d="M175.315 372.889V411.867L144.574 394.249L144.642 355.276L175.315 372.889Z" fill="#FF3F71"/>
<path opacity="0.6" d="M175.306 372.901V411.879L206.047 394.262L205.979 355.288L175.306 372.901Z" fill="#FF779A"/>
<path opacity="0.6" d="M175.314 372.892L144.562 355.264L175.314 337.64L206.066 355.268L175.314 372.892Z" fill="#FF0C4B"/>
<path d="M191.285 376.285C190.165 373.593 188.426 371.344 186.301 369.625C187.094 368.322 187.28 366.681 186.647 365.167C185.595 362.64 182.676 361.436 180.131 362.488C178.606 363.116 177.566 364.406 177.2 365.881C174.475 365.603 171.643 365.974 168.931 367.091C160.203 370.683 156.053 380.618 159.67 389.289C160.79 391.981 162.529 394.23 164.654 395.95C163.861 397.253 163.675 398.893 164.308 400.408C165.36 402.935 168.279 404.139 170.824 403.087C172.349 402.459 173.389 401.169 173.755 399.694C176.48 399.972 179.312 399.601 182.024 398.483C190.752 394.892 194.902 384.957 191.285 376.285Z" fill="#272036"/>
<path d="M177.699 377.463L177.652 377.575H183.809L176.813 384.521H183.036L170.81 396.658C171.05 396.89 171.243 397.167 171.376 397.491C171.936 398.841 171.29 400.389 169.937 400.944C169.257 401.229 168.525 401.202 167.898 400.944C167.585 400.819 167.292 400.633 167.052 400.389C166.806 400.15 166.599 399.853 166.459 399.515C165.893 398.166 166.539 396.625 167.898 396.063C168.578 395.785 169.311 395.805 169.937 396.063L173.295 388.006V387.987H167.092L174.088 381.041H167.865L180.118 368.878C179.891 368.653 179.711 368.375 179.578 368.064C179.018 366.715 179.658 365.173 181.017 364.611C181.697 364.333 182.43 364.353 183.056 364.618C183.356 364.737 183.635 364.915 183.875 365.147C184.135 365.392 184.348 365.689 184.495 366.04C185.055 367.389 184.415 368.937 183.056 369.493C182.376 369.77 181.65 369.751 181.024 369.493L177.699 377.456V377.463Z" fill="white"/>
<path fill-rule="evenodd" clip-rule="evenodd" d="M176.142 310.192L219.442 335.077C220.134 335.474 220.134 336.471 219.444 336.87L176.145 361.853C175.503 362.224 174.711 362.222 174.07 361.849L131.174 336.868C130.488 336.468 130.489 335.477 131.176 335.079L174.073 310.196C174.712 309.825 175.501 309.824 176.142 310.192ZM176.169 314.846L214.303 336.761C214.683 336.98 214.683 337.529 214.303 337.748L176.172 359.75C175.529 360.121 174.738 360.119 174.096 359.746L136.322 337.747C135.944 337.527 135.945 336.982 136.323 336.763L174.099 314.85C174.739 314.479 175.528 314.477 176.169 314.846Z" fill="#272036"/>
<path fill-rule="evenodd" clip-rule="evenodd" d="M176.142 307.605L219.442 332.49C220.134 332.887 220.134 333.885 219.444 334.283L176.145 359.267C175.503 359.637 174.711 359.636 174.07 359.262L131.174 334.281C130.488 333.882 130.489 332.89 131.176 332.492L174.073 307.61C174.712 307.239 175.501 307.237 176.142 307.605ZM176.169 310.707L214.303 332.623C214.683 332.842 214.683 333.39 214.303 333.609L176.172 355.611C175.529 355.982 174.738 355.981 174.096 355.607L136.322 333.608C135.944 333.389 135.945 332.843 136.323 332.624L174.099 310.712C174.739 310.341 175.528 310.339 176.169 310.707Z" fill="#272036"/>
<path opacity="0.6" d="M214.304 332.623L176.17 310.707C175.529 310.339 174.74 310.34 174.1 310.711L136.324 332.624C135.946 332.843 135.945 333.388 136.323 333.608L174.097 355.607C174.739 355.98 175.53 355.982 176.173 355.611L214.304 333.609C214.684 333.39 214.684 332.841 214.304 332.623Z" fill="#FF0C4B"/>
<g clip-path="url(#clip0_5_18254)">
<path d="M174.454 330.081C175.961 329.214 177.241 329.016 178.793 329.917L182.719 332.183L181.484 332.908L180.974 332.602C181.15 333.027 180.974 333.344 180.249 333.735C179.669 334.106 179.001 334.315 178.313 334.342C177.625 334.369 176.942 334.212 176.335 333.888C175.088 333.157 175.536 332.347 176.799 331.622L178.068 330.891L177.575 330.608C176.839 330.177 176.397 330.245 175.513 330.755L174.414 331.389L173.281 330.744L174.454 330.081ZM179.275 331.627L178.992 331.463L177.819 332.143C177.077 332.568 177.031 332.896 177.541 333.197C177.82 333.332 178.129 333.391 178.438 333.367C178.747 333.343 179.043 333.238 179.297 333.061C180.068 332.619 180.289 332.217 179.297 331.627" fill="white"/>
<path d="M172.116 331.43L173.249 332.076L171.907 332.829C171.272 333.198 171.295 333.724 172.133 334.212L175.663 336.262L174.405 336.993L168.559 333.594L169.794 332.886L170.32 333.186C170.207 332.863 170.32 332.467 171.012 332.053L172.116 331.43Z" fill="white"/>
<path d="M165.987 335.095L167.233 334.376L172.955 337.701C174.751 338.749 174.326 339.695 172.802 340.579L171.284 341.451L170.151 340.805L171.635 339.95C172.575 339.384 172.638 338.97 171.691 338.421L171.425 338.268C171.425 338.641 171.131 339.004 170.508 339.367C169.734 339.778 168.865 339.977 167.99 339.944C167.114 339.911 166.263 339.648 165.522 339.18L164.741 338.738C163.041 337.758 163.041 336.687 164.469 335.866C165.05 335.521 165.713 335.339 166.389 335.339L165.987 335.095ZM169.227 336.982L168.547 336.591C168.14 336.3 167.66 336.127 167.16 336.09C166.661 336.053 166.161 336.153 165.715 336.381C164.882 336.868 165.029 337.44 166.049 338.035L166.723 338.426C167.14 338.718 167.628 338.892 168.135 338.929C168.643 338.967 169.151 338.868 169.607 338.641C170.508 338.12 170.139 337.508 169.227 336.982Z" fill="white"/>
<path d="M155.984 338.296C157.803 337.242 159.995 337.106 162.572 338.602L163.536 339.168C166.119 340.67 165.864 341.933 164.04 342.987L161.298 344.567L153.242 339.871L155.984 338.296ZM162.17 339.95L161.213 339.384C159.547 338.421 158.324 338.307 157.162 338.976L155.786 339.78L161.496 343.1L162.873 342.301C164.034 341.633 163.824 340.913 162.17 339.95Z" fill="white"/>
<path d="M183.357 322.491L186.071 324.071C185.969 323.726 186.133 323.335 186.898 322.893C187.572 322.495 188.344 322.293 189.126 322.309C189.908 322.325 190.671 322.559 191.328 322.984L194.999 325.142L193.753 325.861L190.235 323.788C189.882 323.538 189.466 323.394 189.034 323.373C188.603 323.352 188.174 323.455 187.799 323.669C187.023 324.111 187.119 324.672 187.901 325.125L191.43 327.176L190.172 327.901L182.105 323.216L183.357 322.491Z" fill="white"/>
<path d="M180.804 326.417C181.567 326.008 182.426 325.811 183.291 325.845C184.157 325.879 184.997 326.142 185.727 326.609L186.52 327.068C188.038 327.952 188.412 329.039 186.843 329.94C186.278 330.308 185.619 330.505 184.945 330.507L187.539 332.014L186.282 332.744L178.215 328.031L179.472 327.306L179.943 327.578C179.869 327.198 180.135 326.807 180.804 326.417ZM185.217 327.754L184.537 327.363C184.129 327.073 183.649 326.9 183.149 326.864C182.65 326.828 182.15 326.93 181.704 327.159C180.872 327.64 181.025 328.195 181.976 328.762L182.724 329.192C183.631 329.725 184.639 329.969 185.591 329.419C186.542 328.87 186.123 328.286 185.217 327.754Z" fill="white"/>
</g>
<path d="M130.682 333.16H130.668L130.668 333.24C130.672 333.213 130.676 333.187 130.682 333.16Z" fill="#4D3D5E"/>
<path d="M130.668 333.534C130.71 333.829 130.877 334.11 131.172 334.281L174.067 359.262C174.708 359.635 175.5 359.637 176.143 359.266L219.441 334.283C219.862 334.04 220.026 333.576 219.934 333.16H219.963V341.064C219.963 341.804 219.568 342.487 218.928 342.857L176.143 367.544C175.5 367.914 174.708 367.913 174.067 367.54L131.696 342.864C131.059 342.493 130.668 341.812 130.668 341.075L130.668 333.534Z" fill="#4D3D5E"/>
<path d="M175.16 367.82V359.543C175.502 359.535 175.841 359.443 176.146 359.266L219.445 334.283C219.866 334.04 220.029 333.576 219.938 333.16H219.967V341.064C219.967 341.498 219.829 341.913 219.587 342.256C219.417 342.498 219.195 342.704 218.93 342.857L176.146 367.544C175.841 367.72 175.502 367.812 175.16 367.82Z" fill="#68587D"/>
<path d="M211.688 338.866C211.688 339.433 211.286 340.131 210.788 340.415C210.29 340.698 209.887 340.466 209.887 339.898C209.887 339.331 210.29 338.633 210.788 338.35C211.286 338.066 211.688 338.299 211.688 338.866Z" fill="#FF0C4B"/>
<path d="M214.821 337.07C214.821 337.637 214.418 338.335 213.92 338.619C213.422 338.902 213.02 338.67 213.02 338.103C213.02 337.535 213.422 336.837 213.92 336.554C214.418 336.27 214.821 336.503 214.821 337.07V337.07Z" fill="#FF0C4B"/>
<path d="M217.962 335.274C217.962 335.841 217.559 336.539 217.061 336.823C216.563 337.107 216.16 336.874 216.16 336.307C216.16 335.74 216.563 335.041 217.061 334.758C217.559 334.474 217.962 334.707 217.962 335.274Z" fill="white"/>
<rect x="182.609" y="131.25" width="163.798" height="102.604" rx="8" fill="#F4F4F4"/>
<rect width="151.538" height="80.5046" transform="translate(188.859 142.613)" fill="#F4F4F4"/>
<path d="M192.819 170.046C192.496 169.874 192.334 169.604 192.334 169.235C192.334 169.049 192.382 168.881 192.478 168.729C192.575 168.574 192.721 168.452 192.917 168.363C193.113 168.27 193.354 168.223 193.64 168.223C193.926 168.223 194.165 168.27 194.358 168.363C194.554 168.452 194.7 168.574 194.797 168.729C194.893 168.881 194.941 169.049 194.941 169.235C194.941 169.421 194.897 169.583 194.807 169.721C194.721 169.858 194.604 169.967 194.456 170.046C194.642 170.135 194.785 170.259 194.885 170.418C194.984 170.573 195.034 170.755 195.034 170.965C195.034 171.209 194.972 171.421 194.848 171.6C194.725 171.776 194.556 171.91 194.342 172.003C194.132 172.096 193.898 172.142 193.64 172.142C193.382 172.142 193.146 172.096 192.933 172.003C192.723 171.91 192.556 171.776 192.432 171.6C192.308 171.421 192.246 171.209 192.246 170.965C192.246 170.752 192.296 170.567 192.396 170.413C192.496 170.254 192.637 170.132 192.819 170.046ZM194.084 169.369C194.084 169.228 194.043 169.12 193.96 169.044C193.881 168.965 193.774 168.925 193.64 168.925C193.506 168.925 193.397 168.965 193.315 169.044C193.236 169.123 193.196 169.233 193.196 169.375C193.196 169.509 193.237 169.616 193.32 169.695C193.403 169.771 193.509 169.808 193.64 169.808C193.771 169.808 193.878 169.769 193.96 169.69C194.043 169.61 194.084 169.504 194.084 169.369ZM193.64 170.428C193.478 170.428 193.348 170.473 193.248 170.562C193.148 170.648 193.098 170.769 193.098 170.924C193.098 171.068 193.146 171.187 193.243 171.28C193.342 171.373 193.475 171.419 193.64 171.419C193.805 171.419 193.935 171.373 194.027 171.28C194.124 171.187 194.172 171.068 194.172 170.924C194.172 170.772 194.122 170.652 194.022 170.562C193.926 170.473 193.799 170.428 193.64 170.428ZM195.496 170.134C195.496 169.542 195.61 169.075 195.837 168.734C196.068 168.394 196.438 168.223 196.947 168.223C197.457 168.223 197.825 168.394 198.052 168.734C198.283 169.075 198.398 169.542 198.398 170.134C198.398 170.733 198.283 171.203 198.052 171.543C197.825 171.884 197.457 172.055 196.947 172.055C196.438 172.055 196.068 171.884 195.837 171.543C195.61 171.203 195.496 170.733 195.496 170.134ZM197.531 170.134C197.531 169.786 197.493 169.519 197.417 169.333C197.341 169.144 197.185 169.049 196.947 169.049C196.71 169.049 196.553 169.144 196.477 169.333C196.402 169.519 196.364 169.786 196.364 170.134C196.364 170.368 196.377 170.562 196.405 170.717C196.433 170.869 196.488 170.993 196.57 171.089C196.656 171.182 196.782 171.228 196.947 171.228C197.112 171.228 197.236 171.182 197.319 171.089C197.405 170.993 197.462 170.869 197.489 170.717C197.517 170.562 197.531 170.368 197.531 170.134ZM199.314 172.111C199.159 172.111 199.032 172.067 198.932 171.977C198.835 171.884 198.787 171.771 198.787 171.636C198.787 171.499 198.835 171.383 198.932 171.29C199.032 171.197 199.159 171.151 199.314 171.151C199.465 171.151 199.589 171.197 199.686 171.29C199.786 171.383 199.835 171.499 199.835 171.636C199.835 171.771 199.786 171.884 199.686 171.977C199.589 172.067 199.465 172.111 199.314 172.111ZM200.25 169.364C200.263 168.996 200.384 168.712 200.611 168.512C200.838 168.313 201.146 168.213 201.535 168.213C201.794 168.213 202.014 168.258 202.196 168.347C202.382 168.437 202.522 168.559 202.615 168.714C202.711 168.869 202.759 169.042 202.759 169.235C202.759 169.462 202.702 169.648 202.589 169.793C202.475 169.934 202.343 170.03 202.191 170.082V170.103C202.387 170.168 202.542 170.277 202.656 170.428C202.77 170.579 202.826 170.774 202.826 171.012C202.826 171.225 202.776 171.414 202.677 171.58C202.58 171.741 202.437 171.869 202.248 171.962C202.062 172.055 201.84 172.101 201.582 172.101C201.169 172.101 200.838 171.999 200.591 171.796C200.346 171.593 200.217 171.287 200.203 170.877H201.06C201.064 171.029 201.107 171.149 201.19 171.239C201.272 171.325 201.393 171.368 201.551 171.368C201.685 171.368 201.789 171.33 201.861 171.254C201.937 171.175 201.974 171.072 201.974 170.944C201.974 170.779 201.921 170.66 201.814 170.588C201.711 170.512 201.544 170.474 201.313 170.474H201.148V169.757H201.313C201.489 169.757 201.63 169.727 201.737 169.669C201.847 169.607 201.902 169.499 201.902 169.344C201.902 169.22 201.868 169.123 201.799 169.054C201.73 168.986 201.635 168.951 201.515 168.951C201.384 168.951 201.286 168.991 201.22 169.07C201.159 169.149 201.122 169.247 201.112 169.364H200.25ZM203.263 171.363C203.38 171.27 203.433 171.227 203.423 171.234C203.76 170.955 204.025 170.726 204.218 170.547C204.414 170.368 204.579 170.18 204.714 169.984C204.848 169.788 204.915 169.597 204.915 169.411C204.915 169.27 204.882 169.159 204.817 169.08C204.751 169.001 204.653 168.962 204.523 168.962C204.392 168.962 204.288 169.011 204.213 169.111C204.14 169.208 204.104 169.345 204.104 169.524H203.252C203.259 169.232 203.321 168.987 203.438 168.791C203.559 168.595 203.715 168.45 203.908 168.357C204.104 168.264 204.321 168.218 204.559 168.218C204.968 168.218 205.276 168.323 205.483 168.533C205.693 168.743 205.798 169.017 205.798 169.354C205.798 169.722 205.672 170.065 205.421 170.382C205.17 170.695 204.85 171.001 204.461 171.301H205.855V172.018H203.263V171.363ZM209.424 172.07L208.205 170.469V172.07H207.322V168.445H208.205V170.036L209.414 168.445H210.451L209.047 170.221L210.503 172.07H209.424ZM213.066 170.211C213.276 170.256 213.444 170.361 213.572 170.526C213.699 170.688 213.763 170.874 213.763 171.084C213.763 171.387 213.656 171.628 213.443 171.807C213.233 171.982 212.938 172.07 212.56 172.07H210.871V168.445H212.503C212.871 168.445 213.159 168.53 213.365 168.698C213.575 168.867 213.68 169.096 213.68 169.385C213.68 169.598 213.623 169.776 213.51 169.917C213.4 170.058 213.252 170.156 213.066 170.211ZM211.754 169.912H212.332C212.477 169.912 212.587 169.881 212.663 169.819C212.742 169.753 212.782 169.659 212.782 169.535C212.782 169.411 212.742 169.316 212.663 169.251C212.587 169.185 212.477 169.153 212.332 169.153H211.754V169.912ZM212.405 171.357C212.553 171.357 212.666 171.325 212.745 171.259C212.828 171.191 212.869 171.092 212.869 170.965C212.869 170.838 212.826 170.738 212.74 170.666C212.658 170.593 212.542 170.557 212.394 170.557H211.754V171.357H212.405Z" fill="#282036"/>
<path d="M203.863 176.4V176.089H204.486V178.272H204.141V176.4H203.863ZM205.293 177.131C205.085 177.027 204.982 176.863 204.982 176.64C204.982 176.532 205.009 176.433 205.063 176.343C205.116 176.253 205.197 176.183 205.305 176.131C205.413 176.077 205.545 176.05 205.7 176.05C205.854 176.05 205.985 176.077 206.093 176.131C206.202 176.183 206.284 176.253 206.338 176.343C206.392 176.433 206.419 176.532 206.419 176.64C206.419 176.751 206.39 176.85 206.332 176.936C206.276 177.02 206.201 177.085 206.108 177.131C206.221 177.173 206.311 177.242 206.377 177.337C206.443 177.431 206.476 177.542 206.476 177.67C206.476 177.8 206.443 177.914 206.377 178.014C206.311 178.114 206.219 178.191 206.102 178.245C205.984 178.299 205.85 178.326 205.7 178.326C205.551 178.326 205.417 178.299 205.299 178.245C205.183 178.191 205.092 178.114 205.027 178.014C204.961 177.914 204.928 177.8 204.928 177.67C204.928 177.54 204.961 177.428 205.027 177.334C205.092 177.241 205.181 177.173 205.293 177.131ZM206.093 176.682C206.093 176.57 206.058 176.484 205.988 176.424C205.918 176.364 205.822 176.334 205.7 176.334C205.581 176.334 205.486 176.364 205.416 176.424C205.346 176.484 205.311 176.571 205.311 176.685C205.311 176.784 205.347 176.866 205.419 176.93C205.493 176.992 205.587 177.023 205.7 177.023C205.814 177.023 205.908 176.991 205.982 176.927C206.056 176.863 206.093 176.781 206.093 176.682ZM205.7 177.28C205.569 177.28 205.461 177.313 205.377 177.379C205.295 177.443 205.254 177.536 205.254 177.658C205.254 177.772 205.294 177.864 205.374 177.936C205.454 178.006 205.563 178.041 205.7 178.041C205.836 178.041 205.943 178.005 206.021 177.933C206.101 177.861 206.14 177.77 206.14 177.658C206.14 177.538 206.1 177.445 206.018 177.379C205.938 177.313 205.832 177.28 205.7 177.28Z" fill="#282036"/>
<path d="M203.954 184.346V184.035H204.576V186.218H204.232V184.346H203.954ZM205.204 185.754C205.396 185.588 205.546 185.452 205.656 185.347C205.768 185.239 205.861 185.127 205.935 185.011C206.009 184.895 206.045 184.78 206.045 184.664C206.045 184.544 206.017 184.45 205.959 184.382C205.903 184.315 205.814 184.281 205.692 184.281C205.574 184.281 205.483 184.318 205.417 184.394C205.353 184.468 205.319 184.568 205.315 184.694H204.985C204.991 184.466 205.059 184.293 205.189 184.173C205.321 184.051 205.488 183.99 205.689 183.99C205.907 183.99 206.076 184.05 206.198 184.17C206.322 184.29 206.384 184.449 206.384 184.649C206.384 184.793 206.347 184.931 206.273 185.065C206.201 185.197 206.114 185.316 206.013 185.421C205.913 185.525 205.785 185.646 205.629 185.784L205.495 185.903H206.444V186.188H204.988V185.939L205.204 185.754Z" fill="#282036"/>
<path d="M204.285 193.023C204.077 192.92 203.973 192.756 203.973 192.532C203.973 192.425 204 192.326 204.054 192.236C204.108 192.146 204.189 192.075 204.297 192.023C204.404 191.969 204.536 191.942 204.692 191.942C204.846 191.942 204.976 191.969 205.084 192.023C205.194 192.075 205.276 192.146 205.33 192.236C205.384 192.326 205.411 192.425 205.411 192.532C205.411 192.644 205.382 192.743 205.324 192.829C205.268 192.913 205.193 192.977 205.099 193.023C205.213 193.065 205.303 193.134 205.369 193.23C205.434 193.324 205.467 193.435 205.467 193.562C205.467 193.692 205.434 193.807 205.369 193.907C205.303 194.007 205.211 194.083 205.093 194.137C204.975 194.191 204.842 194.218 204.692 194.218C204.542 194.218 204.408 194.191 204.291 194.137C204.175 194.083 204.084 194.007 204.018 193.907C203.952 193.807 203.919 193.692 203.919 193.562C203.919 193.433 203.952 193.321 204.018 193.227C204.084 193.133 204.173 193.065 204.285 193.023ZM205.084 192.574C205.084 192.462 205.049 192.377 204.979 192.317C204.909 192.257 204.814 192.227 204.692 192.227C204.572 192.227 204.477 192.257 204.407 192.317C204.338 192.377 204.303 192.463 204.303 192.577C204.303 192.677 204.339 192.759 204.41 192.823C204.484 192.885 204.578 192.916 204.692 192.916C204.806 192.916 204.899 192.884 204.973 192.82C205.047 192.756 205.084 192.674 205.084 192.574ZM204.692 193.173C204.56 193.173 204.452 193.206 204.368 193.272C204.287 193.336 204.246 193.429 204.246 193.55C204.246 193.664 204.286 193.757 204.365 193.829C204.445 193.899 204.554 193.934 204.692 193.934C204.828 193.934 204.934 193.898 205.012 193.826C205.092 193.754 205.132 193.662 205.132 193.55C205.132 193.431 205.091 193.338 205.009 193.272C204.929 193.206 204.824 193.173 204.692 193.173Z" fill="#282036"/>
<path d="M203.86 201.655V201.398L204.866 199.955H205.279V201.359H205.558V201.655H205.279V202.111H204.944V201.655H203.86ZM204.959 200.302L204.252 201.359H204.959V200.302Z" fill="#282036"/>
<path d="M203.912 208.937C203.912 208.592 203.97 208.322 204.086 208.128C204.203 207.933 204.405 207.835 204.69 207.835C204.976 207.835 205.177 207.933 205.292 208.128C205.41 208.322 205.469 208.592 205.469 208.937C205.469 209.286 205.41 209.56 205.292 209.757C205.177 209.953 204.976 210.051 204.69 210.051C204.405 210.051 204.203 209.953 204.086 209.757C203.97 209.56 203.912 209.286 203.912 208.937ZM205.134 208.937C205.134 208.775 205.123 208.639 205.101 208.527C205.081 208.415 205.039 208.324 204.975 208.254C204.911 208.182 204.816 208.146 204.69 208.146C204.565 208.146 204.47 208.182 204.406 208.254C204.342 208.324 204.299 208.415 204.277 208.527C204.257 208.639 204.247 208.775 204.247 208.937C204.247 209.105 204.257 209.245 204.277 209.359C204.297 209.473 204.339 209.565 204.403 209.635C204.469 209.704 204.565 209.739 204.69 209.739C204.816 209.739 204.911 209.704 204.975 209.635C205.041 209.565 205.084 209.473 205.104 209.359C205.124 209.245 205.134 209.105 205.134 208.937Z" fill="#282036"/>
<path d="M195.738 203.069V185.947" stroke="#838383" stroke-width="2.36778" stroke-linecap="round"/>
<path d="M207.961 216.779V215.254H220.225M220.225 215.254V216.779M220.225 215.254H232.437M232.437 215.254V216.779M232.437 215.254H244.705M244.705 215.254V216.779M244.705 215.254H256.917M256.917 215.254V216.779M256.917 215.254H269.169M269.169 215.254V216.779M269.169 215.254H281.36M281.36 215.254V216.779M281.36 215.254H293.6M293.6 215.254V216.783M293.6 215.254H305.878M305.878 215.254V216.783M305.878 215.254H318.149M318.149 215.254V216.783M318.149 215.254H330.334V216.783" stroke="#B1B1B1" stroke-width="0.39463" stroke-linecap="round"/>
<path d="M208.027 212.085H298.768L303.337 168.588L314.02 212.085H325.126L330.69 198.692" stroke="#F386A4" stroke-width="1.57852" stroke-linecap="round" stroke-linejoin="round"/>
<path d="M197.643 150.18C198.706 150.796 198.713 151.792 197.656 152.407C196.599 153.023 194.881 153.023 193.817 152.407C192.754 151.792 192.747 150.796 193.804 150.18C194.861 149.565 196.579 149.565 197.643 150.18Z" stroke="#282036" stroke-width="0.559916" stroke-linejoin="round"/>
<path d="M193.016 151.29V151.011C192.861 151.011 192.736 151.136 192.736 151.29H193.016ZM193.016 151.29L193.296 151.29C193.295 151.135 193.17 151.011 193.016 151.011V151.29ZM193.818 153.538L193.958 153.295L193.958 153.295L193.818 153.538ZM197.657 153.538L197.798 153.779L197.657 153.538ZM198.446 152.427V152.147C198.291 152.147 198.166 152.273 198.166 152.427H198.446ZM198.453 152.427V152.707C198.607 152.707 198.733 152.582 198.733 152.427H198.453ZM198.453 151.29H198.733C198.733 151.136 198.607 151.011 198.453 151.011V151.29ZM198.444 151.29V151.011C198.369 151.011 198.298 151.04 198.245 151.094C198.193 151.147 198.164 151.219 198.164 151.293L198.444 151.29ZM197.656 152.407L197.515 152.165L197.656 152.407ZM193.817 152.407L193.677 152.65H193.677L193.817 152.407ZM193.016 151.57H193.016V151.011H193.016V151.57ZM193.296 152.427V151.29H192.736V152.427H193.296ZM193.958 153.295C193.473 153.016 193.296 152.692 193.296 152.427H192.736C192.736 152.965 193.094 153.444 193.679 153.78L193.958 153.295ZM197.516 153.296C197.04 153.572 196.398 153.719 195.74 153.719C195.082 153.719 194.437 153.572 193.958 153.295L193.678 153.78C194.262 154.118 195.009 154.279 195.74 154.279C196.471 154.279 197.216 154.118 197.798 153.779L197.516 153.296ZM198.166 152.427C198.166 152.695 197.992 153.018 197.516 153.296L197.798 153.779C198.378 153.442 198.726 152.962 198.726 152.427H198.166ZM198.453 152.147H198.446V152.707H198.453V152.147ZM198.173 151.29V152.427H198.733V151.29H198.173ZM198.444 151.57H198.453V151.011H198.444V151.57ZM198.164 151.293C198.167 151.562 197.993 151.887 197.515 152.165L197.797 152.649C198.378 152.311 198.73 151.827 198.724 151.288L198.164 151.293ZM197.515 152.165C197.04 152.442 196.397 152.589 195.739 152.589C195.081 152.589 194.437 152.442 193.958 152.165L193.677 152.65C194.261 152.988 195.008 153.149 195.739 153.149C196.47 153.149 197.216 152.988 197.797 152.649L197.515 152.165ZM193.958 152.165C193.475 151.886 193.296 151.559 193.296 151.29L192.736 151.291C192.737 151.83 193.093 152.312 193.677 152.65L193.958 152.165Z" fill="#282036"/>
<path d="M193.016 152.427V152.147C192.861 152.147 192.736 152.272 192.736 152.427H193.016ZM193.016 152.427L193.296 152.426C193.295 152.272 193.17 152.147 193.016 152.147V152.427ZM193.818 154.674L193.958 154.431L193.958 154.431L193.818 154.674ZM198.446 153.564V153.284C198.291 153.284 198.166 153.409 198.166 153.564H198.446ZM198.453 153.564V153.844C198.607 153.844 198.733 153.718 198.733 153.564H198.453ZM198.453 152.427H198.733C198.733 152.272 198.607 152.147 198.453 152.147V152.427ZM198.444 152.427V152.147C198.369 152.147 198.298 152.177 198.245 152.23C198.193 152.283 198.164 152.355 198.164 152.43L198.444 152.427ZM197.656 153.544L197.797 153.786L197.656 153.544ZM193.817 153.544L193.677 153.786L193.817 153.544ZM193.016 152.707H193.016V152.147H193.016V152.707ZM193.296 153.564V152.427H192.736V153.564H193.296ZM193.958 154.431C193.473 154.152 193.296 153.828 193.296 153.564H192.736C192.736 154.101 193.094 154.58 193.679 154.916L193.958 154.431ZM197.516 154.432C197.04 154.709 196.398 154.855 195.74 154.855C195.082 154.855 194.437 154.709 193.958 154.431L193.678 154.916C194.262 155.254 195.009 155.415 195.74 155.415C196.471 155.415 197.216 155.254 197.798 154.916L197.516 154.432ZM198.166 153.564C198.166 153.831 197.992 154.155 197.516 154.432L197.798 154.916C198.378 154.578 198.726 154.099 198.726 153.564H198.166ZM198.453 153.284H198.446V153.844H198.453V153.284ZM198.173 152.427V153.564H198.733V152.427H198.173ZM198.444 152.707H198.453V152.147H198.444V152.707ZM198.164 152.43C198.167 152.698 197.993 153.023 197.515 153.302L197.797 153.786C198.378 153.447 198.73 152.964 198.724 152.424L198.164 152.43ZM197.515 153.302C197.04 153.579 196.397 153.725 195.739 153.725C195.081 153.725 194.437 153.579 193.958 153.301L193.677 153.786C194.261 154.124 195.008 154.285 195.739 154.285C196.47 154.285 197.216 154.124 197.797 153.786L197.515 153.302ZM193.958 153.301C193.475 153.022 193.296 152.695 193.296 152.426L192.736 152.427C192.737 152.966 193.093 153.448 193.677 153.786L193.958 153.301Z" fill="#282036"/>
<path d="M193.016 153.562V153.282C192.861 153.282 192.736 153.407 192.736 153.562H193.016ZM193.016 153.562L193.296 153.561C193.295 153.407 193.17 153.282 193.016 153.282V153.562ZM193.818 155.809L193.958 155.566L193.958 155.566L193.818 155.809ZM197.657 155.809L197.798 156.051L197.657 155.809ZM198.446 154.698V154.419C198.291 154.419 198.166 154.544 198.166 154.698H198.446ZM198.453 154.698V154.978C198.607 154.978 198.733 154.853 198.733 154.698H198.453ZM198.453 153.562H198.733C198.733 153.407 198.607 153.282 198.453 153.282V153.562ZM198.444 153.562V153.282C198.369 153.282 198.298 153.312 198.245 153.365C198.193 153.418 198.164 153.49 198.164 153.564L198.444 153.562ZM197.656 154.678L197.515 154.437L197.656 154.678ZM193.817 154.678L193.677 154.921H193.677L193.817 154.678ZM193.016 153.842H193.016V153.282H193.016V153.842ZM193.296 154.698V153.562H192.736V154.698H193.296ZM193.958 155.566C193.473 155.287 193.296 154.963 193.296 154.698H192.736C192.736 155.236 193.094 155.715 193.679 156.051L193.958 155.566ZM197.516 155.567C197.04 155.844 196.398 155.99 195.74 155.99C195.082 155.99 194.437 155.844 193.958 155.566L193.678 156.051C194.262 156.389 195.009 156.55 195.74 156.55C196.471 156.55 197.216 156.389 197.798 156.051L197.516 155.567ZM198.166 154.698C198.166 154.966 197.992 155.289 197.516 155.567L197.798 156.051C198.378 155.713 198.726 155.233 198.726 154.698H198.166ZM198.453 154.419H198.446V154.978H198.453V154.419ZM198.173 153.562V154.698H198.733V153.562H198.173ZM198.444 153.842H198.453V153.282H198.444V153.842ZM198.164 153.564C198.167 153.833 197.993 154.158 197.515 154.437L197.797 154.92C198.378 154.582 198.73 154.098 198.724 153.559L198.164 153.564ZM197.515 154.437C197.04 154.713 196.397 154.86 195.739 154.86C195.081 154.86 194.437 154.713 193.958 154.436L193.677 154.921C194.261 155.259 195.008 155.42 195.739 155.42C196.47 155.42 197.216 155.259 197.797 154.92L197.515 154.437ZM193.958 154.436C193.475 154.157 193.296 153.83 193.296 153.561L192.736 153.562C192.737 154.101 193.093 154.583 193.677 154.921L193.958 154.436Z" fill="#282036"/>
<path d="M205.152 152.87H225.445" stroke="#838383" stroke-width="2.36778" stroke-linecap="round"/>
<path d="M193.766 162.158H237.736" stroke="#838383" stroke-width="2.36778" stroke-linecap="round"/>
<rect x="547.859" y="45" width="163.798" height="102.604" rx="8" fill="#F4F4F4"/>
<rect width="151.538" height="80.5046" transform="translate(554.004 56.1375)" fill="#F4F4F4"/>
<path d="M572.547 65.8095H592.84" stroke="#838383" stroke-width="2.36778" stroke-linecap="round"/>
<path d="M684.172 65.8095H695.783" stroke="#838383" stroke-width="2.36778" stroke-linecap="round"/>
<rect x="601.359" y="103.589" width="57.4134" height="9.73556" rx="3.9463" fill="#E9E9E9"/>
<path d="M616.71 107.564V108.995C616.71 109.139 616.746 109.249 616.816 109.326C616.886 109.403 616.99 109.442 617.126 109.442C617.262 109.442 617.367 109.403 617.44 109.326C617.512 109.249 617.549 109.139 617.549 108.995V107.564H618.131V108.992C618.131 109.206 618.086 109.386 617.995 109.534C617.904 109.682 617.782 109.793 617.627 109.868C617.475 109.943 617.304 109.98 617.116 109.98C616.927 109.98 616.758 109.944 616.608 109.871C616.46 109.796 616.343 109.685 616.257 109.537C616.171 109.387 616.128 109.206 616.128 108.992V107.564H616.71ZM619.089 108.324C619.146 108.235 619.224 108.164 619.324 108.109C619.424 108.055 619.541 108.028 619.675 108.028C619.832 108.028 619.974 108.067 620.101 108.147C620.229 108.226 620.329 108.34 620.401 108.488C620.476 108.635 620.514 108.807 620.514 109.002C620.514 109.198 620.476 109.37 620.401 109.52C620.329 109.668 620.229 109.783 620.101 109.864C619.974 109.944 619.832 109.984 619.675 109.984C619.544 109.984 619.427 109.956 619.324 109.902C619.224 109.847 619.146 109.777 619.089 109.691V110.863H618.507V108.055H619.089V108.324ZM619.921 109.002C619.921 108.857 619.88 108.743 619.798 108.661C619.719 108.577 619.62 108.535 619.502 108.535C619.386 108.535 619.287 108.577 619.205 108.661C619.126 108.745 619.086 108.86 619.086 109.006C619.086 109.151 619.126 109.266 619.205 109.35C619.287 109.434 619.386 109.476 619.502 109.476C619.618 109.476 619.716 109.434 619.798 109.35C619.88 109.263 619.921 109.148 619.921 109.002ZM621.508 108.028C621.642 108.028 621.759 108.055 621.859 108.109C621.961 108.164 622.039 108.235 622.094 108.324V108.055H622.677V109.953C622.677 110.128 622.642 110.286 622.571 110.427C622.503 110.57 622.397 110.683 622.254 110.767C622.113 110.852 621.937 110.894 621.726 110.894C621.444 110.894 621.216 110.827 621.041 110.692C620.866 110.561 620.766 110.381 620.741 110.154H621.317C621.335 110.227 621.378 110.284 621.447 110.324C621.515 110.368 621.599 110.389 621.699 110.389C621.819 110.389 621.915 110.354 621.985 110.284C622.058 110.215 622.094 110.105 622.094 109.953V109.684C622.037 109.772 621.959 109.845 621.859 109.902C621.759 109.956 621.642 109.984 621.508 109.984C621.351 109.984 621.209 109.944 621.082 109.864C620.955 109.783 620.854 109.668 620.779 109.52C620.706 109.37 620.67 109.198 620.67 109.002C620.67 108.807 620.706 108.635 620.779 108.488C620.854 108.34 620.955 108.226 621.082 108.147C621.209 108.067 621.351 108.028 621.508 108.028ZM622.094 109.006C622.094 108.86 622.053 108.745 621.971 108.661C621.892 108.577 621.794 108.535 621.678 108.535C621.562 108.535 621.464 108.577 621.382 108.661C621.302 108.743 621.262 108.857 621.262 109.002C621.262 109.148 621.302 109.263 621.382 109.35C621.464 109.434 621.562 109.476 621.678 109.476C621.794 109.476 621.892 109.434 621.971 109.35C622.053 109.266 622.094 109.151 622.094 109.006ZM623.647 108.372C623.715 108.267 623.8 108.185 623.903 108.126C624.005 108.065 624.118 108.034 624.243 108.034V108.651H624.083C623.938 108.651 623.829 108.683 623.756 108.747C623.683 108.808 623.647 108.917 623.647 109.074V109.956H623.064V108.055H623.647V108.372ZM624.372 109.002C624.372 108.807 624.408 108.635 624.481 108.488C624.556 108.34 624.657 108.226 624.784 108.147C624.912 108.067 625.054 108.028 625.21 108.028C625.344 108.028 625.461 108.055 625.561 108.109C625.664 108.164 625.742 108.235 625.796 108.324V108.055H626.379V109.956H625.796V109.687C625.74 109.776 625.66 109.847 625.558 109.902C625.458 109.956 625.341 109.984 625.207 109.984C625.052 109.984 624.912 109.944 624.784 109.864C624.657 109.783 624.556 109.668 624.481 109.52C624.408 109.37 624.372 109.198 624.372 109.002ZM625.796 109.006C625.796 108.86 625.756 108.745 625.674 108.661C625.594 108.577 625.497 108.535 625.381 108.535C625.265 108.535 625.166 108.577 625.084 108.661C625.005 108.743 624.965 108.857 624.965 109.002C624.965 109.148 625.005 109.263 625.084 109.35C625.166 109.434 625.265 109.476 625.381 109.476C625.497 109.476 625.594 109.434 625.674 109.35C625.756 109.266 625.796 109.151 625.796 109.006ZM626.651 109.002C626.651 108.807 626.687 108.635 626.76 108.488C626.835 108.34 626.936 108.226 627.063 108.147C627.19 108.067 627.332 108.028 627.489 108.028C627.614 108.028 627.728 108.054 627.83 108.106C627.934 108.158 628.016 108.229 628.075 108.317V107.435H628.658V109.956H628.075V109.684C628.021 109.775 627.942 109.847 627.84 109.902C627.74 109.956 627.623 109.984 627.489 109.984C627.332 109.984 627.19 109.944 627.063 109.864C626.936 109.783 626.835 109.668 626.76 109.52C626.687 109.37 626.651 109.198 626.651 109.002ZM628.075 109.006C628.075 108.86 628.034 108.745 627.953 108.661C627.873 108.577 627.775 108.535 627.659 108.535C627.544 108.535 627.445 108.577 627.363 108.661C627.283 108.743 627.244 108.857 627.244 109.002C627.244 109.148 627.283 109.263 627.363 109.35C627.445 109.434 627.544 109.476 627.659 109.476C627.775 109.476 627.873 109.434 627.953 109.35C628.034 109.266 628.075 109.151 628.075 109.006ZM630.838 108.975C630.838 109.029 630.835 109.086 630.828 109.145H629.509C629.518 109.263 629.556 109.354 629.621 109.418C629.69 109.479 629.772 109.51 629.87 109.51C630.016 109.51 630.117 109.449 630.173 109.326H630.794C630.762 109.451 630.704 109.563 630.62 109.663C630.538 109.763 630.435 109.842 630.31 109.898C630.185 109.955 630.045 109.984 629.891 109.984C629.704 109.984 629.538 109.944 629.393 109.864C629.248 109.785 629.134 109.671 629.052 109.524C628.971 109.376 628.93 109.203 628.93 109.006C628.93 108.808 628.969 108.635 629.049 108.488C629.131 108.34 629.244 108.226 629.39 108.147C629.535 108.067 629.702 108.028 629.891 108.028C630.075 108.028 630.238 108.066 630.381 108.143C630.524 108.221 630.636 108.331 630.715 108.474C630.797 108.617 630.838 108.784 630.838 108.975ZM630.242 108.822C630.242 108.722 630.208 108.642 630.139 108.583C630.071 108.524 629.986 108.494 629.884 108.494C629.786 108.494 629.703 108.523 629.635 108.58C629.569 108.636 629.528 108.717 629.512 108.822H630.242ZM632.859 109.462V109.956H632.563C632.351 109.956 632.187 109.905 632.069 109.803C631.951 109.699 631.891 109.529 631.891 109.295V108.539H631.66V108.055H631.891V107.591H632.474V108.055H632.856V108.539H632.474V109.302C632.474 109.359 632.488 109.4 632.515 109.425C632.542 109.45 632.588 109.462 632.651 109.462H632.859ZM634.015 109.984C633.829 109.984 633.661 109.944 633.511 109.864C633.363 109.785 633.246 109.671 633.16 109.524C633.076 109.376 633.034 109.203 633.034 109.006C633.034 108.81 633.077 108.639 633.163 108.491C633.25 108.341 633.368 108.226 633.518 108.147C633.668 108.067 633.836 108.028 634.022 108.028C634.208 108.028 634.377 108.067 634.527 108.147C634.676 108.226 634.795 108.341 634.881 108.491C634.967 108.639 635.01 108.81 635.01 109.006C635.01 109.201 634.966 109.374 634.878 109.524C634.791 109.671 634.672 109.785 634.52 109.864C634.37 109.944 634.202 109.984 634.015 109.984ZM634.015 109.479C634.127 109.479 634.221 109.438 634.298 109.357C634.378 109.275 634.417 109.158 634.417 109.006C634.417 108.853 634.379 108.736 634.302 108.655C634.227 108.573 634.133 108.532 634.022 108.532C633.909 108.532 633.814 108.573 633.739 108.655C633.664 108.734 633.627 108.851 633.627 109.006C633.627 109.158 633.663 109.275 633.736 109.357C633.811 109.438 633.904 109.479 634.015 109.479ZM638.219 107.564L637.371 109.956H636.642L635.793 107.564H636.413L637.006 109.37L637.603 107.564H638.219ZM638.722 107.857C638.62 107.857 638.536 107.828 638.47 107.769C638.406 107.707 638.374 107.632 638.374 107.544C638.374 107.453 638.406 107.378 638.47 107.319C638.536 107.257 638.62 107.227 638.722 107.227C638.822 107.227 638.904 107.257 638.967 107.319C639.033 107.378 639.066 107.453 639.066 107.544C639.066 107.632 639.033 107.707 638.967 107.769C638.904 107.828 638.822 107.857 638.722 107.857ZM639.012 108.055V109.956H638.429V108.055H639.012ZM641.192 108.975C641.192 109.029 641.189 109.086 641.182 109.145H639.863C639.872 109.263 639.91 109.354 639.976 109.418C640.044 109.479 640.127 109.51 640.224 109.51C640.37 109.51 640.471 109.449 640.528 109.326H641.148C641.116 109.451 641.058 109.563 640.974 109.663C640.892 109.763 640.789 109.842 640.664 109.898C640.539 109.955 640.399 109.984 640.245 109.984C640.059 109.984 639.893 109.944 639.747 109.864C639.602 109.785 639.488 109.671 639.407 109.524C639.325 109.376 639.284 109.203 639.284 109.006C639.284 108.808 639.324 108.635 639.403 108.488C639.485 108.34 639.599 108.226 639.744 108.147C639.889 108.067 640.056 108.028 640.245 108.028C640.429 108.028 640.593 108.066 640.736 108.143C640.879 108.221 640.99 108.331 641.07 108.474C641.151 108.617 641.192 108.784 641.192 108.975ZM640.596 108.822C640.596 108.722 640.562 108.642 640.494 108.583C640.426 108.524 640.34 108.494 640.238 108.494C640.14 108.494 640.057 108.523 639.989 108.58C639.923 108.636 639.883 108.717 639.867 108.822H640.596ZM644.195 108.055L643.681 109.956H643.037L642.737 108.723L642.427 109.956H641.786L641.268 108.055H641.851L642.12 109.415L642.44 108.055H643.057L643.381 109.408L643.647 108.055H644.195Z" fill="#5D5866"/>
<rect x="601.359" y="103.589" width="57.4134" height="9.73556" rx="3.9463" stroke="#EAEAEA" stroke-width="0.39463"/>
<path d="M562.916 62.0126H559.938V67.4203H567.263V63.5911H563.185L562.916 62.0126Z" stroke="#282036" stroke-width="0.559916" stroke-linejoin="round"/>
<path opacity="0.8" d="M667.895 174.3L645.922 161.613L667.895 148.929L689.867 161.616L667.895 174.3Z" fill="#F00B46"/>
<path opacity="0.6" d="M667.886 146.241V174.295L645.922 161.615L645.97 133.565L667.886 146.241Z" fill="#FF3F71"/>
<path opacity="0.6" d="M667.883 146.25V174.303L689.848 161.624L689.799 133.573L667.883 146.25Z" fill="#FF779A"/>
<path opacity="0.6" d="M667.891 146.244L645.918 133.557L667.891 120.872L689.863 133.56L667.891 146.244Z" fill="#FF0C4B"/>
<rect x="545.859" y="365" width="163.798" height="102.604" rx="8" fill="#F4F4F4"/>
<rect width="151.538" height="80.5046" transform="translate(551.707 376.526)" fill="#F4F4F4"/>
<path d="M563.243 385.707H562.964C562.964 385.797 563.007 385.881 563.08 385.934C563.153 385.987 563.247 386.001 563.333 385.972L563.243 385.707ZM563.556 387.821L563.564 387.541H563.556V387.821ZM557.966 387.821V387.541L557.954 387.541L557.966 387.821ZM558.364 385.03L558.274 385.295C558.352 385.321 558.437 385.313 558.507 385.271C558.577 385.229 558.626 385.158 558.64 385.078L558.364 385.03ZM563.333 385.972C563.413 385.945 563.499 385.93 563.589 385.93V385.37C563.438 385.37 563.291 385.395 563.154 385.441L563.333 385.972ZM563.589 385.93C564.034 385.93 564.395 386.291 564.395 386.736H564.955C564.955 385.982 564.343 385.37 563.589 385.37V385.93ZM564.395 386.736C564.395 387.181 564.034 387.541 563.589 387.541V388.101C564.343 388.101 564.955 387.49 564.955 386.736H564.395ZM563.589 387.541C563.581 387.541 563.573 387.541 563.564 387.541L563.548 388.101C563.561 388.101 563.575 388.101 563.589 388.101V387.541ZM563.556 387.541H557.966V388.101H563.556V387.541ZM557.954 387.541C557.937 387.542 557.92 387.542 557.903 387.542V388.102C557.928 388.102 557.953 388.102 557.978 388.1L557.954 387.541ZM557.903 387.542C557.265 387.542 556.749 387.026 556.749 386.388H556.189C556.189 387.335 556.956 388.102 557.903 388.102V387.542ZM556.749 386.388C556.749 385.751 557.265 385.234 557.903 385.234V384.674C556.956 384.674 556.189 385.442 556.189 386.388H556.749ZM557.903 385.234C558.033 385.234 558.158 385.256 558.274 385.295L558.454 384.765C558.281 384.706 558.095 384.674 557.903 384.674V385.234ZM558.64 385.078C558.817 384.053 559.711 383.274 560.786 383.274V382.714C559.434 382.714 558.311 383.694 558.088 384.982L558.64 385.078ZM560.786 383.274C561.989 383.274 562.964 384.249 562.964 385.452H563.523C563.523 383.94 562.298 382.714 560.786 382.714V383.274ZM562.964 385.452V385.707H563.523V385.452H562.964Z" fill="#282036"/>
<path d="M570.25 386.198H590.543" stroke="#838383" stroke-width="2.36778" stroke-linecap="round"/>
<path d="M683.117 386.198H694.728" stroke="#838383" stroke-width="2.36778" stroke-linecap="round"/>
<path d="M557.805 394.097H587.568" stroke="#838383" stroke-width="2.36778" stroke-linecap="round"/>
<path d="M557.805 428.034H603.354" stroke="#838383" stroke-width="2.36778" stroke-linecap="round"/>
<path d="M557.805 401.99H571.783" stroke="#838383" stroke-width="2.36778" stroke-linecap="round"/>
<path d="M687.242 394.097H694.725" stroke="#838383" stroke-width="2.36778" stroke-linecap="round"/>
<path d="M681.208 404.804C681.325 404.711 681.379 404.668 681.368 404.675C681.706 404.396 681.971 404.167 682.164 403.988C682.36 403.809 682.525 403.622 682.659 403.425C682.794 403.229 682.861 403.038 682.861 402.852C682.861 402.711 682.828 402.601 682.763 402.522C682.697 402.442 682.599 402.403 682.468 402.403C682.337 402.403 682.234 402.453 682.158 402.553C682.086 402.649 682.05 402.787 682.05 402.966H681.198C681.205 402.673 681.267 402.429 681.384 402.232C681.504 402.036 681.661 401.892 681.854 401.799C682.05 401.706 682.267 401.659 682.504 401.659C682.914 401.659 683.222 401.764 683.429 401.974C683.639 402.184 683.744 402.458 683.744 402.795C683.744 403.164 683.618 403.506 683.367 403.823C683.115 404.136 682.795 404.443 682.406 404.742H683.8V405.46H681.208V404.804ZM686.792 402.511H685.181V403.224C685.249 403.148 685.346 403.086 685.47 403.038C685.594 402.99 685.728 402.966 685.873 402.966C686.131 402.966 686.344 403.024 686.513 403.141C686.685 403.258 686.811 403.41 686.89 403.596C686.969 403.782 687.009 403.983 687.009 404.2C687.009 404.603 686.895 404.923 686.668 405.16C686.441 405.394 686.12 405.511 685.707 405.511C685.432 405.511 685.193 405.465 684.99 405.372C684.786 405.276 684.63 405.143 684.52 404.974C684.41 404.806 684.349 404.611 684.339 404.391H685.201C685.222 404.498 685.272 404.587 685.351 404.659C685.43 404.728 685.539 404.763 685.676 404.763C685.838 404.763 685.959 404.711 686.038 404.608C686.117 404.504 686.157 404.367 686.157 404.195C686.157 404.026 686.115 403.897 686.033 403.807C685.95 403.718 685.83 403.673 685.671 403.673C685.554 403.673 685.458 403.702 685.382 403.761C685.306 403.816 685.256 403.89 685.232 403.983H684.38V401.737H686.792V402.511ZM690.981 403.033C690.916 402.912 690.821 402.821 690.697 402.759C690.577 402.694 690.434 402.661 690.268 402.661C689.983 402.661 689.754 402.756 689.582 402.945C689.41 403.131 689.323 403.381 689.323 403.694C689.323 404.028 689.413 404.289 689.592 404.479C689.774 404.665 690.024 404.758 690.341 404.758C690.558 404.758 690.74 404.702 690.888 404.592C691.04 404.482 691.15 404.324 691.219 404.117H690.098V403.467H692.019V404.288C691.953 404.508 691.842 404.713 691.683 404.902C691.528 405.091 691.33 405.245 691.089 405.362C690.848 405.479 690.577 405.537 690.274 405.537C689.916 405.537 689.595 405.46 689.313 405.305C689.034 405.147 688.816 404.928 688.657 404.649C688.502 404.37 688.425 404.052 688.425 403.694C688.425 403.336 688.502 403.017 688.657 402.739C688.816 402.456 689.034 402.238 689.313 402.083C689.592 401.924 689.91 401.845 690.268 401.845C690.702 401.845 691.067 401.95 691.363 402.16C691.663 402.37 691.861 402.661 691.957 403.033H690.981ZM694.651 403.652C694.861 403.697 695.03 403.802 695.157 403.967C695.284 404.129 695.348 404.315 695.348 404.525C695.348 404.828 695.241 405.069 695.028 405.248C694.818 405.424 694.524 405.511 694.145 405.511H692.456V401.887H694.088C694.456 401.887 694.744 401.971 694.95 402.14C695.16 402.308 695.265 402.537 695.265 402.826C695.265 403.04 695.209 403.217 695.095 403.358C694.985 403.499 694.837 403.597 694.651 403.652ZM693.339 403.353H693.918C694.062 403.353 694.172 403.322 694.248 403.26C694.327 403.195 694.367 403.1 694.367 402.976C694.367 402.852 694.327 402.757 694.248 402.692C694.172 402.627 694.062 402.594 693.918 402.594H693.339V403.353ZM693.99 404.799C694.138 404.799 694.252 404.766 694.331 404.701C694.413 404.632 694.455 404.534 694.455 404.406C694.455 404.279 694.412 404.179 694.326 404.107C694.243 404.035 694.128 403.998 693.98 403.998H693.339V404.799H693.99Z" fill="#282036"/>
<path d="M557.805 417.775H694.119" stroke="#838383" stroke-width="0.789261" stroke-linecap="round"/>
<rect x="671.047" y="423.977" width="23.8926" height="9.73556" fill="white"/>
<path d="M676.272 427.953V429.384C676.272 429.527 676.307 429.638 676.378 429.715C676.448 429.792 676.552 429.831 676.688 429.831C676.824 429.831 676.929 429.792 677.001 429.715C677.074 429.638 677.111 429.527 677.111 429.384V427.953H677.693V429.381C677.693 429.594 677.648 429.775 677.557 429.923C677.466 430.07 677.343 430.182 677.189 430.257C677.037 430.332 676.866 430.369 676.678 430.369C676.489 430.369 676.32 430.333 676.17 430.26C676.022 430.185 675.905 430.074 675.819 429.926C675.733 429.776 675.689 429.594 675.689 429.381V427.953H676.272ZM678.651 428.713C678.708 428.624 678.786 428.553 678.886 428.498C678.986 428.444 679.103 428.416 679.237 428.416C679.394 428.416 679.536 428.456 679.663 428.536C679.79 428.615 679.89 428.729 679.963 428.877C680.038 429.024 680.076 429.196 680.076 429.391C680.076 429.586 680.038 429.759 679.963 429.909C679.89 430.057 679.79 430.171 679.663 430.253C679.536 430.333 679.394 430.373 679.237 430.373C679.106 430.373 678.989 430.345 678.886 430.291C678.786 430.236 678.708 430.166 678.651 430.079V431.252H678.068V428.444H678.651V428.713ZM679.483 429.391C679.483 429.246 679.442 429.132 679.36 429.05C679.28 428.966 679.182 428.924 679.063 428.924C678.948 428.924 678.849 428.966 678.767 429.05C678.687 429.134 678.648 429.249 678.648 429.394C678.648 429.54 678.687 429.655 678.767 429.739C678.849 429.823 678.948 429.865 679.063 429.865C679.179 429.865 679.278 429.823 679.36 429.739C679.442 429.652 679.483 429.536 679.483 429.391ZM681.07 428.416C681.204 428.416 681.321 428.444 681.421 428.498C681.523 428.553 681.601 428.624 681.656 428.713V428.444H682.239V430.342C682.239 430.517 682.203 430.675 682.133 430.816C682.065 430.959 681.959 431.072 681.816 431.156C681.675 431.24 681.499 431.282 681.288 431.282C681.006 431.282 680.778 431.215 680.603 431.081C680.428 430.95 680.328 430.77 680.303 430.543H680.879C680.897 430.616 680.94 430.672 681.008 430.713C681.077 430.756 681.161 430.778 681.261 430.778C681.381 430.778 681.476 430.743 681.547 430.672C681.619 430.604 681.656 430.494 681.656 430.342V430.073C681.599 430.161 681.521 430.234 681.421 430.291C681.321 430.345 681.204 430.373 681.07 430.373C680.913 430.373 680.771 430.333 680.644 430.253C680.516 430.171 680.415 430.057 680.34 429.909C680.268 429.759 680.231 429.586 680.231 429.391C680.231 429.196 680.268 429.024 680.34 428.877C680.415 428.729 680.516 428.615 680.644 428.536C680.771 428.456 680.913 428.416 681.07 428.416ZM681.656 429.394C681.656 429.249 681.615 429.134 681.533 429.05C681.454 428.966 681.356 428.924 681.24 428.924C681.124 428.924 681.025 428.966 680.944 429.05C680.864 429.132 680.824 429.246 680.824 429.391C680.824 429.536 680.864 429.652 680.944 429.739C681.025 429.823 681.124 429.865 681.24 429.865C681.356 429.865 681.454 429.823 681.533 429.739C681.615 429.655 681.656 429.54 681.656 429.394ZM683.209 428.761C683.277 428.656 683.362 428.574 683.464 428.515C683.567 428.454 683.68 428.423 683.805 428.423V429.04H683.645C683.5 429.04 683.391 429.072 683.318 429.136C683.245 429.197 683.209 429.306 683.209 429.463V430.345H682.626V428.444H683.209V428.761ZM683.934 429.391C683.934 429.196 683.97 429.024 684.043 428.877C684.118 428.729 684.219 428.615 684.346 428.536C684.473 428.456 684.615 428.416 684.772 428.416C684.906 428.416 685.023 428.444 685.123 428.498C685.225 428.553 685.304 428.624 685.358 428.713V428.444H685.941V430.345H685.358V430.076C685.301 430.165 685.222 430.236 685.12 430.291C685.02 430.345 684.903 430.373 684.769 430.373C684.614 430.373 684.473 430.333 684.346 430.253C684.219 430.171 684.118 430.057 684.043 429.909C683.97 429.759 683.934 429.586 683.934 429.391ZM685.358 429.394C685.358 429.249 685.317 429.134 685.236 429.05C685.156 428.966 685.058 428.924 684.942 428.924C684.827 428.924 684.728 428.966 684.646 429.05C684.566 429.132 684.527 429.246 684.527 429.391C684.527 429.536 684.566 429.652 684.646 429.739C684.728 429.823 684.827 429.865 684.942 429.865C685.058 429.865 685.156 429.823 685.236 429.739C685.317 429.655 685.358 429.54 685.358 429.394ZM686.213 429.391C686.213 429.196 686.249 429.024 686.322 428.877C686.397 428.729 686.498 428.615 686.625 428.536C686.752 428.456 686.894 428.416 687.051 428.416C687.176 428.416 687.289 428.443 687.392 428.495C687.496 428.547 687.578 428.618 687.637 428.706V427.823H688.22V430.345H687.637V430.073C687.583 430.164 687.504 430.236 687.402 430.291C687.302 430.345 687.185 430.373 687.051 430.373C686.894 430.373 686.752 430.333 686.625 430.253C686.498 430.171 686.397 430.057 686.322 429.909C686.249 429.759 686.213 429.586 686.213 429.391ZM687.637 429.394C687.637 429.249 687.596 429.134 687.514 429.05C687.435 428.966 687.337 428.924 687.221 428.924C687.105 428.924 687.007 428.966 686.925 429.05C686.845 429.132 686.806 429.246 686.806 429.391C686.806 429.536 686.845 429.652 686.925 429.739C687.007 429.823 687.105 429.865 687.221 429.865C687.337 429.865 687.435 429.823 687.514 429.739C687.596 429.655 687.637 429.54 687.637 429.394ZM690.4 429.364C690.4 429.418 690.396 429.475 690.39 429.534H689.071C689.08 429.652 689.117 429.743 689.183 429.807C689.251 429.868 689.334 429.899 689.432 429.899C689.577 429.899 689.679 429.838 689.735 429.715H690.356C690.324 429.84 690.266 429.952 690.182 430.052C690.1 430.152 689.997 430.231 689.872 430.287C689.747 430.344 689.607 430.373 689.452 430.373C689.266 430.373 689.1 430.333 688.955 430.253C688.81 430.174 688.696 430.06 688.614 429.912C688.532 429.765 688.491 429.592 688.491 429.394C688.491 429.197 688.531 429.024 688.611 428.877C688.693 428.729 688.806 428.615 688.952 428.536C689.097 428.456 689.264 428.416 689.452 428.416C689.636 428.416 689.8 428.455 689.943 428.532C690.086 428.61 690.198 428.72 690.277 428.863C690.359 429.006 690.4 429.173 690.4 429.364ZM689.803 429.21C689.803 429.111 689.769 429.031 689.701 428.972C689.633 428.913 689.548 428.883 689.446 428.883C689.348 428.883 689.265 428.912 689.197 428.969C689.131 429.025 689.09 429.106 689.074 429.21H689.803Z" fill="#5D5866"/>
<rect x="671.047" y="423.977" width="23.8926" height="9.73556" stroke="#D6D6D6" stroke-width="0.39463"/>
<path d="M484.822 182.246C484.022 181.811 483.252 181.542 482.533 181.424V179.495C482.533 169.22 475.213 156.917 466.184 152.014C461.957 149.719 458.105 149.453 455.203 150.872L445.659 155.812C443.486 154.979 441.549 155.106 440.103 156.041L421.633 165.405L471.839 208.157C478.493 204.73 490.475 198.699 490.475 198.699C490.475 198.699 491.959 198.052 492.042 194.383C492.042 189.845 488.81 184.411 484.822 182.246Z" fill="#4A3E59"/>
<path d="M423.143 166.691L431.244 168.265C433.169 161.671 435.501 159.619 441.792 159.013L446.083 156.18C443.921 155.358 441.543 155.11 440.103 156.04L421.633 165.405L423.143 166.691Z" fill="#272036"/>
<mask id="path-133-inside-1_5_18254" fill="white">
<path d="M463.936 190.793C464.654 190.911 465.424 191.18 466.223 191.614C470.211 193.78 473.444 199.214 473.444 203.751C473.444 208.289 470.211 210.212 466.223 208.047C466.196 208.032 466.168 208.017 466.141 208.002L428.479 187.553C428.452 187.539 428.425 187.524 428.399 187.51C428.372 187.495 428.345 187.481 428.319 187.466L428.106 187.351V187.346C422.973 184.383 418.859 177.359 418.859 171.476C418.859 165.481 423.13 162.94 428.399 165.801C429.476 166.385 430.511 167.151 431.477 168.049C432.806 160.017 439.513 157 447.586 161.383C456.616 166.286 463.936 178.589 463.936 188.864V190.793Z"/>
</mask>
<path d="M463.936 190.793C464.654 190.911 465.424 191.18 466.223 191.614C470.211 193.78 473.444 199.214 473.444 203.751C473.444 208.289 470.211 210.212 466.223 208.047C466.196 208.032 466.168 208.017 466.141 208.002L428.479 187.553C428.452 187.539 428.425 187.524 428.399 187.51C428.372 187.495 428.345 187.481 428.319 187.466L428.106 187.351V187.346C422.973 184.383 418.859 177.359 418.859 171.476C418.859 165.481 423.13 162.94 428.399 165.801C429.476 166.385 430.511 167.151 431.477 168.049C432.806 160.017 439.513 157 447.586 161.383C456.616 166.286 463.936 178.589 463.936 188.864V190.793Z" fill="#272036"/>
<path d="M463.936 190.793H462.504V192.01L463.705 192.206L463.936 190.793ZM466.223 191.614L465.54 192.872L466.223 191.614ZM466.223 208.047L465.54 209.305L466.223 208.047ZM466.141 208.002L466.836 206.751L466.824 206.744L466.141 208.002ZM428.479 187.553L429.162 186.295L429.153 186.29L428.479 187.553ZM428.319 187.466L429.011 186.213L429.002 186.208L428.319 187.466ZM428.106 187.351H426.674V188.202L427.423 188.609L428.106 187.351ZM428.106 187.346H429.537V186.519L428.821 186.106L428.106 187.346ZM428.399 165.801L427.716 167.059L428.399 165.801ZM431.477 168.049L430.501 169.097L432.453 170.914L432.889 168.283L431.477 168.049ZM447.586 161.383L446.903 162.641L447.586 161.383ZM463.705 192.206C464.241 192.294 464.858 192.502 465.54 192.872L466.906 190.356C465.989 189.858 465.068 189.527 464.166 189.38L463.705 192.206ZM465.54 192.872C467.256 193.804 468.89 195.493 470.099 197.525C471.308 199.557 472.012 201.799 472.012 203.751H474.875C474.875 201.166 473.964 198.422 472.559 196.061C471.155 193.7 469.179 191.59 466.906 190.356L465.54 192.872ZM472.012 203.751C472.012 205.706 471.328 206.748 470.597 207.183C469.866 207.617 468.624 207.722 466.906 206.789L465.54 209.305C467.81 210.538 470.178 210.763 472.061 209.643C473.944 208.523 474.875 206.334 474.875 203.751H472.012ZM466.906 206.789C466.883 206.776 466.859 206.763 466.836 206.751L465.445 209.253C465.477 209.271 465.509 209.288 465.54 209.305L466.906 206.789ZM466.824 206.744L429.162 186.295L427.796 188.811L465.458 209.26L466.824 206.744ZM429.153 186.29C429.129 186.278 429.105 186.265 429.082 186.252L427.716 188.768C427.745 188.784 427.775 188.8 427.805 188.816L429.153 186.29ZM429.082 186.252C429.058 186.239 429.034 186.226 429.011 186.213L427.627 188.719C427.656 188.736 427.686 188.752 427.716 188.768L429.082 186.252ZM429.002 186.208L428.789 186.093L427.423 188.609L427.636 188.724L429.002 186.208ZM429.537 187.351V187.346H426.674V187.351H429.537ZM428.821 186.106C426.517 184.776 424.369 182.482 422.794 179.785C421.219 177.086 420.291 174.106 420.291 171.476H417.428C417.428 174.729 418.556 178.203 420.321 181.228C422.087 184.253 424.562 186.953 427.39 188.586L428.821 186.106ZM420.291 171.476C420.291 168.792 421.235 167.232 422.385 166.548C423.536 165.864 425.357 165.778 427.716 167.059L429.082 164.543C426.172 162.963 423.224 162.718 420.921 164.087C418.619 165.457 417.428 168.165 417.428 171.476H420.291ZM427.716 167.059C428.672 167.578 429.611 168.269 430.501 169.097L432.452 167.001C431.411 166.033 430.279 165.193 429.082 164.543L427.716 167.059ZM432.889 168.283C433.494 164.625 435.266 162.352 437.562 161.378C439.889 160.39 443.114 160.584 446.903 162.641L448.269 160.125C443.985 157.799 439.82 157.309 436.443 158.743C433.035 160.189 430.788 163.441 430.064 167.816L432.889 168.283ZM446.903 162.641C451.14 164.941 455.056 169.032 457.917 173.841C460.777 178.649 462.504 184.043 462.504 188.864H465.367C465.367 183.41 463.434 177.515 460.377 172.377C457.321 167.239 453.062 162.727 448.269 160.125L446.903 162.641ZM462.504 188.864V190.793H465.367V188.864H462.504Z" fill="white" mask="url(#path-133-inside-1_5_18254)"/>
<rect x="180" y="42" width="207" height="43" rx="5.23473" fill="#EF265A"/>
<path d="M214.837 68.5V58.4231H216.046V67.5355H220.739V68.5H214.837ZM224.704 68.6727C224.109 68.6727 223.614 68.572 223.221 68.3704C222.827 68.1689 222.535 67.9002 222.343 67.5643C222.151 67.2284 222.055 66.8637 222.055 66.4702C222.055 65.7409 222.333 65.1794 222.89 64.786C223.446 64.3925 224.205 64.1957 225.164 64.1957H227.093V64.1094C227.093 63.4856 226.93 63.0153 226.604 62.6986C226.278 62.3723 225.841 62.2092 225.294 62.2092C224.824 62.2092 224.416 62.3291 224.07 62.5691C223.734 62.7994 223.523 63.1401 223.437 63.5911H222.199C222.247 63.0729 222.42 62.6362 222.717 62.2811C223.024 61.9261 223.403 61.6573 223.854 61.475C224.305 61.2831 224.785 61.1871 225.294 61.1871C226.292 61.1871 227.04 61.4558 227.54 61.9932C228.048 62.5211 228.302 63.2264 228.302 64.1094V68.5H227.223L227.151 67.2188C226.949 67.6219 226.652 67.9674 226.258 68.2553C225.874 68.5336 225.356 68.6727 224.704 68.6727ZM224.891 67.6507C225.351 67.6507 225.745 67.5307 226.071 67.2908C226.407 67.0509 226.661 66.739 226.834 66.3551C227.007 65.9712 227.093 65.5681 227.093 65.1458V65.1315H225.265C224.555 65.1315 224.051 65.2562 223.753 65.5057C223.466 65.7457 223.322 66.048 223.322 66.4127C223.322 66.7869 223.456 67.0892 223.725 67.3196C224.003 67.5403 224.392 67.6507 224.891 67.6507ZM232.722 68.6727C231.878 68.6727 231.206 68.4184 230.707 67.9098C230.208 67.3915 229.958 66.5998 229.958 65.5345V61.3598H231.167V65.405C231.167 66.8925 231.777 67.6363 232.996 67.6363C233.619 67.6363 234.133 67.4155 234.536 66.9741C234.949 66.523 235.155 65.8848 235.155 65.0595V61.3598H236.364V68.5H235.27L235.184 67.2188C234.963 67.6699 234.632 68.0249 234.19 68.2841C233.759 68.5432 233.269 68.6727 232.722 68.6727ZM238.355 68.5V61.3598H239.449L239.521 62.641C239.751 62.19 240.082 61.8349 240.514 61.5758C240.946 61.3166 241.435 61.1871 241.982 61.1871C242.827 61.1871 243.499 61.4462 243.998 61.9644C244.506 62.4731 244.761 63.26 244.761 64.3253V68.5H243.551V64.4549C243.551 62.9673 242.937 62.2236 241.709 62.2236C241.095 62.2236 240.581 62.4491 240.168 62.9001C239.765 63.3416 239.564 63.975 239.564 64.8004V68.5H238.355ZM249.875 68.6727C249.193 68.6727 248.579 68.5192 248.032 68.2121C247.495 67.8954 247.068 67.4587 246.751 66.9021C246.444 66.3359 246.29 65.6785 246.29 64.9299C246.29 64.1813 246.444 63.5288 246.751 62.9721C247.068 62.4059 247.495 61.9692 248.032 61.6621C248.579 61.3454 249.193 61.1871 249.875 61.1871C250.719 61.1871 251.43 61.4078 252.005 61.8493C252.591 62.2907 252.96 62.881 253.114 63.6199H251.876C251.78 63.1785 251.545 62.8378 251.17 62.5978C250.796 62.3483 250.359 62.2236 249.86 62.2236C249.457 62.2236 249.078 62.3243 248.723 62.5259C248.368 62.7274 248.08 63.0297 247.859 63.4328C247.639 63.8359 247.528 64.3349 247.528 64.9299C247.528 65.5249 247.639 66.024 247.859 66.427C248.08 66.8301 248.368 67.1372 248.723 67.3484C249.078 67.5499 249.457 67.6507 249.86 67.6507C250.359 67.6507 250.796 67.5307 251.17 67.2908C251.545 67.0413 251.78 66.691 251.876 66.2399H253.114C252.97 66.9597 252.605 67.5451 252.02 67.9962C251.434 68.4472 250.719 68.6727 249.875 68.6727ZM254.803 68.5V58.1352H256.012V62.5834C256.252 62.142 256.592 61.8013 257.034 61.5614C257.475 61.3118 257.955 61.1871 258.473 61.1871C259.299 61.1871 259.961 61.4462 260.46 61.9644C260.959 62.4731 261.209 63.26 261.209 64.3253V68.5H260.014V64.4549C260.014 62.9673 259.414 62.2236 258.214 62.2236C257.59 62.2236 257.067 62.4491 256.645 62.9001C256.223 63.3416 256.012 63.975 256.012 64.8004V68.5H254.803ZM266.85 68.5V61.3598H267.944L268.016 62.641C268.247 62.19 268.578 61.8349 269.01 61.5758C269.442 61.3166 269.931 61.1871 270.478 61.1871C271.323 61.1871 271.994 61.4462 272.493 61.9644C273.002 62.4731 273.256 63.26 273.256 64.3253V68.5H272.047V64.4549C272.047 62.9673 271.433 62.2236 270.205 62.2236C269.59 62.2236 269.077 62.4491 268.664 62.9001C268.261 63.3416 268.06 63.975 268.06 64.8004V68.5H266.85ZM278.299 68.6727C277.617 68.6727 277.013 68.5192 276.485 68.2121C275.957 67.8954 275.539 67.4587 275.232 66.9021C274.935 66.3455 274.786 65.6881 274.786 64.9299C274.786 64.1813 274.935 63.5288 275.232 62.9721C275.53 62.4059 275.943 61.9692 276.47 61.6621C277.008 61.3454 277.627 61.1871 278.327 61.1871C279.018 61.1871 279.613 61.3454 280.112 61.6621C280.621 61.9692 281.01 62.3771 281.278 62.8858C281.547 63.3944 281.682 63.9414 281.682 64.5268C281.682 64.6324 281.677 64.738 281.667 64.8435C281.667 64.9491 281.667 65.0691 281.667 65.2034H275.981C276.01 65.7505 276.134 66.2063 276.355 66.571C276.586 66.9261 276.869 67.1948 277.205 67.3772C277.55 67.5595 277.915 67.6507 278.299 67.6507C278.798 67.6507 279.215 67.5355 279.551 67.3052C279.887 67.0748 280.132 66.7629 280.285 66.3695H281.48C281.288 67.0317 280.919 67.5835 280.372 68.0249C279.834 68.4568 279.143 68.6727 278.299 68.6727ZM278.299 62.2092C277.723 62.2092 277.209 62.3867 276.758 62.7418C276.317 63.0873 276.063 63.5959 275.995 64.2677H280.487C280.458 63.6247 280.237 63.1209 279.825 62.7562C279.412 62.3915 278.903 62.2092 278.299 62.2092ZM284.443 68.5L282.355 61.3598H283.565L285.076 66.9597L286.746 61.3598H288.114L289.798 66.9597L291.295 61.3598H292.519L290.431 68.5H289.193L287.437 62.6122L285.681 68.5H284.443ZM298.4 59.7763C298.16 59.7763 297.958 59.6995 297.795 59.546C297.642 59.3828 297.565 59.1813 297.565 58.9414C297.565 58.7111 297.642 58.5191 297.795 58.3656C297.958 58.212 298.16 58.1352 298.4 58.1352C298.63 58.1352 298.827 58.212 298.99 58.3656C299.153 58.5191 299.235 58.7111 299.235 58.9414C299.235 59.1813 299.153 59.3828 298.99 59.546C298.827 59.6995 298.63 59.7763 298.4 59.7763ZM297.795 68.5V61.3598H299.005V68.5H297.795ZM301.11 68.5V61.3598H302.204L302.276 62.641C302.506 62.19 302.837 61.8349 303.269 61.5758C303.701 61.3166 304.191 61.1871 304.738 61.1871C305.582 61.1871 306.254 61.4462 306.753 61.9644C307.262 62.4731 307.516 63.26 307.516 64.3253V68.5H306.307V64.4549C306.307 62.9673 305.693 62.2236 304.464 62.2236C303.85 62.2236 303.336 62.4491 302.924 62.9001C302.521 63.3416 302.319 63.975 302.319 64.8004V68.5H301.11ZM312.083 68.6727C311.229 68.6727 310.519 68.4568 309.953 68.0249C309.386 67.5931 309.055 67.0077 308.959 66.2687H310.197C310.274 66.643 310.471 66.9693 310.788 67.2476C311.114 67.5163 311.551 67.6507 312.098 67.6507C312.606 67.6507 312.98 67.5451 313.22 67.334C313.46 67.1132 313.58 66.8541 313.58 66.5566C313.58 66.1247 313.422 65.8368 313.105 65.6929C312.798 65.5489 312.361 65.4194 311.795 65.3042C311.411 65.2274 311.028 65.1171 310.644 64.9731C310.26 64.8291 309.938 64.6276 309.679 64.3685C309.42 64.0998 309.29 63.7495 309.29 63.3176C309.29 62.6938 309.521 62.1852 309.981 61.7917C310.452 61.3886 311.085 61.1871 311.882 61.1871C312.64 61.1871 313.259 61.379 313.739 61.7629C314.228 62.1372 314.511 62.6746 314.588 63.3752H313.393C313.345 63.0105 313.187 62.7274 312.918 62.5259C312.659 62.3147 312.309 62.2092 311.867 62.2092C311.435 62.2092 311.099 62.3003 310.86 62.4827C310.629 62.665 310.514 62.9049 310.514 63.2025C310.514 63.4904 310.663 63.7159 310.96 63.879C311.267 64.0422 311.68 64.1813 312.198 64.2965C312.64 64.3925 313.057 64.5124 313.451 64.6564C313.854 64.7908 314.18 64.9971 314.43 65.2754C314.689 65.5441 314.818 65.9376 314.818 66.4558C314.828 67.0988 314.583 67.6315 314.084 68.0537C313.595 68.4664 312.928 68.6727 312.083 68.6727ZM319.044 68.5C318.391 68.5 317.878 68.3416 317.504 68.0249C317.129 67.7082 316.942 67.1372 316.942 66.3119V62.3819H315.704V61.3598H316.942L317.101 59.6468H318.151V61.3598H320.253V62.3819H318.151V66.3119C318.151 66.7629 318.243 67.07 318.425 67.2332C318.607 67.3867 318.929 67.4635 319.389 67.4635H320.138V68.5H319.044ZM324.165 68.6727C323.57 68.6727 323.075 68.572 322.682 68.3704C322.288 68.1689 321.996 67.9002 321.804 67.5643C321.612 67.2284 321.516 66.8637 321.516 66.4702C321.516 65.7409 321.794 65.1794 322.351 64.786C322.907 64.3925 323.666 64.1957 324.625 64.1957H326.554V64.1094C326.554 63.4856 326.391 63.0153 326.065 62.6986C325.739 62.3723 325.302 62.2092 324.755 62.2092C324.285 62.2092 323.877 62.3291 323.531 62.5691C323.195 62.7994 322.984 63.1401 322.898 63.5911H321.66C321.708 63.0729 321.881 62.6362 322.178 62.2811C322.485 61.9261 322.864 61.6573 323.315 61.475C323.766 61.2831 324.246 61.1871 324.755 61.1871C325.753 61.1871 326.502 61.4558 327.001 61.9932C327.509 62.5211 327.764 63.2264 327.764 64.1094V68.5H326.684L326.612 67.2188C326.41 67.6219 326.113 67.9674 325.719 68.2553C325.336 68.5336 324.817 68.6727 324.165 68.6727ZM324.352 67.6507C324.813 67.6507 325.206 67.5307 325.532 67.2908C325.868 67.0509 326.122 66.739 326.295 66.3551C326.468 65.9712 326.554 65.5681 326.554 65.1458V65.1315H324.726C324.016 65.1315 323.512 65.2562 323.215 65.5057C322.927 65.7457 322.783 66.048 322.783 66.4127C322.783 66.7869 322.917 67.0892 323.186 67.3196C323.464 67.5403 323.853 67.6507 324.352 67.6507ZM329.578 68.5V61.3598H330.672L330.744 62.641C330.974 62.19 331.305 61.8349 331.737 61.5758C332.169 61.3166 332.658 61.1871 333.205 61.1871C334.05 61.1871 334.722 61.4462 335.221 61.9644C335.729 62.4731 335.984 63.26 335.984 64.3253V68.5H334.774V64.4549C334.774 62.9673 334.16 62.2236 332.932 62.2236C332.318 62.2236 331.804 62.4491 331.391 62.9001C330.988 63.3416 330.787 63.975 330.787 64.8004V68.5H329.578ZM341.098 68.6727C340.416 68.6727 339.802 68.5192 339.255 68.2121C338.718 67.8954 338.291 67.4587 337.974 66.9021C337.667 66.3359 337.513 65.6785 337.513 64.9299C337.513 64.1813 337.667 63.5288 337.974 62.9721C338.291 62.4059 338.718 61.9692 339.255 61.6621C339.802 61.3454 340.416 61.1871 341.098 61.1871C341.942 61.1871 342.653 61.4078 343.228 61.8493C343.814 62.2907 344.183 62.881 344.337 63.6199H343.099C343.003 63.1785 342.768 62.8378 342.393 62.5978C342.019 62.3483 341.583 62.2236 341.083 62.2236C340.68 62.2236 340.301 62.3243 339.946 62.5259C339.591 62.7274 339.303 63.0297 339.082 63.4328C338.862 63.8359 338.751 64.3349 338.751 64.9299C338.751 65.5249 338.862 66.024 339.082 66.427C339.303 66.8301 339.591 67.1372 339.946 67.3484C340.301 67.5499 340.68 67.6507 341.083 67.6507C341.583 67.6507 342.019 67.5307 342.393 67.2908C342.768 67.0413 343.003 66.691 343.099 66.2399H344.337C344.193 66.9597 343.828 67.5451 343.243 67.9962C342.657 68.4472 341.942 68.6727 341.098 68.6727ZM349.236 68.6727C348.554 68.6727 347.95 68.5192 347.422 68.2121C346.894 67.8954 346.477 67.4587 346.17 66.9021C345.872 66.3455 345.723 65.6881 345.723 64.9299C345.723 64.1813 345.872 63.5288 346.17 62.9721C346.467 62.4059 346.88 61.9692 347.408 61.6621C347.945 61.3454 348.564 61.1871 349.265 61.1871C349.956 61.1871 350.551 61.3454 351.05 61.6621C351.558 61.9692 351.947 62.3771 352.216 62.8858C352.484 63.3944 352.619 63.9414 352.619 64.5268C352.619 64.6324 352.614 64.738 352.604 64.8435C352.604 64.9491 352.604 65.0691 352.604 65.2034H346.918C346.947 65.7505 347.072 66.2063 347.292 66.571C347.523 66.9261 347.806 67.1948 348.142 67.3772C348.487 67.5595 348.852 67.6507 349.236 67.6507C349.735 67.6507 350.152 67.5355 350.488 67.3052C350.824 67.0748 351.069 66.7629 351.222 66.3695H352.417C352.225 67.0317 351.856 67.5835 351.309 68.0249C350.771 68.4568 350.08 68.6727 349.236 68.6727ZM349.236 62.2092C348.66 62.2092 348.147 62.3867 347.696 62.7418C347.254 63.0873 347 63.5959 346.933 64.2677H351.424C351.395 63.6247 351.174 63.1209 350.762 62.7562C350.349 62.3915 349.84 62.2092 349.236 62.2092Z" fill="white"/>
<defs>
<filter id="filter0_f_5_18254" x="46.3332" y="316.105" width="260.83" height="192.762" filterUnits="userSpaceOnUse" color-interpolation-filters="sRGB">
<feFlood flood-opacity="0" result="BackgroundImageFix"/>
<feBlend mode="normal" in="SourceGraphic" in2="BackgroundImageFix" result="shape"/>
<feGaussianBlur stdDeviation="24.8334" result="effect1_foregroundBlur_5_18254"/>
</filter>
<radialGradient id="paint0_radial_5_18254" cx="0" cy="0" r="1" gradientUnits="userSpaceOnUse" gradientTransform="translate(368.501 256.788) rotate(90) scale(251.142 360.278)">
<stop offset="0.174243" stop-color="#E6E6E6"/>
<stop offset="1" stop-color="#E6E6E6" stop-opacity="0"/>
</radialGradient>
<clipPath id="clip0_5_18254">
<rect width="41.7568" height="22.2522" fill="white" transform="translate(153.246 322.311)"/>
</clipPath>
</defs>
</svg>
