<svg id="adf35c87-b782-4e77-99e1-73b1e980183a" data-name="Layer 1" xmlns="http://www.w3.org/2000/svg" xmlns:xlink="http://www.w3.org/1999/xlink" width="1130" height="814.83" viewBox="0 0 1130 814.83"><defs><linearGradient id="feb95feb-fdda-4dbf-a11d-82daac0de6ae" x1="443.67" y1="850.65" x2="443.67" y2="353.59" gradientTransform="matrix(-1, 0, 0, 1, 1188.16, 0)" gradientUnits="userSpaceOnUse"><stop offset="0" stop-color="gray" stop-opacity="0.25"/><stop offset="0.54" stop-color="gray" stop-opacity="0.12"/><stop offset="1" stop-color="gray" stop-opacity="0.1"/></linearGradient><linearGradient id="b2e6dffe-26e9-4285-a3da-2186fa2c443c" x1="178.88" y1="590.97" x2="396.2" y2="590.97" gradientTransform="matrix(1, 0, 0, 1, 0, 0)" xlink:href="#feb95feb-fdda-4dbf-a11d-82daac0de6ae"/></defs><title>email campaign</title><path d="M691.54,169.13c-72.44-2.51-141.44-25.9-207.32-51.49S353.07,63.71,282.37,50.15c-45.48-8.72-97.49-9.95-134.13,14.43C113,88,101.58,128.55,95.46,166.13c-4.61,28.27-7.32,58,5.3,84.5,8.77,18.38,24.34,33.83,35.11,51.43,37.45,61.25,11,136.79-29.62,196.59-19,28.06-41.13,54.82-55.82,84.68s-21.49,64.09-8.64,94.55c12.75,30.2,43.11,52.88,76,68.83,66.81,32.4,145.54,41.68,222.31,46.93,169.94,11.62,340.79,6.59,511.18,1.55,63.06-1.87,126.39-3.76,188.43-13.51,34.44-5.41,70-14,95-34.75,31.75-26.34,39.62-70.94,18.34-104-35.68-55.39-134.35-69.15-159.29-128.6-13.73-32.72.37-69.18,20.32-99.52,42.8-65.11,114.54-122.23,118.32-196.64,2.6-51.11-31.89-102.3-85.21-126.48-55.9-25.35-133.4-22.16-174.64,19.8C830.12,154.73,755.5,171.35,691.54,169.13Z" transform="translate(-35 -42.58)" fill="#ffffff" opacity="0.1"/><g opacity="0.9"><rect x="724.27" y="238.91" width="9.91" height="81.73" rx="2.29" fill="#3a3768"/><rect x="394.7" y="174.88" width="5.56" height="26.91" rx="2.29" fill="#3a3768"/><rect x="394.5" y="224.14" width="6.27" height="46.84" rx="2.29" fill="#3a3768"/><rect x="394.6" y="287.36" width="5.97" height="47.24" rx="2.29" fill="#3a3768"/><rect x="397.85" y="85.95" width="331.77" height="674.27" rx="38.99" fill="#3a3768"/><rect x="531.73" y="106.09" width="46.33" height="9.41" rx="3.87" fill="#e6e8ec"/><circle cx="590.4" cy="110.79" r="5.34" fill="#e6e8ec"/></g><path d="M717.78,146.1h-38v4.58a21.69,21.69,0,0,1-21.7,21.69H537a21.7,21.7,0,0,1-21.7-21.69V146.1H479.69a26.35,26.35,0,0,0-26.35,26.35V758.89a26.35,26.35,0,0,0,26.35,26.35H717.78a26.35,26.35,0,0,0,26.35-26.35V172.45A26.35,26.35,0,0,0,717.78,146.1Z" transform="translate(-35 -42.58)" fill="#ffffff" opacity="0.5"/><rect x="418.58" y="148.47" width="291.02" height="26.86" fill="#e6e8ec"/><rect x="427.54" y="154.06" width="24.63" height="2.24" fill="#3a3768"/><rect x="427.54" y="160.78" width="24.63" height="2.24" fill="#3a3768"/><rect x="427.54" y="167.5" width="24.63" height="2.24" fill="#3a3768"/><path d="M725,207.07h-.91l-.35-.28a7.66,7.66,0,0,0,1.78-4.9,7.44,7.44,0,1,0-7.4,7.49,7.68,7.68,0,0,0,4.88-1.79l.34.29v.92l5.74,5.76,1.72-1.73Zm-6.88,0a5.18,5.18,0,1,1,5.16-5.18A5.15,5.15,0,0,1,718.12,207.07Z" transform="translate(-35 -42.58)" fill="#3a3768"/><circle cx="439.85" cy="224.58" r="12.31" fill="#e6e8ec"/><rect x="478.47" y="236.89" width="171.26" height="6.72" fill="#e6e8ec"/><rect x="479.03" y="251.44" width="171.26" height="6.72" fill="#e6e8ec"/><rect x="479.59" y="266" width="171.26" height="6.72" fill="#e6e8ec"/><circle cx="439.85" cy="308.53" r="12.31" fill="#e6e8ec"/><rect x="478.47" y="320.84" width="171.26" height="6.72" fill="#e6e8ec"/><rect x="479.03" y="335.39" width="171.26" height="6.72" fill="#e6e8ec"/><rect x="479.59" y="349.94" width="171.26" height="6.72" fill="#e6e8ec"/><circle cx="439.85" cy="392.48" r="12.31" fill="#e6e8ec"/><rect x="478.47" y="404.79" width="171.26" height="6.72" fill="#e6e8ec"/><rect x="479.03" y="419.34" width="171.26" height="6.72" fill="#e6e8ec"/><rect x="479.59" y="433.89" width="171.26" height="6.72" fill="#e6e8ec"/><circle cx="439.85" cy="476.43" r="12.31" fill="#e6e8ec"/><rect x="478.47" y="488.74" width="171.26" height="6.72" fill="#e6e8ec"/><rect x="479.03" y="503.29" width="171.26" height="6.72" fill="#e6e8ec"/><rect x="479.59" y="517.84" width="171.26" height="6.72" fill="#e6e8ec"/><circle cx="439.85" cy="560.38" r="12.31" fill="#e6e8ec"/><rect x="478.47" y="572.69" width="171.26" height="6.72" fill="#e6e8ec"/><rect x="479.03" y="587.24" width="171.26" height="6.72" fill="#e6e8ec"/><rect x="479.59" y="601.79" width="171.26" height="6.72" fill="#e6e8ec"/><circle cx="439.85" cy="644.33" r="12.31" fill="#e6e8ec"/><rect x="478.47" y="656.64" width="171.26" height="6.72" fill="#e6e8ec"/><rect x="479.03" y="671.19" width="171.26" height="6.72" fill="#e6e8ec"/><rect x="479.59" y="685.74" width="171.26" height="6.72" fill="#e6e8ec"/><circle cx="650.28" cy="692.46" r="31.34" opacity="0.1"/><circle cx="650.28" cy="692.46" r="27.98" fill="#ffffff"/><path d="M349.09,158.43,294.36,188a1.14,1.14,0,0,0,.08,2l9.34,3.51a2.27,2.27,0,0,1,1.23,1.15l7.25,14.94c.14.66,1.36.83,1.37.16l-1.11-12.34a4.44,4.44,0,0,1,1-2.5l28.38-27.8a.7.7,0,0,1,.62-.18.65.65,0,0,1,.35,1L318.41,198a5.45,5.45,0,0,0-1,2.46L316,211.12c.12.93.85,1.28,1.43.45l5.27-6.19a1.1,1.1,0,0,1,1.55-.26l13.58,9.9a1.1,1.1,0,0,0,1.73-.67l11.14-54.69a1.11,1.11,0,0,0-1.6-1.23Z" transform="translate(-35 -42.58)" fill="#ffffff"/><path d="M927,170.05l-54.73,29.61a1.14,1.14,0,0,0,.09,2l9.33,3.52a2.17,2.17,0,0,1,1.23,1.15l7.26,14.93c.14.66,1.35.84,1.37.17l-1.11-12.35a4.38,4.38,0,0,1,1-2.49l28.37-27.8a.68.68,0,0,1,.62-.18.65.65,0,0,1,.36,1l-24.47,29.92a5.47,5.47,0,0,0-1,2.47l-1.47,10.66c.12.93.85,1.29,1.44.45l5.27-6.18a1.1,1.1,0,0,1,1.55-.26l13.58,9.89a1.09,1.09,0,0,0,1.72-.67l11.14-54.69a1.11,1.11,0,0,0-1.6-1.23Z" transform="translate(-35 -42.58)" fill="#ffffff"/><path d="M589.26,61.71,551.89,81.92a.78.78,0,0,0,.05,1.4l6.38,2.4a1.53,1.53,0,0,1,.84.78l5,10.2c.1.45.93.57.94.12l-.76-8.44a3.06,3.06,0,0,1,.68-1.7l19.38-19a.46.46,0,0,1,.42-.12.44.44,0,0,1,.24.71l-16.7,20.43a3.74,3.74,0,0,0-.65,1.68l-1,7.28c.08.64.57.88,1,.31l3.6-4.22a.75.75,0,0,1,1-.18l9.27,6.76a.75.75,0,0,0,1.18-.46l7.61-37.34a.75.75,0,0,0-1.09-.84Z" transform="translate(-35 -42.58)" fill="#ffffff"/><path d="M801.93,42.68,764.56,62.9a.78.78,0,0,0,.05,1.39l6.38,2.4a1.51,1.51,0,0,1,.84.79l4.95,10.19c.1.45.93.57.94.12L777,69.36a3.07,3.07,0,0,1,.68-1.71l19.38-19a.46.46,0,0,1,.42-.12.44.44,0,0,1,.24.71L781,69.69a3.74,3.74,0,0,0-.65,1.68l-1,7.29c.08.63.58.87,1,.3l3.6-4.22a.75.75,0,0,1,1.05-.18l9.28,6.76a.74.74,0,0,0,1.17-.46L803,43.52a.75.75,0,0,0-1.09-.84Z" transform="translate(-35 -42.58)" fill="#ffffff"/><path d="M944.05,302.4l-110.32-9.11a2,2,0,0,0-1.86,3.12l10.49,14.32a3.91,3.91,0,0,1,.72,2.91l-3.72,29.3c-.43,1.11,1.21,2.56,1.88,1.58L851.6,325a7.81,7.81,0,0,1,3.91-2.74l69.3-13.82a1.23,1.23,0,0,1,1.09.33,1.16,1.16,0,0,1-.48,1.9L859.89,331.5a9.78,9.78,0,0,0-3.83,2.74L843.51,348.7c-.72,1.51,0,2.74,1.7,2.07l13.87-4.09a2,2,0,0,1,2.56,1.12l10.6,27.94a2,2,0,0,0,3.23.68l69.77-70.63a2,2,0,0,0-1.19-3.39Z" transform="translate(-35 -42.58)" fill="#ffffff"/><path d="M646.66,413.66a17.82,17.82,0,0,0,3.76,3.8c.93.77,1.89,1.56,2.89,2.26.28.2.57.39.86.58,0,.05-.06.1-.08.16a2.27,2.27,0,0,0-.26,1.39,3,3,0,0,0,1.07,1.44,14.8,14.8,0,0,1,4.51,8.15c.34,1.81-.88,3.75-.8,5.59a16.28,16.28,0,0,0,1.42,5.22c1.53,3.88,3.15,7.91,6.2,10.74a34.72,34.72,0,0,0,6.95,17.13c3.22,4.11,7.5,7.23,11.73,10.28a22.79,22.79,0,0,0,4.33,2.72,24.47,24.47,0,0,0,4.29,1.15,221.18,221.18,0,0,0,37.69,4.26q.53,11.3.46,22.59a9.32,9.32,0,0,1-.52,3.65,16.24,16.24,0,0,1-2.18,3.06c-2.89,3.84-3,9.06-2.8,13.87a127.76,127.76,0,0,0,2,16.78c1.31,7.1.11,14.94,2.63,21.7,1,2.67,2,5.33,3,8a7.06,7.06,0,0,1,.59,2.37c0,1.75-1.16,3.24-2,4.76a13.79,13.79,0,0,0-1.75,7.27,1.51,1.51,0,0,0,.21.81c.33.44,1,.4,1.54.32a64.77,64.77,0,0,1,6.68-.62,12.26,12.26,0,0,0-1.08,1.59,23.39,23.39,0,0,0-1.42,2.92,27.62,27.62,0,0,0-1.9,5.22,6.36,6.36,0,0,0-.19.8c-.12.54-.23,1.09-.32,1.63a54,54,0,0,0-.59,9.6c-.31,6-.61,12.24-1.19,14.06-.82,2.59.2,6.73,1.21,10.68a25.28,25.28,0,0,0,1.45,8,48.21,48.21,0,0,0,1,8.44q5.19,29.24,11,58.34c.35,1.69.68,3.37,1.13,5a40.92,40.92,0,0,0,7.49,14.81,67.32,67.32,0,0,1,7.82,12.52c-.23,1.06-.47,2.12-.72,3.17-2.2,9.29-5.11,18.45-6.12,27.94-.4,3.78-.52,7.68-2,11.17-.76,1.78-1.88,3.48-2,5.41a6,6,0,0,0,.83,3.51c-.26.19-.51.39-.75.59l-.41.34c-2.84,2.26-6.65,2.72-10.15,3.63s-7.27,2.76-8.35,6.24a5.48,5.48,0,0,0-.17.67c-.64,3.2,1.3,6.6,4,8.48,2.91,2,6.53,2.62,10,3.07s7.12.8,10.29,2.36c2.74,1.36,5.05,3.59,8,4.57l.51.15c-.65.39-1.31.77-2,1.12a30.11,30.11,0,0,1-9.59,3c-3.38.47-7.42.69-9.16,3.64v0c-1.42,2.44-.39,5.73,1.66,7.65s4.89,2.78,7.64,3.38a139,139,0,0,0,19,2.36l6.21.47c6,.46,12.12.93,18.2,1a125.37,125.37,0,0,0,22.38-1.95,2.44,2.44,0,0,0,1.78-.86,2.54,2.54,0,0,0,.27-1.42A109.38,109.38,0,0,0,820,823.83c-.51-2.22-3.54.81-5.24,2.73-.22-1.11-.48-2.21-.77-3.28l1.33-.63a4.79,4.79,0,0,0,2.44-2,4.89,4.89,0,0,0,.26-2.35c-.24-4.88-.54-9.94-2.86-14.23a30.16,30.16,0,0,0-5.66-6.89c-.69-15.33-2.19-30.68-5.54-45.64-1.72-7.65-3.85-15.38-8.27-21.85-.55-.81-1.15-1.62-1.75-2.43a196.52,196.52,0,0,0-2.67-21.93,5.66,5.66,0,0,1,0-2.92,9,9,0,0,1,1.61-2.22c2.66-3.43,1.57-8.31,1.26-12.65-.44-6.24,1-12.42,2.49-18.5q2.72-11.24,5.41-22.49a36.43,36.43,0,0,1,1.9-6.23c1.26-2.82,3.21-5.26,4.88-7.86a44.33,44.33,0,0,0,6.78-26.71c1,.36,2,.73,3.06,1.13.75-6.28-1.9-13.41,0-19.31a24.82,24.82,0,0,0,7.66-9.12c1.48-3.32,1.9-7.06,3.45-10.35.88-1.85,2.11-3.56,2.62-5.55.77-3-.19-6.12-.15-9.19.1-6.69,5-12.9,3.9-19.51-.5-3.14-2.32-6-2.22-9.23a15.45,15.45,0,0,1,1.29-5c3.68-9.75,7.31-20.13,5.42-30.39-.48-2.62-1.33-5.23-1.19-7.9.16-3.05,1.61-6,1.18-9.05a6.87,6.87,0,0,0-1.36-3.17,38,38,0,0,0,3.35-6.42,9.19,9.19,0,0,0,.89-4.1,7.26,7.26,0,0,0-2.89-4.88,29.25,29.25,0,0,0-5-2.91,4.08,4.08,0,0,1-1.47-1.05,10.77,10.77,0,0,1-.83-1.58c-1-1.71-3.13-2.25-4.82-3.28-6.1-3.72-5.51-13.31-10.72-18.22a10.42,10.42,0,0,0-13-.69,3.19,3.19,0,0,1-1.84.91,3.53,3.53,0,0,1-1.78-1,7.17,7.17,0,0,0-4.4-1.22A42.21,42.21,0,0,1,795.43,413l.47,0a6.17,6.17,0,0,0,1.82-.21c2.68-.77,4.21-3.54,5.3-6.12a46.5,46.5,0,0,0,2.35-6.72c.06-.22.11-.44.16-.65,5.13,3.6,11.09,7.37,12.51,6.58,2.63-1.45-11.75-11.68-11.75-11.68l0,0h0c1.69-1.5,2.63-4.21,3-6.6.84-4.77,1.24-9.73.12-14.45s-3.95-9.21-8.25-11.41c-1.9-1-4.21-1.66-5.59-3.17h0a3.6,3.6,0,0,1-.54-.74h0a1.87,1.87,0,0,1-.22-.39,5.46,5.46,0,0,0-.6-1.18c-.79-.91-2.22-.63-3.41-.49l-.38,0-.33,0h-.32c-4.26.09-8.39-2.29-12.7-2.29-4.73,0-8.75,2.74-12.91,4.62-.84.38-1.64.73-2.39,1.08-2.6,1.22-4.65,2.52-6,5.45a8.45,8.45,0,0,0-1.73,3.35,7.87,7.87,0,0,0-.22,1.72,28.61,28.61,0,0,0,12.86,48c.1.28.2.56.29.84a24.07,24.07,0,0,1,1.25,8c0,.19,0,.38,0,.57a21.71,21.71,0,0,0-6.17,2.51,11.93,11.93,0,0,0-5.2,6.39,6.18,6.18,0,0,0-.16.61,16.46,16.46,0,0,0-4.7-.81c-1.45,0-3.08.11-4,1.21a3.69,3.69,0,0,0-.76,1.55c-.55.51-.66,1.39-1,2.06-1.21,2.11-4.33,1.42-6.68,2-2.55.63-4.56,3-7.19,3a12.28,12.28,0,0,0-3-.11c-1,.24-1.76,1.59-1,2.27a3.19,3.19,0,0,0-3,1.45c-.72.94-1.2,2.06-2,2.94a3.06,3.06,0,0,0-3.12-1.21,11.58,11.58,0,0,0-3.29,1.3,4.73,4.73,0,0,1-1.45.51,6.25,6.25,0,0,1-1.77-.16,14.14,14.14,0,0,0-8.28,1.16c-2.28,1.08-4.47-.9-7-1.06a3.91,3.91,0,0,1-2.56-.79,5,5,0,0,1-1-2,10,10,0,0,0-7.32-6.48,8.52,8.52,0,0,0-5-10.51,9.09,9.09,0,0,0-3.12-7.92,14.62,14.62,0,0,1-1.58-1.24,7.58,7.58,0,0,1-1.45-2.68l-2.22-5.88c-1-.2-1.75-.61-2.68-.77,0-.19,0-.39,0-.6a19.28,19.28,0,0,0-1-5.9,33.05,33.05,0,0,0-4.74-8.63c-2.12-3-4.47-5.87-7.62-7.66a27.33,27.33,0,0,0-3.25-1.5l-5.72-2.36a2.78,2.78,0,0,0-1-.28c-1.54,0-1.82,2.38-1,3.65,1.74,2.57,5.66,3.29,6.77,6.2a4.41,4.41,0,0,0-4.09,3.18,2.23,2.23,0,0,1-.55,1.29c-.5.41-1.29.17-1.87.48-1,.55-.57,2.07-.68,3.22a15.46,15.46,0,0,1-1,2.9A6.21,6.21,0,0,0,646.66,413.66Zm137.12,401c0-.59-.08-1.18-.13-1.76.12.31.23.63.35.94,1,2.64,2.13,5.24,3.31,7.81l-.2-.11a9.88,9.88,0,0,0-2.73-.78c-.25,0-.51,0-.76-.07A21.32,21.32,0,0,0,783.78,814.68Z" transform="translate(-35 -42.58)" fill="url(#feb95feb-fdda-4dbf-a11d-82daac0de6ae)"/><path d="M768.28,428.84c-.11,4.18-1.52,8.22-1.74,12.39,12.29.61,24.42-5.35,36.6-3.53-3.4-2.2-5.22-6.17-6.3-10.08a42.07,42.07,0,0,1-1.2-15.48,6.37,6.37,0,0,1,.16-.86c.45-2,1.62-4.93,1.3-6.54-.41-2.12-2.41-1.7-4.22-1.58a159,159,0,0,0-16.41,2.12c-1.41.24-15.2,3.68-15.4,3.32a64.79,64.79,0,0,1,6,12.29A23.87,23.87,0,0,1,768.28,428.84Z" transform="translate(-35 -42.58)" fill="#ee8e9e"/><path d="M646.66,415.94a18,18,0,0,0,3.76,3.78c.93.77,1.89,1.55,2.89,2.25a12.35,12.35,0,0,0,6.15,2.5c2.93.2,9.14-1.52,11-4a7.22,7.22,0,0,0,1.05-4.2,19.07,19.07,0,0,0-1-5.87,32.76,32.76,0,0,0-4.74-8.58c-2.12-2.94-4.47-5.84-7.62-7.62a29,29,0,0,0-3.25-1.5l-5.72-2.34a2.78,2.78,0,0,0-1-.28c-1.54,0-1.82,2.36-1,3.63,1.74,2.56,5.66,3.27,6.77,6.17a4.39,4.39,0,0,0-4.09,3.16,2.2,2.2,0,0,1-.55,1.28c-.5.41-1.29.18-1.87.48-1,.55-.57,2.06-.68,3.21a15.53,15.53,0,0,1-1,2.88A6.14,6.14,0,0,0,646.66,415.94Z" transform="translate(-35 -42.58)" fill="#ee8e9e"/><path d="M816.18,834.61c-.94-1-2.49-.79-3.81-.58a141.46,141.46,0,0,1-21.45,1.74c-.9-4.39,1.71-8.66,2.55-13.07a11.54,11.54,0,0,1,.85-3.3c1-1.94,3.29-2.83,5.43-3.28,3.87-.81,9.91-2.25,12.07,1.65C814.41,822.46,815.24,829.39,816.18,834.61Z" transform="translate(-35 -42.58)" fill="#65617d"/><path d="M737.59,818c2.91,2,6.53,2.61,10,3.06s7.12.79,10.29,2.35c2.74,1.35,5.05,3.57,8,4.54a16.57,16.57,0,0,0,8.25.13c3.26-.61,6.73-1.8,8.49-4.61,1.56-2.5,1.4-5.68,1.18-8.62-.25-3.33-.49-6.66-.74-10a4.73,4.73,0,0,0-.62-2.41c-2.35-3.44-8.08,1.43-11.15,1.43-4.86,0-10.07-2.64-13.57-5.86a4.35,4.35,0,0,0-1.06-.8c-1.38-.62-2.77.53-4,1.53l-.41.34c-2.84,2.25-6.65,2.71-10.15,3.62s-7.27,2.74-8.35,6.2a5.33,5.33,0,0,0-.17.66C732.92,812.77,734.86,816.15,737.59,818Z" transform="translate(-35 -42.58)" fill="#3f3d56"/><path d="M737.59,818c2.91,2,6.53,2.61,10,3.06s7.12.79,10.29,2.35c2.74,1.35,5.05,3.57,8,4.54a16.57,16.57,0,0,0,8.25.13c3.26-.61,6.73-1.8,8.49-4.61,1.56-2.5,1.4-5.68,1.18-8.62-.25-3.33-.49-6.66-.74-10a4.73,4.73,0,0,0-.62-2.41c-2.35-3.44-8.08,1.43-11.15,1.43-4.86,0-10.07-2.64-13.57-5.86a4.35,4.35,0,0,0-1.06-.8c-1.38-.62-2.77.53-4,1.53l-.41.34c-2.84,2.25-6.65,2.71-10.15,3.62s-7.27,2.74-8.35,6.2a5.33,5.33,0,0,0-.17.66C732.92,812.77,734.86,816.15,737.59,818Z" transform="translate(-35 -42.58)" opacity="0.05"/><path d="M737.59,819.14c2.91,2,6.53,2.61,10,3.06s7.12.79,10.29,2.35c2.74,1.35,5.05,3.57,8,4.54a16.57,16.57,0,0,0,8.25.13,13.63,13.63,0,0,0,8.49-5.73c1.56-2.5,1.4-5.68,1.18-8.62-.25-3.33-.49-6.66-.74-10a4.73,4.73,0,0,0-.62-2.41c-2.35-3.44-8.08,1.43-11.15,1.43-4.86,0-10.07-2.64-13.57-5.86a4.35,4.35,0,0,0-1.06-.8c-1.38-.62-2.77.53-4,1.53a28.61,28.61,0,0,0,3.41,7,14.71,14.71,0,0,0,10.7,6.7c2.17.16,4.4-.27,6.5.29s4,2.7,3.31,4.75-3.29,2.42-5.41,2.53c-3,.17-6,.31-8.83-.61-1.72-.58-3.29-1.53-5-2.22-7.12-3-16.11-1.3-22-6.29a13.23,13.23,0,0,0-1.8-1.38C732,812.81,734.86,817.27,737.59,819.14Z" transform="translate(-35 -42.58)" fill="#e8eaf2"/><path d="M737.59,819.14c2.91,2,6.53,2.61,10,3.06s7.12.79,10.29,2.35c2.74,1.35,5.05,3.57,8,4.54a16.57,16.57,0,0,0,8.25.13,13.63,13.63,0,0,0,8.49-5.73c1.56-2.5,1.4-5.68,1.18-8.62-.25-3.33-.49-6.66-.74-10a4.73,4.73,0,0,0-.62-2.41c-2.35-3.44-8.08,1.43-11.15,1.43-4.86,0-10.07-2.64-13.57-5.86a4.35,4.35,0,0,0-1.06-.8c-1.38-.62-2.77.53-4,1.53a28.61,28.61,0,0,0,3.41,7,14.71,14.71,0,0,0,10.7,6.7c2.17.16,4.4-.27,6.5.29s4,2.7,3.31,4.75-3.29,2.42-5.41,2.53c-3,.17-6,.31-8.83-.61-1.72-.58-3.29-1.53-5-2.22-7.12-3-16.11-1.3-22-6.29a13.23,13.23,0,0,0-1.8-1.38C732,812.81,734.86,817.27,737.59,819.14Z" transform="translate(-35 -42.58)" opacity="0.05"/><path d="M814.85,601.26a43.77,43.77,0,0,1-6,32.3c-1.67,2.59-3.62,5-4.88,7.82a36.11,36.11,0,0,0-1.9,6.2L796.66,670c-1.46,6-2.93,12.2-2.49,18.4.31,4.32,1.4,9.17-1.26,12.59a9,9,0,0,0-1.61,2.2,5.63,5.63,0,0,0,0,2.91c2.74,16.24,4.76,33.23-.18,48.94-4.47,14.24-4.73,30-8.54,44.46-.47,1.79-1,3.67-2.36,4.93a7.81,7.81,0,0,1-3.55,1.69c-5.61,1.33-11.53-.23-16.76-2.66-3.68-1.7-7.64-4.69-7.32-8.73.15-1.92,1.27-3.61,2-5.38,1.5-3.47,1.62-7.35,2-11.11,1-9.44,3.92-18.55,6.12-27.79s3.7-18.89,1.84-28.2a246.83,246.83,0,0,0-18.15-55.81,6.53,6.53,0,0,0-1.66-2.49,17.72,17.72,0,0,1-2.35-1.61,7.07,7.07,0,0,1-1.07-2.93c-.82-2.94-3.25-5.12-4.88-7.7-4.12-6.54-2.81-14.92-2.66-22.64.15-7.51-.93-15.08.3-22.49s5.47-15,12.61-17.3c3.54-1.15,7.37-.89,11.07-.52C777.39,590.65,796.45,594.21,814.85,601.26Z" transform="translate(-35 -42.58)" fill="#303d5c"/><path d="M814.85,601.26a43.77,43.77,0,0,1-6,32.3c-1.67,2.59-3.62,5-4.88,7.82a36.11,36.11,0,0,0-1.9,6.2L796.66,670c-1.46,6-2.93,12.2-2.49,18.4.31,4.32,1.4,9.17-1.26,12.59a9,9,0,0,0-1.61,2.2,5.63,5.63,0,0,0,0,2.91c2.74,16.24,4.76,33.23-.18,48.94-4.47,14.24-4.73,30-8.54,44.46-.47,1.79-1,3.67-2.36,4.93a7.81,7.81,0,0,1-3.55,1.69c-5.61,1.33-11.53-.23-16.76-2.66-3.68-1.7-7.64-4.69-7.32-8.73.15-1.92,1.27-3.61,2-5.38,1.5-3.47,1.62-7.35,2-11.11,1-9.44,3.92-18.55,6.12-27.79s3.7-18.89,1.84-28.2a246.83,246.83,0,0,0-18.15-55.81,6.53,6.53,0,0,0-1.66-2.49,17.72,17.72,0,0,1-2.35-1.61,7.07,7.07,0,0,1-1.07-2.93c-.82-2.94-3.25-5.12-4.88-7.7-4.12-6.54-2.81-14.92-2.66-22.64.15-7.51-.93-15.08.3-22.49s5.47-15,12.61-17.3c3.54-1.15,7.37-.89,11.07-.52C777.39,590.65,796.45,594.21,814.85,601.26Z" transform="translate(-35 -42.58)" opacity="0.05"/><path d="M735,648.34a47,47,0,0,0,1,8.68q5.19,29.09,11,58c.35,1.68.68,3.35,1.13,5a40.65,40.65,0,0,0,7.49,14.73c16.3,20.31,17.71,49.81,26.55,74.3.59,1.66,1.19,3.32,1.82,5a123.85,123.85,0,0,0,5.46,12.17,3.43,3.43,0,0,0,1.12,1.45,3.35,3.35,0,0,0,1.78.35,51.85,51.85,0,0,0,23-5.23,4.76,4.76,0,0,0,2.44-2,4.87,4.87,0,0,0,.26-2.34c-.24-4.85-.54-9.89-2.86-14.15a30,30,0,0,0-5.66-6.86c-.69-15.25-2.19-30.52-5.54-45.4-1.72-7.61-3.85-15.3-8.27-21.74-3.26-4.75-7.93-9.43-7.36-15.16.26-2.52,1.31-5.65-.74-7.13-.89-.65-2.22-.73-2.82-1.66a3.06,3.06,0,0,1-.4-1.42,35.23,35.23,0,0,1,.73-11.76,63.32,63.32,0,0,0,1.75-7.66c.26-2.62-.18-5.45-1.93-7.4-.11-5.23,0-10.66-.07-15.89a29.61,29.61,0,0,1,.74-8.87c.39-1.37,1-2.68,1.3-4.08,1.1-5-1.63-11,1.62-15,1.35-1.66,3.44-2.48,5.21-3.68,3.55-2.36,5.87-6.23,7.16-10.29a56.84,56.84,0,0,0,2-12.6,13.13,13.13,0,0,0,0-2.73,5.09,5.09,0,0,0-.37-1.36c-1-2.27-3.72-3.15-6.14-3.73a198.59,198.59,0,0,0-46.9-5.48c-5.84-4-9.13-2.56-11.6,1.66a42.75,42.75,0,0,0-3.31,8.07c-1.13,3.41-1.2,22.55-2.3,26C730.89,634.54,735,643.66,735,648.34Z" transform="translate(-35 -42.58)" fill="#303d5c"/><path d="M840.62,474.21c.43,3-1,6-1.18,9-.14,2.66.71,5.25,1.19,7.86,1.89,10.2-1.74,20.53-5.42,30.23a15.28,15.28,0,0,0-1.29,5c-.1,3.16,1.72,6.06,2.22,9.19,1.05,6.57-3.8,12.75-3.9,19.4,0,3.06.92,6.18.15,9.14-.51,2-1.74,3.68-2.62,5.53-1.55,3.27-2,7-3.45,10.29-2.68,6-8.44,9.87-13.91,13.45-3.12-1-6.49-2.27-8.2-5.07a12.55,12.55,0,0,1-1.43-4.46c-1.19-6.8-1.15-13.75-1.1-20.65a128.77,128.77,0,0,1,.94-17.79c1.11-7.5,3.54-14.73,5.29-22.11,2.2-9.31,3.33-18.93,6.76-27.86,3-7.84,7.71-14.89,12.66-21.63,1.88-2.58,3.37-6.25,7-5.66A7.69,7.69,0,0,1,840.62,474.21Z" transform="translate(-35 -42.58)" fill="#3f3d56"/><path d="M840.62,474.21c.43,3-1,6-1.18,9-.14,2.66.71,5.25,1.19,7.86,1.89,10.2-1.74,20.53-5.42,30.23a15.28,15.28,0,0,0-1.29,5c-.1,3.16,1.72,6.06,2.22,9.19,1.05,6.57-3.8,12.75-3.9,19.4,0,3.06.92,6.18.15,9.14-.51,2-1.74,3.68-2.62,5.53-1.55,3.27-2,7-3.45,10.29-2.68,6-8.44,9.87-13.91,13.45-3.12-1-6.49-2.27-8.2-5.07a12.55,12.55,0,0,1-1.43-4.46c-1.19-6.8-1.15-13.75-1.1-20.65a128.77,128.77,0,0,1,.94-17.79c1.11-7.5,3.54-14.73,5.29-22.11,2.2-9.31,3.33-18.93,6.76-27.86,3-7.84,7.71-14.89,12.66-21.63,1.88-2.58,3.37-6.25,7-5.66A7.69,7.69,0,0,1,840.62,474.21Z" transform="translate(-35 -42.58)" opacity="0.05"/><path d="M761.07,408.6a64.79,64.79,0,0,1,6,12.29,28.16,28.16,0,0,0,6.78.82c8.86,0,15.14-5,20.35-11.41.45-2,3.26-3.95,2.94-5.56-.41-2.12-2.41-1.7-4.22-1.58a159,159,0,0,0-16.41,2.12C775.06,405.52,761.27,409,761.07,408.6Z" transform="translate(-35 -42.58)" opacity="0.1"/><circle cx="738.81" cy="349.96" r="28.4" fill="#ee8e9e"/><path d="M737.93,596c4.91-.29,9.86-.1,14.79.1a51.43,51.43,0,0,1,9.19.94c3.73.85,7.22,2.55,10.9,3.61,5.89,1.72,12.1,1.79,18.21,2.4a104.7,104.7,0,0,1,11.92,1.86,5.09,5.09,0,0,0-.37-1.36c-1-2.27-3.72-3.15-6.14-3.73a198.59,198.59,0,0,0-46.9-5.48C743.69,590.38,740.4,591.8,737.93,596Z" transform="translate(-35 -42.58)" opacity="0.1"/><path d="M757.28,439c1.24,1.43,2.9,3,4.74,2.54a6.54,6.54,0,0,0,1.84-1c3.27-2.11,7.29-2.61,11.14-3.19a163.72,163.72,0,0,0,23-5.16,23.45,23.45,0,0,1,6.79-1.38c4.81,0,9.08,3.23,12.09,7S822,446,825,449.79c2.11,2.7,4.62,5.08,6.59,7.89,5,7.09,6,16.34,4.75,24.9s-4.7,16.64-8.09,24.6a84.79,84.79,0,0,1-6.61,13.33c1.14,6.5.54,13.94-2.55,19.78-1,1.9-2.24,3.75-2.58,5.88a14.86,14.86,0,0,0,.18,4.31l1.45,10.28c.44,3.13.88,6.27,1.45,9.38,1,5.69,2.46,11.86-.18,17-3.16,6.16.16,14.07-.67,21A105.43,105.43,0,0,0,791,601.53c-6.1-.59-12.31-.67-18.2-2.38-3.68-1.07-7.17-2.77-10.9-3.62a50.52,50.52,0,0,0-9.19-.94c-6.81-.27-13.66-.54-20.39.46-.55.08-1.21.12-1.54-.32a1.47,1.47,0,0,1-.21-.8,13.62,13.62,0,0,1,1.75-7.23c.85-1.52,2-3,2-4.74a7,7,0,0,0-.59-2.36l-3-8c-2.52-6.72-1.32-14.52-2.63-21.58a126.42,126.42,0,0,1-2-16.69c-.24-4.79-.09-10,2.8-13.81a15.73,15.73,0,0,0,2.18-3,9.25,9.25,0,0,0,.52-3.63q.09-14.37-.79-28.73c2.52-4.53,5.15-9.16,7.67-13.68,2.93-5.27,5.9-10.64,7.09-16.55.78-3.92.75-7.95,1.31-11.9a5.18,5.18,0,0,1,1-2.77c1-1.09,2.59-1.25,4-1.2A17.65,17.65,0,0,1,757.28,439Z" transform="translate(-35 -42.58)" fill="#3f3d56"/><path d="M653.31,422a12.35,12.35,0,0,0,6.15,2.5c2.93.2,9.14-1.52,11-4a7.22,7.22,0,0,0,1.05-4.2,5.18,5.18,0,0,0-1.22-.23,32,32,0,0,0-9.53.38c-3.1.76-6.09,2.64-7.4,5.55C653.32,422,653.32,422,653.31,422Z" transform="translate(-35 -42.58)" opacity="0.1"/><path d="M747.79,483.39c-1.72,2.16-3.53,4.37-6,5.65-2.82,1.46-6.14,1.49-9.32,1.43a223.68,223.68,0,0,1-39-4.28,24.47,24.47,0,0,1-4.29-1.15,22.74,22.74,0,0,1-4.33-2.71c-4.23-3-8.51-6.13-11.73-10.22a34.49,34.49,0,0,1-6.95-17.05c-3.05-2.81-4.67-6.81-6.2-10.68a16.12,16.12,0,0,1-1.42-5.18c-.08-1.84,1.14-3.77.8-5.58a14.69,14.69,0,0,0-4.51-8.1,3,3,0,0,1-1.07-1.43,2.24,2.24,0,0,1,.26-1.38c1.3-2.92,4.29-4.8,7.39-5.56a32.07,32.07,0,0,1,9.54-.38,22.13,22.13,0,0,1,3.12.83l2.22,5.85a7.54,7.54,0,0,0,1.45,2.67,14.53,14.53,0,0,0,1.58,1.23,9,9,0,0,1,3.12,7.88,8.47,8.47,0,0,1,5,10.46,10,10,0,0,1,7.32,6.44,4.88,4.88,0,0,0,1,2,3.91,3.91,0,0,0,2.56.79c2.51.15,4.7,2.13,7,1.06a14.14,14.14,0,0,1,8.28-1.16,6.24,6.24,0,0,0,1.77.15,4.46,4.46,0,0,0,1.45-.5,11.88,11.88,0,0,1,3.29-1.3,3.08,3.08,0,0,1,3.12,1.21c.8-.87,1.28-2,2-2.92a3.21,3.21,0,0,1,3-1.45c-.76-.67,0-2,1-2.26a13.35,13.35,0,0,1,3,.11c2.63,0,4.64-2.4,7.19-3,2.35-.58,5.47.11,6.68-2,.42-.74.51-1.74,1.23-2.2a2.4,2.4,0,0,1,1.59-.18,15.53,15.53,0,0,1,4.79,1.45c2.46,9.62,1.17,19.61-.71,29.36A25.75,25.75,0,0,1,747.79,483.39Z" transform="translate(-35 -42.58)" fill="#3f3d56"/><path d="M747.87,517.86l12.23,24.66c-1.32-2.28-4.11-3.17-6.31-4.63a16.78,16.78,0,0,1-6-8.1,50,50,0,0,1-2.31-10c-.25-1.57-.76-3.76,0-5.18C746.84,514.91,747.29,516.7,747.87,517.86Z" transform="translate(-35 -42.58)" opacity="0.1"/><path d="M783.06,538.8c2.76,2.73,6.13,4.74,9.17,7.16,7.09,5.65,12.15,13.39,17.09,21a33.92,33.92,0,0,1,3.49,6.36c-.58.5-1.45,0-2-.52l-9.6-8.44a21.31,21.31,0,0,1-3.2-3.24c-1.67-2.25-2.41-5-3.92-7.4a29.13,29.13,0,0,0-5.84-6c-2.2-1.89-12.34-10.46-9.87-13.79C780.14,534.88,781.6,537.35,783.06,538.8Z" transform="translate(-35 -42.58)" opacity="0.1"/><path d="M762.07,431.91c3-1.9,6.64-2.7,10.17-3.35a21.31,21.31,0,0,1,6.46-.46c2,.25,3.92,1,5.93,1.13,2.83.16,5.54-1,8.26-1.73s5.88-1,8.18.61a3.46,3.46,0,0,0,1.78.95,3.17,3.17,0,0,0,1.84-.9,10.46,10.46,0,0,1,13,.69c5.21,4.88,4.62,14.42,10.72,18.12,1.69,1,3.84,1.56,4.82,3.27a11.77,11.77,0,0,0,.83,1.57,4.18,4.18,0,0,0,1.47,1,29.15,29.15,0,0,1,5,2.89,7.22,7.22,0,0,1,2.89,4.86,9.11,9.11,0,0,1-.89,4.08,38.29,38.29,0,0,1-37.21,23.79,5.88,5.88,0,0,1-3.9-1.21,7.39,7.39,0,0,1-1.37-2.25c-2.87-6-8.25-10.46-11.68-16.18-2-3.41-3.34-7.22-5.47-10.57-3.21-5.09-8.11-8.85-12.9-12.5-2.7-2.06-5.71-4.22-9.1-4.07-3,.13-5.22.29-4.11-3.42A11.86,11.86,0,0,1,762.07,431.91Z" transform="translate(-35 -42.58)" fill="#3f3d56"/><path d="M762.07,431.91c3-1.9,6.64-2.7,10.17-3.35a21.31,21.31,0,0,1,6.46-.46c2,.25,3.92,1,5.93,1.13,2.83.16,5.54-1,8.26-1.73s5.88-1,8.18.61a3.46,3.46,0,0,0,1.78.95,3.17,3.17,0,0,0,1.84-.9,10.46,10.46,0,0,1,13,.69c5.21,4.88,4.62,14.42,10.72,18.12,1.69,1,3.84,1.56,4.82,3.27a11.77,11.77,0,0,0,.83,1.57,4.18,4.18,0,0,0,1.47,1,29.15,29.15,0,0,1,5,2.89,7.22,7.22,0,0,1,2.89,4.86,9.11,9.11,0,0,1-.89,4.08,38.29,38.29,0,0,1-37.21,23.79,5.88,5.88,0,0,1-3.9-1.21,7.39,7.39,0,0,1-1.37-2.25c-2.87-6-8.25-10.46-11.68-16.18-2-3.41-3.34-7.22-5.47-10.57-3.21-5.09-8.11-8.85-12.9-12.5-2.7-2.06-5.71-4.22-9.1-4.07-3,.13-5.22.29-4.11-3.42A11.86,11.86,0,0,1,762.07,431.91Z" transform="translate(-35 -42.58)" opacity="0.05"/><path d="M747.29,843.52c2.06,1.92,4.89,2.76,7.64,3.36a138.94,138.94,0,0,0,19,2.34l6.21.48c6,.46,12.12.92,18.2.95a125.36,125.36,0,0,0,22.38-1.94,2.44,2.44,0,0,0,1.78-.86,2.49,2.49,0,0,0,.27-1.41A108.32,108.32,0,0,0,820,824c-.7-3-6.13,3.76-6.38,4-1.5,1.71-2.64,2.5-4.93,2.62-6.25.34-13.24-3.46-18.21-6.84a23,23,0,0,0-3.37-2.09,10.24,10.24,0,0,0-2.73-.78,16.51,16.51,0,0,0-9.29,1.89c-3.74,1.85-7,4.51-10.7,6.41a30.09,30.09,0,0,1-9.59,3c-3.38.46-7.42.69-9.16,3.62,0,0,0,0,0,0C744.21,838.33,745.24,841.61,747.29,843.52Z" transform="translate(-35 -42.58)" fill="#3f3d56"/><path d="M747.29,844.64c2.06,1.92,4.89,2.76,7.64,3.35a137.41,137.41,0,0,0,19,2.35l6.21.48c6,.46,12.12.92,18.2.95a125.36,125.36,0,0,0,22.38-1.94,2.44,2.44,0,0,0,1.78-.86,10,10,0,0,0,1.39-2.53c-.13-7.56-2.18-15.1-3.88-22.47-.7-3-6.13,3.76-6.38,4-1.5,1.71-2.64,2.5-4.93,2.62-6.25.34-13.24-3.46-18.21-6.84a23,23,0,0,0-3.37-2.09,10.24,10.24,0,0,0-2.73-.78c.8,4.5,7.25,9.93,10.58,11.58,6.73,3.34,14.73,1.68,22.24,2.07a3,3,0,0,1,1.57.38c.9.6,1,1.87.93,2.95-.06,1.79-.29,3.9-1.85,4.81a5.38,5.38,0,0,1-2.49.52,351.81,351.81,0,0,1-55.45-2,30.2,30.2,0,0,1-9-2,23.77,23.77,0,0,1-5.24-3.37C743.27,837.77,745.24,842.73,747.29,844.64Z" transform="translate(-35 -42.58)" fill="#e8eaf2"/><path d="M762.76,392.24c.11,2.93-1.9,8.63,3.59,7,3.28-.95,4.2-4.82,8.35-4s5.11,6,6.52,9.33a17.88,17.88,0,0,0,12.94,10.46,7.78,7.78,0,0,0,3.56,0c2.68-.77,4.21-3.53,5.3-6.09a46.43,46.43,0,0,0,2.35-6.68,28.34,28.34,0,0,0,.85-4.91h0a22.57,22.57,0,0,0,0-3.39c-.5-6.68-4.3-12.77-9.17-17.37s-10.77-7.93-16.61-11.21a24.13,24.13,0,0,0-6.12-2.73,20.34,20.34,0,0,0-6.47-.27,22.68,22.68,0,0,0-8.23,1.93,11.51,11.51,0,0,0-2.9,2,8.71,8.71,0,0,0-2.51,4.19c-1.05,4.31,1.7,8.2,3.93,11.61C760.15,385.25,762.61,388.46,762.76,392.24Z" transform="translate(-35 -42.58)" fill="#3f3d56"/><path d="M670.35,455.27c1.17-3,6.1-11.14,4.68-14a37.42,37.42,0,0,0-3.76,6.71C670.34,450.31,671.1,453.38,670.35,455.27Z" transform="translate(-35 -42.58)" opacity="0.1"/><path d="M758,382.22c-2.24-3.41-5-7.3-3.94-11.61a9,9,0,0,1,3.2-4.78,7.63,7.63,0,0,0-.81,2c-1.06,4.32,1.7,8.2,3.93,11.61,2,3,4.45,6.25,4.6,10,.11,2.94-1.9,8.64,3.6,7,3.27-.95,4.19-4.83,8.35-4s5.1,6,6.51,9.33a17.87,17.87,0,0,0,12.94,10.45,7.78,7.78,0,0,0,3.56,0,5.26,5.26,0,0,0,1.68-.82,7.27,7.27,0,0,1-4.06,3.59,7.78,7.78,0,0,1-3.56,0,17.9,17.9,0,0,1-12.95-10.46c-1.4-3.35-2.32-8.45-6.51-9.33s-5.08,3-8.35,4c-5.5,1.59-3.49-4.11-3.6-7C762.49,388.46,760,385.25,758,382.22Z" transform="translate(-35 -42.58)" opacity="0.1"/><path d="M756.82,376.38a25.38,25.38,0,0,0,1.69,2.41,28.89,28.89,0,0,0,3.88,4c.84.73,1.71,1.41,2.62,2.06a41.86,41.86,0,0,0,5.3,3.16c5.37,2.71,11.19,4.41,17,6.08l11.34,3.3c1.39,1,3.94,2.95,6.75,4.92a28.34,28.34,0,0,0,.85-4.91h0a22.57,22.57,0,0,0,0-3.39c-.5-6.68-4.3-12.77-9.17-17.37s-10.77-7.93-16.61-11.21a24.13,24.13,0,0,0-6.12-2.73,20.34,20.34,0,0,0-6.47-.27,22.68,22.68,0,0,0-8.23,1.93,11.51,11.51,0,0,0-2.9,2,11.1,11.1,0,0,0-1.45,3.07C754.57,371.82,755.55,374.32,756.82,376.38Z" transform="translate(-35 -42.58)" opacity="0.1"/><path d="M756.82,375.62a25.24,25.24,0,0,0,1.69,2.4,27.83,27.83,0,0,0,3.88,4A30.4,30.4,0,0,0,765,384.1a43.15,43.15,0,0,0,5.3,3.17c5.37,2.7,11.19,4.4,17,6.08l11.34,3.29c4,3,17.2,12.81,19.42,11.58,2.63-1.44-11.75-11.62-11.75-11.62l-.66.5c2.11-1.32,3.21-4.39,3.68-7,.84-4.75,1.24-9.68.12-14.38s-3.95-9.15-8.25-11.35c-1.9-1-4.21-1.64-5.59-3.15a3.83,3.83,0,0,1-.54-.73,2.56,2.56,0,0,1-.22-.39,5.16,5.16,0,0,0-.6-1.17c-.79-.91-2.22-.64-3.41-.49-.13,0-.25,0-.38,0a4.72,4.72,0,0,1-.65,0c-4.26.1-8.39-2.27-12.7-2.27-4.73,0-8.75,2.73-12.91,4.59-.84.38-1.64.73-2.39,1.08-3,1.4-5.26,2.89-6.5,6.87C754.57,371.05,755.55,373.55,756.82,375.62Z" transform="translate(-35 -42.58)" fill="#ffffff"/><path d="M789.79,358.46a2.07,2.07,0,0,0-.26,1,2,2,0,0,0,.71,1.53,3.51,3.51,0,0,0,1.79.63,13,13,0,0,0,1.4.11,3.75,3.75,0,0,0,1.84-.31,2.2,2.2,0,0,0,.32-.21,3.83,3.83,0,0,1-.54-.73c-.11.08-.22.06-.64,0a10.54,10.54,0,0,1-2.3-.39,2.65,2.65,0,0,1-.86-.42,2.52,2.52,0,0,1-.81-1.24Z" transform="translate(-35 -42.58)" opacity="0.1"/><path d="M806,396.49a5.4,5.4,0,0,1-2,.73,7.89,7.89,0,0,1-1.52.24,8.42,8.42,0,0,1-3.72-1" transform="translate(-35 -42.58)" opacity="0.1"/><rect x="201.28" y="340.99" width="51.73" height="25.38" fill="#3f3d56" opacity="0.1"/><rect x="201.28" y="412.24" width="51.73" height="25.38" fill="#3f3d56" opacity="0.1"/><rect x="201.28" y="483.49" width="51.73" height="25.38" fill="#3f3d56" opacity="0.1"/><rect x="201.28" y="554.74" width="51.73" height="25.38" fill="#3f3d56" opacity="0.1"/><path d="M393.42,447.22c1.44-.92.87-3.38-.62-4.22s-3.33-.58-5-.24a2,2,0,0,0-1.07-2.15v-.37c1-.94.6-2.94-.58-3.79s-3-.9-4.66-.82a6.18,6.18,0,0,0-2-5.27,1.65,1.65,0,0,0-1.08-.52c-.93,0-1.24,1.25-1.31,2.18a43.06,43.06,0,0,1-1.2,7.21L345.59,490c-3.38,4.88,7.12-9.72,3.74-4.84a43.72,43.72,0,0,1-6,7.42,29.48,29.48,0,0,1-6.75,4.51,7.94,7.94,0,0,1-4.61-1.3,18.65,18.65,0,0,1-4.43-4.39,86.62,86.62,0,0,1-7.15-10.63,13.34,13.34,0,0,1-1.64-3.8c-.46-2.1,0-4.39-.84-6.36a9.87,9.87,0,0,0-1.3-2.07l-2.09-2.79a.49.49,0,0,1,0-.12c-.24-4.13-3.58-7.3-6.7-10-2.66-2.32-5.54-4.74-9-5.19-1.88-.24-3.8.12-5.68-.12-1.53-.19-3-.77-4.5-1a19.78,19.78,0,0,0-4.42-.09l-.63-.57a17.56,17.56,0,0,0,7.9-6.64c1.45-2.34,2.23-5,3.57-7.43,1.63-2.93,4-5.35,5.89-8.16,4.36-6.67,5.16-15.25,3.4-23s-5.91-14.82-10.78-21.12c-9.37-12.12-25.09-16.62-39.89-14.24-1,.15-2,.34-2.95.55a37.38,37.38,0,0,0-7.25,2.32,18.39,18.39,0,0,0-7.91,6.17,13.38,13.38,0,0,0-1.38,2.56,14.63,14.63,0,0,0-.67,2.1,21.72,21.72,0,0,0-.36,6.6c.06.75.14,1.51.23,2.26,0,.38.09.75.14,1.13.1.75.21,1.51.31,2.26.16,1.13.31,2.26.42,3.37a21.08,21.08,0,0,1,.12,2.38c0,.2,0,.39,0,.59a9.36,9.36,0,0,1-.26,1.75,9,9,0,0,1-.29.92,11.6,11.6,0,0,1-1.38,2.54,34,34,0,0,1-2.47,3l-.85,1-.84,1a34.9,34.9,0,0,0-3.05,4.13,19.62,19.62,0,0,0-1.21,2.26,16.55,16.55,0,0,0-.68,1.82,13.1,13.1,0,0,0-.53,2.53c0,.22-.05.43-.06.65a10.92,10.92,0,0,0,0,1.28,8.83,8.83,0,0,0,.14,1.26,9.67,9.67,0,0,0,.74,2.43c0,.11.11.22.16.32s.11.21.16.32.21.43.31.64a4.65,4.65,0,0,1,.32,1c0,.11,0,.23,0,.35a2.29,2.29,0,0,1,0,.37,4,4,0,0,1-1.44,2.49c-.19.18-.4.35-.6.52l-.31.25-.63.5-.61.49a12,12,0,0,0-1.47,1.47,54.19,54.19,0,0,0-16.34,1.6,22.31,22.31,0,0,1-5.87,1.06,2.92,2.92,0,0,1-2.54-1.07,3.84,3.84,0,0,1-.26-2.33,20.11,20.11,0,0,0-1.56-9.57,5.38,5.38,0,0,0-1.57-2.28,2.22,2.22,0,0,0-2.59-.14,24.4,24.4,0,0,1-.67,16.28,53.71,53.71,0,0,1-3.76,7.06c-2.23,3.79-3.48,8.13-5.46,12.06,2.22,7.51,1.73,15.53,2.89,23.27,1.08,7.22,3.6,14.12,6.13,21,1.91,5.17,4,10.55,8.12,14.19a7.45,7.45,0,0,0,5,2.18,8.83,8.83,0,0,0,3.93-1.48,15.31,15.31,0,0,0,3.31-2.44,7.54,7.54,0,0,0,1-1.3,4.9,4.9,0,0,0,.73,1.84c2.38-5.13,5-10.15,7.8-15.06a12.91,12.91,0,0,0,2.34-1.6c.05.17.09.35.13.53-.12.47-.24.95-.37,1.42s-.27.9-.41,1.34-.2.66-.31,1-.26.78-.4,1.17l-.48,1.27c-.12.3-.23.6-.36.9-.3.73-.61,1.46-.95,2.18a6.58,6.58,0,0,0,.83.34l.19.06a7.2,7.2,0,0,0,.77.19l.28,0,.58.06.22,0c.1,0,.2,0,.3,0h.39a9.18,9.18,0,0,0,2.06-.36c.13.52.25,1.05.38,1.57a55.9,55.9,0,0,1,1.88,10.71c.18,4.1-.53,8.26.25,12.3.41,2.09,1.22,4.1,1.51,6.22a25.85,25.85,0,0,1-.11,6q-.68,7.19-1.36,14.38a12.29,12.29,0,0,1-1.23,5.07c-.68,1.17-1.77,2.51-1.09,3.67a23.85,23.85,0,0,1,3.43-.66c-.42,1.53-.8,3.06-1.16,4.6a8.09,8.09,0,0,0-.27,3.55c.24,1.11.93,2.11,1,3.25.17,1.75-1,3.3-1.72,4.93-1.72,4.16.11,8.85,1.93,13l5.38,12.21q2.2,5,4.42,10c1.31,3,2.63,6,3.89,9a291.5,291.5,0,0,1,14.08,42.21,4.94,4.94,0,0,0,.72,1.83c.75,1,2.1,1.29,3.2,1.9,3.32,1.82,3.7,7.27.66,9.53.63,7.34-4.87,14.43-7.7,21.23-6.52,15.63-5.34,33.24-7.58,50l2.53-1.48a3.33,3.33,0,0,1,.82.54c-.06.31-.12.62-.2.94a14.89,14.89,0,0,1-1.63,4.06c-1.47,2.54-3.72,4.79-4.06,7.7-.21,1.75.33,3.51.32,5.28,0,.16,0,.32,0,.49-.22-.22-.56-.2-1.08.2a6.42,6.42,0,0,0-1.59,3c-.44,1.25-.79,2.53-1.14,3.81l-1.23,4.52a52.43,52.43,0,0,1-2.64,7.94,33.38,33.38,0,0,0-2.34,5.4,16.69,16.69,0,0,0-.41,4.63,14.08,14.08,0,0,0,.64,4.38,10.91,10.91,0,0,0,6.39,6.07,30,30,0,0,0,8.88,1.67,7.58,7.58,0,0,0,2.33-.06,6.4,6.4,0,0,0,2.27-1.18c4.11-3,6.24-8.6,6.61-13.7a19.82,19.82,0,0,0-.56-3.11c.25-5.55-.56-11.13-.13-16.66.08.63.18,1.25.27,1.88q.5,3.1,1,6.21a1.31,1.31,0,0,0-.34-.58,14.31,14.31,0,0,0-.36,7.12,41.68,41.68,0,0,0,2,6.9l1.33,3.71a8.88,8.88,0,0,0,1.58,3.07c1.17,1.28,2.95,1.75,4.63,2.17a50.31,50.31,0,0,0,11.2,1.91,2.57,2.57,0,0,0,1.48-.27,8.51,8.51,0,0,0,.66-.56,6.1,6.1,0,0,1,1.08-.63,7.06,7.06,0,0,0,3.43-4.06,6.43,6.43,0,0,0-.63-5.26,12.08,12.08,0,0,0-1.52-1.84l-6.67-7.07a38.29,38.29,0,0,0-3.27-3.46,1.22,1.22,0,0,0-1.07-.36c-1.81-4.52-1.58-9.82-1.26-14.78.09-1.48.9-4.56,1.23-7.08a11.27,11.27,0,0,0,3.54-1.91,5.42,5.42,0,0,0,2-3c3.36-17.2,8.81-33.87,13.9-50.63.5-1.65,1-3.31,1.49-5l.62-2.12c.16-.58.34-1.16.5-1.74.28-1,.55-1.95.81-2.93.08-.26.15-.53.22-.79a.94.94,0,0,0,0-.16c.33-1.2.64-2.4.95-3.6l.36-1.38c.39-1.53.76-3.07,1.13-4.6.05-.21.1-.43.14-.65a2.82,2.82,0,0,0-.11-1.63v0h0a2.68,2.68,0,0,0-.39-.56c-.1-.12-.22-.25-.34-.37l-.37-.41a3.69,3.69,0,0,1-.68-1.28c0-.47,0-.94,0-1.4s-.06-1-.09-1.49a15.2,15.2,0,0,1,.44-1.94c.11-.38.24-.76.36-1.14s.29-1,.45-1.42a3.55,3.55,0,0,0,.89-2.41c.6-1.51,1.26-3,2-4.44a13.51,13.51,0,0,0,1.79-4.8,19.19,19.19,0,0,0-.58-4.56c-1-6.34,1.94-12.53,4.12-18.56a82.4,82.4,0,0,0,3.63-13.62c.64-3.57,1.08-7.3,3-10.39a15.59,15.59,0,0,0,1.6-2.76,11.09,11.09,0,0,0,.43-3.15,34.54,34.54,0,0,1,3.07-12.47,7.34,7.34,0,0,0,.8-2.42,1,1,0,0,0,0-.17l0-.24.5-.07c.85-5.38,1.7-11.38,1.12-16.79a25.67,25.67,0,0,0-8.58-16.21l.1,0c1.68-.85,2.43-2.88,2.45-4.76a9.26,9.26,0,0,0-3.45-7.26,3.53,3.53,0,0,1-1.17-1.2,3.65,3.65,0,0,1-.14-1.58,8.06,8.06,0,0,0-5-7.46,1.84,1.84,0,0,1-.81-.47,2,2,0,0,1-.2-1.42,8.73,8.73,0,0,0-4.21-8,13.71,13.71,0,0,0,.18-6.33c-.6-2-2.52-3.87-4.63-3.6,1.72-4.69-.72-9.91-.07-14.86.28-2.12,1.13-4.16,1.24-6.3.1-1.94-.39-4,.56-5.74s3.19-3,2.61-4.84c-.25-.8-1-1.34-1.32-2.12s1-2,1.73-1.52c.33-.25.66-.52,1-.79a16.36,16.36,0,0,0,.59,2.93c.47,1.6,1.21,3.11,1.7,4.7.76,2.43,1,5.06,2.22,7.29,2,3.56,6.07,5.32,8.87,8.28,1.64,1.73,2.81,3.86,4.5,5.55a24.9,24.9,0,0,0,4.2,3.15l9,5.84a10.2,10.2,0,0,0,3.08,1.53,5.26,5.26,0,0,0,6.2-4.46,5.9,5.9,0,0,1-2.22-1.37c.13,0,.26,0,.38-.06a14.24,14.24,0,0,0,5.8-3.08c6.42-5.11,11-12.09,15.54-18.95,4.72-7.19,27.46-26.22,27.46-26.22v-7.72a27.85,27.85,0,0,0,7.57-6.44,8.35,8.35,0,0,0,1.9-4.93A4.34,4.34,0,0,0,393.42,447.22ZM204.36,465.71q-.66,4.2-1.61,8.36a81.26,81.26,0,0,1-2.69,9.44c-.12.32-.24.65-.35,1-.33-.6-.65-1.2-.94-1.81-.74-1.53-1.33-3.13-1.92-4.72l-3.76-10.15c-.49-1.31-1-2.84-.25-4.05a4.54,4.54,0,0,1,2.15-1.61,42.9,42.9,0,0,1,8.25-2.8,24.19,24.19,0,0,0,2.66-.7A39.67,39.67,0,0,0,204.36,465.71Zm4.16-12.66a1.53,1.53,0,0,1,0-1.47,3.25,3.25,0,0,1,1-.68,2,2,0,0,0,.28-.2Zm7.8-11a19.43,19.43,0,0,0-3,3.08,31.59,31.59,0,0,0-2.58,4,2.9,2.9,0,0,0-1.07-2.95,6.09,6.09,0,0,1-1-.66,2.05,2.05,0,0,1,.41-2.87,6,6,0,0,1,3-1l4.49-.66C216.51,441.28,216.42,441.65,216.32,442Zm42.14,326.59a16.41,16.41,0,0,0-.26-4c.56,0,1.11,0,1.66-.05Z" transform="translate(-35 -42.58)" fill="url(#b2e6dffe-26e9-4285-a3da-2186fa2c443c)"/><path d="M253.88,370.93c-7.81,1.25-16.5,4.26-19.49,11.58-2.25,5.53-.51,11.76.07,17.71a13.54,13.54,0,0,1-.17,4.71c-.64,2.51-2.42,4.54-4.13,6.48a34.45,34.45,0,0,0-5.95,8.33c-1.41,3.13-1.85,6.86-.4,10a7.35,7.35,0,0,1,1,2.62c.09,2-2,3.32-3.6,4.62-5.86,4.85-5.61,13.69-5.66,21.31a107.76,107.76,0,0,1-10.19,45,13.76,13.76,0,0,0,15.4-2,51.43,51.43,0,0,1-3.5,10.08c5,2.4,10.94-1.54,13.43-6.46s2.78-10.64,4.55-15.86,4.91-9.76,6.25-15c.45-1.74.72-3.59,1.78-5a13.1,13.1,0,0,1,3.12-2.66,30.44,30.44,0,0,0,11-15c6.08,1.34,12.27,2.69,18.46,2.13s12.51-3.37,15.78-8.66c1.45-2.34,2.23-5,3.57-7.42,1.63-2.93,4-5.35,5.89-8.15,4.35-6.66,5.16-15.23,3.39-23s-5.9-14.8-10.77-21.1C284.38,373.05,268.67,368.55,253.88,370.93Z" transform="translate(-35 -42.58)" fill="#303d5c"/><path d="M204.59,468.54q-.66,4.2-1.6,8.34a80.54,80.54,0,0,1-2.69,9.43,9,9,0,0,0-.85,4.34,7.8,7.8,0,0,0,1.05,2.58c3.56,6.33,8.37,12.45,8.78,19.71.11,1.81,0,3.77,1,5.26q4.14-8.88,9.12-17.33c3.47-5.9,7.34-11.85,8.34-18.62a35.26,35.26,0,0,0-.13-9.57c-.46-3.56-1.26-7.21-3.43-10.06-2.36-3.09-8.83-7.74-13-6.78C206.23,457,205.21,464.57,204.59,468.54Z" transform="translate(-35 -42.58)" fill="#ffffff"/><path d="M330.39,502.69c4.67-1.91,9.43-3.93,13.13-7.35a42.63,42.63,0,0,0,6-7.4l11-15.87c2.6-3.76,5.28-7.72,5.84-12.26a40.39,40.39,0,0,0,11-24.92c.08-.93.39-2.15,1.32-2.17a1.66,1.66,0,0,1,1.08.51,6.18,6.18,0,0,1,2,5.27c1.6-.08,3.35-.12,4.65.81s1.65,3.26.25,4a2,2,0,0,1,1.4,2.27c1.68-.34,3.52-.61,5,.23s2.06,3.3.62,4.22a4.35,4.35,0,0,1,2.78,4.17,8.33,8.33,0,0,1-1.9,4.92c-4.21,5.65-11.66,7.94-16.54,13a39.29,39.29,0,0,0-4.31,5.76l-14.16,21.54c-4.5,6.85-9.12,13.83-15.54,18.93a14.26,14.26,0,0,1-5.79,3.08,6.42,6.42,0,0,1-6.08-1.69c-1.42-1.61-1.62-3.92-1.77-6.06C330,510.09,330.63,506.34,330.39,502.69Z" transform="translate(-35 -42.58)" fill="#ee8e9e"/><path d="M283,802a12.12,12.12,0,0,1,1.51,1.84,6.41,6.41,0,0,1,.64,5.25,7.13,7.13,0,0,1-3.43,4.06,6.05,6.05,0,0,0-1.08.62,8.51,8.51,0,0,1-.66.56,2.66,2.66,0,0,1-1.48.28,51.48,51.48,0,0,1-11.2-1.91c-1.68-.42-3.45-.9-4.62-2.17a8.88,8.88,0,0,1-1.58-3.07l-1.33-3.7a42.85,42.85,0,0,1-2-6.89,14.26,14.26,0,0,1,.36-7.11,2.14,2.14,0,0,1,.49,1.45,16.11,16.11,0,0,0,2.85,6.9,5.53,5.53,0,0,0,4.44,2.79,41.43,41.43,0,0,0,7.1.91,2.12,2.12,0,0,0,1-.12,1.73,1.73,0,0,0,.81-1,4.31,4.31,0,0,0,0-2.92c-.63-1.8-2.4-3-3.25-4.7-.62-1.27.25-2.66,1.53-1.59a39.54,39.54,0,0,1,3.27,3.45Z" transform="translate(-35 -42.58)" fill="#303d5c"/><path d="M270.7,776.36c-.38,6-.65,12.39,2.62,17.4,1.17,1.8,2.74,3.31,4.08,5a5.94,5.94,0,0,1,1.46,3c.2,2.19-1.86,4.06-4,4.46s-4.36-.26-6.45-.93a15.66,15.66,0,0,1-5.47-2.58c-2.84-2.4-3.59-6.4-4.16-10.07l-1.33-8.53a27.07,27.07,0,0,1-.48-6.21,27.49,27.49,0,0,1,1.67-6.71l2.19-6.41a3,3,0,0,1,1-1.59,2.78,2.78,0,0,1,1.66-.31c2.1.11,7.37.87,8.39,3.09C272.72,767.91,270.85,774.06,270.7,776.36Z" transform="translate(-35 -42.58)" fill="#ee8e9e"/><path d="M270.7,776.36c-.38,6-.65,12.39,2.62,17.4,1.17,1.8,2.74,3.31,4.08,5a5.94,5.94,0,0,1,1.46,3c.2,2.19-1.86,4.06-4,4.46s-4.36-.26-6.45-.93a15.66,15.66,0,0,1-5.47-2.58c-2.84-2.4-3.59-6.4-4.16-10.07l-1.33-8.53a27.07,27.07,0,0,1-.48-6.21,27.49,27.49,0,0,1,1.67-6.71l2.19-6.41a3,3,0,0,1,1-1.59,2.78,2.78,0,0,1,1.66-.31c2.1.11,7.37.87,8.39,3.09C272.72,767.91,270.85,774.06,270.7,776.36Z" transform="translate(-35 -42.58)" opacity="0.05"/><path d="M317.61,599.58a1,1,0,0,1,0,.17,7.49,7.49,0,0,1-.8,2.42,34.64,34.64,0,0,0-3.07,12.45,11,11,0,0,1-.43,3.14,15.59,15.59,0,0,1-1.6,2.76c-1.9,3.09-2.34,6.82-3,10.38a81,81,0,0,1-3.63,13.6c-2.17,6-5.1,12.21-4.11,18.54a19,19,0,0,1,.58,4.55,13.51,13.51,0,0,1-1.79,4.8c-.74,1.44-1.4,2.92-2,4.43s-1.21,3.29-1.7,5c-.59,2-1,4.46.37,6.1a7.83,7.83,0,0,1,1.1,1.35,3.56,3.56,0,0,1,0,2.3q-1.15,4.88-2.48,9.72c-.68,2.54-1.4,5.06-2.15,7.58-5.48,18.42-11.69,36.65-15.38,55.52-.53,2.71-4,4.66-6.71,5.25a8.82,8.82,0,0,1-7.71-2.06l-.53-.53c-2.83-3-3.24-7.72-3-11.94,1-19.41,10.73-37.18,15.38-56.05a107.38,107.38,0,0,0,3-20.81c1.09-23.44,1.52-48.2-5.1-70.71-1.38-4.68-3-10-.54-14.17,1.57-2.66,4.47-4.22,7.33-5.36a47.16,47.16,0,0,1,36.57.93,13.19,13.19,0,0,1-.05,1.41,14.33,14.33,0,0,0,.73,6.46A8.06,8.06,0,0,1,317.61,599.58Z" transform="translate(-35 -42.58)" fill="#303d5c"/><path d="M237.36,782.35l-1.23,4.51a52.06,52.06,0,0,1-2.64,7.94,33.78,33.78,0,0,0-2.34,5.39,16.65,16.65,0,0,0-.4,4.62,13.79,13.79,0,0,0,.64,4.38,10.87,10.87,0,0,0,6.38,6.06,30,30,0,0,0,8.88,1.67,7.58,7.58,0,0,0,2.33-.06,6.44,6.44,0,0,0,2.26-1.18c4.11-3,6.24-8.59,6.61-13.68a17,17,0,0,0-.7-3.49c-.32-.43-3.43,1.33-2.1,2.79,2,2.18-3.8,1.05-6.73.87a27.14,27.14,0,0,1-3.8-.63l-4.75-1c-1.55-.34-3.34-.87-3.89-2.36s.65-3.26,1.59-4.7c2.48-3.83,3.11-8.53,3.69-13.06.11-.89,1.22-6.65-1.07-4.86a6.42,6.42,0,0,0-1.59,3C238.06,779.8,237.71,781.08,237.36,782.35Z" transform="translate(-35 -42.58)" fill="#303d5c"/><path d="M296.44,687.89c-1.35-1.64-.95-4.06-.37-6.1.22-.76.46-1.52.71-2.27l-18.63-6.3c-.07,1.67-.14,3.34-.22,5a107.58,107.58,0,0,1-3,20.82c-4.65,18.86-14.43,36.63-15.38,56-.22,4.47.26,9.46,3.56,12.47a8.81,8.81,0,0,0,7.71,2.06c2.7-.59,6.18-2.54,6.71-5.26,3.69-18.86,9.89-37.09,15.38-55.52q2.57-8.58,4.63-17.3a3.53,3.53,0,0,0,0-2.29A7,7,0,0,0,296.44,687.89Z" transform="translate(-35 -42.58)" opacity="0.05"/><path d="M244.94,761.9c-1.47,2.53-3.72,4.78-4.06,7.69-.21,1.75.33,3.51.32,5.27a16.69,16.69,0,0,1-.77,4.3q-2.72,9.83-6.27,19.39a5.28,5.28,0,0,0-.49,2.63c.24,1.5,1.68,2.48,3.08,3.07,4.43,1.9,9.43,1.77,14.25,1.57a7.47,7.47,0,0,0,4-.93c1.72-1.18,2.15-3.52,2.26-5.61.33-6-.69-12.12,0-18.14.24-2.19.7-4.35,1.05-6.53.47-3,.71-6.2-.28-9.1a21.26,21.26,0,0,0-3.41-5.73,17.88,17.88,0,0,0-4.74-4.72c-.56-.34-2.18-1.37-2.75-.72-.29.33-.16,1.21-.21,1.62a15.1,15.1,0,0,1-.33,1.88A15.35,15.35,0,0,1,244.94,761.9Z" transform="translate(-35 -42.58)" fill="#ee8e9e"/><path d="M280.76,607.14c-.87,1.18-.69,2.82-.34,4.24.62,2.58,1.65,5,2.49,7.56a104.5,104.5,0,0,1,3.2,13.74c.79,4.2,2.44,8.88,1.76,13.1a93.64,93.64,0,0,1,9.9,31c.38,2.78-5.8,6.38-5.68,9.19.23,5.57,4.68,6,1.39,10.48-.16.22,1.23,5.2,1,5.42-1.34,1.61-3,2.89-4.47,4.4a33.86,33.86,0,0,0-4.71,6.91c-8.5,15.33-20.77,32.73-17,49.85a3,3,0,0,1-1.62,3.08,8.12,8.12,0,0,1-3.59.83l-.59,0c-2.83-3-3.24-7.72-3-11.94,1-19.41,10.73-37.18,15.38-56.05a107.38,107.38,0,0,0,3-20.81c1.09-23.44,1.52-48.2-5.1-70.71-1.38-4.68-3-10-.54-14.17,1.57-2.66,4.47-4.22,7.33-5.36a47.16,47.16,0,0,1,36.57.93,13.19,13.19,0,0,1-.05,1.41,14.33,14.33,0,0,0,.73,6.46,8.06,8.06,0,0,1,.73,2.81c0,.06.34-3.77.33-3.72-7.61,1.1-15.55,6.08-23.16,7.17a53.23,53.23,0,0,0-11.62,2.56A5.21,5.21,0,0,0,280.76,607.14Z" transform="translate(-35 -42.58)" opacity="0.05"/><path d="M228.07,565.58q-1.55,4.88-2.7,9.86a8.19,8.19,0,0,0-.28,3.54c.25,1.11.94,2.11,1,3.25.18,1.75-1,3.3-1.71,4.93-1.72,4.15.11,8.83,1.92,12.94l5.38,12.21,4.42,10c1.31,3,2.63,5.95,3.89,8.95a290.72,290.72,0,0,1,14.07,42.15,5.09,5.09,0,0,0,.72,1.84c.75,1,2.1,1.28,3.2,1.89,3.32,1.82,3.69,7.26.66,9.52.63,7.33-4.87,14.41-7.7,21.2-6.51,15.61-5.33,33.2-7.57,50l2.53-1.47c2.43,1.11,2.34,4.55,3.65,6.88,2,3.5,6.75,4,10.76,3.73a8.19,8.19,0,0,0,3.59-.83,3,3,0,0,0,1.62-3.08c-3.78-17.12,8.49-34.51,17-49.86a33.28,33.28,0,0,1,4.71-6.9c1.44-1.52,3.13-2.8,4.47-4.4,3.75-4.5,4.23-10.85,4-16.7a93.55,93.55,0,0,0-10.64-39.44c.67-4.22-1-8.89-1.76-13.09A103.65,103.65,0,0,0,280.11,619c-.84-2.53-1.87-5-2.49-7.57-.34-1.42-.52-3.06.34-4.24a5.19,5.19,0,0,1,2.4-1.55A53.49,53.49,0,0,1,292,603l26.16-3.76c.85-5.37,1.7-11.37,1.12-16.77a25.8,25.8,0,0,0-18.44-21.58c-1.15-.31-2.48-.51-3.42.22A136.18,136.18,0,0,0,228.07,565.58Z" transform="translate(-35 -42.58)" fill="#303d5c"/><path d="M251.85,424.15a12.88,12.88,0,0,1-1.15,7.49,11.79,11.79,0,0,1-3,3.29,22.41,22.41,0,0,1-8.62,4.29c-1.86.46-3.94.78-5.16,2.25-1.84,2.22-.61,5.57,1,8,2.71,4.2,6.48,8,11.31,9.35,3.86,1.05,8,.4,11.92,1.09,2.86.49,5.55,1.67,8.37,2.35a24.73,24.73,0,0,0,22.71-6.34c-4.19-3.22-8.54-6.64-10.71-11.46a16.26,16.26,0,0,1-.82-11c1-3.58,3.27-7.06,2.57-10.7s-4.3-6.16-7.86-7.39a50.62,50.62,0,0,0-9.85-2c-1.85-.25-13.56-2.84-14.29-1.56-.41.72,2,5,2.32,5.94A22.4,22.4,0,0,1,251.85,424.15Z" transform="translate(-35 -42.58)" fill="#ee8e9e"/><circle cx="231.58" cy="366.35" r="23.76" fill="#ee8e9e"/><path d="M254,448.2l16.11,2.72a61,61,0,0,0,12,1.21,33.4,33.4,0,0,1,6.63,0c1.52.25,3,.83,4.51,1,1.88.24,3.79-.12,5.67.12,3.5.45,6.38,2.87,9,5.18,3.11,2.72,6.46,5.89,6.69,10a2.8,2.8,0,0,1-.19,1.38,4.05,4.05,0,0,1-1.19,1.25c-3,2.43-4.62,6.06-6.73,9.26a35.93,35.93,0,0,1-8,8.63c-.7-.45-2,.74-1.73,1.51s1.07,1.32,1.32,2.12c.57,1.82-1.68,3.16-2.61,4.83s-.46,3.79-.56,5.74c-.11,2.13-1,4.17-1.24,6.29-.65,4.95,1.79,10.16.07,14.84,2.12-.27,4,1.56,4.63,3.6a13.54,13.54,0,0,1-.19,6.32,8.7,8.7,0,0,1,4.21,7.95,1.91,1.91,0,0,0,.21,1.42,2,2,0,0,0,.81.47,8,8,0,0,1,5,7.45,3.59,3.59,0,0,0,.15,1.57,3.52,3.52,0,0,0,1.16,1.21,9.26,9.26,0,0,1,3.46,7.24c0,1.88-.78,3.91-2.46,4.76-3.41,1.73-7.07,2.41-10.82,3.22a92.87,92.87,0,0,1-10.47,1.85,94.27,94.27,0,0,1-9.8.31l-21.56-.09c-6,0-12.12,0-18.16-.45-5.64-.38-11.41-1.09-16.87.39-.68-1.15.41-2.5,1.09-3.66a12.33,12.33,0,0,0,1.23-5.07l1.36-14.36a26.41,26.41,0,0,0,.1-6c-.29-2.11-1.09-4.11-1.5-6.21-.78-4-.07-8.18-.25-12.28a57.53,57.53,0,0,0-1.88-10.7L219,495.68c-.68-2.83-1-6.1-2.1-8.81q-4.94-12.66-10.33-25.11a2.65,2.65,0,0,1,.19-2.23l3.56-6.38a40.48,40.48,0,0,1,3.26-5.2,20.48,20.48,0,0,1,12-7.38,21.19,21.19,0,0,1,14,2.07c1.66.89,3.2,2,4.89,2.83C247.32,446.91,250.82,448.42,254,448.2Z" transform="translate(-35 -42.58)" fill="#ffffff"/><path d="M311.2,463.85l5.62,7.48a10.42,10.42,0,0,1,1.3,2.07c.85,2,.38,4.26.84,6.36a13.4,13.4,0,0,0,1.64,3.79,86.07,86.07,0,0,0,7.14,10.62,18.46,18.46,0,0,0,4.44,4.38,7.28,7.28,0,0,0,6,1.06,3.71,3.71,0,0,0-2,1.78c-2.14,4.23-2.3,9.24-1.39,13.9a14.53,14.53,0,0,0,1.56,4.55,6.81,6.81,0,0,0,3.58,3.09,5.27,5.27,0,0,1-6.2,4.45,10.44,10.44,0,0,1-3.08-1.53l-9-5.83a25.94,25.94,0,0,1-4.19-3.15c-1.68-1.68-2.86-3.81-4.5-5.54-2.79-3-6.89-4.72-8.87-8.27-1.23-2.23-1.45-4.86-2.21-7.29-.5-1.59-1.23-3.09-1.71-4.69-1.48-4.93-.41-10.36,1.85-15S307.87,467.79,311.2,463.85Z" transform="translate(-35 -42.58)" fill="#ffffff"/><path d="M290.05,395.39a31.28,31.28,0,0,0-8.36-8.69c-4.43-3.32-9.54-6.07-15.07-6.38a16.29,16.29,0,0,0-6.79,1.11c-.1-6.71-1.77-11.18-5.95-10.5-7.81,1.25-16.5,4.26-19.49,11.58-2.25,5.53-.51,11.76.07,17.71a13.54,13.54,0,0,1-.17,4.71c-.64,2.51-2.42,4.54-4.13,6.48a34.45,34.45,0,0,0-5.95,8.33c-1.41,3.13-1.85,6.86-.4,10a7.35,7.35,0,0,1,1,2.62c.09,2-2,3.32-3.6,4.62-5.86,4.85-5.61,13.69-5.66,21.31a107.76,107.76,0,0,1-10.19,45,13.76,13.76,0,0,0,15.4-2,51.43,51.43,0,0,1-3.5,10.08c5,2.4,10.94-1.54,13.43-6.46s2.78-10.64,4.55-15.86,4.91-9.76,6.25-15c.45-1.74.72-3.59,1.78-5a13.1,13.1,0,0,1,3.12-2.66c5.12-3.67-2.41-31.48-.41-37.46,3,.66,8.44-13.69,11.55-28.28a14.78,14.78,0,0,0,6.76.67,8.62,8.62,0,0,1,2.42-.17,6.44,6.44,0,0,1,2.11.86,51.94,51.94,0,0,0,7.19,3.7c5.16,1.92,10.83,1.67,16.32,1.39A16.23,16.23,0,0,0,290.05,395.39Z" transform="translate(-35 -42.58)" fill="#303d5c"/><g opacity="0.1"><path d="M208.15,503.29a107.91,107.91,0,0,0,10.19-45c0-7.62-.21-16.46,5.66-21.31,1.56-1.3,3.69-2.59,3.59-4.62a7.14,7.14,0,0,0-1-2.62c-1.46-3.1-1-6.83.39-10a34.73,34.73,0,0,1,5.95-8.33c1.71-1.94,3.5-4,4.14-6.48a13.79,13.79,0,0,0,.17-4.71c-.58-6-2.33-12.18-.07-17.71,2.89-7.09,11.12-10.13,18.73-11.45a4,4,0,0,0-2-.13c-7.81,1.25-16.5,4.26-19.49,11.58-2.25,5.53-.51,11.76.07,17.71a13.54,13.54,0,0,1-.17,4.71c-.64,2.51-2.42,4.54-4.13,6.48a34.45,34.45,0,0,0-5.95,8.33c-1.41,3.13-1.85,6.86-.4,10a7.35,7.35,0,0,1,1,2.62c.09,2-2,3.32-3.6,4.62-5.86,4.85-5.61,13.69-5.66,21.31a107.76,107.76,0,0,1-10.19,45,13.32,13.32,0,0,0,7.55,1.41A12.93,12.93,0,0,1,208.15,503.29Z" transform="translate(-35 -42.58)"/><path d="M220.05,511.35a51.39,51.39,0,0,0,3.49-10.08,12.67,12.67,0,0,1-3.38,2.24,50.89,50.89,0,0,1-2.91,7.84,7.4,7.4,0,0,0,4.59.59A7.37,7.37,0,0,1,220.05,511.35Z" transform="translate(-35 -42.58)"/><path d="M262.63,381.43a16,16,0,0,1,4.52-1.06l-.53-.05a16,16,0,0,0-4,.3C262.61,380.89,262.63,381.15,262.63,381.43Z" transform="translate(-35 -42.58)"/><path d="M278.8,405.63a52.63,52.63,0,0,1-7.2-3.7,6.27,6.27,0,0,0-2.11-.86,7.51,7.51,0,0,0-2.21.14,8.2,8.2,0,0,1,1.53.72,51.94,51.94,0,0,0,7.19,3.7,32.38,32.38,0,0,0,12.05,1.56A28.38,28.38,0,0,1,278.8,405.63Z" transform="translate(-35 -42.58)"/><path d="M260.32,400.57c-.05.21-.1.42-.14.64a14.38,14.38,0,0,0,3.53.09A15.19,15.19,0,0,1,260.32,400.57Z" transform="translate(-35 -42.58)"/></g><path d="M210.86,510.73a8.65,8.65,0,0,1-2.33,6.94,15.18,15.18,0,0,1-3.31,2.43,8.71,8.71,0,0,1-3.93,1.48,7.4,7.4,0,0,1-5-2.18c-4.13-3.63-6.2-9-8.11-14.17-2.53-6.83-5.05-13.73-6.13-20.94-1.16-7.73-.67-15.74-2.88-23.24,2-3.93,3.22-8.26,5.45-12.05a54.8,54.8,0,0,0,3.76-7.05A24.25,24.25,0,0,0,189,425.7a2.2,2.2,0,0,1,2.6.14,5.29,5.29,0,0,1,1.57,2.27,20.15,20.15,0,0,1,1.55,9.55A3.86,3.86,0,0,0,195,440a3,3,0,0,0,2.54,1.07A22.32,22.32,0,0,0,203.4,440a54.7,54.7,0,0,1,18.07-1.49,8.65,8.65,0,0,1,3.52.86,3.29,3.29,0,0,1,1.82,2.95l-14.45,2.11a5.92,5.92,0,0,0-3,1,2,2,0,0,0-.42,2.86,6.71,6.71,0,0,0,1,.67,3,3,0,0,1-.12,4.75,3,3,0,0,0-1,.68c-.59.79.2,1.84.44,2.8a3.52,3.52,0,0,1-1.73,3.6,12.22,12.22,0,0,1-4,1.35,42.48,42.48,0,0,0-8.25,2.81,4.46,4.46,0,0,0-2.15,1.6c-.71,1.21-.24,2.74.25,4.05l3.76,10.14c.59,1.59,1.18,3.18,1.92,4.7,1,2,2.14,3.86,3.12,5.83a61.13,61.13,0,0,1,2.35,5.68C206.43,502.15,210.22,505.25,210.86,510.73Z" transform="translate(-35 -42.58)" fill="#ee8e9e"/><path d="M377.93,442.45a4.49,4.49,0,0,0-1.65,2.41,1,1,0,0,0,.38,1.08,1.1,1.1,0,0,0,.67,0,6.35,6.35,0,0,0,2.9-1.38,3,3,0,0,0-.87.7,1,1,0,0,0-.11,1.06,1.37,1.37,0,0,0,.95.5,9.27,9.27,0,0,0,4.19-.2,5.61,5.61,0,0,0-1.75,1,2.32,2.32,0,0,0-.78,1.8.86.86,0,0,0,.31.68,1.26,1.26,0,0,0,.46.16,11.29,11.29,0,0,0,3.89,0,2,2,0,0,0,1.64-1,2.45,2.45,0,0,0-.38-1.88,10.43,10.43,0,0,1-1-4.76,1.93,1.93,0,0,0-.14-1,1.75,1.75,0,0,0-.87-.63c-1.38-.61-3.24-1.45-4.78-.95A9.87,9.87,0,0,0,377.93,442.45Z" transform="translate(-35 -42.58)" fill="#ee8e9e"/><path d="M409.58,410.46l-47.72,25.82a1,1,0,0,0,.07,1.78l8.14,3.07a1.91,1.91,0,0,1,1.07,1l6.33,13c.12.58,1.18.73,1.19.15l-1-10.77a3.85,3.85,0,0,1,.87-2.17l24.74-24.24a.58.58,0,0,1,.54-.16.57.57,0,0,1,.31.91L382.83,445a4.76,4.76,0,0,0-.84,2.15l-1.27,9.3c.1.81.74,1.12,1.25.39l4.6-5.39a1,1,0,0,1,1.34-.23l11.85,8.63a1,1,0,0,0,1.5-.59L411,411.54a1,1,0,0,0-1.4-1.08Z" transform="translate(-35 -42.58)" fill="#ffffff"/><ellipse cx="917.08" cy="803.39" rx="59.47" ry="11.44" fill="#ffffff"/><ellipse cx="916.09" cy="798.53" rx="6.92" ry="9.06" fill="#3f3d56"/><ellipse cx="916.09" cy="787.46" rx="6.92" ry="9.06" fill="#3f3d56"/><ellipse cx="916.09" cy="776.38" rx="6.92" ry="9.06" fill="#3f3d56"/><ellipse cx="916.09" cy="765.3" rx="6.92" ry="9.06" fill="#3f3d56"/><ellipse cx="916.09" cy="754.22" rx="6.92" ry="9.06" fill="#3f3d56"/><ellipse cx="916.09" cy="743.15" rx="6.92" ry="9.06" fill="#3f3d56"/><ellipse cx="916.09" cy="732.07" rx="6.92" ry="9.06" fill="#3f3d56"/><path d="M977,698.84a35.11,35.11,0,0,0,2.58-3.79l-18.2-3,19.68.15a33.27,33.27,0,0,0,.63-26.28l-26.39,13.69,24.34-17.89a33.17,33.17,0,1,0-54.78,37.11,34.29,34.29,0,0,0-3.78,6l23.62,12.27-25.18-8.45a33.19,33.19,0,0,0,5.34,31.14,33.16,33.16,0,1,0,52.14,0,33.2,33.2,0,0,0,0-41Z" transform="translate(-35 -42.58)" fill="#ffffff"/><path d="M917.78,719.35a33,33,0,0,0,7.09,20.5,33.16,33.16,0,1,0,52.14,0C981.45,734.21,917.78,715.63,917.78,719.35Z" transform="translate(-35 -42.58)" opacity="0.1"/><ellipse cx="358.05" cy="772.77" rx="33.95" ry="6.53" fill="#ffffff"/><ellipse cx="358.62" cy="769.99" rx="3.95" ry="5.17" fill="#3f3d56"/><ellipse cx="358.62" cy="763.67" rx="3.95" ry="5.17" fill="#3f3d56"/><ellipse cx="358.62" cy="757.34" rx="3.95" ry="5.17" fill="#3f3d56"/><ellipse cx="358.62" cy="751.02" rx="3.95" ry="5.17" fill="#3f3d56"/><ellipse cx="358.62" cy="744.69" rx="3.95" ry="5.17" fill="#3f3d56"/><ellipse cx="358.62" cy="738.37" rx="3.95" ry="5.17" fill="#3f3d56"/><ellipse cx="358.62" cy="732.05" rx="3.95" ry="5.17" fill="#3f3d56"/><path d="M378.82,731.35a18.78,18.78,0,0,1-1.47-2.17l10.38-1.7-11.23.08a19,19,0,0,1-.36-15l15.07,7.82-13.9-10.22a18.94,18.94,0,1,1,31.27,21.19,18.34,18.34,0,0,1,2.16,3.45l-13.48,7L411.64,737a19.09,19.09,0,0,1,1,6.08,18.82,18.82,0,0,1-4.06,11.7,18.93,18.93,0,1,1-29.76,0,18.94,18.94,0,0,1,0-23.41Z" transform="translate(-35 -42.58)" fill="#ffffff"/><path d="M412.64,743.06a18.82,18.82,0,0,1-4.06,11.7,18.93,18.93,0,1,1-29.76,0C376.28,751.54,412.64,740.93,412.64,743.06Z" transform="translate(-35 -42.58)" opacity="0.1"/><ellipse cx="105.17" cy="720.25" rx="22.83" ry="4.39" fill="#ffffff"/><ellipse cx="105.56" cy="718.39" rx="2.66" ry="3.48" fill="#3f3d56"/><ellipse cx="105.56" cy="714.14" rx="2.66" ry="3.48" fill="#3f3d56"/><ellipse cx="105.56" cy="709.88" rx="2.66" ry="3.48" fill="#3f3d56"/><ellipse cx="105.56" cy="705.63" rx="2.66" ry="3.48" fill="#3f3d56"/><ellipse cx="105.56" cy="701.38" rx="2.66" ry="3.48" fill="#3f3d56"/><ellipse cx="105.56" cy="697.13" rx="2.66" ry="3.48" fill="#3f3d56"/><ellipse cx="105.56" cy="692.88" rx="2.66" ry="3.48" fill="#3f3d56"/><path d="M130.61,706.36a11,11,0,0,1-1-1.46l7-1.14-7.55,0a12.72,12.72,0,0,1-.25-10.08L138.94,699l-9.35-6.87a12.73,12.73,0,1,1,21,14.25,12.9,12.9,0,0,1,1.45,2.32L143,713.39l9.66-3.24a12.51,12.51,0,0,1,.67,4.08,12.7,12.7,0,0,1-2.72,7.87,12.74,12.74,0,1,1-20,0,12.71,12.71,0,0,1,0-15.74Z" transform="translate(-35 -42.58)" fill="#ffffff"/><path d="M153.34,714.23a12.7,12.7,0,0,1-2.72,7.87,12.74,12.74,0,1,1-20,0C128.9,719.94,153.34,712.8,153.34,714.23Z" transform="translate(-35 -42.58)" opacity="0.1"/></svg>