<svg id="Layer_1" data-name="Layer 1" xmlns="http://www.w3.org/2000/svg" xmlns:xlink="http://www.w3.org/1999/xlink" viewBox="0 0 562.72 439.42"><defs><linearGradient id="linear-gradient" x1="91.19" y1="302.68" x2="146" y2="261.27" gradientTransform="translate(201.95 -99.85) rotate(38.84)" gradientUnits="userSpaceOnUse"><stop offset="0" stop-color="#010101" stop-opacity="0"/><stop offset="0.95" stop-color="#010101"/></linearGradient><linearGradient id="linear-gradient-2" x1="101.96" y1="293.8" x2="180.55" y2="236.35" gradientTransform="translate(193.44 -113.56) rotate(38.84)" xlink:href="#linear-gradient"/><linearGradient id="linear-gradient-3" x1="114.75" y1="285.62" x2="230.53" y2="172.13" gradientTransform="translate(184.94 -127.27) rotate(38.84)" xlink:href="#linear-gradient"/><linearGradient id="linear-gradient-4" x1="129.85" y1="272.66" x2="302.91" y2="113.71" gradientTransform="translate(176.44 -140.98) rotate(38.84)" gradientUnits="userSpaceOnUse"><stop offset="0" stop-color="#010101" stop-opacity="0"/><stop offset="0.36" stop-color="#010101" stop-opacity="0.36"/><stop offset="0.95" stop-color="#010101"/></linearGradient><linearGradient id="linear-gradient-5" x1="144.04" y1="261.09" x2="243.17" y2="179.94" gradientTransform="translate(160.56 -166.77) rotate(38.84)" gradientUnits="userSpaceOnUse"><stop offset="0" stop-color="#fff" stop-opacity="0"/><stop offset="0.07" stop-color="#fff" stop-opacity="0.22"/><stop offset="0.16" stop-color="#fff" stop-opacity="0.45"/><stop offset="0.25" stop-color="#fff" stop-opacity="0.65"/><stop offset="0.33" stop-color="#fff" stop-opacity="0.8"/><stop offset="0.4" stop-color="#fff" stop-opacity="0.91"/><stop offset="0.46" stop-color="#fff" stop-opacity="0.98"/><stop offset="0.51" stop-color="#fff"/></linearGradient><linearGradient id="linear-gradient-6" x1="149.21" y1="257.97" x2="203.49" y2="211.09" gradientTransform="translate(152.05 -180.48) rotate(38.84)" xlink:href="#linear-gradient-5"/><linearGradient id="linear-gradient-7" x1="281.09" y1="352.88" x2="288.14" y2="293.67" gradientTransform="matrix(1, 0, 0, 1, 0, 0)" xlink:href="#linear-gradient"/><linearGradient id="linear-gradient-8" x1="286.55" y1="163.37" x2="283.73" y2="377.68" gradientTransform="matrix(1, 0, 0, 1, 0, 0)" xlink:href="#linear-gradient-5"/><linearGradient id="linear-gradient-9" x1="281.79" y1="345.2" x2="284.96" y2="409.44" gradientTransform="matrix(1, 0, 0, 1, 0, 0)" xlink:href="#linear-gradient"/><linearGradient id="linear-gradient-10" x1="423.51" y1="258.04" x2="567.32" y2="269.67" gradientTransform="matrix(1, 0, 0, 1, 0, 0)" xlink:href="#linear-gradient"/><linearGradient id="linear-gradient-11" x1="427.71" y1="137.08" x2="442.37" y2="138.14" gradientTransform="matrix(1, 0, 0, 1, 0, 0)" xlink:href="#linear-gradient-5"/><linearGradient id="linear-gradient-12" x1="431.4" y1="129.69" x2="436.47" y2="130.05" gradientTransform="matrix(1, 0, 0, 1, 0, 0)" xlink:href="#linear-gradient"/><linearGradient id="linear-gradient-13" x1="433.31" y1="357" x2="434.11" y2="388.72" gradientTransform="matrix(1, 0, 0, 1, 0, 0)" xlink:href="#linear-gradient"/><linearGradient id="linear-gradient-14" x1="447.88" y1="393.39" x2="415.89" y2="424.05" gradientTransform="matrix(1, 0, 0, 1, 0, 0)" xlink:href="#linear-gradient"/><linearGradient id="linear-gradient-15" x1="426.59" y1="242.89" x2="681.94" y2="234.96" gradientTransform="matrix(1, 0, 0, 1, 0, 0)" xlink:href="#linear-gradient"/><linearGradient id="linear-gradient-16" x1="442.96" y1="100.87" x2="543.64" y2="97.74" gradientTransform="matrix(1, 0, 0, 1, 0, 0)" xlink:href="#linear-gradient-5"/><linearGradient id="linear-gradient-17" x1="442.96" y1="108.14" x2="543.64" y2="105.01" gradientTransform="matrix(1, 0, 0, 1, 0, 0)" xlink:href="#linear-gradient-5"/><linearGradient id="linear-gradient-18" x1="442.96" y1="115.41" x2="543.64" y2="112.28" gradientTransform="matrix(1, 0, 0, 1, 0, 0)" xlink:href="#linear-gradient-5"/><linearGradient id="linear-gradient-19" x1="442.96" y1="122.68" x2="543.64" y2="119.55" gradientTransform="matrix(1, 0, 0, 1, 0, 0)" xlink:href="#linear-gradient-5"/><linearGradient id="linear-gradient-20" x1="442.96" y1="129.95" x2="543.64" y2="126.82" gradientTransform="matrix(1, 0, 0, 1, 0, 0)" xlink:href="#linear-gradient-5"/><linearGradient id="linear-gradient-21" x1="442.96" y1="137.21" x2="543.64" y2="134.09" gradientTransform="matrix(1, 0, 0, 1, 0, 0)" xlink:href="#linear-gradient-5"/><linearGradient id="linear-gradient-22" x1="442.96" y1="144.48" x2="543.64" y2="141.36" gradientTransform="matrix(1, 0, 0, 1, 0, 0)" xlink:href="#linear-gradient-5"/><linearGradient id="linear-gradient-23" x1="442.96" y1="151.75" x2="543.64" y2="148.63" gradientTransform="matrix(1, 0, 0, 1, 0, 0)" xlink:href="#linear-gradient-5"/><linearGradient id="linear-gradient-24" x1="442.96" y1="159.02" x2="543.64" y2="155.9" gradientTransform="matrix(1, 0, 0, 1, 0, 0)" xlink:href="#linear-gradient-5"/><linearGradient id="linear-gradient-25" x1="442.96" y1="166.29" x2="543.64" y2="163.16" gradientTransform="matrix(1, 0, 0, 1, 0, 0)" xlink:href="#linear-gradient-5"/><linearGradient id="linear-gradient-26" x1="442.96" y1="173.56" x2="543.64" y2="170.43" gradientTransform="matrix(1, 0, 0, 1, 0, 0)" xlink:href="#linear-gradient-5"/><linearGradient id="linear-gradient-27" x1="442.96" y1="180.83" x2="543.64" y2="177.7" gradientTransform="matrix(1, 0, 0, 1, 0, 0)" xlink:href="#linear-gradient-5"/><linearGradient id="linear-gradient-28" x1="442.96" y1="188.1" x2="543.64" y2="184.97" gradientTransform="matrix(1, 0, 0, 1, 0, 0)" xlink:href="#linear-gradient-5"/><linearGradient id="linear-gradient-29" x1="442.96" y1="195.37" x2="543.64" y2="192.24" gradientTransform="matrix(1, 0, 0, 1, 0, 0)" xlink:href="#linear-gradient-5"/><linearGradient id="linear-gradient-30" x1="442.96" y1="202.64" x2="543.64" y2="199.51" gradientTransform="matrix(1, 0, 0, 1, 0, 0)" xlink:href="#linear-gradient-5"/><linearGradient id="linear-gradient-31" x1="442.96" y1="209.91" x2="543.64" y2="206.78" gradientTransform="matrix(1, 0, 0, 1, 0, 0)" xlink:href="#linear-gradient-5"/><linearGradient id="linear-gradient-32" x1="442.96" y1="217.18" x2="543.64" y2="214.05" gradientTransform="matrix(1, 0, 0, 1, 0, 0)" xlink:href="#linear-gradient-5"/><linearGradient id="linear-gradient-33" x1="442.96" y1="224.45" x2="543.64" y2="221.32" gradientTransform="matrix(1, 0, 0, 1, 0, 0)" xlink:href="#linear-gradient-5"/><linearGradient id="linear-gradient-34" x1="442.96" y1="231.71" x2="543.64" y2="228.59" gradientTransform="matrix(1, 0, 0, 1, 0, 0)" xlink:href="#linear-gradient-5"/><linearGradient id="linear-gradient-35" x1="442.96" y1="238.98" x2="543.64" y2="235.86" gradientTransform="matrix(1, 0, 0, 1, 0, 0)" xlink:href="#linear-gradient-5"/><linearGradient id="linear-gradient-36" x1="442.96" y1="246.25" x2="543.64" y2="243.13" gradientTransform="matrix(1, 0, 0, 1, 0, 0)" xlink:href="#linear-gradient-5"/><linearGradient id="linear-gradient-37" x1="442.96" y1="253.52" x2="543.64" y2="250.4" gradientTransform="matrix(1, 0, 0, 1, 0, 0)" xlink:href="#linear-gradient-5"/><linearGradient id="linear-gradient-38" x1="442.96" y1="260.79" x2="543.64" y2="257.67" gradientTransform="matrix(1, 0, 0, 1, 0, 0)" xlink:href="#linear-gradient-5"/><linearGradient id="linear-gradient-39" x1="442.96" y1="268.06" x2="543.64" y2="264.93" gradientTransform="matrix(1, 0, 0, 1, 0, 0)" xlink:href="#linear-gradient-5"/><linearGradient id="linear-gradient-40" x1="442.96" y1="275.33" x2="543.64" y2="272.2" gradientTransform="matrix(1, 0, 0, 1, 0, 0)" xlink:href="#linear-gradient-5"/><linearGradient id="linear-gradient-41" x1="442.96" y1="282.6" x2="543.64" y2="279.47" gradientTransform="matrix(1, 0, 0, 1, 0, 0)" xlink:href="#linear-gradient-5"/><linearGradient id="linear-gradient-42" x1="442.96" y1="289.87" x2="543.64" y2="286.74" gradientTransform="matrix(1, 0, 0, 1, 0, 0)" xlink:href="#linear-gradient-5"/><linearGradient id="linear-gradient-43" x1="442.96" y1="297.14" x2="543.64" y2="294.01" gradientTransform="matrix(1, 0, 0, 1, 0, 0)" xlink:href="#linear-gradient-5"/><linearGradient id="linear-gradient-44" x1="442.96" y1="304.41" x2="543.64" y2="301.28" gradientTransform="matrix(1, 0, 0, 1, 0, 0)" xlink:href="#linear-gradient-5"/><linearGradient id="linear-gradient-45" x1="442.96" y1="311.68" x2="543.64" y2="308.55" gradientTransform="matrix(1, 0, 0, 1, 0, 0)" xlink:href="#linear-gradient-5"/><linearGradient id="linear-gradient-46" x1="442.96" y1="318.95" x2="543.64" y2="315.82" gradientTransform="matrix(1, 0, 0, 1, 0, 0)" xlink:href="#linear-gradient-5"/><linearGradient id="linear-gradient-47" x1="442.96" y1="326.22" x2="543.64" y2="323.09" gradientTransform="matrix(1, 0, 0, 1, 0, 0)" xlink:href="#linear-gradient-5"/><linearGradient id="linear-gradient-48" x1="442.96" y1="333.48" x2="543.64" y2="330.36" gradientTransform="matrix(1, 0, 0, 1, 0, 0)" xlink:href="#linear-gradient-5"/><linearGradient id="linear-gradient-49" x1="442.96" y1="340.75" x2="543.64" y2="337.63" gradientTransform="matrix(1, 0, 0, 1, 0, 0)" xlink:href="#linear-gradient-5"/><linearGradient id="linear-gradient-50" x1="442.96" y1="348.02" x2="543.64" y2="344.9" gradientTransform="matrix(1, 0, 0, 1, 0, 0)" xlink:href="#linear-gradient-5"/><linearGradient id="linear-gradient-51" x1="442.96" y1="355.29" x2="543.64" y2="352.17" gradientTransform="matrix(1, 0, 0, 1, 0, 0)" xlink:href="#linear-gradient-5"/><linearGradient id="linear-gradient-52" x1="442.96" y1="362.56" x2="543.64" y2="359.44" gradientTransform="matrix(1, 0, 0, 1, 0, 0)" xlink:href="#linear-gradient-5"/><linearGradient id="linear-gradient-53" x1="442.96" y1="369.83" x2="543.64" y2="366.7" gradientTransform="matrix(1, 0, 0, 1, 0, 0)" xlink:href="#linear-gradient-5"/><linearGradient id="linear-gradient-54" x1="442.96" y1="377.1" x2="543.64" y2="373.97" gradientTransform="matrix(1, 0, 0, 1, 0, 0)" xlink:href="#linear-gradient-5"/><linearGradient id="linear-gradient-55" x1="442.96" y1="384.37" x2="543.64" y2="381.24" gradientTransform="matrix(1, 0, 0, 1, 0, 0)" xlink:href="#linear-gradient-5"/><linearGradient id="linear-gradient-56" x1="39.44" y1="206.38" x2="1737.77" y2="153.63" gradientTransform="matrix(1, 0, 0, 1, 0, 0)" xlink:href="#linear-gradient-5"/><linearGradient id="linear-gradient-57" x1="180.65" y1="162.61" x2="183.82" y2="361.93" gradientTransform="matrix(1, 0, 0, 1, 0, 0)" xlink:href="#linear-gradient-5"/><linearGradient id="linear-gradient-58" x1="280.34" y1="181.75" x2="278.56" y2="317.15" gradientTransform="matrix(1, 0, 0, 1, 0, 0)" xlink:href="#linear-gradient-5"/><linearGradient id="linear-gradient-59" x1="252.08" y1="269.03" x2="258.77" y2="-2.71" gradientTransform="matrix(1, 0, 0, 1, 0, 0)" xlink:href="#linear-gradient"/><linearGradient id="linear-gradient-60" x1="251.59" y1="269.02" x2="258.28" y2="-2.72" gradientTransform="matrix(1, 0, 0, 1, 0, 0)" xlink:href="#linear-gradient"/><linearGradient id="linear-gradient-61" x1="207.09" y1="267.92" x2="213.79" y2="-3.82" gradientTransform="matrix(1, 0, 0, 1, 0, 0)" xlink:href="#linear-gradient"/><linearGradient id="linear-gradient-62" x1="206.6" y1="267.91" x2="213.3" y2="-3.83" gradientTransform="matrix(1, 0, 0, 1, 0, 0)" xlink:href="#linear-gradient"/><linearGradient id="linear-gradient-63" x1="251.05" y1="269.01" x2="257.75" y2="-2.73" gradientTransform="matrix(1, 0, 0, 1, 0, 0)" xlink:href="#linear-gradient"/><linearGradient id="linear-gradient-64" x1="207.2" y1="267.93" x2="213.89" y2="-3.81" gradientTransform="matrix(1, 0, 0, 1, 0, 0)" xlink:href="#linear-gradient"/><linearGradient id="linear-gradient-65" x1="229.48" y1="268.47" x2="236.18" y2="-3.26" gradientTransform="matrix(1, 0, 0, 1, 0, 0)" xlink:href="#linear-gradient"/><linearGradient id="linear-gradient-66" x1="230.52" y1="268.5" x2="237.22" y2="-3.24" gradientTransform="matrix(1, 0, 0, 1, 0, 0)" xlink:href="#linear-gradient"/><linearGradient id="linear-gradient-67" x1="227.11" y1="250.42" x2="344.74" y2="348.22" gradientTransform="matrix(1, 0, 0, 1, 0, 0)" xlink:href="#linear-gradient-5"/><linearGradient id="linear-gradient-68" x1="371.69" y1="174.65" x2="370.84" y2="238.96" gradientTransform="matrix(1, 0, 0, 1, 0, 0)" xlink:href="#linear-gradient-5"/><linearGradient id="linear-gradient-69" x1="371.69" y1="226.46" x2="370.84" y2="290.77" gradientTransform="matrix(1, 0, 0, 1, 0, 0)" xlink:href="#linear-gradient-5"/><linearGradient id="linear-gradient-70" x1="181.92" y1="191.35" x2="181.81" y2="199.68" gradientTransform="matrix(1, 0, 0, 1, 0, 0)" xlink:href="#linear-gradient-5"/><linearGradient id="linear-gradient-71" x1="95.3" y1="199.15" x2="150.1" y2="157.73" gradientTransform="translate(143.98 -21.91) rotate(38.84)" xlink:href="#linear-gradient"/><linearGradient id="linear-gradient-72" x1="106.06" y1="190.27" x2="184.66" y2="132.82" gradientTransform="translate(140.64 -31.47) rotate(38.84)" xlink:href="#linear-gradient"/><linearGradient id="linear-gradient-73" x1="118.85" y1="182.09" x2="234.63" y2="68.6" gradientTransform="translate(137.31 -41.03) rotate(38.84)" xlink:href="#linear-gradient"/><linearGradient id="linear-gradient-74" x1="133.96" y1="169.13" x2="307.01" y2="10.17" gradientTransform="translate(133.97 -50.59) rotate(38.84)" xlink:href="#linear-gradient-4"/><linearGradient id="linear-gradient-75" x1="148.35" y1="128.74" x2="232.52" y2="59.83" gradientTransform="matrix(1, 0, 0, 1, 0, 0)" xlink:href="#linear-gradient-5"/><linearGradient id="linear-gradient-76" x1="153.32" y1="154.43" x2="207.59" y2="107.56" gradientTransform="translate(124.42 -78.13) rotate(38.84)" xlink:href="#linear-gradient-5"/><linearGradient id="linear-gradient-77" x1="126.16" y1="213.1" x2="144.93" y2="213.63" gradientTransform="matrix(1, 0, 0, 1, 0, 0)" xlink:href="#linear-gradient-5"/><linearGradient id="linear-gradient-78" x1="103.09" y1="200.75" x2="151.73" y2="206.3" gradientTransform="matrix(1, 0, 0, 1, 0, 0)" xlink:href="#linear-gradient"/><linearGradient id="linear-gradient-79" x1="103.9" y1="246.5" x2="151.95" y2="251.98" gradientTransform="matrix(1, 0, 0, 1, 0, 0)" xlink:href="#linear-gradient"/><linearGradient id="linear-gradient-80" x1="266.18" y1="394.35" x2="246.09" y2="300.95" gradientTransform="matrix(1, 0, 0, 1, 0, 0)" xlink:href="#linear-gradient"/><linearGradient id="linear-gradient-81" x1="301.35" y1="376.83" x2="220.46" y2="443.97" gradientTransform="matrix(1, 0, 0, 1, 0, 0)" xlink:href="#linear-gradient"/></defs><title>Designer 1</title><path d="M122.82,59.33c-45.3,38.05-52.32,110-83,163.08-10.68,18.47-24.48,35-31.68,55.49C-8.39,324.8,14.36,378,44.81,415.25c14.52,17.77,31.48,34.05,52,41.54,15.78,5.76,32.7,6,49.31,6.15l291,3c32.49.33,68.59-.86,91.95-26,16.1-17.31,22.64-42.59,28.19-66.72,6.82-29.65,13-61.85,2.39-90.09-12.12-32.31-42.77-50.62-61.81-78.5C466.94,159.46,467.65,91.14,428.3,55.08c-18.37-16.83-42.61-23.43-66.23-26.73-44.53-6.23-86.71,5.53-130.44,3.89C194.25,30.84,153.83,33.28,122.82,59.33Z" transform="translate(-2.57 -26.51)" fill="#7e86f2" opacity="0.1" style="isolation:isolate"/><path d="M152.08,404.87c-22.16,2.21-45,4.64-64.5,15.45-2.61,1.45-5.26,3.16-6.7,5.77-2.89,5.25.39,12.17,5.48,15.33s11.37,3.52,17.36,3.78c106.66,4.61,213.48,2.8,320.23,1,31-.52,62.49-1.12,92.2-10.05,5.34-1.6,11.21-4,13.22-9.23C532,420.08,526,412.5,519,410.37s-14.47-.54-21.71.39c-25.14,3.23-50.5-1.71-75.53-5.66-49-7.72-99.84-14-149.47-15.17-16.92-.39-31.37,5.43-47.93,7.73C200.45,401,176.12,402.47,152.08,404.87Z" transform="translate(-2.57 -26.51)" fill="#7e86f2" opacity="0.1" style="isolation:isolate"/><rect x="46.97" y="131.75" width="125.5" height="36.65" transform="translate(-75.9 156.01) rotate(-63.88)" fill="#fff"/><rect x="85.24" y="181.07" width="15.33" height="24.67" transform="translate(-124.23 165.43) rotate(-63.95)" fill="#7e86f2"/><rect x="85.24" y="181.07" width="15.33" height="24.67" transform="translate(-124.23 165.43) rotate(-63.95)" fill="url(#linear-gradient)"/><rect x="91.97" y="167.41" width="15.33" height="24.67" transform="translate(-108.18 163.81) rotate(-63.95)" fill="#7e86f2"/><rect x="91.97" y="167.41" width="15.33" height="24.67" transform="translate(-108.18 163.81) rotate(-63.95)" fill="url(#linear-gradient-2)"/><rect x="98.7" y="153.74" width="15.33" height="24.67" transform="translate(-92.13 162.19) rotate(-63.95)" fill="#7e86f2"/><rect x="98.7" y="153.74" width="15.33" height="24.67" transform="translate(-92.13 162.19) rotate(-63.95)" fill="url(#linear-gradient-3)"/><rect x="105.43" y="140.08" width="15.33" height="24.67" transform="translate(-76.07 160.58) rotate(-63.95)" fill="#7e86f2"/><rect x="105.43" y="140.08" width="15.33" height="24.67" transform="translate(-76.07 160.58) rotate(-63.95)" fill="url(#linear-gradient-4)"/><rect x="112.17" y="126.41" width="15.33" height="24.67" transform="translate(-60.02 158.96) rotate(-63.95)" fill="#7e86f2"/><rect x="118.9" y="112.75" width="15.33" height="24.67" transform="translate(-43.97 157.35) rotate(-63.95)" fill="#7e86f2"/><rect x="125.63" y="99.08" width="15.33" height="24.67" transform="translate(-27.92 155.73) rotate(-63.95)" fill="#7e86f2"/><rect x="118.14" y="114.46" width="15.33" height="24.67" transform="translate(-45.93 157.63) rotate(-63.95)" fill="url(#linear-gradient-5)"/><rect x="124.88" y="100.8" width="15.33" height="24.67" transform="translate(-29.88 156.01) rotate(-63.95)" fill="url(#linear-gradient-6)"/><rect x="259" y="323.78" width="46.52" height="38.42" fill="#7e86f2"/><rect x="259" y="323.78" width="46.52" height="38.42" fill="url(#linear-gradient-7)"/><rect x="159.68" y="160.02" width="246.85" height="169.75" rx="9.37" fill="#7e86f2"/><path d="M401.63,201.47V341.69a8.76,8.76,0,0,1-8.75,8.79H177.36a8.77,8.77,0,0,1-8.75-8.79V201.47a8.77,8.77,0,0,1,8.75-8.79H392.88A8.76,8.76,0,0,1,401.63,201.47Z" transform="translate(-2.57 -26.51)" opacity="0.65" fill="url(#linear-gradient-8)"/><rect x="237.15" y="358.32" width="98.33" height="10.22" fill="#7e86f2"/><rect x="259.05" y="353.03" width="46.52" height="5.42" fill="url(#linear-gradient-9)"/><path d="M335.61,114.12v-9.77h-6.49a27.65,27.65,0,0,0-4.1-9.57l5-5-6.87-6.94-5,4.92a28.07,28.07,0,0,0-11-4.81V76.08h-9.76V82.8a26.45,26.45,0,0,0-11,4.17l-4-4.17-7.06,6.8,3.91,4.05a27.36,27.36,0,0,0-5,10.7h-7v9.77H274a27.6,27.6,0,0,0,4.92,12.54l-4.21,4.13,6.91,7,4.24-4.21a27.44,27.44,0,0,0,11.61,4.55v6.19h9.76v-6.34a28,28,0,0,0,10.37-4.36l5.07,5.26,7.06-6.8-5.15-5.33a27.36,27.36,0,0,0,5-12.58ZM301.7,127a16.47,16.47,0,1,1,16.49-16.45A16.44,16.44,0,0,1,301.7,127Z" transform="translate(-2.57 -26.51)" fill="#7e86f2"/><path d="M371.4,127.19l.44-5.78-3.85-.28a16.11,16.11,0,0,0-2-5.85l3.2-2.73-3.76-4.41-3.17,2.69A16.48,16.48,0,0,0,356,107.5l.31-4.07-5.77-.43-.3,4a15.8,15.8,0,0,0-6.67,2l-2.17-2.64-4.48,3.7,2.13,2.57a16.34,16.34,0,0,0-3.41,6.11l-4.13-.31-.43,5.77,3.89.3a16.31,16.31,0,0,0,2.35,7.63l-2.67,2.26,3.77,4.41,2.7-2.3a16.27,16.27,0,0,0,6.66,3.21l-.28,3.66,5.77.43.29-3.75a16.64,16.64,0,0,0,6.32-2.11l2.76,3.33,4.48-3.7-2.81-3.39a16.16,16.16,0,0,0,3.49-7.21Zm-20.62,6.08a9.76,9.76,0,1,1,10.48-9A9.74,9.74,0,0,1,350.78,133.27Z" transform="translate(-2.57 -26.51)" fill="#7e86f2"/><path d="M445.57,175.14v231a8.71,8.71,0,0,1-8.68,8.68h-1a8.68,8.68,0,0,1-8.64-8.68v-231l8.71-22.9Z" transform="translate(-2.57 -26.51)" fill="#7e86f2"/><rect x="433.11" y="148.61" width="9.87" height="221.21" fill="url(#linear-gradient-10)"/><polygon points="443.07 148.97 424.67 148.63 430.34 133.72 433.38 125.72 436.72 133.72 443.07 148.97" opacity="0.65" fill="url(#linear-gradient-11)"/><polygon points="436.72 133.72 430.34 133.72 433.38 125.72 436.72 133.72" fill="url(#linear-gradient-12)"/><rect x="424.26" y="366.12" width="18.77" height="7.93" fill="url(#linear-gradient-13)"/><path d="M445.57,399v7.17a8.71,8.71,0,0,1-8.68,8.68h-1a8.68,8.68,0,0,1-8.64-8.68V399Z" transform="translate(-2.57 -26.51)" fill="url(#linear-gradient-14)"/><rect x="450.56" y="95.04" width="49.34" height="293.94" fill="#7e86f2"/><rect x="450.56" y="94.51" width="25.91" height="294.47" fill="url(#linear-gradient-15)"/><rect x="450.65" y="99.23" width="13.75" height="2.38" opacity="0.65" fill="url(#linear-gradient-16)"/><rect x="450.65" y="106.5" width="13.75" height="2.38" opacity="0.65" fill="url(#linear-gradient-17)"/><rect x="450.65" y="113.76" width="13.75" height="2.38" opacity="0.65" fill="url(#linear-gradient-18)"/><rect x="450.65" y="121.03" width="13.75" height="2.38" opacity="0.65" fill="url(#linear-gradient-19)"/><rect x="450.65" y="128.3" width="13.75" height="2.38" opacity="0.65" fill="url(#linear-gradient-20)"/><rect x="450.65" y="135.57" width="13.75" height="2.38" opacity="0.65" fill="url(#linear-gradient-21)"/><rect x="450.65" y="142.84" width="13.75" height="2.38" opacity="0.65" fill="url(#linear-gradient-22)"/><rect x="450.65" y="150.11" width="13.75" height="2.38" opacity="0.65" fill="url(#linear-gradient-23)"/><rect x="450.65" y="157.38" width="13.75" height="2.38" opacity="0.65" fill="url(#linear-gradient-24)"/><rect x="450.65" y="164.65" width="13.75" height="2.38" opacity="0.65" fill="url(#linear-gradient-25)"/><rect x="450.65" y="171.92" width="13.75" height="2.38" opacity="0.65" fill="url(#linear-gradient-26)"/><rect x="450.65" y="179.19" width="13.75" height="2.38" opacity="0.65" fill="url(#linear-gradient-27)"/><rect x="450.65" y="186.46" width="13.75" height="2.38" opacity="0.65" fill="url(#linear-gradient-28)"/><rect x="450.65" y="193.73" width="13.75" height="2.38" opacity="0.65" fill="url(#linear-gradient-29)"/><rect x="450.65" y="201" width="13.75" height="2.38" opacity="0.65" fill="url(#linear-gradient-30)"/><rect x="450.65" y="208.27" width="13.75" height="2.38" opacity="0.65" fill="url(#linear-gradient-31)"/><rect x="450.65" y="215.53" width="13.75" height="2.38" opacity="0.65" fill="url(#linear-gradient-32)"/><rect x="450.65" y="222.8" width="13.75" height="2.38" opacity="0.65" fill="url(#linear-gradient-33)"/><rect x="450.65" y="230.07" width="13.75" height="2.38" opacity="0.65" fill="url(#linear-gradient-34)"/><rect x="450.65" y="237.34" width="13.75" height="2.38" opacity="0.65" fill="url(#linear-gradient-35)"/><rect x="450.65" y="244.61" width="13.75" height="2.38" opacity="0.65" fill="url(#linear-gradient-36)"/><rect x="450.65" y="251.88" width="13.75" height="2.38" opacity="0.65" fill="url(#linear-gradient-37)"/><rect x="450.65" y="259.15" width="13.75" height="2.38" opacity="0.65" fill="url(#linear-gradient-38)"/><rect x="450.65" y="266.42" width="13.75" height="2.38" opacity="0.65" fill="url(#linear-gradient-39)"/><rect x="450.65" y="273.69" width="13.75" height="2.38" opacity="0.65" fill="url(#linear-gradient-40)"/><rect x="450.65" y="280.96" width="13.75" height="2.38" opacity="0.65" fill="url(#linear-gradient-41)"/><rect x="450.65" y="288.23" width="13.75" height="2.38" opacity="0.65" fill="url(#linear-gradient-42)"/><rect x="450.65" y="295.5" width="13.75" height="2.38" opacity="0.65" fill="url(#linear-gradient-43)"/><rect x="450.65" y="302.77" width="13.75" height="2.38" opacity="0.65" fill="url(#linear-gradient-44)"/><rect x="450.65" y="310.04" width="13.75" height="2.38" opacity="0.65" fill="url(#linear-gradient-45)"/><rect x="450.65" y="317.3" width="13.75" height="2.38" opacity="0.65" fill="url(#linear-gradient-46)"/><rect x="450.65" y="324.57" width="13.75" height="2.38" opacity="0.65" fill="url(#linear-gradient-47)"/><rect x="450.65" y="331.84" width="13.75" height="2.38" opacity="0.65" fill="url(#linear-gradient-48)"/><rect x="450.65" y="339.11" width="13.75" height="2.38" opacity="0.65" fill="url(#linear-gradient-49)"/><rect x="450.65" y="346.38" width="13.75" height="2.38" opacity="0.65" fill="url(#linear-gradient-50)"/><rect x="450.65" y="353.65" width="13.75" height="2.38" opacity="0.65" fill="url(#linear-gradient-51)"/><rect x="450.65" y="360.92" width="13.75" height="2.38" opacity="0.65" fill="url(#linear-gradient-52)"/><rect x="450.65" y="368.19" width="13.75" height="2.38" opacity="0.65" fill="url(#linear-gradient-53)"/><rect x="450.65" y="375.46" width="13.75" height="2.38" opacity="0.65" fill="url(#linear-gradient-54)"/><rect x="450.65" y="382.73" width="13.75" height="2.38" opacity="0.65" fill="url(#linear-gradient-55)"/><path d="M401.63,201.47v3.08h-233v-3.08a8.77,8.77,0,0,1,8.75-8.79H392.88A8.76,8.76,0,0,1,401.63,201.47Z" transform="translate(-2.57 -26.51)" fill="url(#linear-gradient-56)"/><rect x="170.89" y="192.85" width="22.2" height="108.38" fill="url(#linear-gradient-57)"/><rect x="226.58" y="200.07" width="105.73" height="100.1" fill="url(#linear-gradient-58)"/><rect x="250.54" y="247.3" width="4.03" height="4.23" fill="url(#linear-gradient-59)"/><rect x="250.54" y="227.39" width="4.03" height="4.23" fill="url(#linear-gradient-60)"/><rect x="205.53" y="247.3" width="4.03" height="4.23" fill="url(#linear-gradient-61)"/><rect x="205.53" y="227.39" width="4.03" height="4.23" fill="url(#linear-gradient-62)"/><rect x="250.54" y="205.53" width="4.03" height="4.23" fill="url(#linear-gradient-63)"/><rect x="206.67" y="205.53" width="4.03" height="4.23" fill="url(#linear-gradient-64)"/><rect x="228.97" y="205.53" width="4.03" height="4.23" fill="url(#linear-gradient-65)"/><rect x="228.97" y="247.65" width="4.03" height="4.23" fill="url(#linear-gradient-66)"/><path d="M251.82,273.22H214.59V237.75h37.23Zm-33.48-3.75h29.73v-28H218.34Z" transform="translate(-2.57 -26.51)" fill="#7e86f2"/><path d="M251.82,273.22H214.59V237.75h37.23Zm-33.48-3.75h29.73v-28H218.34Z" transform="translate(-2.57 -26.51)" fill="url(#linear-gradient-67)"/><rect x="347.47" y="183.33" width="47.58" height="47.58" fill="url(#linear-gradient-68)"/><rect x="347.47" y="235.14" width="47.58" height="47.58" fill="url(#linear-gradient-69)"/><rect x="170.49" y="192.58" width="22.73" height="5.95" opacity="0.65" fill="url(#linear-gradient-70)"/><rect x="73.93" y="142.85" width="125.5" height="36.65" transform="translate(-73.38 94.58) rotate(-38.77)" fill="#fff"/><rect x="95.4" y="180.94" width="15.33" height="24.67" transform="matrix(0.78, -0.63, 0.63, 0.78, -100.99, 80.84)" fill="#7e86f2"/><rect x="95.4" y="180.94" width="15.33" height="24.67" transform="matrix(0.78, -0.63, 0.63, 0.78, -100.99, 80.84)" fill="url(#linear-gradient-71)"/><rect x="107.29" y="171.43" width="15.33" height="24.67" transform="translate(-92.4 86.19) rotate(-38.84)" fill="#7e86f2"/><rect x="107.29" y="171.43" width="15.33" height="24.67" transform="translate(-92.4 86.19) rotate(-38.84)" fill="url(#linear-gradient-72)"/><rect x="119.19" y="161.91" width="15.33" height="24.67" transform="translate(-83.8 91.55) rotate(-38.84)" fill="#7e86f2"/><rect x="119.19" y="161.91" width="15.33" height="24.67" transform="translate(-83.8 91.55) rotate(-38.84)" fill="url(#linear-gradient-73)"/><rect x="131.08" y="152.39" width="15.33" height="24.67" transform="translate(-75.2 96.91) rotate(-38.84)" fill="#7e86f2"/><rect x="131.08" y="152.39" width="15.33" height="24.67" transform="translate(-75.2 96.91) rotate(-38.84)" fill="url(#linear-gradient-74)"/><rect x="142.98" y="142.88" width="15.33" height="24.67" transform="matrix(0.78, -0.63, 0.63, 0.78, -66.61, 102.26)" fill="#7e86f2"/><rect x="154.96" y="133.18" width="15.33" height="24.67" transform="matrix(0.78, -0.63, 0.63, 0.78, -57.88, 107.63)" fill="#7e86f2"/><rect x="166.77" y="123.84" width="15.33" height="24.67" transform="translate(-49.41 112.97) rotate(-38.84)" fill="#7e86f2"/><polygon points="172.21 125.32 161.99 133.34 146.52 114.12 156.74 106.1 172.21 125.32" fill="url(#linear-gradient-75)"/><rect x="165.36" y="125.08" width="15.33" height="24.67" transform="translate(-50.5 112.36) rotate(-38.84)" fill="url(#linear-gradient-76)"/><path d="M135.42,189.9V249H125.09V189.9a5.12,5.12,0,0,1,3.45-4.84v-5.9a1.84,1.84,0,0,1,3.68,0v6A5.15,5.15,0,0,1,135.42,189.9Z" transform="translate(-2.57 -26.51)" fill="#7e86f2"/><path d="M135.42,189.9V249H125.09V189.9a5.12,5.12,0,0,1,3.45-4.84v-5.9a1.84,1.84,0,0,1,3.68,0v6A5.15,5.15,0,0,1,135.42,189.9Z" transform="translate(-2.57 -26.51)" fill="url(#linear-gradient-77)"/><rect x="115.91" y="201.3" width="23.53" height="4.49" rx="2.25" fill="#7e86f2"/><path d="M130.47,267.64h0c-4.09,0-7.49-6.13-7.49-10.22V230.33h14.8v27.09C137.78,261.51,134.55,267.64,130.47,267.64Z" transform="translate(-2.57 -26.51)" fill="#7e86f2"/><rect x="115.91" y="201.3" width="23.53" height="4.49" rx="2.25" fill="url(#linear-gradient-78)"/><path d="M130.47,267.64h0c-4.09,0-7.49-6.13-7.49-10.22v-25.2h14.8v25.2C137.78,261.51,134.55,267.64,130.47,267.64Z" transform="translate(-2.57 -26.51)" fill="url(#linear-gradient-79)"/><path d="M226,296.32c-.38-1.95-.62-4.71.11-4.9C227.65,291,226,296.32,226,296.32Z" transform="translate(-2.57 -26.51)" fill="#28353d"/><path d="M293.82,388.71c-.23,6-4.85,28.05-5,34.06,0,2,.53,5.07-.11,7-1.32,4.09-6,3.53-6.61,1.12l-.23-1.2c-2.17-11.68,1.32-24.93,0-40.18-.79-9.31-4.47-27.26-6.88-27.38-1.27,0-30.26,61.52-32.78,65.31-1.24,1.91-4.73,1.61-6.42,3.15s14.08-46.64,20.69-72.1a81.06,81.06,0,0,0,3-16.11c.18-3.15-.83-4.21,2.06-5.14,2-.64,4.77-.46,6.91-.61,2.33-.18,24-.22,24,1.32C292.24,346.31,294.38,374.85,293.82,388.71Z" transform="translate(-2.57 -26.51)" fill="#606161"/><path d="M293.82,388.71c-.23,6-4.85,28.05-5,34.06,0,2,.53,5.07-.11,7-1.32,4.09-6,3.53-6.61,1.12l-.23-1.2c-2.17-11.68,1.32-24.93,0-40.18-.79-9.31-4.47-27.26-6.88-27.38-1.27,0-30.26,61.52-32.78,65.31-1.24,1.91-4.73,1.61-6.42,3.15s14.08-46.64,20.69-72.1a81.06,81.06,0,0,0,3-16.11c.18-3.15-.83-4.21,2.06-5.14,2-.64,4.77-.46,6.91-.61,2.33-.18,24-.22,24,1.32C292.24,346.31,294.38,374.85,293.82,388.71Z" transform="translate(-2.57 -26.51)" fill="url(#linear-gradient-80)"/><path d="M268.42,260.72c-.18-1.88-1.06-2.9-1.92-2.9s-1.39,1-1.21,2.9a2.87,2.87,0,0,0,2.48,2.76C268.64,263.48,268.61,262.6,268.42,260.72Z" transform="translate(-2.57 -26.51)" fill="#ffcd9c"/><path d="M284.38,260.83c.12-1.88,1-2.9,1.91-2.9s1.5,1,1.36,2.9a2.79,2.79,0,0,1-2.5,2.75C284.25,263.58,284.24,262.71,284.38,260.83Z" transform="translate(-2.57 -26.51)" fill="#ffcd9c"/><path d="M285.62,268.81c-.12,1-4.25,5.38-8.95,5.38s-8.58-4-9.4-5.6,2.48-22.18,4.39-23.9,9.65-.59,10.3.32C283.52,247.16,286.13,264.82,285.62,268.81Z" transform="translate(-2.57 -26.51)" fill="#f4ad7d"/><path d="M283.72,253.62c-.68.32-3.35-6.35-3.91-7.47s-.47-2.27.21-2.59,1.68.34,2.24,1.45S284.39,253.31,283.72,253.62Z" transform="translate(-2.57 -26.51)" fill="#ffcd9c"/><path d="M269.33,253.12c-.71-.23,1.17-7,1.58-8.17s1.33-1.94,2-1.71.95,1.37.54,2.55S270,253.35,269.33,253.12Z" transform="translate(-2.57 -26.51)" fill="#ffcd9c"/><path d="M271.5,268.34h10.61l1.59,9.37c-5.78,2.9-9.15,2.58-13.66-.64Z" transform="translate(-2.57 -26.51)" fill="#f4ad7d"/><path d="M275.7,270.12c0-.19.38-.35.84-.35s.84.16.84.35-.37.22-.84.22S275.7,270.32,275.7,270.12Z" transform="translate(-2.57 -26.51)" fill="#f4ad7d"/><path d="M286.1,265.4c.38-2.3,1-18.77-.52-20.95s-10.62-3.59-12-3.25c-3.09.76-2.55,3-2.55,3a5.32,5.32,0,0,0-2.61.73c-1.06.72-3.29,11.1-1.51,18.95.8,3.53,3.95,6.6,9.39,6.75C283,270.81,285.64,268.25,286.1,265.4Z" transform="translate(-2.57 -26.51)" fill="#606161"/><path d="M273.81,241.82a3.57,3.57,0,0,1,2.66-.81,23.23,23.23,0,0,1,8.52,1.57,10.53,10.53,0,0,1,4,2.51,5.16,5.16,0,0,1,1.41,4.39c-.5,2.36-3,3.82-3.82,6.09-.66,1.82-.19,3.58-.17,5.41a27.31,27.31,0,0,1-.32,4.42c-.46,2.85-3.09,5.41-9.84,5.24-5.44-.15-8.59-3.22-9.39-6.75a38.71,38.71,0,0,1,.83-17.62,39.25,39.25,0,0,0,8.94,1,38.56,38.56,0,0,0,9.47-1.1c.53,3.06.52,9.19.35,13.77" transform="translate(-2.57 -26.51)" fill="#606161"/><path d="M257.19,276.24a9.94,9.94,0,0,0-4.62,1.59c-2.37,1.86-2.55,5.33-2.51,8.35a70.57,70.57,0,0,0,.87,12.5c.71,3.79,2,7.43,3.06,11.14a72.14,72.14,0,0,1,2.61,18.53c0,3.44-.06,7.22,2.09,9.91,2.35,2.92,6.51,3.49,10.25,3.7,5.31.31,10.64.35,15.95.13,3.56-.16,7.35-.51,10.17-2.69,2.25-1.74,7.52-60.61,3.43-62.1s-8.49-1.87-12.83-2.23C275.93,274.25,266.77,273.6,257.19,276.24Z" transform="translate(-2.57 -26.51)" fill="#7e86f2"/><path d="M286.79,398.77c-.52,6.69-1.76,31-1.76,31l-3.16-.11c-2.17-11.68,1.32-24.93,0-40.18-.79-9.31-4.47-27.26-6.88-27.38.72-6,4.77-5.1,4.77-5.1a87.72,87.72,0,0,1,7.59,13.93C289.76,377.25,287.32,392.05,286.79,398.77Z" transform="translate(-2.57 -26.51)" fill="url(#linear-gradient-81)"/><path d="M227.24,429.77a3.17,3.17,0,0,0-1.08,1.46,2.27,2.27,0,0,0,.13,1.43,4.12,4.12,0,0,0,2.87,2.23,12.08,12.08,0,0,0,3.75.13l4-.27a11.05,11.05,0,0,0,3-.49,3.69,3.69,0,0,0,2.22-1.92,5.16,5.16,0,0,0,.27-2.11c0-3.31-1.16-6-4.78-5.19A23.83,23.83,0,0,0,227.24,429.77Z" transform="translate(-2.57 -26.51)" fill="#7e86f2"/><path d="M293.66,431.08a2.8,2.8,0,0,1,.95,1.29,2,2,0,0,1-.11,1.25,3.58,3.58,0,0,1-2.52,1.95,10.36,10.36,0,0,1-3.29.12l-3.48-.24a9.62,9.62,0,0,1-2.61-.42,3.22,3.22,0,0,1-1.94-1.69,4.59,4.59,0,0,1-.24-1.85c0-2.9,1-5.29,4.19-4.55A20.81,20.81,0,0,1,293.66,431.08Z" transform="translate(-2.57 -26.51)" fill="#7e86f2"/><path d="M298.49,277.3s15.25,9.2,19.83,20.83-15,39.66-15,39.66l-4.19-4.41s10.22-21.15,8.64-26.44S300,296.72,300,296.72Z" transform="translate(-2.57 -26.51)" fill="#7e86f2"/><path d="M253.65,295.66s-21.68,9.7-30.49,4.94.26-28.67.26-28.67l5.9,2s-4.93,12.19.71,14,22.54-10.08,22.54-10.08Z" transform="translate(-2.57 -26.51)" fill="#7e86f2"/><path d="M294.47,336.68a4.44,4.44,0,0,0-1.43,1.65,4,4,0,0,0-.21,1.75,4.79,4.79,0,0,0,1.66,3.75,5.64,5.64,0,0,0,2.5.74,4.7,4.7,0,0,0,1.63,0,1.65,1.65,0,0,0,1.22-1,4,4,0,0,0,.09-1c.07-1.65,1.23-3,2.19-4.35a1.77,1.77,0,0,0,.43-.93,1.71,1.71,0,0,0-.38-1.05c-.65-.94-2.26-2.67-3.55-2.52S295.47,335.86,294.47,336.68Z" transform="translate(-2.57 -26.51)" fill="#f4ad7d"/><path d="M232.91,268.88a3.41,3.41,0,0,0,.54-1.31,1.16,1.16,0,0,0-.61-1.19c-.69-.27-1.51.44-2.19.14a1.53,1.53,0,0,1-.56-.54,7.56,7.56,0,0,1-1.33-3.94,8,8,0,0,0-.2-2.24,1.59,1.59,0,0,0-1.7-1.17c-.64.15-1,.8-1.4,1.32s-1.2,1.14-1.72,1.79a8.85,8.85,0,0,0-1.47,4.49c-.28,2-.46,4.29.94,5.73,1.08,1.11,4.37,2.42,5.88,1.83C230.76,273.13,232.07,270.32,232.91,268.88Z" transform="translate(-2.57 -26.51)" fill="#f4ad7d"/></svg>